<?xml version="1.0" encoding="UTF-8"?><svg id="a" xmlns="http://www.w3.org/2000/svg" width="200" height="200" viewBox="0 0 200 200"><defs><style>.b{fill:#c5bdba;}.c{fill:#373232;}</style></defs><rect class="b" x="-.5" y=".5" width="200" height="200"/><g><path class="c" d="M24.78,17.36c2.6,0,4.9,.75,6.89,2.24,1.99,1.5,3.57,3.56,4.73,6.2,1.16,2.64,1.74,5.69,1.74,9.15s-.58,6.38-1.74,9.11c-1.16,2.73-2.74,4.88-4.73,6.47-2,1.58-4.29,2.38-6.89,2.38H10.03l.35-.79v24.2c0,.7-.21,1.32-.63,1.85s-.9,.79-1.46,.79c-.65,0-1.16-.26-1.53-.79-.37-.53-.56-1.14-.56-1.85V20c0-.7,.2-1.32,.59-1.85,.39-.53,.89-.79,1.5-.79H24.78Zm0,30.45c1.81,0,3.39-.57,4.73-1.72,1.35-1.14,2.4-2.7,3.17-4.66,.77-1.96,1.15-4.12,1.15-6.47,0-2.46-.38-4.62-1.15-6.47-.77-1.85-1.82-3.3-3.17-4.36-1.35-1.06-2.92-1.58-4.73-1.58H10.03l.35-.7v26.49l-.42-.53h14.83Z"/><path class="c" d="M91.12,48.16c0,4.63-.57,8.87-1.71,12.72-1.14,3.84-2.75,7.19-4.84,10.03-2.09,2.85-4.56,5.05-7.41,6.6-2.85,1.55-5.98,2.33-9.36,2.33s-6.57-.78-9.4-2.33c-2.83-1.55-5.29-3.75-7.38-6.6-2.09-2.85-3.71-6.19-4.87-10.03-1.16-3.84-1.74-8.08-1.74-12.72s.58-8.87,1.74-12.72c1.16-3.84,2.78-7.19,4.87-10.03,2.09-2.85,4.55-5.04,7.38-6.6,2.83-1.55,5.96-2.33,9.4-2.33s6.51,.78,9.36,2.33c2.85,1.56,5.33,3.75,7.41,6.6,2.09,2.85,3.7,6.19,4.84,10.03,1.14,3.84,1.71,8.08,1.71,12.72Zm-4.46,0c0-5.22-.81-9.81-2.44-13.77-1.62-3.96-3.84-7.05-6.65-9.28-2.81-2.23-6.07-3.34-9.78-3.34s-6.93,1.12-9.78,3.34c-2.85,2.23-5.08,5.32-6.68,9.28-1.6,3.96-2.4,8.55-2.4,13.77s.8,9.81,2.4,13.77,3.83,7.06,6.68,9.28c2.85,2.23,6.11,3.34,9.78,3.34s6.97-1.11,9.78-3.34c2.81-2.23,5.02-5.32,6.65-9.28,1.62-3.96,2.44-8.55,2.44-13.77Z"/><path class="c" d="M103.37,78.96c-.7,0-1.27-.26-1.71-.79-.44-.53-.66-1.14-.66-1.85V20c0-.7,.2-1.32,.59-1.85,.39-.53,.89-.79,1.5-.79h18.79c2.65,0,5.01,.72,7.1,2.16,2.09,1.44,3.72,3.42,4.91,5.94,1.18,2.52,1.77,5.4,1.77,8.62,0,2.58-.37,4.94-1.11,7.08-.74,2.14-1.79,3.96-3.13,5.46-1.35,1.5-2.85,2.63-4.52,3.39l-2.44-1.06c1.72,.23,3.32,.95,4.8,2.16,1.48,1.2,2.68,2.85,3.58,4.93,.9,2.08,1.38,4.56,1.43,7.44,.05,2.52,.15,4.49,.31,5.9,.16,1.41,.41,2.46,.73,3.17,.32,.7,.74,1.26,1.25,1.67,.46,.35,.78,.85,.94,1.5,.16,.65,.1,1.26-.17,1.85-.19,.47-.46,.81-.83,1.01-.37,.21-.74,.31-1.11,.31s-.72-.12-1.04-.35c-.7-.47-1.37-1.2-2.02-2.2-.65-1-1.2-2.46-1.64-4.4-.44-1.94-.66-4.63-.66-8.1,0-2.29-.29-4.15-.87-5.59-.58-1.44-1.32-2.57-2.23-3.39-.91-.82-1.9-1.38-2.99-1.67-1.09-.29-2.12-.44-3.1-.44h-16.22l.77-1.32v24.9c0,.7-.19,1.32-.56,1.85-.37,.53-.86,.79-1.46,.79Zm1.25-31.15h17.47c1.58-.18,3.05-.82,4.42-1.94,1.37-1.11,2.49-2.68,3.38-4.71,.88-2.02,1.32-4.36,1.32-7,0-3.34-.89-6.12-2.68-8.32-1.79-2.2-4.12-3.3-7-3.3h-16.64l.49-1.14v27.63l-.77-1.23Z"/><path class="c" d="M144.51,22.38c-.56,0-1.04-.23-1.46-.7-.42-.47-.63-1.06-.63-1.76,0-.76,.21-1.38,.63-1.85,.42-.47,.91-.7,1.46-.7h33.06c.6,0,1.11,.24,1.53,.7,.42,.47,.63,1.09,.63,1.85s-.21,1.36-.63,1.8-.93,.66-1.53,.66h-33.06Zm16.57,56.58c-.65,0-1.18-.26-1.6-.79s-.63-1.14-.63-1.85V20.27h4.39v56.06c0,.7-.21,1.32-.63,1.85-.42,.53-.93,.79-1.53,.79Z"/><path class="c" d="M8.36,184.56c-.65,0-1.17-.26-1.57-.79-.39-.53-.59-1.14-.59-1.85v-56.32c0-.7,.2-1.32,.59-1.85,.39-.53,.89-.79,1.5-.79h25.34c.56,0,1.04,.25,1.46,.75,.42,.5,.63,1.13,.63,1.89,0,.7-.21,1.31-.63,1.8-.42,.5-.91,.75-1.46,.75H10.17l.28-.53v23.41l-.35-.79H30.49c.56,0,1.04,.25,1.46,.75,.42,.5,.63,1.13,.63,1.89,0,.7-.21,1.31-.63,1.8-.42,.5-.9,.75-1.46,.75H9.96l.49-.79v27.28c0,.7-.2,1.32-.59,1.85-.4,.53-.89,.79-1.5,.79Z"/><path class="c" d="M88.41,153.76c0,4.63-.57,8.87-1.71,12.72-1.14,3.84-2.75,7.19-4.84,10.03-2.09,2.85-4.56,5.05-7.41,6.6-2.85,1.55-5.98,2.33-9.36,2.33s-6.57-.78-9.4-2.33c-2.83-1.55-5.29-3.75-7.38-6.6-2.09-2.84-3.71-6.19-4.87-10.03-1.16-3.84-1.74-8.08-1.74-12.72s.58-8.87,1.74-12.72c1.16-3.84,2.78-7.19,4.87-10.03,2.09-2.84,4.55-5.04,7.38-6.6,2.83-1.55,5.96-2.33,9.4-2.33s6.51,.78,9.36,2.33c2.85,1.56,5.33,3.76,7.41,6.6,2.09,2.85,3.7,6.19,4.84,10.03,1.14,3.84,1.71,8.08,1.71,12.72Zm-4.46,0c0-5.22-.81-9.81-2.44-13.77-1.62-3.96-3.84-7.05-6.65-9.28-2.81-2.23-6.07-3.34-9.78-3.34s-6.93,1.12-9.78,3.34c-2.85,2.23-5.08,5.32-6.68,9.28s-2.4,8.55-2.4,13.77,.8,9.81,2.4,13.77,3.83,7.06,6.68,9.28c2.85,2.23,6.11,3.34,9.78,3.34s6.97-1.11,9.78-3.34c2.81-2.23,5.02-5.32,6.65-9.28,1.62-3.96,2.44-8.55,2.44-13.77Z"/><path class="c" d="M125.16,179.37c.6,0,1.11,.25,1.53,.75,.42,.5,.63,1.1,.63,1.8,0,.76-.21,1.39-.63,1.89-.42,.5-.93,.75-1.53,.75h-24.78c-.6,0-1.1-.26-1.5-.79-.39-.53-.59-1.14-.59-1.85v-56.32c0-.7,.21-1.32,.63-1.85,.42-.53,.95-.79,1.6-.79,.56,0,1.06,.26,1.5,.79,.44,.53,.66,1.14,.66,1.85v55.26l-1.32-1.5h23.81Z"/><path class="c" d="M139.71,181.84c-.05,.76-.29,1.41-.73,1.94s-.94,.79-1.5,.79c-.7,0-1.23-.26-1.6-.79-.37-.53-.56-1.17-.56-1.94v-56.14c0-.76,.21-1.41,.63-1.94,.42-.53,.95-.79,1.6-.79,.56,0,1.06,.26,1.5,.79,.44,.53,.66,1.17,.66,1.94v56.14Z"/><path class="c" d="M196.16,153.76c0,4.63-.57,8.87-1.71,12.72-1.14,3.84-2.75,7.19-4.84,10.03-2.09,2.85-4.56,5.05-7.41,6.6-2.85,1.55-5.98,2.33-9.36,2.33s-6.57-.78-9.4-2.33c-2.83-1.55-5.29-3.75-7.38-6.6-2.09-2.84-3.71-6.19-4.87-10.03-1.16-3.84-1.74-8.08-1.74-12.72s.58-8.87,1.74-12.72c1.16-3.84,2.78-7.19,4.87-10.03,2.09-2.84,4.55-5.04,7.38-6.6,2.83-1.55,5.96-2.33,9.4-2.33s6.51,.78,9.36,2.33c2.85,1.56,5.33,3.76,7.41,6.6,2.09,2.85,3.7,6.19,4.84,10.03,1.14,3.84,1.71,8.08,1.71,12.72Zm-4.46,0c0-5.22-.81-9.81-2.44-13.77-1.62-3.96-3.84-7.05-6.65-9.28-2.81-2.23-6.07-3.34-9.78-3.34s-6.93,1.12-9.78,3.34c-2.85,2.23-5.08,5.32-6.68,9.28-1.6,3.96-2.4,8.55-2.4,13.77s.8,9.81,2.4,13.77c1.6,3.96,3.83,7.06,6.68,9.28,2.85,2.23,6.11,3.34,9.78,3.34s6.97-1.11,9.78-3.34c2.81-2.23,5.02-5.32,6.65-9.28,1.62-3.96,2.44-8.55,2.44-13.77Z"/></g></svg>