<?xml version="1.0" encoding="UTF-8"?><svg id="a" xmlns="http://www.w3.org/2000/svg" width="300" height="300" viewBox="0 0 300 300"><defs><style>.b{fill:#f2ede8;}.c{fill:#776b64;}</style></defs><rect class="b" width="300" height="300"/><g><path class="c" d="M160.5,53.1c.34,0,.71,.1,1.11,.31,.4,.21,.71,.49,.94,.86l15.04,24.55-2.04-.06,15.21-24.49c.53-.78,1.17-1.17,1.93-1.17,.6,.04,1.14,.3,1.62,.77,.47,.47,.71,1.05,.71,1.75v37.99c0,.7-.23,1.29-.68,1.78s-1.02,.74-1.7,.74c-.72,0-1.3-.25-1.73-.74-.44-.49-.65-1.08-.65-1.78V60.35l1.42,.25-13.39,22.03c-.23,.33-.5,.59-.82,.8-.32,.21-.67,.29-1.05,.25-.34,.04-.68-.04-1.02-.25-.34-.2-.61-.47-.79-.8l-13.22-21.97,1.19-1.66v34.62c0,.7-.21,1.29-.62,1.78-.42,.49-.95,.74-1.59,.74s-1.17-.25-1.59-.74-.62-1.08-.62-1.78V55.62c0-.65,.23-1.24,.68-1.75,.45-.51,1.02-.77,1.7-.77Z"/><path class="c" d="M209.65,93.61c0,.7-.24,1.29-.71,1.78s-1.03,.74-1.67,.74c-.72,0-1.3-.25-1.73-.74s-.65-1.08-.65-1.78V55.68c0-.7,.23-1.29,.68-1.78,.45-.49,1.04-.74,1.76-.74,.64,0,1.19,.25,1.65,.74,.45,.49,.68,1.08,.68,1.78v37.93Z"/><path class="c" d="M233.38,59.55l-13.34,35.11c-.15,.49-.42,.89-.79,1.2s-.78,.46-1.19,.46c-.72,0-1.25-.21-1.59-.64-.34-.43-.53-.93-.57-1.5,0-.29,.04-.59,.11-.92l14.7-38.61c.23-.57,.54-1,.94-1.29,.4-.29,.84-.41,1.33-.37,.49,0,.94,.14,1.33,.43,.4,.29,.67,.7,.82,1.23l14.64,38.24c.11,.33,.17,.66,.17,.98,0,.74-.23,1.33-.68,1.78-.45,.45-.96,.68-1.53,.68-.49,0-.93-.15-1.31-.46-.38-.31-.66-.73-.85-1.26l-13.51-35.11,1.3,.06Zm-10.5,25.1l1.93-4.79h16.86l.85,4.79h-19.64Z"/><path class="c" d="M95.35,126.82c3.37,0,5.95,.93,7.75,2.79,1.8,1.86,2.7,4.49,2.7,7.89,0,1.8-.38,3.46-1.14,4.97s-1.86,2.72-3.32,3.62c-1.46,.9-3.26,1.39-5.42,1.47l-.06-1.72c1.32,0,2.69,.21,4.09,.61,1.4,.41,2.69,1.06,3.86,1.96,1.17,.9,2.14,2.09,2.89,3.56,.76,1.47,1.14,3.29,1.14,5.46,0,2.33-.36,4.3-1.08,5.89-.72,1.6-1.67,2.86-2.87,3.8-1.19,.94-2.52,1.62-3.97,2.03-1.46,.41-2.94,.61-4.46,.61h-14.87c-.64,0-1.19-.25-1.65-.74-.45-.49-.68-1.08-.68-1.78v-37.93c0-.7,.23-1.29,.68-1.78,.45-.49,1-.74,1.65-.74h14.76Zm-.62,4.85h-12.2l.68-1.04v15.22l-.62-.8h12.2c1.66,0,3.09-.58,4.29-1.75,1.19-1.17,1.79-2.87,1.79-5.12,0-2.09-.54-3.69-1.62-4.82s-2.58-1.69-4.51-1.69Zm.4,18.29h-12.32l.4-.43v16.02l-.45-.55h12.6c2.19,0,4-.61,5.42-1.84s2.13-3.13,2.13-5.71c0-2-.38-3.54-1.14-4.6-.76-1.06-1.73-1.81-2.92-2.24-1.19-.43-2.43-.64-3.72-.64Z"/><path class="c" d="M151.2,148.3c0,3.15-.47,6.07-1.42,8.75-.95,2.68-2.28,5.02-4,7.03-1.72,2-3.75,3.56-6.07,4.67-2.33,1.1-4.89,1.66-7.69,1.66s-5.31-.55-7.63-1.66c-2.33-1.11-4.35-2.66-6.07-4.67-1.72-2-3.05-4.35-3.97-7.03-.93-2.68-1.39-5.6-1.39-8.75s.46-6.07,1.39-8.75c.93-2.68,2.25-5.02,3.97-7.03,1.72-2,3.75-3.56,6.07-4.67,2.33-1.1,4.87-1.66,7.63-1.66s5.36,.55,7.69,1.66c2.33,1.11,4.35,2.66,6.07,4.67,1.72,2.01,3.05,4.35,4,7.03,.95,2.68,1.42,5.6,1.42,8.75Zm-4.94,0c0-3.31-.61-6.27-1.82-8.87-1.21-2.6-2.89-4.63-5.02-6.11-2.14-1.47-4.61-2.21-7.41-2.21s-5.21,.74-7.35,2.21c-2.14,1.47-3.81,3.5-5.02,6.08-1.21,2.58-1.82,5.54-1.82,8.9s.61,6.27,1.82,8.87c1.21,2.6,2.88,4.63,5.02,6.11s4.59,2.21,7.35,2.21,5.27-.74,7.41-2.21c2.14-1.47,3.81-3.51,5.02-6.11,1.21-2.6,1.82-5.55,1.82-8.87Z"/><path class="c" d="M170.27,170.39c-2.8,0-5.26-.45-7.38-1.35-2.12-.9-4.16-2.33-6.13-4.3-.26-.25-.48-.55-.65-.92-.17-.37-.26-.76-.26-1.17,0-.65,.22-1.24,.65-1.75,.43-.51,.97-.77,1.62-.77,.53,0,1,.22,1.42,.67,1.48,1.56,3.07,2.74,4.8,3.56,1.72,.82,3.66,1.23,5.82,1.23,1.66,0,3.16-.29,4.48-.86,1.32-.57,2.38-1.37,3.18-2.39,.79-1.02,1.19-2.21,1.19-3.56,0-1.64-.43-2.99-1.28-4.05-.85-1.06-2.02-1.94-3.52-2.64-1.5-.7-3.23-1.31-5.19-1.84-1.74-.45-3.34-.99-4.79-1.63-1.46-.63-2.72-1.43-3.8-2.39-1.08-.96-1.91-2.13-2.5-3.5-.59-1.37-.88-3-.88-4.88,0-2.33,.57-4.37,1.7-6.11,1.14-1.74,2.71-3.1,4.74-4.08,2.02-.98,4.34-1.47,6.95-1.47,2.31,0,4.49,.41,6.56,1.23,2.06,.82,3.72,1.94,4.97,3.38,.76,.78,1.13,1.56,1.13,2.33,0,.57-.24,1.12-.71,1.63-.47,.51-1.01,.77-1.62,.77-.42,0-.79-.14-1.14-.43-.64-.78-1.47-1.47-2.47-2.09-1-.61-2.08-1.1-3.24-1.47-1.15-.37-2.32-.55-3.49-.55-1.74,0-3.27,.28-4.6,.83-1.33,.55-2.36,1.32-3.09,2.3-.74,.98-1.11,2.17-1.11,3.56,0,1.56,.42,2.83,1.25,3.84,.83,1,1.95,1.82,3.35,2.46,1.4,.63,2.95,1.2,4.65,1.69,1.85,.49,3.57,1.05,5.14,1.69,1.57,.63,2.92,1.42,4.06,2.36,1.13,.94,2.01,2.14,2.64,3.59,.62,1.45,.94,3.24,.94,5.37,0,2.25-.59,4.26-1.76,6.01-1.17,1.76-2.77,3.15-4.8,4.17-2.02,1.02-4.3,1.53-6.84,1.53Z"/><path class="c" d="M202.84,170.39c-2.8,0-5.26-.45-7.38-1.35-2.12-.9-4.16-2.33-6.13-4.3-.26-.25-.48-.55-.65-.92-.17-.37-.26-.76-.26-1.17,0-.65,.22-1.24,.65-1.75,.43-.51,.97-.77,1.62-.77,.53,0,1,.22,1.42,.67,1.48,1.56,3.07,2.74,4.8,3.56,1.72,.82,3.66,1.23,5.82,1.23,1.66,0,3.16-.29,4.48-.86,1.32-.57,2.38-1.37,3.18-2.39,.79-1.02,1.19-2.21,1.19-3.56,0-1.64-.43-2.99-1.28-4.05-.85-1.06-2.02-1.94-3.52-2.64-1.5-.7-3.23-1.31-5.19-1.84-1.74-.45-3.34-.99-4.79-1.63-1.46-.63-2.72-1.43-3.8-2.39-1.08-.96-1.91-2.13-2.5-3.5-.59-1.37-.88-3-.88-4.88,0-2.33,.57-4.37,1.7-6.11,1.14-1.74,2.71-3.1,4.74-4.08,2.02-.98,4.34-1.47,6.95-1.47,2.31,0,4.49,.41,6.56,1.23,2.06,.82,3.72,1.94,4.97,3.38,.76,.78,1.13,1.56,1.13,2.33,0,.57-.24,1.12-.71,1.63-.47,.51-1.01,.77-1.62,.77-.42,0-.79-.14-1.14-.43-.64-.78-1.47-1.47-2.47-2.09-1-.61-2.08-1.1-3.24-1.47-1.15-.37-2.32-.55-3.49-.55-1.74,0-3.27,.28-4.6,.83-1.33,.55-2.36,1.32-3.09,2.3-.74,.98-1.11,2.17-1.11,3.56,0,1.56,.42,2.83,1.25,3.84,.83,1,1.95,1.82,3.35,2.46,1.4,.63,2.95,1.2,4.65,1.69,1.85,.49,3.57,1.05,5.14,1.69,1.57,.63,2.92,1.42,4.06,2.36,1.13,.94,2.01,2.14,2.64,3.59,.62,1.45,.94,3.24,.94,5.37,0,2.25-.59,4.26-1.76,6.01-1.17,1.76-2.77,3.15-4.8,4.17-2.02,1.02-4.3,1.53-6.84,1.53Z"/><path class="c" d="M226.11,126.82h20.2c.64,0,1.19,.24,1.65,.71,.45,.47,.68,1.05,.68,1.75s-.23,1.26-.68,1.69-1,.64-1.65,.64h-18.27l.51-1.04v15.47l-.57-.67h15.78c.64,0,1.19,.22,1.65,.67,.45,.45,.68,1.04,.68,1.78,0,.7-.23,1.26-.68,1.69-.45,.43-1,.64-1.65,.64h-15.61l.4-.61v15.9l-.34-.43h18.1c.64,0,1.19,.25,1.65,.74s.68,1.04,.68,1.66c0,.7-.23,1.27-.68,1.72s-1,.67-1.65,.67h-20.2c-.64,0-1.19-.25-1.65-.74-.45-.49-.68-1.08-.68-1.78v-37.93c0-.7,.23-1.29,.68-1.78,.45-.49,1-.74,1.65-.74Z"/><path class="c" d="M67.71,243.43c-.72,0-1.3-.25-1.73-.74s-.65-1.08-.65-1.78v-37.93c0-.7,.23-1.29,.68-1.78,.45-.49,1-.74,1.65-.74h19.92c.64,0,1.19,.24,1.65,.71,.45,.47,.68,1.05,.68,1.75,0,.61-.23,1.16-.68,1.63s-1,.71-1.65,.71h-17.88l.34-.49v14.98l-.28-.67h15.27c.64,0,1.19,.24,1.65,.71,.45,.47,.68,1.05,.68,1.75,0,.65-.23,1.21-.68,1.66s-1,.67-1.65,.67h-15.38l.4-.49v17.55c0,.7-.23,1.29-.68,1.78s-1,.74-1.65,.74Z"/><path class="c" d="M102.1,240.92c0,.7-.24,1.29-.71,1.78s-1.03,.74-1.67,.74c-.72,0-1.3-.25-1.73-.74s-.65-1.08-.65-1.78v-37.93c0-.7,.23-1.29,.68-1.78,.45-.49,1.04-.74,1.76-.74,.64,0,1.19,.25,1.65,.74,.45,.49,.68,1.08,.68,1.78v37.93Z"/><path class="c" d="M123.67,244.05c-2.8,0-5.26-.45-7.38-1.35-2.12-.9-4.16-2.33-6.13-4.3-.26-.25-.48-.55-.65-.92-.17-.37-.26-.76-.26-1.17,0-.65,.22-1.24,.65-1.75,.43-.51,.97-.77,1.62-.77,.53,0,1,.22,1.42,.67,1.48,1.56,3.07,2.74,4.8,3.56,1.72,.82,3.66,1.23,5.82,1.23,1.66,0,3.16-.29,4.48-.86,1.32-.57,2.38-1.37,3.18-2.39,.79-1.02,1.19-2.21,1.19-3.56,0-1.64-.43-2.99-1.28-4.05-.85-1.06-2.02-1.94-3.52-2.64-1.5-.7-3.23-1.31-5.19-1.84-1.74-.45-3.34-.99-4.79-1.63-1.46-.63-2.72-1.43-3.8-2.39-1.08-.96-1.91-2.13-2.5-3.5-.59-1.37-.88-3-.88-4.88,0-2.33,.57-4.37,1.7-6.11,1.14-1.74,2.71-3.1,4.74-4.08,2.02-.98,4.34-1.47,6.95-1.47,2.31,0,4.49,.41,6.56,1.23,2.06,.82,3.72,1.94,4.97,3.38,.76,.78,1.13,1.56,1.13,2.33,0,.57-.24,1.12-.71,1.63-.47,.51-1.01,.77-1.62,.77-.42,0-.79-.14-1.14-.43-.64-.78-1.47-1.47-2.47-2.09-1-.61-2.08-1.1-3.24-1.47-1.15-.37-2.32-.55-3.49-.55-1.74,0-3.27,.28-4.6,.83-1.33,.55-2.36,1.32-3.09,2.3-.74,.98-1.11,2.17-1.11,3.56,0,1.56,.42,2.83,1.25,3.84,.83,1,1.95,1.82,3.35,2.46,1.4,.63,2.95,1.2,4.65,1.69,1.85,.49,3.57,1.05,5.14,1.69,1.57,.63,2.92,1.42,4.06,2.36,1.13,.94,2.01,2.14,2.64,3.59,.62,1.45,.94,3.24,.94,5.37,0,2.25-.59,4.26-1.76,6.01-1.17,1.76-2.77,3.15-4.8,4.17-2.02,1.02-4.3,1.53-6.84,1.53Z"/><path class="c" d="M147.05,200.47c.64,0,1.19,.25,1.65,.74,.45,.49,.68,1.08,.68,1.78v37.93c0,.7-.24,1.29-.71,1.78s-1.03,.74-1.67,.74c-.72,0-1.3-.25-1.73-.74s-.65-1.08-.65-1.78v-37.93c0-.7,.23-1.29,.68-1.78,.45-.49,1.04-.74,1.76-.74Zm-.23,18.72h26.39l-.06,4.79h-26.5l.17-4.79Zm26.33-18.72c.72,0,1.29,.25,1.73,.74,.43,.49,.65,1.08,.65,1.78v37.93c0,.7-.23,1.29-.68,1.78s-1.04,.74-1.76,.74c-.64,0-1.19-.25-1.65-.74s-.68-1.08-.68-1.78v-37.93c0-.7,.24-1.29,.71-1.78,.47-.49,1.03-.74,1.67-.74Z"/><path class="c" d="M187.75,200.47h20.2c.64,0,1.19,.24,1.65,.71,.45,.47,.68,1.05,.68,1.75s-.23,1.26-.68,1.69-1,.64-1.65,.64h-18.27l.51-1.04v15.47l-.57-.67h15.78c.64,0,1.19,.22,1.65,.67,.45,.45,.68,1.04,.68,1.78,0,.7-.23,1.26-.68,1.69-.45,.43-1,.64-1.65,.64h-15.61l.4-.61v15.9l-.34-.43h18.1c.64,0,1.19,.25,1.65,.74s.68,1.04,.68,1.66c0,.7-.23,1.27-.68,1.72s-1,.67-1.65,.67h-20.2c-.64,0-1.19-.25-1.65-.74-.45-.49-.68-1.08-.68-1.78v-37.93c0-.7,.23-1.29,.68-1.78,.45-.49,1-.74,1.65-.74Z"/><path class="c" d="M220.44,243.43c-.72,0-1.34-.25-1.87-.74-.53-.49-.79-1.08-.79-1.78v-37.93c0-.7,.23-1.29,.68-1.78,.45-.49,1-.74,1.65-.74h15.66c2.12,0,4.03,.52,5.73,1.57,1.7,1.04,3.05,2.49,4.06,4.33,1,1.84,1.5,3.93,1.5,6.26,0,1.72-.3,3.33-.91,4.82-.61,1.49-1.44,2.79-2.5,3.9-1.06,1.1-2.27,1.92-3.63,2.46l-1.25-.92c1.29,.29,2.44,.85,3.46,1.69s1.85,1.9,2.5,3.19,.98,2.79,1.02,4.51c.08,1.51,.17,2.72,.28,3.62,.11,.9,.28,1.61,.51,2.12,.23,.51,.55,.91,.96,1.2,.53,.37,.88,.86,1.05,1.47,.17,.61,.07,1.21-.31,1.78-.23,.41-.55,.69-.96,.83-.42,.14-.83,.18-1.25,.12-.42-.06-.79-.19-1.13-.4-.57-.37-1.15-.91-1.73-1.63-.59-.72-1.06-1.75-1.42-3.1-.36-1.35-.54-3.19-.54-5.52,0-1.27-.2-2.34-.6-3.22-.4-.88-.91-1.57-1.53-2.09s-1.33-.88-2.13-1.11c-.79-.22-1.61-.34-2.44-.34h-12.66l.68-1.04v15.96c0,.7-.19,1.29-.57,1.78-.38,.49-.89,.74-1.53,.74Zm1.42-21.85h13.9c1.1-.08,2.13-.49,3.09-1.23,.96-.74,1.75-1.76,2.36-3.07,.6-1.31,.91-2.82,.91-4.54,0-2.13-.63-3.91-1.9-5.34-1.27-1.43-2.85-2.15-4.74-2.15h-13.39l.45-1.23v18.66l-.68-1.11Z"/></g></svg>