<svg id="Layer_1" data-name="Layer 1" xmlns="http://www.w3.org/2000/svg" xmlns:xlink="http://www.w3.org/1999/xlink" width="1200" height="1000" viewBox="0 0 1200 1000"><defs><style>.cls-1{filter:url(#filter);}.cls-2,.cls-5,.cls-8{fill:#fff;}.cls-2,.cls-8{stroke:#000;stroke-miterlimit:10;}.cls-3{fill:#ed7b33;}.cls-4{fill:#5b9c1a;}.cls-6{font-size:83.04px;}.cls-6,.cls-8{font-family:PostinoStd, Postino Std;}.cls-7{letter-spacing:-0.03em;}.cls-8{font-size:144.14px;}.cls-9{letter-spacing:-0.02em;}.cls-10{letter-spacing:0em;}.cls-11{font-size:151.27px;fill:#b22f34;font-family:PacFont;}.cls-12{fill:#000;}.cls-13{fill:#ee7c33;}.cls-14{fill:#478c3f;}</style><filter id="filter"><feOffset input="SourceAlpha"/><feGaussianBlur stdDeviation="5" result="blur"/><feFlood/><feComposite operator="in" in2="blur"/><feComposite in="SourceGraphic"/></filter></defs><g class="cls-1"><text/><path class="cls-2" d="M831.33,319.86c-57.31,72,319,217-230,268-190.82,17.73-358-115.3-358-278.5s155.36-259.5,347-259.5S1000.37,107.48,831.33,319.86Z"/><path class="cls-3" d="M889.33,622.36c9.92,106.83-145.9,281.39-262,161.5-69.24-71.5-248.44,9-261-161.5-7.37-100,117.08-181.5,261.5-181.5S880.06,522.55,889.33,622.36Z"/><ellipse class="cls-2" cx="733.83" cy="832.86" rx="128.5" ry="123"/><ellipse class="cls-4" cx="734.83" cy="832.86" rx="119.5" ry="113"/><polygon class="cls-5" points="719.66 875.13 719.78 841.14 719.91 807.14 751.31 824.25 782.71 841.36 751.18 858.25 719.66 875.13"/><text class="cls-6" transform="translate(400 188.41) scale(0.87 1)"><tspan class="cls-7">F</tspan><tspan x="74.07" y="0">eed</tspan></text><text class="cls-8" transform="translate(454.31 628.79) scale(0.85 1)">Pl<tspan class="cls-9" x="204.97" y="0">a</tspan><tspan class="cls-10" x="314.81" y="0">y</tspan></text><text class="cls-11" transform="translate(312 353.31) scale(0.94 1)">e<tspan class="cls-12" x="150.21" y="0">r</tspan><tspan class="cls-13" x="297.09" y="0">i</tspan><tspan class="cls-14" x="366.37" y="0">c</tspan></text></g></svg>