<svg xmlns="http://www.w3.org/2000/svg" width="256" height="256" viewBox="0 0 100 100"><rect width="100" height="100" rx="20" fill="#9b9b9b"></rect><path fill="#fc03c2" d="M38.79 28.20L54.56 28.20L51.86 71.21L38.50 71.80L38.62 49.12L32.58 67.40L27.43 67.40L22.80 51.05L22.74 70.04L9.20 70.45L9.79 29.96L24.85 29.38L30.83 48.77L38.79 28.20ZM90.80 60.49L90.80 60.49Q90.80 62.92 89.90 64.68Q89.01 66.44 87.51 67.67Q86.02 68.90 84.07 69.67Q82.12 70.45 80.01 70.89Q77.91 71.33 75.78 71.47Q73.66 71.62 71.81 71.62L71.81 71.62Q70.00 71.62 68.05 71.49Q66.10 71.36 64.17 71.04Q62.23 70.71 60.36 70.17Q58.48 69.63 56.81 68.81L56.81 68.81L56.75 31.07Q58.39 30.40 60.24 29.86Q62.08 29.32 64.00 28.95Q65.92 28.58 67.83 28.39Q69.73 28.20 71.52 28.20L71.52 28.20Q73.60 28.20 75.72 28.47Q77.85 28.73 79.81 29.35Q81.77 29.96 83.47 30.94Q85.17 31.92 86.45 33.36Q87.72 34.79 88.44 36.70Q89.16 38.60 89.16 41.09L89.16 41.09Q89.16 42.73 88.69 44.17Q88.22 45.61 87.34 46.75Q86.46 47.89 85.20 48.70Q83.94 49.50 82.36 49.88L82.36 49.88Q84.26 50.38 85.83 51.35Q87.40 52.31 88.50 53.69Q89.59 55.07 90.20 56.80Q90.80 58.53 90.80 60.49ZM75.91 43.79L75.91 43.79Q75.91 42.94 75.56 42.34Q75.21 41.74 74.70 41.36Q74.18 40.98 73.58 40.80Q72.98 40.63 72.51 40.63L72.51 40.63Q71.93 40.63 71.37 40.80Q70.82 40.98 70.29 41.21L70.29 41.21L70.11 47.71Q70.79 47.71 71.78 47.60Q72.78 47.48 73.70 47.08Q74.62 46.69 75.27 45.91Q75.91 45.14 75.91 43.79ZM71.75 53.34L71.75 53.34Q70.90 53.34 70.11 53.52L70.11 53.52L70.00 60.20Q70.43 60.28 70.86 60.36Q71.28 60.43 71.69 60.43L71.69 60.43Q72.31 60.43 73.04 60.30Q73.77 60.17 74.42 59.77Q75.06 59.38 75.49 58.70Q75.91 58.03 75.91 56.91L75.91 56.91Q75.91 55.80 75.49 55.10Q75.06 54.39 74.45 54.00Q73.83 53.60 73.10 53.47Q72.37 53.34 71.75 53.34Z"></path></svg>