<?xml version="1.0" encoding="UTF-8"?><svg id="a" xmlns="http://www.w3.org/2000/svg" width="1600" height="900" xmlns:xlink="http://www.w3.org/1999/xlink" viewBox="0 0 1600 900"><defs><style>.v{fill:url(#e);}.w{fill:url(#d);}.x{fill:url(#i);}.y{fill:url(#h);}.a`{fill:url(#m);}.aa{fill:url(#l);}.ab,.ac,.ad,.ae,.af,.ag,.ah,.ai,.aj,.ak,.al,.am,.an{stroke-miterlimit:10;}.ab,.ac,.ad,.af,.ag,.ah,.ai,.aj,.al,.am,.an{stroke:#000;}.ab,.ad{fill-rule:evenodd;}.ab,.an{fill:none;}.ao,.ag{fill:#ed7b33;}.ap{fill:#fff;}.aq{fill:#ffddf1;}.ar{fill:#e84033;}.as{fill:#ff7baa;}.at{fill:#ff93aa;}.au,.af{fill:#744500;}.av{fill:#6a9b52;}.aw,.aj{fill:#42210b;}.ax{fill:#5b483d;}.ay,.ai{fill:#2a1700;}.b`,.al{fill:#569218;}.ba,.am{fill:#5f3300;}.bb{filter:url(#j);}.bb,.bc,.bd{fill:#ffddfc;}.bc{filter:url(#f);}.bd{filter:url(#b);}.be{filter:url(#p);}.bf{filter:url(#q);}.bg{filter:url(#r);}.bh{filter:url(#s);}.bi{filter:url(#n);}.bj{filter:url(#o);}.bk{filter:url(#t);}.bl{filter:url(#u);}.ad,.ak{fill:#603813;}.ae{fill:#f0d6a5;stroke:#bf9b71;}.ah{fill:#b47143;}.ak{stroke:#42210b;}</style><filter id="b" filterUnits="userSpaceOnUse"><feOffset dx="0" dy="0"/><feGaussianBlur result="c" stdDeviation="5"/><feFlood flood-color="#000" flood-opacity=".75"/><feComposite in2="c" operator="in"/><feComposite in="SourceGraphic"/></filter><linearGradient id="d" x1="-8296.15" y1="623.4" x2="-8255.37" y2="623.4" gradientTransform="translate(-7844.29) rotate(-180) scale(1 -1)" gradientUnits="userSpaceOnUse"><stop offset="0" stop-color="#cadef2"/><stop offset=".06" stop-color="#c0daf0"/><stop offset=".17" stop-color="#a7d0ec"/><stop offset=".31" stop-color="#7dbfe5"/><stop offset=".47" stop-color="#44a9db"/><stop offset=".57" stop-color="#1e9ad5"/><stop offset=".87" stop-color="#0075bc"/><stop offset=".99" stop-color="#005b95"/></linearGradient><linearGradient id="e" x1="490.44" y1="621.42" x2="531.21" y2="621.42" gradientTransform="matrix(1, 0, 0, 1, 0, 0)" xlink:href="#d"/><filter id="f" filterUnits="userSpaceOnUse"><feOffset dx="0" dy="0"/><feGaussianBlur result="g" stdDeviation="5"/><feFlood flood-color="#000" flood-opacity=".75"/><feComposite in2="g" operator="in"/><feComposite in="SourceGraphic"/></filter><linearGradient id="h" x1="-8615.07" y1="571.34" x2="-8576.24" y2="571.34" gradientTransform="translate(-7839.82 -32.5) rotate(-179.49) scale(1 -1)" xlink:href="#d"/><linearGradient id="i" x1="805.04" y1="571.45" x2="843.86" y2="571.45" gradientTransform="translate(4.17 36.68) rotate(.51)" xlink:href="#d"/><filter id="j" filterUnits="userSpaceOnUse"><feOffset dx="0" dy="0"/><feGaussianBlur result="k" stdDeviation="5"/><feFlood flood-color="#000" flood-opacity=".75"/><feComposite in2="k" operator="in"/><feComposite in="SourceGraphic"/></filter><linearGradient id="l" x1="1095.13" y1="614.13" x2="1135.42" y2="614.13" gradientTransform="matrix(1, 0, 0, 1, 0, 0)" xlink:href="#d"/><linearGradient id="m" x1="-9456.94" y1="613.6" x2="-9416.66" y2="613.6" gradientTransform="translate(-8388.05) rotate(-180) scale(1 -1)" xlink:href="#d"/><filter id="n"><feGaussianBlur in="SourceAlpha" result="blur" stdDeviation="2"/><feOffset dx="4" dy="4" in="blur" result="offsetBlurredAlpha"/><feMerge><feMergeNode in="offsetBlurredAlpha"/><feMergeNode in="SourceGraphic"/></feMerge></filter><filter id="o"><feGaussianBlur in="SourceAlpha" result="blur" stdDeviation="2"/><feOffset dx="4" dy="4" in="blur" result="offsetBlurredAlpha"/><feMerge><feMergeNode in="offsetBlurredAlpha"/><feMergeNode in="SourceGraphic"/></feMerge></filter><filter id="p"><feGaussianBlur in="SourceAlpha" result="blur" stdDeviation="2"/><feOffset dx="4" dy="4" in="blur" result="offsetBlurredAlpha"/><feMerge><feMergeNode in="offsetBlurredAlpha"/><feMergeNode in="SourceGraphic"/></feMerge></filter><filter id="q"><feGaussianBlur in="SourceAlpha" result="blur" stdDeviation="2"/><feOffset dx="4" dy="4" in="blur" result="offsetBlurredAlpha"/><feMerge><feMergeNode in="offsetBlurredAlpha"/><feMergeNode in="SourceGraphic"/></feMerge></filter><filter id="r"><feGaussianBlur in="SourceAlpha" result="blur" stdDeviation="2"/><feOffset dx="4" dy="4" in="blur" result="offsetBlurredAlpha"/><feMerge><feMergeNode in="offsetBlurredAlpha"/><feMergeNode in="SourceGraphic"/></feMerge></filter><filter id="s"><feGaussianBlur in="SourceAlpha" result="blur" stdDeviation="2"/><feOffset dx="4" dy="4" in="blur" result="offsetBlurredAlpha"/><feMerge><feMergeNode in="offsetBlurredAlpha"/><feMergeNode in="SourceGraphic"/></feMerge></filter><filter id="t"><feGaussianBlur in="SourceAlpha" result="blur" stdDeviation="2"/><feOffset dx="4" dy="4" in="blur" result="offsetBlurredAlpha"/><feMerge><feMergeNode in="offsetBlurredAlpha"/><feMergeNode in="SourceGraphic"/></feMerge></filter><filter id="u"><feGaussianBlur in="SourceAlpha" result="blur" stdDeviation="2"/><feOffset dx="4" dy="4" in="blur" result="offsetBlurredAlpha"/><feMerge><feMergeNode in="offsetBlurredAlpha"/><feMergeNode in="SourceGraphic"/></feMerge></filter></defs><path class="av" d="M823.5,674.5c-1.29-4.78-1.27-5.9-1-6,.58-.22,2.24,4.21,4,4,1.6-.19,2.09-4.1,3-4,.99,.1,.87,4.82,2,5,1.22,.2,2.46-5.1,4-5,.9,.06,1.54,1.93,2,4"/><rect class="ae" x="-21.48" y="-17.48" width="1650" height="942"/><path class="av" d="M789,689c-.51-6.97,.19-8.77,1-9,1.8-.51,4.7,6.59,7,6,1.91-.49,1.63-5.84,3-6,.94-.11,2.05,2.29,3,5"/><path class="ba" d="M518.8,766.35c8.83,15.73-5.44,9.74-20.08,9.74s-27.31-10.84-27.31-14.98,8.03,4.49,22.49,1.5c14.29-2.96,22.84,.08,24.9,3.75Z"/><path class="af" d="M558.34,583.91c0,14.12-10.28,25.56-22.95,25.56s-7.03-24.53-22.95-25.56c-28.62-1.84,1.79-17.66,22.95-25.56,23.75-8.87,22.95,11.44,22.95,25.56Z"/><path class="bd" d="M545.29,584.97c0,6.03-4.62,10.91-10.32,10.91s-10.32-4.88-10.32-10.91,4.75-9.83,10.32-10.91c13.22-2.56,10.32,4.88,10.32,10.91Z"/><path class="af" d="M434.31,586.4c-17.89,7.12-17.79,22.93-29.81,22.93s-12.44-12.36-13.71-22.93c-2.38-19.76,2.68-35.05,20.27-28.72,11.13,4,34.21,24.36,23.25,28.72Z"/><path class="aq" d="M420.53,583.75c0,6.34-4.87,11.48-10.89,11.48s-10.89-5.14-10.89-11.48,0-14.15,10.89-11.48c5.79,1.42,10.89,5.14,10.89,11.48Z"/><path class="au" d="M584.21,704s3.7,3.69-2.38,12.07c-6.08,8.37-11.15,6.56-11.15,6.56,5.52,3.48,13.03,2.13,16.77-3.01,3.74-5.14,2.29-12.13-3.24-15.61Z"/><path class="af" d="M577.35,745.27c1.08-3.7,1.69-8.57,3.54-14.06,4.77-14.14,0-28.85-13.94-21.28-6.65,3.61-11.81,9.7-13.94,21.28-1.24,6.73,.62,12.19,3.79,15.9-2.83,2.03-4.56,5.01-4.56,8.98,0,6.77,1.55,12.26,16.85,12.26,16.85,0,18.4-5.49,18.4-12.26,0-4.69-4.36-8.76-10.13-10.82Z"/><path class="au" d="M527.6,670.35c10.5-11.21,16.8-25.49,16.8-41.05,0-31.1-25.16-57.11-58.85-63.68,.24-1.64,.79-3.82,2.1-6.13,3.08-5.44,8.25-7.86,10.24-8.67-3.16-.13-10.96-.04-18.37,4.71-3.13,2-5.32,4.28-6.78,6.11-.97-4.71-2.64-10.56-5.62-16.93-2.48-5.3-5.27-9.7-7.82-13.19,.15,4.95,0,10.6-.7,16.79-.67,5.86-1.72,11.13-2.89,15.73-2.68-1.59-7.69-4.09-14.54-4.91-5.76-.7-10.5,.07-13.41,.76,1.43,.11,6.62,.67,10.31,4.65,1.37,1.48,2.14,3.01,2.58,4.19-28.31,8.95-47.32,33.51-47.32,60.57,0,25.22,16.54,47.09,40.76,57.96-10.04,8.05-15.97,18-15.97,28.78,0,26.79,36.68,48.51,81.92,48.51s81.92-21.72,81.92-48.51c0-21.07-22.68-39-54.37-45.69Z"/><path class="ap" d="M500.46,724.06c2.85,16.37-10.08,38.03-18.2,38.03s-4.49-23.26-12.01-38.38c-16.17-32.54-9.3-15.7,9.68-18.49,8.02-1.18,17.43,1.05,20.53,18.84Z"/><path class="ab" d="M485.06,592.57c-1.57-.12-3.76-.48-6.09-1.58-5.56-2.61-7.76-7.44-8.36-8.91"/><path class="af" d="M458.56,594.82c1.91-.89,4.67-2.42,7.11-4.83,3.82-3.78,4.69-7.59,4.93-9.4"/><path class="af" d="M470.88,592.95c.43,3.25,.73,6.87,.77,10.82,.04,3.38-.12,6.52-.39,9.38"/><g><path class="af" d="M420.81,703.43c-1.04,2.06-2.36,5.13-3.21,8.99-4.17,18.86,7.89,33.85,9.64,35.95,3.84,4.62,8.1,9.75,15.79,11.29,.98,.2,9.52,1.78,16.34-2.89,7.79-5.33,10.49-16.88,5.42-27.77"/><path class="af" d="M449.69,759.66c-11.33-6.18-22.97-4.36-27.11,1.44-3.12,4.38-2.11,11.21,1.55,15.15,7.65,8.23,28.78,6.01,39.51-4.33,10.33-9.96,11.36-27.78,1.16-42.92"/></g><g><path class="af" d="M536.47,718.41c10.17,16.37,11.54,31.91,4.82,37.45-2.95,2.43-8.11,3.47-8.34,3.52-6.02,1.17-12.25-.2-16.34-2.89-7.75-5.09-10.65-16.79-5.42-27.77"/><path class="af" d="M526.28,759.38c11.33-6.18,22.97-4.36,27.11,1.44,3.12,4.38,2.11,11.21-1.55,15.15-7.65,8.23-28.78,6.01-39.51-4.33-10.33-9.96-11.36-27.78-1.16-42.92"/></g><path class="am" d="M569.77,745.96c.76-.38,2.1-.93,3.87-1.08,1.69-.15,3.06,.13,3.87,.36"/><g><g><path class="ap" d="M447.18,639.98c-1.64,0-3.53-.03-5.7-.06-2.99-.04-6.38-.09-10.43-.09-15.89,0-25.74-3.14-25.74-18.8,0-10.37,11.54-18.8,25.74-18.8s25.74,8.43,25.74,18.8c0,3.74,.18,6.79,.32,9.23,.26,4.47,.4,6.93-.79,8.19-1.21,1.29-4.03,1.52-9.14,1.52Z"/><path d="M431.06,602.74c13.92,0,25.24,8.21,25.24,18.3,0,3.76,.18,6.81,.32,9.26,.24,4.19,.39,6.72-.65,7.82-1.08,1.15-3.92,1.36-8.78,1.36-1.64,0-3.51-.03-5.69-.06-2.99-.04-6.38-.09-10.44-.09-15.58,0-25.24-3.06-25.24-18.3,0-10.09,11.32-18.3,25.24-18.3m0-1c-14.49,0-26.24,8.64-26.24,19.3,0,16.98,11.75,19.3,26.24,19.3,7.04,0,12.27,.14,16.13,.14,14,0,10.11-1.9,10.11-19.44,0-10.66-11.75-19.3-26.24-19.3h0Z"/></g><g><path class="w" d="M431.47,639.87c-11.24,0-20.39-7.39-20.39-16.47s9.14-16.47,20.39-16.47,20.39,7.39,20.39,16.47-9.14,16.47-20.39,16.47Z"/><path d="M431.47,607.42c10.96,0,19.89,7.17,19.89,15.97s-8.92,15.97-19.89,15.97-19.89-7.17-19.89-15.97,8.92-15.97,19.89-15.97m0-1c-11.54,0-20.89,7.6-20.89,16.97s9.35,16.97,20.89,16.97,20.89-7.6,20.89-16.97-9.35-16.97-20.89-16.97h0Z"/></g><g><path d="M431.47,636.36c-8.86,0-16.06-5.81-16.06-12.96s7.21-12.96,16.06-12.96,16.06,5.82,16.06,12.96-7.21,12.96-16.06,12.96Z"/><path d="M431.47,610.94c8.58,0,15.56,5.59,15.56,12.46s-6.98,12.46-15.56,12.46-15.56-5.59-15.56-12.46,6.98-12.46,15.56-12.46m0-1c-9.15,0-16.56,6.03-16.56,13.46s7.42,13.46,16.56,13.46,16.56-6.03,16.56-13.46-7.42-13.46-16.56-13.46h0Z"/></g></g><g><g><path class="ap" d="M495.11,638.14c-5.11,0-7.93-.24-9.14-1.52-1.19-1.26-1.05-3.72-.79-8.19,.14-2.44,.32-5.48,.32-9.23,0-10.37,11.55-18.8,25.74-18.8s25.74,8.43,25.74,18.8c0,15.65-9.85,18.8-25.74,18.8-4.05,0-7.44,.05-10.43,.09-2.17,.03-4.06,.06-5.7,.06h0Z"/><path d="M511.23,600.9c13.92,0,25.24,8.21,25.24,18.3,0,7.44-2.35,12.4-7.18,15.15-4.88,2.78-11.87,3.15-18.06,3.15-4.05,0-7.45,.05-10.44,.09-2.17,.03-4.05,.06-5.69,.06-4.86,0-7.69-.22-8.78-1.36-1.04-1.1-.9-3.63-.65-7.82,.14-2.45,.32-5.5,.32-9.26,0-10.09,11.32-18.3,25.24-18.3m0-1c-14.49,0-26.24,8.64-26.24,19.3,0,17.54-3.89,19.44,10.11,19.44,3.86,0,9.08-.14,16.13-.14,14.49,0,26.24-2.32,26.24-19.3,0-10.66-11.75-19.3-26.24-19.3h0Z"/></g><g><path class="v" d="M511.57,637.76c-11.65,0-21.13-7.27-21.13-16.2s9.14-16.47,20.39-16.47,20.39,7.39,20.39,16.47-8.44,16.2-19.64,16.2Z"/><path d="M510.82,605.59c10.96,0,19.89,7.17,19.89,15.97s-8.23,15.7-19.14,15.7-20.63-7.19-20.63-15.7,8.92-15.97,19.89-15.97m0-1c-11.53,0-20.89,7.6-20.89,16.97s10.1,16.7,21.63,16.7,20.14-7.33,20.14-16.7-9.35-16.97-20.89-16.97h0Z"/></g><g><ellipse cx="510.82" cy="621.56" rx="16.06" ry="12.96"/><path d="M510.82,609.1c8.58,0,15.56,5.59,15.56,12.46s-6.98,12.46-15.56,12.46-15.56-5.59-15.56-12.46,6.98-12.46,15.56-12.46m0-1c-9.15,0-16.56,6.03-16.56,13.46s7.42,13.46,16.56,13.46,16.56-6.03,16.56-13.46-7.42-13.46-16.56-13.46h0Z"/></g></g><path class="ay" d="M544.5,631.52c5.93,6-17.5,61.01-67.34,66.67-40.63,4.61-73.75-26.42-82.04-50.19-.73-2.09-5-14.32,0-17.98,5.66-4.14,15.78,8.17,33.73,8.99,19.18,.87,22.49-12.51,41.76-11.98,16.6,.45,18.49,10.49,36.94,11.98,21.62,1.75,33.62-10.85,36.94-7.49Z"/><g><path d="M470.38,648.2c-8.92,0-16.18-4.6-16.18-10.26s7.26-10.26,16.18-10.26,16.18,4.6,16.18,10.26-7.26,10.26-16.18,10.26Z"/><path d="M470.38,628.17c8.64,0,15.68,4.38,15.68,9.76s-7.03,9.76-15.68,9.76-15.68-4.38-15.68-9.76,7.03-9.76,15.68-9.76m0-1c-9.21,0-16.68,4.82-16.68,10.76s7.47,10.76,16.68,10.76,16.68-4.82,16.68-10.76-7.47-10.76-16.68-10.76h0Z"/></g><path class="ac" d="M451.33,673.47c.38,10.25,13.25,17.35,24.09,16.48,8.58-.69,18.29-6.55,19.28-14.98,1.18-10.13-10.71-19.78-22.49-19.48-10.42,.27-21.23,8.35-20.88,17.98Z"/><path class="ai" d="M407.96,653.99c4.18,12.04,17.86,23.5,28.91,23.97,13.18,.56,25.96-10.97,30.52-19.48,1.61-3,5.32-3.25,6.43-3,6.43,1.5,16.98,17.98,30.52,17.98,6.43,0,15.76-4.27,27.31-20.97"/><path class="as" d="M493.1,676.66c-1.18-4.81-11.74-6.29-17.67-6.19-8.82,.15-20.58,4.01-20.88,9.29-.3,5.26,10.8,11.84,20.88,10.83,9.62-.96,18.91-8.88,17.67-13.93Z"/><path class="at" d="M484.21,682.97c.07,.16,1.14,2.43,0,4.26-.53,.84-1.38,1.36-3.16,1.98-2.37,.82-4.5,1.56-8.03,1.5-3.68-.07-11.84-1.07-12.75-4.82-.3-1.26,.3-2.38,.62-2.91,1.23-2.04,5.22-4.26,11.66-4.26,2.06,0,9.69,.02,11.66,4.26Z"/><path class="am" d="M470.61,761.86c-.91,.88-5.65,5.62-4.82,11.98,.15,1.16,.37,2.87,1.61,4.49,4.5,5.93,17.07,3.68,20.88,3,2.99-.54,7.61-1.69,12.85-4.49"/><path class="am" d="M499.52,769.35c-.23,.54-3.47,8.58,0,16.46,.59,1.34,3.92,7.5,9.64,8.23,6.07,.77,13.47-4.8,16.06-14.2"/><ellipse class="ap" cx="428.44" cy="620.66" rx="2.81" ry="2.62"/><ellipse class="ap" cx="517.22" cy="618.73" rx="2.81" ry="2.62"/><path class="ba" d="M827.86,762.83c8.28,16.52-5.27,10.14-19.23,10.01-13.95-.13-25.93-11.57-25.9-15.9,.04-4.33,7.62,4.77,21.42,1.76,13.65-2.97,21.77,.28,23.7,4.13Z"/><path class="am" d="M781.96,757.72c-.88,.91-5.44,5.83-4.7,12.49,.13,1.21,.33,3,1.49,4.71,4.23,6.24,16.24,3.99,19.88,3.31,2.85-.53,7.27-1.7,12.29-4.59"/><path class="am" d="M809.45,765.8c-.22,.56-3.39,8.94-.15,17.21,.55,1.41,3.67,7.88,9.11,8.69,5.78,.86,12.88-4.9,15.44-14.71"/><path class="af" d="M872.54,577.91c-.13,14.76-10.5,26.64-23.16,26.52s-6.8-25.72-22.7-26.94c-28.57-2.19,1.95-18.45,23.16-26.52,23.8-9.06,22.83,12.17,22.7,26.94Z"/><path class="bc" d="M859.49,578.9c-.05,6.3-4.72,11.37-10.41,11.32s-10.27-5.2-10.21-11.5,4.83-10.24,10.41-11.32c13.23-2.56,10.27,5.2,10.21,11.5Z"/><path class="af" d="M748.63,579.4c-17.93,7.28-17.98,23.81-29.98,23.71s-12.31-13.04-13.49-24.1c-2.2-20.69,3-36.63,20.51-29.85,11.08,4.29,33.96,25.79,22.97,30.25Z"/><path class="aq" d="M734.88,576.5c-.06,6.63-4.97,11.96-10.98,11.9-6.01-.05-10.83-5.47-10.77-12.1s.13-14.79,10.98-11.9c5.77,1.54,10.83,5.47,10.77,12.1Z"/><path class="au" d="M897.3,703.72s3.66,3.89-2.49,12.6c-6.15,8.7-11.19,6.76-11.19,6.76,5.49,3.69,13,2.34,16.78-3,3.78-5.34,2.39-12.67-3.09-16.35Z"/><path class="af" d="M885.48,746.77c1.11-3.86,1.77-8.95,3.67-14.67,4.9-14.75,.26-30.17-13.74-22.38-6.68,3.72-11.89,10.03-14.12,22.13-1.3,7.02,.51,12.76,3.64,16.67-2.84,2.09-4.6,5.19-4.64,9.35-.06,7.08,1.44,12.84,16.72,12.97,16.83,.15,18.43-5.58,18.49-12.66,.04-4.9-4.28-9.2-10.02-11.41Z"/><path class="au" d="M839.56,663.31c10.59-11.63,17.01-26.51,17.15-42.77,.28-32.52-24.62-59.95-58.21-67.12,.26-1.71,.83-3.99,2.15-6.39,3.13-5.66,8.32-8.15,10.31-8.98-3.15-.16-10.95-.14-18.4,4.76-3.15,2.07-5.35,4.42-6.83,6.33-.92-4.94-2.54-11.06-5.46-17.76-2.43-5.57-5.17-10.19-7.7-13.86,.11,5.17-.09,11.08-.85,17.55-.72,6.12-1.82,11.62-3.03,16.43-2.67-1.68-7.65-4.34-14.48-5.27-5.75-.78-10.49-.02-13.4,.68,1.43,.13,6.61,.76,10.26,4.95,1.36,1.56,2.11,3.17,2.54,4.4-28.36,9.1-47.57,34.62-47.82,62.91-.23,26.37,16.1,49.39,40.19,60.98-10.1,8.33-16.12,18.68-16.21,29.95-.15,16.89,13.2,27.93,20.66,34.09,19.97,16.46,43.39,16.98,60.73,17.38,16.63,.38,32.98,.75,50.34-9.25,5.61-3.23,31.59-18.2,31.93-40.74,.31-20.84-21.38-43.21-53.9-48.27Z"/><path class="ay" d="M832.39,623.79c-13.51,10.55-36.24,3.65-44.02,13.74-2.05,2.66-2.07,5.49-2.7,10.03-.74,5.31-2.66,19.04,6.08,28.93,9.47,10.73,24.49,9.06,27.86,8.68,8.35-.93,14.18-4.52,16.6-6.13,8.75-5.8,14.76-15.38,20.21-29.25,15.65-39.79-11-36.18-24.03-26.01Z"/><path class="ay" d="M735.3,621.98c-18.99-4.76-23.75-7.72-27.41-4.21-4.38,4.21-5.34,13.35,1.27,30.13,2.41,6.11,6.79,19.74,20.19,29.43,4.14,3,9.63,7.09,17.9,8.16,9.72,1.26,21.23-1.88,29.19-10.7,.85-.94,11.66-13.3,8.35-27.83-.95-4.15-2.72-7.06-3.44-8.16-6.86-10.46-18.36-9.87-46.04-16.82Z"/><g><path d="M786.82,649.09c-8.91-.08-16.12-4.97-16.07-10.9,.05-5.85,7.24-10.61,16.03-10.61h.22c8.91,.08,16.12,4.97,16.07,10.9-.05,5.85-7.24,10.61-16.03,10.61h-.22Z"/><path d="M786.78,627.08v1h.22c8.63,.08,15.62,4.74,15.57,10.4-.05,5.58-7.01,10.11-15.53,10.11h-.22c-8.63-.08-15.62-4.74-15.57-10.4,.05-5.58,7.01-10.11,15.53-10.11v-1m0,0c-9.1,0-16.48,4.94-16.53,11.11-.05,6.22,7.36,11.32,16.56,11.41,.08,0,.15,0,.23,0,9.1,0,16.48-4.94,16.53-11.11,.05-6.22-7.36-11.32-16.56-11.41-.08,0-.15,0-.23,0h0Z"/></g><polygon class="ap" points="794.38 665.4 788.72 670.2 798.92 670.22 803.48 652.46 794.38 665.4"/><path class="ap" d="M772.32,664.73l6.47,3.59-5.11,5.69c-.35,.4-.84,.59-1.1,.08l-9.05-19.16,8.78,9.81Z"/><g><path d="M752.53,680.91c-.42,0-.61-.09-.65-.16-.03-.06-.2-.68,2.44-3.07,10.55-9.59,24.74-10.48,30.08-10.81,0,0,.57-.03,1.58-.03,4.44,0,16.23,.62,29.8,6.36,1.33,.56,1.89,.9,2.11,1.09-.16,.03-.45,.06-.93,.06-1.17,0-3.02-.18-5.36-.41-4.17-.41-9.88-.97-16.4-.97-3.47,0-6.84,.16-10.02,.48-10.29,1.03-19.27,3.77-25.21,5.58-3.42,1.04-6.12,1.87-7.45,1.87Z"/><path d="M785.99,667.33h0c4.41,0,16.12,.62,29.6,6.32,.14,.06,.27,.11,.38,.17-1.11-.06-2.57-.2-4.31-.37-4.18-.41-9.9-.97-16.45-.97-3.48,0-6.87,.16-10.07,.48-10.34,1.04-19.34,3.78-25.3,5.6-3.38,1.03-6.05,1.85-7.31,1.85h-.04c.2-.35,.74-1.06,2.17-2.36,10.42-9.47,24.48-10.35,29.78-10.68,0,0,.56-.03,1.55-.03m0-1c-1.05,0-1.61,.04-1.61,.04-6.06,.38-19.92,1.42-30.39,10.94-2.43,2.21-2.78,3.15-2.55,3.65,.14,.31,.52,.45,1.1,.45,3.79,0,16.43-5.82,32.71-7.45,3.45-.35,6.8-.48,9.97-.48,10.2,0,18.45,1.38,21.76,1.38,.96,0,1.51-.12,1.56-.42,.09-.55-1.54-1.28-2.55-1.7-13.76-5.83-25.77-6.4-29.99-6.4h0Z"/></g><g><path class="ap" d="M767.11,632.58c-1.75,0-3.81-.13-6.2-.28-3.14-.2-6.69-.42-10.99-.46-15.1-.14-18.27-3.7-20.16-5.83l-.07-.08c-2.58-2.9-4.02-6.65-4.3-11.15-.17-2.81,.37-5.98,1.58-9.19,.27-.72,6.77-17.69,18.1-18.31,.14,0,.27-.01,.41-.01,4.27,0,8.62,3.62,17.28,10.82l.24,.2c8.22,6.84,11.93,10.1,13.49,15.54,.03,.11,3.09,11.07-2.48,16.79-1.36,1.4-3.36,1.97-6.89,1.97Z"/><path d="M745.48,587.76c4.09,0,8.67,3.81,16.96,10.71l.24,.2c8.14,6.78,11.8,10,13.33,15.3,.03,.11,3.01,10.8-2.36,16.3-1.27,1.31-3.11,1.82-6.53,1.82-1.74,0-3.79-.13-6.17-.28-3.14-.2-6.71-.42-11.01-.46-14.88-.13-17.96-3.6-19.79-5.67l-.07-.08c-2.5-2.81-3.91-6.46-4.18-10.87-.17-2.73,.37-5.83,1.55-8.97,.27-.71,6.67-17.38,17.66-17.99,.13,0,.26-.01,.38-.01m0-1c-.15,0-.29,0-.44,.01-11.54,.63-18.07,17.38-18.54,18.63-1.78,4.74-1.69,8.14-1.61,9.39,.09,1.51,.42,6.96,4.43,11.47,1.97,2.22,5.09,5.94,20.6,6.08,7.64,.07,13.17,.74,17.19,.74,3.33,0,5.64-.46,7.25-2.12,5.72-5.87,2.76-16.74,2.61-17.28-1.64-5.7-5.66-9.14-13.65-15.79-8.82-7.34-13.35-11.14-17.84-11.14h0Z"/></g><g><path class="y" d="M750.32,631.88c-10.7-.1-19.34-7.91-19.26-17.43,.08-9.42,8.77-17.08,19.36-17.08h.2c10.7,.1,19.34,7.92,19.26,17.43-.08,9.42-8.76,17.08-19.36,17.08h-.2Z"/><path d="M750.41,597.88h.2c10.43,.09,18.85,7.69,18.77,16.92-.08,9.14-8.54,16.58-18.86,16.58h-.2c-10.43-.09-18.85-7.69-18.77-16.92,.08-9.14,8.54-16.58,18.86-16.58m0-1c-10.9,0-19.77,7.83-19.86,17.57-.08,9.8,8.76,17.83,19.76,17.93,.07,0,.14,0,.21,0,10.9,0,19.77-7.83,19.86-17.57,.08-9.8-8.76-17.83-19.76-17.93-.07,0-.14,0-.21,0h0Z"/></g><g><path d="M750.35,628.21c-8.43-.08-15.24-6.23-15.17-13.72,.06-7.41,6.9-13.44,15.25-13.44h.16c8.43,.08,15.24,6.23,15.18,13.72-.06,7.41-6.91,13.44-15.25,13.44h-.16Z"/><path d="M750.42,601.55h.15c8.16,.07,14.74,6,14.68,13.21-.06,7.14-6.68,12.94-14.75,12.94h-.15c-8.16-.07-14.74-6-14.68-13.21,.06-7.14,6.68-12.94,14.75-12.94m0-1c-8.65,0-15.68,6.21-15.75,13.94-.07,7.77,6.95,14.14,15.67,14.22,.05,0,.11,0,.16,0,8.65,0,15.68-6.21,15.75-13.94,.07-7.77-6.95-14.14-15.67-14.22-.05,0-.11,0-.16,0h0Z"/></g><g><path class="ap" d="M807.27,633.01c-3.5,0-5.98-.35-7.52-2.06-4.47-4.98-2.65-13.94-.86-18.45,2.17-5.5,5.92-8.47,10.67-12.23,8.01-6.34,13.8-10.93,20.02-10.93,.87,0,1.76,.09,2.63,.27,7.64,1.55,16.03,10.99,16.26,23.54,.04,2.26,.17,9.01-4.35,13.9-4.52,4.89-12.32,5.55-19.35,5.55,0,0-1.88-.01-2.33-.01-3.74,0-6.91,.14-9.71,.26-2.08,.09-3.89,.17-5.47,.17h0Z"/><path d="M829.58,589.84c.84,0,1.69,.09,2.54,.26,9.27,1.88,15.68,13.44,15.86,23.1,.04,2.17,.16,8.76-4.22,13.5-4.39,4.75-12.06,5.39-18.98,5.39-.32,0-.65,0-.98,0-.46,0-.91,0-1.35,0-3.75,0-6.93,.14-9.73,.26-2.08,.09-3.87,.17-5.45,.17-3.97,0-5.91-.51-7.15-1.9-1.87-2.09-2.76-5.11-2.64-8.97,.09-2.87,.79-6.21,1.87-8.95,2.13-5.37,5.83-8.31,10.52-12.02,7.93-6.28,13.66-10.82,19.71-10.82m0-1c-6.39,0-12.18,4.59-20.33,11.04-4.97,3.94-8.65,6.93-10.83,12.44-1.83,4.64-3.67,13.82,.95,18.96,1.61,1.79,4.11,2.23,7.9,2.23s8.65-.42,15.18-.42c.44,0,.89,0,1.34,0,.33,0,.66,0,.99,0,8.17,0,15.34-.98,19.72-5.71,4.69-5.07,4.52-12.05,4.48-14.25-.19-10.1-6.8-22.02-16.66-24.02-.93-.19-1.84-.28-2.73-.28h0Z"/></g><g><path class="x" d="M823.4,632.63c-10.7-.1-19.34-7.91-19.26-17.43,.08-9.42,8.76-17.08,19.36-17.08h.2c10.7,.1,19.34,7.92,19.26,17.43-.08,9.42-8.77,17.08-19.36,17.08h-.2Z"/><path d="M823.5,598.63h.2c10.43,.09,18.85,7.69,18.77,16.92-.08,9.14-8.54,16.58-18.86,16.58h-.2c-10.43-.09-18.85-7.69-18.77-16.92,.08-9.14,8.54-16.58,18.86-16.58m0-1c-10.9,0-19.77,7.83-19.86,17.57-.08,9.8,8.76,17.83,19.76,17.93,.07,0,.14,0,.21,0,10.9,0,19.77-7.83,19.86-17.57,.08-9.8-8.76-17.83-19.76-17.93-.07,0-.14,0-.21,0h0Z"/></g><g><path d="M823.43,628.95c-8.43-.08-15.24-6.23-15.17-13.72,.06-7.41,6.91-13.44,15.25-13.44h.16c8.43,.08,15.24,6.23,15.17,13.72-.06,7.41-6.9,13.44-15.25,13.44h-.16Z"/><path d="M823.51,602.3h.15c8.16,.07,14.74,6,14.68,13.21-.06,7.14-6.68,12.94-14.75,12.94h-.15c-8.16-.07-14.74-6-14.68-13.21,.06-7.14,6.68-12.94,14.75-12.94m0-1c-8.65,0-15.68,6.21-15.75,13.94-.07,7.77,6.95,14.14,15.67,14.22,.05,0,.11,0,.16,0,8.65,0,15.68-6.21,15.75-13.94,.07-7.77-6.95-14.14-15.67-14.22-.05,0-.11,0-.16,0h0Z"/></g><path class="ap" d="M811.89,719.23c2.7,17.15-10.41,39.68-18.53,39.61-8.12-.07-4.28-24.36-11.65-40.24-15.86-34.18-9.14-16.5,9.84-19.25,8.02-1.16,17.4,1.25,20.34,19.89Z"/><path class="ab" d="M789.38,596.89c2.22-3.35,4.5-5.33,6.17-6.53,1.85-1.33,2.94-1.67,4.62-3.09,2.47-2.09,3.86-4.53,4.65-6.22"/><path class="af" d="M787.44,596.87c-.54-.87-1.39-2.13-2.64-3.48-2.19-2.36-4.09-3.35-6.08-4.75-1.75-1.23-4.12-3.19-6.63-6.24"/><path class="af" d="M788.2,599.14c.4,3.4,.67,7.19,.68,11.32,0,3.53-.18,6.81-.47,9.8"/><path class="af" d="M730.25,704.14c-1.11,5.95-2.86,20.07,4.3,34.51,2.32,4.69,10.15,20.48,24.31,22.15,1.64,.19,7.94,.94,13.27-3.01,7.16-5.3,9.67-16.94,5.67-28.99"/><path class="af" d="M762.43,760.72c-11.26-6.56-22.91-4.77-27.1,1.26-3.16,4.55-2.21,11.7,1.41,15.85,7.57,8.68,28.7,6.55,39.5-4.17,10.41-10.32,11.6-28.95,1.55-44.87"/><path class="af" d="M843.48,714.56c12.12,20.9,16.22,38.89,10.34,43.96-2.13,1.84-6.02,2.36-8.23,2.65-1.26,.17-10.21,1.26-16.3-3.16-7.06-5.13-9.6-17.19-5.17-29.09"/><path class="af" d="M838.94,761.11c11.37-6.36,22.99-4.35,27.07,1.75,3.08,4.6,2.01,11.74-1.68,15.83-7.72,8.54-28.8,6.03-39.43-4.88-10.23-10.5-11.1-29.15-.77-44.89"/><path class="am" d="M877.9,747.42c.77-.39,2.11-.95,3.88-1.1,1.69-.14,3.05,.17,3.87,.41"/><ellipse class="ap" cx="745.36" cy="611.28" rx="2.68" ry="2.74"/><ellipse class="ap" cx="831.22" cy="612" rx="2.68" ry="2.74"/><g><path class="ba" d="M1126.56,763.18c8.73,16.44-5.38,10.18-19.84,10.18s-26.99-11.33-26.99-15.66,7.94,4.7,22.22,1.57c14.12-3.1,22.57,.08,24.61,3.91Z"/><path class="am" d="M1078.94,758.48c-.9,.92-5.58,5.87-4.76,12.53,.15,1.21,.37,3,1.59,4.7,4.44,6.2,16.87,3.84,20.64,3.13,2.95-.56,7.52-1.77,12.7-4.7"/><path class="am" d="M1107.51,766.31c-.22,.57-3.43,8.97,0,17.2,.59,1.41,3.87,7.84,9.52,8.6,6,.81,13.31-5.01,15.87-14.84"/><path class="af" d="M1171.23,577.98c0,14.75-10.64,26.72-23.77,26.72s-7.28-25.64-23.77-26.72c-29.64-1.93,1.85-18.45,23.77-26.72,24.6-9.27,23.77,11.96,23.77,26.72Z"/><path class="bb" d="M1157.72,579.08c0,6.3-4.79,11.4-10.69,11.4s-10.69-5.11-10.69-11.4,4.92-10.28,10.69-11.4c13.69-2.68,10.69,5.11,10.69,11.4Z"/><path class="af" d="M1042.79,580.58c-18.52,7.44-18.42,23.96-30.87,23.96s-12.88-12.92-14.2-23.96c-2.47-20.66,2.78-36.63,20.99-30.02,11.53,4.18,35.43,25.46,24.08,30.02Z"/><path class="aq" d="M1028.52,577.81c0,6.62-5.05,12-11.27,12s-11.27-5.37-11.27-12,0-14.78,11.27-12c6,1.48,11.27,5.37,11.27,12Z"/><path class="au" d="M1198.02,703.48s3.83,3.86-2.47,12.61c-6.3,8.75-11.54,6.86-11.54,6.86,5.72,3.64,13.49,2.23,17.36-3.15,3.87-5.38,2.37-12.68-3.35-16.32Z"/><path class="af" d="M1186.16,746.62c1.12-3.87,1.75-8.96,3.67-14.7,4.94-14.78,0-30.16-14.44-22.24-6.89,3.78-12.23,10.13-14.44,22.24-1.28,7.03,.64,12.74,3.92,16.62-2.93,2.12-4.73,5.23-4.73,9.39,0,7.08,1.6,12.82,17.45,12.82,17.45,0,19.05-5.74,19.05-12.82,0-4.9-4.51-9.16-10.49-11.31Z"/><path class="au" d="M1137.81,663.61c10.88-11.72,17.4-26.64,17.4-42.9,0-32.5-26.05-59.69-60.94-66.55,.25-1.71,.82-3.99,2.18-6.41,3.19-5.69,8.55-8.22,10.6-9.06-3.27-.14-11.35-.04-19.03,4.92-3.24,2.09-5.51,4.47-7.02,6.39-1-4.93-2.73-11.03-5.82-17.7-2.57-5.54-5.45-10.14-8.1-13.78,.16,5.17,0,11.08-.72,17.55-.69,6.12-1.78,11.63-2.99,16.45-2.78-1.66-7.96-4.27-15.06-5.14-5.96-.73-10.87,.07-13.88,.8,1.48,.11,6.86,.7,10.67,4.86,1.42,1.55,2.22,3.15,2.68,4.38-29.31,9.35-49,35.02-49,63.31,0,26.35,17.13,49.22,42.21,60.58-10.39,8.41-16.54,18.82-16.54,30.08,0,16.88,13.93,27.8,21.72,33.88,20.84,16.27,45.13,16.58,63.11,16.82,17.25,.23,34.2,.46,52.1-9.7,5.78-3.28,32.58-18.48,32.73-41,.14-20.83-22.55-42.99-56.31-47.76Z"/><path class="ay" d="M1130.02,624.18c-13.92,10.67-37.54,3.98-45.51,14.13-2.1,2.68-2.09,5.5-2.71,10.04-.72,5.32-2.59,19.05,6.56,28.86,9.91,10.63,25.47,8.83,28.96,8.43,8.65-1,14.65-4.65,17.15-6.28,9.01-5.88,15.16-15.5,20.69-29.41,15.86-39.91-11.73-36.06-25.14-25.78Z"/><path class="ay" d="M1029.36,623.25c-19.73-4.59-24.69-7.5-28.45-3.96-4.5,4.24-5.42,13.39,1.58,30.1,2.55,6.08,7.22,19.66,21.19,29.23,4.32,2.96,10.05,7,18.63,7.99,10.09,1.17,21.99-2.07,30.16-10.96,.87-.95,11.97-13.4,8.41-27.89-1.02-4.14-2.88-7.03-3.64-8.13-7.21-10.39-19.12-9.7-47.88-16.39Z"/><g><path d="M1083.01,649.88c-9.25,0-16.77-4.82-16.77-10.75s7.52-10.75,16.77-10.75,16.77,4.82,16.77,10.75-7.52,10.75-16.77,10.75Z"/><path d="M1083.01,628.88c8.97,0,16.27,4.6,16.27,10.25s-7.3,10.25-16.27,10.25-16.27-4.6-16.27-10.25,7.3-10.25,16.27-10.25m0-1c-9.54,0-17.27,5.04-17.27,11.25s7.73,11.25,17.27,11.25,17.27-5.04,17.27-11.25-7.73-11.25-17.27-11.25h0Z"/></g><g><path d="M1049.35,683.28c-.6,0-.75-.08-.77-.08h0s-.3-.79,2.51-3.92c10.67-11.88,25.36-12.85,30.88-13.21,.01,0,.46-.03,1.3-.03,3.61,0,16.54,.59,31.44,8.23,2.11,1.08,2.4,1.53,2.43,1.67-.25,.35-3.21,1.22-10.7,1.22s-16.3-.94-23.26-2.58l-.42-.1c-1.74-.41-4.11-.98-6.5-.98s-4.33,.61-5.71,1.8c-.57,.5-1.01,1.06-1.47,1.65-.78,1-1.59,2.04-3.22,2.99-1.45,.85-2.7,1.13-4.61,1.51-6.16,1.23-10.17,1.85-11.92,1.85Z"/><path d="M1083.28,666.53h0c3.58,0,16.41,.59,31.21,8.17,.96,.49,1.5,.83,1.81,1.06-1.2,.41-4.37,.88-9.85,.88-7.79,0-16.22-.93-23.14-2.56l-.43-.1c-1.76-.42-4.17-.99-6.61-.99-2.54,0-4.57,.65-6.03,1.92-.61,.53-1.08,1.13-1.54,1.72-.75,.97-1.53,1.96-3.08,2.87-1.38,.81-2.54,1.07-4.45,1.45-6.13,1.22-10.1,1.84-11.82,1.84-.06,0-.12,0-.17,0,.18-.45,.7-1.4,2.29-3.17,10.53-11.73,25.07-12.69,30.54-13.05,0,0,.45-.03,1.26-.03m0-1c-.86,0-1.33,.03-1.33,.03-6.28,.41-20.63,1.59-31.22,13.38-3.03,3.37-2.68,4.29-2.54,4.53,.07,.13,.22,.31,1.17,.31,1.41,0,4.61-.38,12.01-1.86,1.88-.37,3.21-.66,4.76-1.57,2.69-1.57,3.29-3.41,4.76-4.7,1.46-1.27,3.4-1.67,5.38-1.67,2.53,0,5.12,.67,6.81,1.07,7.9,1.86,16.65,2.59,23.37,2.59s11.08-.68,11.2-1.68c.08-.69-1.64-1.61-2.69-2.15-14.86-7.61-27.63-8.28-31.67-8.28h0Z"/></g><path class="ap" d="M1109.63,719.75c2.95,17.11-10.43,39.75-18.85,39.75s-4.65-24.31-12.43-40.12c-16.75-34.01-9.63-16.41,10.03-19.33,8.31-1.23,18.05,1.09,21.26,19.69Z"/><path class="ab" d="M1094.7,577.01c1.96,2.46,5.03,5.54,9.52,7.83,6.58,3.35,12.71,3.23,15.87,3.13,4.04-.13,7.32-.9,9.52-1.57"/><g><path class="af" d="M1024.85,705.4c-1.1,5.96-2.79,20.08,4.76,34.45,2.45,4.67,10.71,20.38,25.4,21.92,1.7,.18,8.24,.86,13.73-3.13,7.37-5.36,9.87-17.02,5.62-29.03"/><path class="af" d="M1058.72,761.66c-11.73-6.45-23.79-4.56-28.08,1.51-3.23,4.57-2.19,11.71,1.6,15.83,7.92,8.61,29.8,6.28,40.91-4.52,10.7-10.41,11.77-29.03,1.2-44.86"/></g><g><path class="af" d="M1142.33,714.8c12.75,20.77,17.16,38.72,11.11,43.84-2.19,1.86-6.22,2.41-8.51,2.73-1.31,.18-10.57,1.35-16.92-3.02-7.37-5.06-10.11-17.09-5.62-29.03"/><path class="af" d="M1138.03,761.37c11.73-6.45,23.79-4.56,28.08,1.51,3.23,4.57,2.19,11.71-1.6,15.83-7.92,8.61-29.8,6.28-40.91-4.52-10.7-10.41-11.77-29.03-1.2-44.86"/></g><path class="am" d="M1178.3,747.34c.79-.4,2.18-.97,4.01-1.13,1.75-.15,3.17,.14,4.01,.38"/><g><g><g><path class="ap" d="M1099.74,631.63c-4.88,0-7.75-.24-8.97-1.53-1.24-1.31-1.1-3.92-.84-8.65,.14-2.55,.32-5.73,.32-9.64,0-10.85,11.41-19.67,25.43-19.67s25.43,8.82,25.43,19.67c0,16.38-9.73,19.67-25.43,19.67-4,0-7.35,.05-10.31,.09-2.14,.03-4.01,.06-5.63,.06Z"/><path d="M1115.68,592.64c13.75,0,24.93,8.6,24.93,19.17,0,7.81-2.33,13-7.11,15.88-4.81,2.9-11.71,3.29-17.82,3.29-4.01,0-7.36,.05-10.32,.09-2.15,.03-4.01,.06-5.62,.06-4.74,0-7.51-.22-8.6-1.37-1.09-1.16-.95-3.84-.7-8.28,.14-2.56,.32-5.74,.32-9.67,0-10.57,11.18-19.17,24.93-19.17m0-1c-14.32,0-25.93,9.03-25.93,20.17,0,18.34-3.84,20.32,9.99,20.32,3.82,0,8.98-.15,15.94-.15,14.32,0,25.93-2.42,25.93-20.17,0-11.14-11.61-20.17-25.93-20.17h0Z"/></g><g><path class="aa" d="M1116.01,631.23c-11.51,0-20.88-7.61-20.88-16.96s9.04-17.24,20.14-17.24,20.14,7.73,20.14,17.24-8.34,16.96-19.4,16.96Z"/><path d="M1115.28,597.53c10.83,0,19.64,7.51,19.64,16.74s-8.13,16.46-18.9,16.46-20.38-7.54-20.38-16.46,8.81-16.74,19.64-16.74m0-1c-11.4,0-20.64,7.94-20.64,17.74s9.98,17.46,21.38,17.46,19.9-7.66,19.9-17.46-9.24-17.74-20.64-17.74h0Z"/></g><g><path d="M1115.27,627.84c-8.75,0-15.87-6.09-15.87-13.57s7.12-13.57,15.87-13.57,15.87,6.09,15.87,13.57-7.12,13.57-15.87,13.57Z"/><path d="M1115.28,601.2c8.48,0,15.37,5.86,15.37,13.07s-6.9,13.07-15.37,13.07-15.37-5.86-15.37-13.07,6.9-13.07,15.37-13.07m0-1c-9.04,0-16.37,6.3-16.37,14.07s7.33,14.07,16.37,14.07,16.37-6.3,16.37-14.07-7.33-14.07-16.37-14.07h0Z"/></g></g><ellipse class="ap" cx="1109.66" cy="621.81" rx="2.78" ry="2.74"/></g><path class="ad" d="M1140.74,616.16c-3.25,2.49-9.67-6.42-22.22-9.39-14.36-3.41-24.76,3.79-26.99,0-1.71-2.9,3.09-9.3,7.94-12.53,5.67-3.78,11.68-3.4,15.87-3.13,2.48,.16,10.15,.92,17.46,6.26,2.83,2.07,6.27,4.66,7.94,9.39,.26,.73,2.55,7.44,0,9.39Z"/><path class="ab" d="M1074.48,577.5c-1.96,2.46-5.03,5.54-9.52,7.83-6.58,3.35-12.71,3.23-15.87,3.13-4.04-.13-7.32-.9-9.52-1.57"/><g><g><g><path class="ap" d="M1064.29,631.1c-1.62,0-3.49-.03-5.63-.06-2.96-.04-6.31-.09-10.31-.09-15.7,0-25.43-3.29-25.43-19.67,0-10.85,11.41-19.67,25.43-19.67s25.43,8.82,25.43,19.67c0,3.91,.17,7.09,.32,9.64,.26,4.73,.4,7.34-.84,8.65-1.22,1.29-4.09,1.53-8.97,1.53Z"/><path d="M1048.34,592.11c13.75,0,24.93,8.6,24.93,19.17,0,3.92,.17,7.11,.32,9.67,.24,4.44,.39,7.12-.7,8.28-1.09,1.15-3.87,1.37-8.6,1.37-1.62,0-3.47-.03-5.62-.06-2.96-.04-6.31-.09-10.32-.09-15.39,0-24.93-3.21-24.93-19.17,0-10.57,11.18-19.17,24.93-19.17m0-1c-14.32,0-25.93,9.03-25.93,20.17,0,17.75,11.61,20.17,25.93,20.17,6.96,0,12.12,.15,15.94,.15,13.83,0,9.99-1.98,9.99-20.32,0-11.14-11.61-20.17-25.93-20.17h0Z"/></g><g><path class="a`" d="M1048.01,630.7c-11.06,0-19.41-7.29-19.41-16.96s9.04-17.24,20.14-17.24,20.14,7.73,20.14,17.24-9.37,16.96-20.88,16.96Z"/><path d="M1048.75,597c10.83,0,19.64,7.51,19.64,16.74s-9.33,16.46-20.38,16.46-18.91-7.08-18.91-16.46,8.81-16.74,19.64-16.74m0-1c-11.4,0-20.64,7.94-20.64,17.74s8.51,17.46,19.91,17.46,21.38-7.66,21.38-17.46-9.24-17.74-20.64-17.74h0Z"/></g><g><ellipse cx="1048.75" cy="613.74" rx="15.87" ry="13.57"/><path d="M1048.75,600.67c8.48,0,15.37,5.86,15.37,13.07s-6.9,13.07-15.37,13.07-15.37-5.86-15.37-13.07,6.9-13.07,15.37-13.07m0-1c-9.04,0-16.37,6.3-16.37,14.07s7.33,14.07,16.37,14.07,16.37-6.3,16.37-14.07-7.33-14.07-16.37-14.07h0Z"/></g></g><ellipse class="ap" cx="1049.61" cy="619.71" rx="2.78" ry="2.74"/></g><path class="ad" d="M1023.11,616.81c3.25,2.49,9.67-6.42,22.22-9.39,14.36-3.41,24.76,3.79,26.99,0,1.71-2.9-3.09-9.3-7.94-12.53-5.67-3.78-11.68-3.4-15.87-3.13-2.48,.16-10.15,.92-17.46,6.26-2.83,2.07-6.27,4.66-7.94,9.39-.26,.73-2.55,7.44,0,9.39Z"/><path class="af" d="M1083.25,568.91c.43,3.39,.72,7.18,.77,11.31,.04,3.53-.12,6.81-.38,9.8"/><path class="ap" d="M1094.16,670.03l-5.82,4.85c3.44,.52,6.89,1.04,10.33,1.57,1.6-6.48,3.21-12.95,4.81-19.43l-9.32,13.01Z"/><path class="ap" d="M1066.66,669.56l6.55,4.43-5.65,5.44c-.39,.39-.91,.53-1.15-.03l-8.38-21.04,8.62,11.19Z"/><path class="as" d="M1095.5,670.18c.4,.89,.47,2.44,1.77,4.13,.14,.19,.79,1.48,2.8,3.46,0,0,4.97,3.37,6.82,10.21,2.07,7.66-1.75,17.48-8.8,21.08-12.18,6.23-30.01-8.14-29.95-17.5,.03-4.54,4.74-8.02,3.17-13.83-.96-3.56-3.19-4.12-2.8-5.99,1.22-5.83,24.51-7.04,26.99-1.57Z"/><path class="at" d="M1092.32,682.7c3.44,5.13,4.56,5.6,6.35,9.39,1.47,3.11,1.68,4.83,1.59,6.26-.05,.87-.2,2.83-1.59,4.7-1.52,2.05-3.63,2.75-4.76,3.13-3.69,1.23-6.98,.31-7.94,0-5.38-1.72-9.79-7.15-9.56-12.11,.16-3.51,2.51-3.62,3.21-8.25,.77-5.08-1.66-7.54,0-9.39,1.59-1.77,5.46-1.38,7.94,0,1.8,1,1.9,1.99,4.76,6.26Z"/></g><g class="bi"><path class="ah" d="M457.1,441.48c-6.12,0-11.54,3.78-14.88,9.58-8.39-13.05-16.78-26.11-25.17-39.16,1.81-.75,5.1-2.44,7.68-6.08,4.21-5.93,3.32-12.84,3.32-15.42,0-10.46-8.48-24.63-19.71-24.87-11.71-.26-20.89,14.8-19.4,17.54,.46,.85,1.87,.36,4.82,1.75,2.26,1.06,3.85,2.5,4.82,3.5-1.49-2.03-2.99-3-4.02-3.5-2.6-1.26-5.64-1.21-7.67-1.58,0,0-.78-.14-1.54-.2-.33-.02-.66-.04-.99-.04-9.71,0-21.85,5.23-21.85,17.48s12.13,26.89,21.85,26.89c4.67,0,8.92-2.3,12.07-6.05l29.13,45.46c-6.69,3.15-10.82,5.5-10.82,13.71,0,11.14,8.06,24.87,18.65,24.87,9.97,0,18.16-7.99,19.09-18.22,1.48,.48,3.02,.74,4.62,.74,10.15,0,17.85-5.34,17.85-18.15s-7.7-28.23-17.85-28.23Z"/><path class="ah" d="M417.06,411.9c-1.29,.44-3.24,.93-5.62,.87-1.99-.05-3.64-.47-4.82-.87"/><path class="ah" d="M439.14,467.39c-1.82-.87-4.61-1.85-8.03-1.75-8.78,.26-14.29,7.44-15.26,8.74"/></g><g class="bj"><path class="ah" d="M450.95,366.58c0,10.7,7.23,15.16,16.76,15.16,1.5,0,2.95-.21,4.34-.62,.88,8.54,8.57,15.22,17.93,15.22,9.95,0,17.51-11.48,17.51-20.78,0-6.86-3.88-8.82-10.16-11.45l27.35-37.98c2.96,3.13,6.94,5.06,11.33,5.06,9.12,0,20.51-12.23,20.51-22.47s-11.4-14.6-20.51-14.6c-.31,0-.62,0-.93,.03-.71,.05-1.44,.16-1.44,.16-1.91,.31-4.76,.26-7.2,1.32-.96,.42-2.37,1.22-3.77,2.92,.91-.83,2.41-2.03,4.52-2.92,2.76-1.16,4.09-.75,4.52-1.46,1.41-2.29-7.22-14.87-18.22-14.66-10.55,.2-18.51,12.04-18.51,20.78,0,2.16-.83,7.93,3.12,12.89,2.42,3.04,5.51,4.45,7.22,5.08-7.88,10.91-15.75,21.81-23.63,32.72-3.14-4.85-8.23-8-13.97-8-9.53,0-16.76,12.89-16.76,23.59Z"/><path class="ah" d="M505.32,318.27c1.21,.37,3.04,.78,5.28,.73,1.87-.04,3.42-.39,4.52-.73"/><path class="ah" d="M484.58,364.64c1.71-.72,4.33-1.54,7.54-1.46,8.25,.22,13.42,6.21,14.33,7.3"/></g><g class="be"><path class="ah" d="M369.52,296.99c0,9.18,5.92,13,13.72,13,1.23,0,2.42-.18,3.55-.53,.72,7.32,7.01,13.05,14.68,13.05,8.14,0,14.34-9.84,14.34-17.82,0-5.88-3.18-7.56-8.32-9.82l22.39-32.57c2.42,2.69,5.68,4.34,9.27,4.34,7.47,0,16.79-10.49,16.79-19.26,0-8.78-9.33-12.52-16.79-12.52-.26,0-.51,0-.76,.03-.58,.04-1.18,.14-1.18,.14-1.56,.27-3.9,.23-5.9,1.13-.79,.36-1.94,1.05-3.09,2.5,.74-.71,1.97-1.74,3.7-2.5,2.26-1,3.35-.64,3.7-1.25,1.15-1.96-5.91-12.75-14.91-12.57-8.64,.18-15.16,10.33-15.16,17.82,0,1.85-.68,6.8,2.55,11.05,1.98,2.61,4.51,3.82,5.91,4.36-6.45,9.35-12.9,18.7-19.35,28.06-2.57-4.16-6.73-6.86-11.44-6.86-7.8,0-13.72,11.05-13.72,20.23Z"/><path class="ah" d="M414.03,255.57c.99,.32,2.49,.67,4.32,.63,1.53-.04,2.8-.34,3.7-.63"/><path class="ah" d="M397.05,295.33c1.4-.62,3.54-1.32,6.17-1.25,6.75,.18,10.99,5.33,11.73,6.26"/></g><g class="bf"><path class="ah" d="M488.35,159.46c-5.2,0-9.81,3.14-12.65,7.96-7.13-10.85-14.26-21.69-21.39-32.54,1.54-.62,4.34-2.03,6.53-5.05,3.58-4.93,2.82-10.67,2.82-12.82,0-8.69-7.21-20.46-16.76-20.67-9.95-.21-17.76,12.3-16.49,14.57,.39,.71,1.59,.3,4.1,1.45,1.92,.88,3.27,2.08,4.1,2.9-1.27-1.69-2.54-2.49-3.41-2.9-2.21-1.05-4.79-1-6.52-1.31,0,0-.66-.12-1.31-.16-.28-.02-.56-.03-.84-.03-8.26,0-18.57,4.34-18.57,14.52s10.32,22.34,18.57,22.34c3.97,0,7.58-1.91,10.26-5.03l24.76,37.77c-5.69,2.62-9.2,4.57-9.2,11.39,0,9.25,6.85,20.67,15.85,20.67,8.47,0,15.44-6.64,16.23-15.14,1.25,.4,2.57,.61,3.93,.61,8.63,0,15.17-4.44,15.17-15.08s-6.54-23.46-15.17-23.46Z"/><path class="ah" d="M454.31,134.88c-1.1,.37-2.75,.78-4.78,.73-1.7-.04-3.1-.39-4.1-.73"/><path class="ah" d="M473.08,180.99c-1.55-.72-3.92-1.54-6.83-1.45-7.47,.21-12.15,6.18-12.97,7.26"/></g><g class="bg"><path class="ao" d="M781.75,406.49c10.6,22.12,34.94,53.97,44.02,49.63,9.09-4.34,.14-44.92-10.46-67.04-10.6-22.12-14.82-14.37-24.51-10.26-9.27,3.93-19.65,5.55-9.05,27.67Z"/><path class="an" d="M787.24,399.78c1.9-1.81,5.34-4.62,10.39-6.39,3.47-1.22,6.57-1.54,8.79-1.6"/><path class="ag" d="M810.78,404.13c-2.22,.44-5.37,1.33-8.77,3.25-2.82,1.59-4.91,3.39-6.36,4.83"/><path class="ag" d="M802.02,421.75c1.07-1.06,3.19-2.87,6.39-3.99,3.47-1.21,6.47-1.01,7.99-.8"/><path class="ag" d="M819.99,430.13c-1.37-.1-3.7-.1-6.39,.8-1.31,.44-3.45,1.33-5.59,3.19"/><path class="al" d="M794.43,383.01c-.27-.48-7.35,2.73-7.2,3.18,.03,.1,.41,.05,.8,0,3.4-.43,6.59-2.84,6.4-3.18Z"/><path class="b`" d="M752.57,329.28c4.14-2.22,8.38,2.62,11.74,8.87,2.14,3.99,7.02,8.46,10.51,12.37l.2-.08c-2.18-1.91-3.94-5.02-3.3-8.8,.53-3.2,2.58-6.09,4.14-6.09s2.83,2.63,2.83,5.88c0,2.74,2.37,7.69,2.42,9.81,0,.12,.02,.24,.07,.35l.58,1.38c.26,.63,1.12,.77,1.55,.24,1.46-1.81,4.32-3.5,5.63-3.5,1.81,0,0,3.2,0,5.52,0,1.58-1.1,5.84-2.37,8.38-.12,.24-.14,.52-.03,.77h0c.31,.74,1.36,.75,1.68,.02,2.2-5.08,6.65-12.32,10.36-14.71,5.56-3.58,11.79-3.98,13.24-2.37,5.84,6.49-5.5,3.33-8.99,8.95-6.46,10.4-10.07,14.63-12.19,15.94-.38,.23-.53,.71-.36,1.12l4.03,9.61c.19,.46-.02,1-.49,1.19l-5.32,2.22c-.46,.19-1-.02-1.19-.49l-2.91-6.95c-.3-.71-1.27-.75-1.64-.08-.8,1.43-1.84,2.93-3.08,4.38-4.38,5.12-8.97,5.85-11.74,6.02-4.93,.31,.3-4.05,5.09-12.32,3.08-5.31,3.46-9,5.38-9.27,.6-.08,.98-.67,.75-1.22l-1.25-2.97c-.25-.61-1.04-.75-1.5-.28-2.24,2.33-5.79,4.6-9.05,4.6-5.3,0-7.85-5.96-7.85-8.49s4.29-1.52,9.59-1.52c2.43,0,4.66-.21,6.35-.19l-.14-.33c-6.15-1.01-18.85-6.45-22.77-12.97-3.65-6.08-4.11-12.75,.03-14.97Z"/></g><g class="bh"><path class="ao" d="M748.27,466.41c-7.02,12.43-23.13,30.32-29.14,27.88-6.02-2.44-.09-25.23,6.93-37.66s9.81-8.07,16.23-5.76c6.14,2.21,13.01,3.12,5.99,15.54Z"/><path class="an" d="M744.63,462.65c-1.26-1.02-3.53-2.6-6.88-3.59-2.3-.68-4.35-.87-5.82-.9"/><path class="ag" d="M729.04,465.09c1.47,.25,3.56,.75,5.8,1.83,1.87,.89,3.25,1.9,4.21,2.71"/><path class="ag" d="M734.85,474.99c-.71-.6-2.11-1.61-4.23-2.24-2.29-.68-4.28-.57-5.29-.45"/><path class="ag" d="M722.95,479.7c.91-.06,2.45-.05,4.23,.45,.86,.24,2.29,.75,3.7,1.79"/><path class="al" d="M739.87,453.22c.18-.27,4.86,1.53,4.77,1.78-.02,.05-.27,.03-.53,0-2.25-.24-4.36-1.59-4.24-1.79Z"/><path class="b`" d="M767.58,423.04c-2.74-1.25-5.55,1.47-7.77,4.98-1.42,2.24-4.64,4.75-6.96,6.95l-.13-.05c1.44-1.07,2.61-2.82,2.19-4.94-.35-1.8-1.71-3.42-2.74-3.42s-1.88,1.48-1.88,3.3c0,1.54-1.57,4.32-1.6,5.51,0,.07-.01,.13-.05,.2l-.38,.78c-.18,.35-.74,.43-1.02,.13-.97-1.02-2.86-1.97-3.73-1.97-1.2,0,0,1.8,0,3.1,0,.89,.73,3.28,1.57,4.71,.08,.14,.09,.29,.02,.43h0c-.2,.42-.9,.42-1.11,0-1.45-2.85-4.4-6.92-6.86-8.27-3.68-2.01-7.81-2.23-8.77-1.33-3.86,3.65,3.64,1.87,5.95,5.03,4.27,5.84,6.67,8.22,8.07,8.95,.25,.13,.35,.4,.24,.63l-2.67,5.4c-.13,.26,.02,.56,.32,.67l3.52,1.25c.31,.11,.66-.01,.79-.27l1.93-3.9c.2-.4,.84-.42,1.09-.05,.53,.81,1.22,1.64,2.04,2.46,2.9,2.88,5.94,3.28,7.77,3.38,3.27,.17-.2-2.28-3.37-6.92-2.04-2.98-2.29-5.06-3.56-5.21-.4-.05-.65-.37-.5-.69l.82-1.67c.17-.34,.69-.42,.99-.15,1.48,1.31,3.83,2.58,5.99,2.58,3.51,0,5.19-3.35,5.19-4.77s-2.84-.86-6.35-.86c-1.61,0-3.08-.12-4.2-.11l.09-.19c4.07-.57,12.48-3.62,15.07-7.28,2.42-3.42,2.72-7.16-.02-8.41Z"/></g><g class="bk"><path class="ao" d="M722.75,217.81c10.6,22.12,34.94,53.97,44.02,49.63,9.09-4.34,.14-44.92-10.46-67.04-10.6-22.12-14.82-14.37-24.51-10.26-9.27,3.93-19.65,5.55-9.05,27.67Z"/><path class="an" d="M728.25,211.11c1.9-1.81,5.34-4.62,10.39-6.39,3.47-1.22,6.57-1.54,8.79-1.6"/><path class="ag" d="M751.79,215.45c-2.22,.44-5.37,1.33-8.77,3.25-2.82,1.59-4.91,3.39-6.36,4.83"/><path class="ag" d="M743.02,233.07c1.07-1.06,3.19-2.87,6.39-3.99,3.47-1.21,6.47-1.01,7.99-.8"/><path class="ag" d="M761,241.46c-1.37-.1-3.7-.1-6.39,.8-1.31,.44-3.45,1.33-5.59,3.19"/><path class="al" d="M735.43,194.33c-.27-.48-7.35,2.73-7.2,3.18,.03,.1,.41,.05,.8,0,3.4-.43,6.59-2.84,6.4-3.18Z"/><path class="b`" d="M693.58,140.6c4.14-2.22,8.38,2.62,11.74,8.87,2.14,3.99,7.02,8.46,10.51,12.37l.2-.08c-2.18-1.91-3.94-5.02-3.3-8.8,.53-3.2,2.58-6.09,4.14-6.09s2.83,2.63,2.83,5.88c0,2.74,2.37,7.69,2.42,9.81,0,.12,.02,.24,.07,.35l.58,1.38c.26,.63,1.12,.77,1.55,.24,1.46-1.81,4.32-3.5,5.63-3.5,1.81,0,0,3.2,0,5.52,0,1.58-1.1,5.84-2.37,8.38-.12,.24-.14,.52-.03,.77h0c.31,.74,1.36,.75,1.68,.02,2.2-5.08,6.65-12.32,10.36-14.71,5.56-3.58,11.79-3.98,13.24-2.37,5.84,6.49-5.5,3.33-8.99,8.95-6.46,10.4-10.07,14.63-12.19,15.94-.38,.23-.53,.71-.36,1.12l4.03,9.61c.19,.46-.02,1-.49,1.19l-5.32,2.22c-.46,.19-1-.02-1.19-.49l-2.91-6.95c-.3-.71-1.27-.75-1.64-.08-.8,1.43-1.84,2.93-3.08,4.38-4.38,5.12-8.97,5.85-11.74,6.02-4.93,.31,.3-4.05,5.09-12.32,3.08-5.31,3.46-9,5.38-9.27,.6-.08,.98-.67,.75-1.22l-1.25-2.97c-.25-.61-1.04-.75-1.5-.28-2.24,2.33-5.79,4.6-9.05,4.6-5.3,0-7.85-5.96-7.85-8.49s4.29-1.52,9.59-1.52c2.43,0,4.66-.21,6.35-.19l-.14-.33c-6.15-1.01-18.85-6.45-22.77-12.97-3.65-6.08-4.11-12.75,.03-14.97Z"/></g><g class="bl"><path class="ao" d="M843.32,258.94c-11.29,22.02-37.21,53.73-46.88,49.4-9.68-4.32-.15-44.72,11.14-66.74s15.78-14.3,26.11-10.21c9.88,3.91,20.93,5.53,9.64,27.55Z"/><path class="an" d="M837.47,252.26c-2.02-1.81-5.68-4.6-11.06-6.36-3.7-1.21-6.99-1.54-9.36-1.59"/><path class="ag" d="M812.4,256.58c2.37,.44,5.72,1.33,9.34,3.23,3,1.58,5.23,3.37,6.77,4.81"/><path class="ag" d="M821.73,274.12c-1.14-1.06-3.4-2.86-6.81-3.98-3.69-1.21-6.89-1-8.51-.8"/><path class="ag" d="M802.59,282.47c1.46-.1,3.94-.1,6.81,.8,1.39,.43,3.68,1.33,5.96,3.18"/><path class="al" d="M829.82,235.56c.28-.48,7.82,2.72,7.67,3.16-.03,.1-.43,.05-.85,0-3.62-.43-7.02-2.82-6.81-3.16Z"/><path class="b`" d="M874.4,182.06c-4.4-2.21-8.92,2.61-12.5,8.83-2.28,3.97-7.47,8.42-11.2,12.31l-.22-.08c2.32-1.9,4.19-4.99,3.52-8.76-.57-3.19-2.74-6.07-4.41-6.07s-3.02,2.62-3.02,5.85c0,2.72-2.52,7.65-2.58,9.76,0,.12-.02,.24-.07,.35l-.62,1.37c-.28,.63-1.19,.77-1.65,.24-1.56-1.8-4.6-3.49-6-3.49-1.92,0,0,3.19,0,5.49,0,1.57,1.17,5.81,2.53,8.34,.13,.24,.15,.52,.03,.77h0c-.33,.74-1.45,.75-1.79,.02-2.34-5.06-7.08-12.26-11.04-14.65-5.92-3.57-12.56-3.96-14.1-2.36-6.22,6.46,5.86,3.32,9.57,8.91,6.88,10.35,10.73,14.57,12.99,15.87,.4,.23,.56,.71,.38,1.12l-4.29,9.57c-.21,.46,.03,.99,.52,1.19l5.67,2.21c.5,.19,1.06-.02,1.27-.49l3.1-6.92c.32-.7,1.35-.75,1.75-.08,.85,1.43,1.96,2.91,3.28,4.36,4.66,5.1,9.56,5.82,12.5,5.99,5.25,.31-.32-4.04-5.42-12.26-3.28-5.29-3.69-8.96-5.74-9.23-.64-.08-1.04-.66-.8-1.22l1.33-2.96c.27-.6,1.11-.75,1.6-.27,2.38,2.32,6.16,4.58,9.64,4.58,5.64,0,8.36-5.94,8.36-8.45s-4.57-1.52-10.21-1.52c-2.59,0-4.96-.21-6.76-.19l.15-.33c6.55-1.01,20.08-6.42,24.25-12.91,3.89-6.05,4.37-12.69-.03-14.9Z"/></g><g><polygon class="ar" points="1119.41 526.77 1173.83 490.86 1142.38 439.89 1087.96 475.8 1119.41 526.77"/><g><polygon class="ak" points="1128.68 448.3 1141.82 439.62 1134.53 427.81 1121.39 436.48 1128.68 448.3"/><polygon class="ak" points="1114.89 457.39 1128.04 448.72 1120.75 436.9 1107.6 445.58 1114.89 457.39"/><polygon class="ak" points="1101.44 466.27 1114.58 457.59 1107.3 445.78 1094.15 454.45 1101.44 466.27"/><polygon class="ak" points="1087.98 475.14 1101.13 466.47 1093.84 454.66 1080.7 463.33 1087.98 475.14"/></g><g><polygon class="ak" points="1121.1 435.8 1134.28 427.11 1126.99 415.3 1113.81 423.99 1121.1 435.8"/><polygon class="ak" points="1107.28 444.92 1120.46 436.23 1113.17 424.42 1099.99 433.11 1107.28 444.92"/><polygon class="ak" points="1093.8 453.82 1106.98 445.12 1099.69 433.31 1086.51 442.01 1093.8 453.82"/><polygon class="ak" points="1080.31 462.71 1093.49 454.02 1086.2 442.21 1073.03 450.9 1080.31 462.71"/></g><g><polygon class="ak" points="1113.44 423.59 1126.59 414.92 1119.3 403.1 1106.15 411.78 1113.44 423.59"/><polygon class="ak" points="1099.66 432.68 1112.8 424.01 1105.51 412.2 1092.37 420.87 1099.66 432.68"/><path class="ak" d="M1079.7,429.23l12.36-8.16,7.29,11.81-13.15,8.67-6.52-10.57c.08-.57,.09-1.16,.02-1.76Z"/><path class="ak" d="M1072.73,446.93c-.75,.71,.27-.08,.44-.21,.48-.35,.97-.8,1.35-1.27,.54-.68,.97-1.45,1.31-2.25,.69-1.63,.84-3.51,.17-5.06-.14-.36-.32-.72-.55-1.08v-.02s-.03-.04-.04-.07c.13-.06,.25-.13,.37-.21,1.9-1.29,3.33-3.12,3.81-5.24l6.32,10.24-13.15,8.67-1.56-2.53c.05-.03,.11-.06,.16-.09,.5-.21,.97-.51,1.37-.89Z"/></g><polygon class="ak" points="1105.83 411.26 1118.98 402.58 1111.69 390.77 1098.54 399.44 1105.83 411.26"/><polygon class="ak" points="1092.05 420.35 1105.19 411.68 1097.9 399.86 1084.76 408.54 1092.05 420.35"/><path class="ak" d="M1078.81,426.77c.81-.81,1.42-1.79,1.84-2.87,.02-.05,.04-.1,.06-.16,1.23-3.32,.79-7.49-.81-10.34h0c-.03-.07-.06-.13-.09-.18-.22-.37-.47-.68-.75-.92l5.4-3.56,7.29,11.81-12.11,8c-.06-.67-.44-1.23-.82-1.78Z"/><polyline class="ax" points="1173.83 490.86 1174.19 496.43 1168.65 494.29 1168.6 499.74 1163.33 497.79 1163.81 502.22 1158.78 500.79 1158.22 506.36 1153.37 504.36 1153.37 508.92 1148.76 507.41 1148.64 512.15 1143.33 510.99 1143.33 515.5 1138.12 514.43 1137.46 517.94 1133.83 517.25 1134.26 521.25 1130.27 519.59 1128.67 524.56 1125.37 522.84 1124.68 527.04 1121.43 525.44 1121.49 529.52 1119.41 526.77"/></g><g><polygon class="ar" points="1026.17 526.12 995.28 507.81 1013.13 481.82 1044.01 500.13 1026.17 526.12"/><g><polygon class="ak" points="1020.91 486.1 1013.45 481.68 1017.58 475.66 1025.04 480.08 1020.91 486.1"/><polygon class="ak" points="1028.73 490.74 1021.27 486.32 1025.41 480.29 1032.86 484.72 1028.73 490.74"/><polygon class="ak" points="1036.36 495.27 1028.9 490.84 1033.04 484.82 1040.5 489.24 1036.36 495.27"/><polygon class="ak" points="1044 499.79 1036.54 495.37 1040.67 489.35 1048.13 493.77 1044 499.79"/></g><g><polygon class="ak" points="1025.21 479.73 1017.73 475.3 1021.86 469.28 1029.34 473.71 1025.21 479.73"/><polygon class="ak" points="1033.05 484.38 1025.57 479.95 1029.7 473.93 1037.18 478.36 1033.05 484.38"/><polygon class="ak" points="1040.7 488.92 1033.22 484.49 1037.36 478.46 1044.83 482.9 1040.7 488.92"/><polygon class="ak" points="1048.35 493.45 1040.87 489.02 1045.01 483 1052.48 487.43 1048.35 493.45"/></g><g><polygon class="ak" points="1029.55 473.51 1022.09 469.08 1026.23 463.06 1033.69 467.48 1029.55 473.51"/><polygon class="ak" points="1037.37 478.14 1029.91 473.72 1034.05 467.7 1041.51 472.12 1037.37 478.14"/><path class="ak" d="M1048.7,476.38l-7.01-4.16-4.14,6.02,7.46,4.42,3.7-5.39c-.05-.29-.05-.59-.01-.9Z"/><path class="ak" d="M1052.65,485.41c.43,.36-.15-.04-.25-.11-.27-.18-.55-.41-.76-.65-.31-.34-.55-.74-.74-1.15-.39-.83-.48-1.79-.1-2.58,.08-.19,.18-.37,.31-.55h0s0-.03,.02-.04c-.07-.03-.14-.07-.21-.11-1.08-.66-1.89-1.59-2.16-2.67l-3.58,5.22,7.46,4.42,.88-1.29s-.06-.03-.09-.05c-.28-.11-.55-.26-.78-.45Z"/></g><polygon class="ak" points="1033.87 467.22 1026.41 462.79 1030.55 456.77 1038.01 461.19 1033.87 467.22"/><polygon class="ak" points="1041.69 471.85 1034.23 467.43 1038.37 461.41 1045.83 465.83 1041.69 471.85"/><path class="ak" d="M1049.2,475.13c-.46-.41-.8-.91-1.04-1.46-.01-.03-.02-.05-.03-.08-.7-1.69-.45-3.82,.46-5.27h0s.03-.07,.05-.09c.13-.19,.27-.35,.42-.47l-3.06-1.82-4.14,6.02,6.87,4.08c.04-.34,.25-.63,.46-.91Z"/><polyline class="ax" points="995.28 507.81 995.08 510.65 998.23 509.55 998.26 512.33 1001.24 511.34 1000.97 513.6 1003.83 512.87 1004.15 515.71 1006.9 514.69 1006.9 517.01 1009.51 516.24 1009.58 518.66 1012.59 518.07 1012.59 520.37 1015.55 519.82 1015.92 521.61 1017.98 521.26 1017.74 523.3 1020 522.46 1020.91 524.99 1022.78 524.11 1023.17 526.25 1025.02 525.44 1024.99 527.52 1026.17 526.12"/></g><g><polygon class="ar" points="1040.9 403.23 988.19 370.3 1018.65 323.56 1071.36 356.49 1040.9 403.23"/><g><polygon class="ak" points="1031.92 331.27 1019.19 323.32 1026.25 312.48 1038.98 320.44 1031.92 331.27"/><polygon class="ak" points="1045.27 339.61 1032.54 331.66 1039.6 320.82 1052.33 328.78 1045.27 339.61"/><polygon class="ak" points="1058.3 347.75 1045.57 339.8 1052.63 328.96 1065.36 336.92 1058.3 347.75"/><polygon class="ak" points="1071.33 355.89 1058.6 347.94 1065.66 337.1 1078.39 345.06 1071.33 355.89"/></g><g><polygon class="ak" points="1039.26 319.82 1026.5 311.84 1033.56 301.01 1046.32 308.98 1039.26 319.82"/><polygon class="ak" points="1052.64 328.18 1039.88 320.2 1046.94 309.37 1059.7 317.34 1052.64 328.18"/><polygon class="ak" points="1065.7 336.33 1052.94 328.36 1060 317.53 1072.76 325.5 1065.7 336.33"/><polygon class="ak" points="1078.76 344.49 1066 336.52 1073.05 325.69 1085.81 333.66 1078.76 344.49"/></g><g><polygon class="ak" points="1046.68 308.61 1033.94 300.66 1041 289.83 1053.73 297.78 1046.68 308.61"/><polygon class="ak" points="1060.03 316.96 1047.29 309 1054.35 298.17 1067.08 306.12 1060.03 316.96"/><path class="ak" d="M1079.35,313.79l-11.97-7.48-7.06,10.83,12.73,7.95,6.32-9.7c-.08-.52-.09-1.06-.02-1.61Z"/><path class="ak" d="M1086.1,330.02c.73,.65-.26-.08-.43-.19-.46-.32-.94-.74-1.3-1.17-.53-.62-.94-1.33-1.27-2.06-.67-1.5-.82-3.22-.16-4.64,.13-.33,.31-.66,.53-.99v-.02s.03-.04,.04-.06c-.12-.06-.24-.12-.36-.2-1.84-1.18-3.23-2.86-3.69-4.8l-6.12,9.39,12.73,7.95,1.51-2.32c-.05-.02-.11-.06-.16-.09-.49-.2-.94-.47-1.33-.82Z"/></g><polygon class="ak" points="1054.05 297.3 1041.32 289.35 1048.37 278.52 1061.1 286.47 1054.05 297.3"/><polygon class="ak" points="1067.4 305.64 1054.66 297.69 1061.72 286.86 1074.45 294.81 1067.4 305.64"/><path class="ak" d="M1080.21,311.53c-.78-.74-1.37-1.64-1.78-2.63-.02-.05-.03-.1-.05-.14-1.19-3.04-.76-6.87,.78-9.48h0c.03-.06,.05-.12,.09-.17,.21-.34,.46-.62,.72-.84l-5.23-3.26-7.06,10.83,11.72,7.33c.06-.61,.43-1.13,.79-1.64Z"/><polyline class="ax" points="988.19 370.3 987.85 375.41 993.22 373.44 993.26 378.44 998.36 376.66 997.9 380.72 1002.77 379.41 1003.31 384.51 1008.01 382.69 1008.01 386.86 1012.48 385.48 1012.59 389.82 1017.73 388.76 1017.73 392.9 1022.78 391.91 1023.42 395.13 1026.93 394.51 1026.51 398.17 1030.38 396.65 1031.92 401.2 1035.12 399.62 1035.79 403.48 1038.94 402.01 1038.88 405.75 1040.9 403.23"/></g><g><polygon class="ar" points="1061.02 239.73 1097.07 216.31 1076.23 183.06 1040.18 206.48 1061.02 239.73"/><g><polygon class="ak" points="1067.15 188.54 1075.86 182.88 1071.03 175.18 1062.33 180.84 1067.15 188.54"/><polygon class="ak" points="1058.02 194.47 1066.73 188.82 1061.9 181.11 1053.2 186.77 1058.02 194.47"/><polygon class="ak" points="1049.11 200.26 1057.82 194.6 1052.99 186.9 1044.28 192.56 1049.11 200.26"/><polygon class="ak" points="1040.2 206.05 1048.91 200.39 1044.08 192.69 1035.37 198.35 1040.2 206.05"/></g><g><polygon class="ak" points="1062.14 180.39 1070.87 174.72 1066.04 167.02 1057.31 172.69 1062.14 180.39"/><polygon class="ak" points="1052.98 186.34 1061.71 180.67 1056.88 172.97 1048.16 178.64 1052.98 186.34"/><polygon class="ak" points="1044.05 192.14 1052.78 186.47 1047.95 178.77 1039.22 184.44 1044.05 192.14"/><polygon class="ak" points="1035.12 197.95 1043.85 192.28 1039.02 184.57 1030.29 190.24 1035.12 197.95"/></g><g><polygon class="ak" points="1057.06 172.43 1065.77 166.77 1060.94 159.07 1052.24 164.72 1057.06 172.43"/><polygon class="ak" points="1047.93 178.36 1056.64 172.7 1051.81 165 1043.1 170.65 1047.93 178.36"/><path class="ak" d="M1034.71,176.11l8.19-5.32,4.83,7.7-8.71,5.66-4.32-6.9c.05-.37,.06-.75,.01-1.15Z"/><path class="ak" d="M1030.1,187.65c-.5,.46,.18-.05,.29-.14,.32-.23,.64-.52,.89-.83,.36-.44,.65-.94,.87-1.47,.46-1.06,.56-2.29,.11-3.3-.09-.24-.21-.47-.37-.7h0s-.01-.04-.02-.05c.08-.04,.17-.09,.24-.14,1.26-.84,2.21-2.04,2.52-3.42l4.18,6.68-8.71,5.66-1.03-1.65s.07-.04,.11-.06c.33-.14,.65-.33,.91-.58Z"/></g><polygon class="ak" points="1052.02 164.38 1060.73 158.72 1055.9 151.02 1047.19 156.68 1052.02 164.38"/><polygon class="ak" points="1042.89 170.31 1051.6 164.66 1046.77 156.95 1038.06 162.61 1042.89 170.31"/><path class="ak" d="M1034.13,174.5c.53-.53,.94-1.17,1.22-1.87,.01-.03,.02-.07,.04-.1,.82-2.16,.52-4.89-.54-6.74h0s-.04-.08-.06-.12c-.15-.24-.31-.44-.5-.6l3.57-2.32,4.83,7.7-8.02,5.22c-.04-.43-.29-.8-.54-1.16Z"/><polyline class="ax" points="1097.07 216.31 1097.3 219.94 1093.63 218.54 1093.6 222.1 1090.11 220.82 1090.43 223.71 1087.1 222.78 1086.72 226.41 1083.51 225.11 1083.51 228.08 1080.46 227.1 1080.38 230.19 1076.86 229.43 1076.86 232.38 1073.41 231.67 1072.97 233.97 1070.57 233.52 1070.86 236.12 1068.21 235.04 1067.15 238.28 1064.97 237.16 1064.51 239.9 1062.35 238.86 1062.39 241.52 1061.02 239.73"/></g><g><path class="aw" d="M1258.5,732.62c0,8.63-12.15,15.29-19.65,15.29s-27.15-.19-24.65-8.49c2.86-9.51,17.92-43.87,30.73-29.89,9.65,10.53,13.58,14.47,13.58,23.1Z"/><path class="aj" d="M1211.11,741.13c-.39,.28-3.18,2.32-3.47,6-.21,2.63,.93,5.33,2.77,6.75,2.86,2.2,5.64-.04,14.56-.75,1.77-.14,5.3-.41,9.71,0,6.36,.59,7.34,1.92,13.17,2.25,4.68,.27,7.47,.38,10.4-1.5,1.24-.8,4.71-3.38,5.55-8.24,.7-4.09-.88-7.31-1.39-8.24"/><path class="aj" d="M1218.92,729.23c-4.7,1.44-7.89,4.87-8.12,8.68-.28,4.67,4.01,7.62,4.51,7.96"/><path class="aj" d="M1257.44,728.21c3.32,.98,5.89,3.35,6.36,6.11,.7,4.05-3.1,8.91-9.19,9.51"/><path class="aj" d="M1229.17,720.05c-.9-1.21-2-3.08-2.12-5.43-.24-4.55,3.41-6.28,2.83-10.19-.54-3.66-4.1-4.58-3.53-6.79,.56-2.18,4.59-3.48,7.77-3.4,6.55,.18,13.33,6.35,14.13,13.59,.28,2.57-.4,5.01-.4,5.01h0c-.41,1.6-1.18,3.33-2.43,5.18"/><path class="aj" d="M1227.76,711.9c-4.86,.49-11.38,5.63-12.01,10.19-.71,5.09,3.72,8.54,4.03,8.83"/><path class="aj" d="M1247.55,713.26c4.89-.05,9.23,3.03,10.6,7.47,1.32,4.28-.39,8.95-4.24,11.55"/></g></svg>