<?xml version="1.0" encoding="UTF-8"?><svg id="a" xmlns="http://www.w3.org/2000/svg" width="1600" height="900" viewBox="0 0 1600 900"><defs><style>.b{fill:#ed7c33;}.c{fill:#ef9033;}.d{fill:#fff;}.e{fill:#6a9b52;}.f{fill:#866c64;}.g{fill:#8cc63f;}.h{fill:#a78171;}.i{fill:#b02f34;}.j{fill:#bbcad2;}.k{fill:#c49a6d;}.l{fill:#468a3f;}.m{fill:#7ac4fb;}.n{fill:#f0d6a5;}.n,.o{stroke:#bf9b71;stroke-miterlimit:10;}.o{fill:#f3d4a9;}</style></defs><path class="e" d="M746.5,632.5c-1.29-4.78-1.27-5.9-1-6,.58-.22,2.24,4.21,4,4,1.6-.19,2.09-4.1,3-4,.99,.1,.87,4.82,2,5,1.22,.2,2.46-5.1,4-5,.9,.06,1.54,1.93,2,4"/><rect class="m" x="-.5" width="1600" height="900"/><path class="g" d="M1483.4,511.38c-28.56-4.56-53.94-7.43-79.24-8.86-206.64-11.7-428.45,24.38-486.12,35.26-204.51,38.59-250.36,71.7-348.31,48.14-35.16-8.46-61.42-20.46-146.47-41.18-93.78-22.84-140.75-36.44-181.99-34.4-93.32,4.62-142.47,42.86-239.17,33.87-44.46-4.14-79.55-16.45-102.09-26.1C-65.82,649.07-31.64,780.04,2.55,911H1643.46c103.11-7.09,186.24-70.11,200.41-149.6,12.84-71.99-33.19-144.55-115.25-180.14-51.95-21.82-136.33-52.49-245.22-69.88Z"/><path class="e" d="M1289,378c0,26.23-94,38-116,54-24.79,18.03-111,23-106-51,2.77-40.96,52.73-62.6,78.5-46,29.5,19,143.5,16.77,143.5,43Z"/><path class="h" d="M1189,424c4.53,19.48,3.69,24.31,2,25-3.83,1.56-12.15-18.06-26-18-.58,0-5.35,.02-6,2-1.41,4.29,19.36,9.46,35,25,20.99,20.87,22.19,49.94,28,49,2.4-.39,3.7-5.58,4-9,1.42-16.47-17.87-23.75-26-44-2.77-6.91-5.15-17.58-2-33"/><g><path class="o" d="M841,843c3,44-32.91,40.44-64,36-28-4-67.43,17.51-64-34,1-15,36.82-26.98,68-33,57-11,59.04,16.95,60,31Z"/><path class="o" d="M990,895c0,15.46-31.68,34-53.5,34s-49.5-16.54-49.5-32,28.18-31,50-31,53,13.54,53,29Z"/><path class="o" d="M804,775c6,26-23.67,24-43,24s-60,7-44-19c3.76-6.11,25.01-14.41,44-18,37-7,41.39,6,43,13Z"/><path class="o" d="M731,727c-.59,9.37-27,27-54.5,27-19.05,0-57.38,5.63-48.5-21,7-21,29.95-21,49-21s55-1,54,15Z"/><path class="o" d="M576,737c-5.04,3.39-16.05,11-34,11s-51,9-43-13c2.08-5.71,26.08-20.91,44-22,20.56-1.26,64.84,2.61,33,24Z"/><path class="n" d="M473,732c0,8.56-24.5,21-43,21s-50,.56-50-8,31.24-17.04,49.5-20,43.5-1.56,43.5,7Z"/><path class="n" d="M458,692c0,8.28-32.97,23-46.5,23s-49.5,2.28-49.5-6,36.47-23,50-23,46-2.28,46,6Z"/><path class="n" d="M473,661c0,9.66-18.4,12-30,12s-49,.66-49-9,38.4-15,50-15,29,2.34,29,12Z"/><path class="n" d="M509,631c-.58,4.66-18.82,7-26,7s-32,1.69-32-3,24.82-12,32-12,27,0,26,8Z"/><path class="n" d="M544,608c-1.32,2.42-16.48,7-22,7s-31,1-28-7c.97-2.59,22.48-5,28-5s28-6,22,5Z"/><path class="n" d="M579,588c0,3.04-12.48,1.4-18,6-6,5-44,1.04-44-2s30.82-9,38-9,24,1.96,24,5Z"/></g><path class="f" d="M1257,456c4.59,5.08,10.42,13.23,10,23-.54,12.63-11.26,21.86-10,23,1.09,.99,10.64-4.57,20-12,21.35-16.94,37.31-24.98,36-29-.65-1.99-2.51-2-3-2-9.31,.05-21.87,10.83-30,20-1.63,1.84-2.55,2.97-4,3-5.33,.12-9.96-14.67-13-27"/><path class="e" d="M1348,430c13,53-30.62,28-69,28-6.91,0-9.69,.08-12.91,0-3.49-.09-6.99-.35-6.99-.35,0,0-.18-.01-.34-.02-46.1-3.12-50.93-16.46-50.93-16.46-1.47-4.3-.02-8.47,1.17-11.17,5.24-11.9,52.62-33,91-33s46.16,25.49,48,33Z"/><path class="d" d="M1057.76,154.78c-5.48,1.55-7.49-3.1-18.74-5.55-7.99-1.74-12.35-.58-15.17,.92-1.42,.75-3.86,2.1-4.46,4.62-.74,3.11,1.73,6.21,2.68,7.4,2.93,3.68,6.39,4.43,6.14,5.57-.21,.94-2.57,.4-6.14,1.83-1.25,.5-4.31,1.72-6.25,4.62-2.05,3.07-1.84,6.51-1.78,7.4,.58,9.52,13.37,15.81,16.96,17.57,5.35,2.63,14,6.88,22.31,3.7,4.02-1.54,4.33-3.42,12.49-7.4,4.29-2.09,7.02-3.39,10.71-3.7,4.42-.38,7.56,.88,12.49,2.77,12.69,4.87,19.04,7.31,20.53,7.4,10.12,.62,13.08-11.38,23.2-10.17,1.13,.13,3.13,.71,7.14,1.85,9.22,2.63,9.58,3.67,12.49,3.7,6.81,.07,7.56-5.57,13.39-5.55,7.21,.03,8.66,8.69,16.06,9.25,5.76,.44,12.04-4.26,14.28-10.17,3.29-8.71-2.91-18.18-8.92-22.19-6.49-4.33-9.97-.45-17.85-3.7-12.63-5.21-9.83-17.71-21.42-23.12-10.47-4.89-24.88-.34-33.02,4.62-5.52,3.37-6.2,5.74-10.71,6.47-7.8,1.27-10.41-5.06-22.31-6.47-3.53-.42-9.31-1.1-15.17,1.85-5.23,2.63-4.92,5.34-8.92,6.47Z"/><g><polygon class="c" points="601.45 520.15 569.87 514.82 635.59 406.95 722 518.38 715.39 522.37 601.45 520.15"/><path class="j" d="M638.57,443.35c-11.66,15.68-23.33,31.37-34.99,47.06-1.21,1.98-3.02,5.32-4.27,9.77-1.96,6.95-1.46,12.7-1.28,15.09,.96,12.65,1.99,59.43,.85,70.14-.1,.91-.42,3.52,1.11,5.6,1.1,1.49,2.74,2.15,7,3,5.72,1.15,8.54,1.13,15,2,4.42,.6,4.29,.77,7,1,2.42,.21,4.95,.28,11,0,5.27-.25,9.72-.61,14-1,4.28-.39,7.82-.72,12.31-1.27,3.64-.45,15.61-2.51,28.59-6.66,1.91-.61,6.24-2.06,7.68-5.77,.99-2.54,.2-5.07,0-5.77-1.23-4.38-1.93-17.6,0-53.71"/><path class="k" d="M625,597c2.17,.39,5.26,.84,9,1,1.08,.05,2.76,.1,6,0,3.64-.11,8.09-.24,14-1,3.74-.48,8.27-1.25,13.38-2.5l-.03-54.72c-.58-2.03-2.79-8.87-9.57-13.48-4.72-3.21-9.39-3.81-11.65-3.94-2.51,.39-7.11,1.46-11.83,4.81-5.57,3.96-8.28,8.96-9.39,11.37,.03,19.48,.05,38.97,.08,58.45Z"/><g><path class="i" d="M640.09,545.13h-5.17c-.13,.16-.2,.39-.2,.69,0,.27,.05,.51,.14,.71l1.83,.1v1.06l-1.77,.1c-.04,.11-.07,.23-.09,.38-.01,.1-.02,.24,0,.44,0,.21,0,.36,0,.44,.5,.05,1.07,.08,1.71,.09,.4,0,.98,0,1.74,0,.8,0,1.39,0,1.75,0v1.85h-9.11v-10.58h9.11l.05,4.74Zm-.13,5.72v-1.53l-5.18-.04-.03-1.58c.23-.07,.54-.11,.92-.11,.59,0,.9,.01,.94,.01v-.84l-1.89-.1c-.07-.29-.1-.58-.1-.87,0-.32,.05-.58,.14-.79h5.21v-4.42h-8.88l-.06,10.26h8.94Zm-.16-.18h-8.57v-9.9h8.52l.05,4.04h-5.17l-.17,.2c0,.06,0,.38,0,.95,0,.39,.03,.69,.12,.9l1.87,.11v.4l-1.81,.1c-.07,.4-.1,.75-.1,1.05,0,.42,.06,.75,.19,1h5.04l.05,1.16Zm-4.22-9.29v-.29l-4.05-.04v3.89h.21l.09-3.49,3.76-.07Z"/><path d="M649.13,550.77c-2.84,.09-4.88,.14-6.11,.14-.93,0-1.81-.02-2.61-.05v-10.39c.29,.04,.61,.06,.97,.06s.91-.03,1.66-.07,1.3-.07,1.67-.07c.92,0,1.68,.12,2.27,.36,.75,.3,1.35,.81,1.8,1.54,.26,.43,.39,.93,.39,1.51,0,.5-.1,.95-.3,1.35-.3,.57-.73,1.03-1.29,1.36-.39,.23-.93,.44-1.62,.64l3.18,3.63Zm-.12-7.4c-.28-1.11-.83-1.89-1.67-2.33-.64-.33-1.53-.5-2.68-.5-.33,0-.82,.02-1.48,.05-.66,.03-1.14,.05-1.45,.05-.44,0-.83-.03-1.16-.1l-.03,10.19h8.35l-3.15-3.6v-.19c.74-.02,1.4-.26,1.98-.7,.87-.66,1.3-1.49,1.3-2.5,0-.13,0-.25-.02-.37Zm-.2,.92c-.11,.52-.39,1-.81,1.43-.38,.38-.81,.66-1.3,.84-.1,.06-.3,.1-.61,.13-.26,.02-.45,.09-.56,.2l.04,.33,2.91,3.31h-7.73l-.05-9.69c.27,.03,.57,.04,.9,.04s.85-.02,1.54-.07c.69-.05,1.21-.07,1.55-.07,.83,0,1.51,.1,2.06,.31,.69,.25,1.25,.68,1.69,1.29,.28,.66,.42,1.17,.42,1.52,0,.15-.02,.29-.05,.44Zm-1.04,5.91l-1.99-2.23h-.39l1.6,1.86c-.15,.04-.4,.05-.76,.04-.33,0-.58,.03-.75,.1v.2l2.28,.03Zm.71-6.29h-.21c-.03,.44-.29,.9-.8,1.39-.08,.11-.29,.23-.65,.37-.3,.11-.45,.27-.45,.46,0,.05,0,.11,.02,.17l1-.47c.33-.21,.59-.48,.8-.83,.2-.35,.3-.71,.28-1.09Zm-1.15,6.12h-.07v-.09h.07v.09Z"/><path class="b" d="M653.24,551h-3.73l.06-10.58h3.67v10.58Zm-.13-.14v-10.31h-3.46l-.06,10.31h3.51Zm-.15-.17h-3.15v-9.95h3.11l.05,9.95Zm-1.37-9.29s0-.05,0-.11c0-.04,0-.07,0-.1,0-.04-.02-.07-.05-.1l-1.45-.03v6.04h.21l.09-5.63c.14-.06,.33-.09,.58-.09,.46,0,.67,0,.62,.01Z"/><path class="l" d="M662.68,547.52c-.31,.96-.86,1.74-1.66,2.34-.8,.61-1.65,.91-2.56,.91-.83,0-1.6-.22-2.29-.65-.72-.45-1.3-1.08-1.73-1.91-.39-.75-.59-1.62-.59-2.59,0-1.12,.26-2.08,.77-2.88,.46-.74,1.03-1.3,1.7-1.69,.68-.39,1.4-.59,2.16-.59,.31,0,.62,.03,.93,.1,.63,.13,1.22,.43,1.78,.89,.58,.48,1,1.06,1.26,1.72l-3.69,2.5c.75,.47,2.06,1.09,3.93,1.86Zm-.24,.09c-.08-.04-.75-.34-2.01-.9-.81-.35-1.45-.69-1.93-1,.42-.3,1.05-.74,1.89-1.32s1.47-1.02,1.88-1.32c-.16-.52-.68-1.12-1.56-1.81-.55-.43-1.24-.65-2.06-.65-.9,0-1.73,.23-2.49,.7-.57,.35-1.05,.84-1.43,1.45s-.61,1.26-.69,1.94c-.04,.32-.07,.63-.07,.94,0,1.43,.42,2.59,1.27,3.47,.98,1.03,2.07,1.54,3.25,1.54,.41,0,.82-.07,1.22-.2,.63-.22,1.19-.57,1.69-1.04,.56-.54,.91-1.14,1.06-1.79Zm-.27,.1c-.11,.62-.45,1.19-1.04,1.69-.5,.43-1.06,.73-1.68,.9-.33,.09-.67,.14-1.01,.14-.65,0-1.27-.17-1.87-.5-.59-.33-1.11-.8-1.56-1.4-.58-.79-.87-1.77-.87-2.96,0-.78,.14-1.48,.43-2.1,.37-.81,.91-1.47,1.62-1.96,.71-.49,1.46-.73,2.26-.73,.74,0,1.43,.18,2.05,.55,.67,.4,1.18,.95,1.52,1.67-.88,.62-2.19,1.53-3.93,2.75,.55,.33,1.22,.67,2.02,1.03,.69,.31,1.38,.62,2.06,.92Zm-.74,.23l-2.81-1.22v.33l1.24,.56c.5,.22,.9,.42,1.19,.6l-.69,.8c.06,.09,.13,.14,.2,.14,.06,0,.15-.06,.27-.17,.12-.11,.21-.18,.27-.2,.25-.3,.38-.52,.38-.66,0-.06-.02-.12-.05-.17Z"/></g></g><path class="d" d="M1068,97c0-16.73,23.78-31.59,44-33,21.29-1.48,25.2,12.88,46,12,23.34-.99,29.69-23.24,58-24,5.85-.16,12.23-.24,17,4,9.89,8.79,.97,25.54,10,33,7.51,6.21,16.91-2.72,29,4,7.17,3.99,13.33,12.39,13,21-.5,13.2-16.14,24.63-29,24-15.94-.79-20.67-19.76-33-18-11.06,1.58-10.5,17.31-26,23-12.44,4.57-25.44-.92-28-2-12.63-5.33-12.48-12.66-23-16-11.45-3.64-17.06,3.31-30,4-21.22,1.14-48-15.3-48-32Z"/><path class="e" d="M1202,505c1.64-2.57,2.51-3.16,3-3,.69,.23,.67,2,1,2,.43,0,.63-3,1-3s.58,3,1,3c.33,0,.38-1.89,1-2,.67-.12,1.22,2.04,2,2,1.05-.06,1.52-4.05,2-4,.47,.05,.42,3.95,1,4,.3,.03,.48-.97,1-1,.38-.02,.73,.48,1,1"/><path class="e" d="M1012.97,747c-14.12-11.14-18.42-15.16-17.93-15.63,1.08-1.05,24.75,16.92,32.61,12.23,2.37-1.41,3.09-4.77,3.44-6.39,1.27-5.89-2.09-10.06-1-10.6,1.5-.73,7.33,11.44,14.67,11.55,9.11,.14,15.22-18.33,17.93-17.67,1.56,.38,1.3,6.88-3.26,26.51"/><path class="e" d="M1189.5,733.94c.24-19.31,.77-24.44,1.3-24.44,1.07-.01-.45,20.69,9.1,22.15,8.71,1.33,20.55-14.25,26-12.99,3.44,.8,2.38,7.86-1.3,18.33"/><path class="e" d="M230.5,513.5c-1.29-4.78-1.27-5.9-1-6,.58-.22,2.24,4.21,4,4,1.6-.19,2.09-4.1,3-4,.99,.1,.87,4.82,2,5,1.22,.2,2.46-5.1,4-5,.9,.06,1.54,1.93,2,4"/><path class="e" d="M712,647c-.51-6.97,.19-8.77,1-9,1.8-.51,4.7,6.59,7,6,1.91-.49,1.63-5.84,3-6,.94-.11,2.05,2.29,3,5"/><path class="e" d="M1286.76,501.19c.81-4.88,.68-5.99,.4-6.07-.6-.17-1.81,4.41-3.59,4.38-1.56-.03-2.3-3.84-3.38-3.68-1.06,.15-.9,3.87-2.1,4.12-1.13,.23-1.85-2.93-3.87-3.52-1.33-.39-3.47,.27-7.08,4.61"/><path class="e" d="M466,813c-6.16-7.74-7.28-9.75-7-10,.65-.58,8.35,8.77,12,7,3.03-1.47,1.68-9.85,3-10,1.28-.15,2.29,7.76,5,8,2.3,.21,4.28-5.28,5-5,.41,.16,.28,2.15-2,10"/></svg>