<svg id="Layer_1" data-name="Layer 1" xmlns="http://www.w3.org/2000/svg" width="200" height="200" viewBox="0 0 200 200"><defs><style>.cls-1{fill:#e84033;}.cls-2{fill:#603813;stroke:#42210b;stroke-miterlimit:10;}.cls-3{fill:#5b483d;}</style></defs><polygon class="cls-1" points="96.69 181.53 28.22 137.53 67.79 75.08 136.26 119.07 96.69 181.53"/><polygon class="cls-2" points="85.03 85.37 68.5 74.75 77.67 60.27 94.2 70.9 85.03 85.37"/><polygon class="cls-2" points="102.38 96.52 85.84 85.89 95.01 71.42 111.55 82.05 102.38 96.52"/><polygon class="cls-2" points="119.3 107.39 102.76 96.77 111.93 82.29 128.47 92.92 119.3 107.39"/><polygon class="cls-2" points="136.23 118.27 119.69 107.64 128.86 93.17 145.4 103.8 136.23 118.27"/><polygon class="cls-2" points="94.57 70.07 77.99 59.42 87.16 44.95 103.73 55.6 94.57 70.07"/><polygon class="cls-2" points="111.95 81.24 95.37 70.59 104.54 56.12 121.12 66.77 111.95 81.24"/><polygon class="cls-2" points="128.91 92.14 112.34 81.49 121.5 67.02 138.08 77.67 128.91 92.14"/><polygon class="cls-2" points="145.88 103.04 129.3 92.39 138.47 77.92 155.05 88.57 145.88 103.04"/><polygon class="cls-2" points="104.2 55.1 87.66 44.48 96.83 30 113.37 40.63 104.2 55.1"/><polygon class="cls-2" points="121.54 66.25 105 55.62 114.17 41.15 130.71 51.78 121.54 66.25"/><path class="cls-2" d="M146.65,62,131.1,52,121.93,66.5l16.54,10.62,8.21-13A8.13,8.13,0,0,1,146.65,62Z"/><path class="cls-2" d="M155.42,83.7c1,.87-.34-.1-.55-.26a9.29,9.29,0,0,1-1.7-1.56,11.81,11.81,0,0,1-1.65-2.75,7.84,7.84,0,0,1-.21-6.2,6.42,6.42,0,0,1,.69-1.32l0,0a.2.2,0,0,1,0-.08l-.47-.26a10.94,10.94,0,0,1-4.79-6.42l-7.94,12.54L155.39,88l2-3.1-.21-.11A5.89,5.89,0,0,1,155.42,83.7Z"/><polygon class="cls-2" points="113.78 39.99 97.24 29.36 106.41 14.89 122.95 25.52 113.78 39.99"/><polygon class="cls-2" points="131.12 51.13 114.58 40.51 123.75 26.04 140.29 36.66 131.12 51.13"/><path class="cls-2" d="M147.76,59a10.26,10.26,0,0,1-2.31-3.52c0-.07,0-.13-.07-.19a15.65,15.65,0,0,1,1-12.67v0c0-.06.07-.14.11-.2a4.87,4.87,0,0,1,.94-1.13l-6.79-4.36-9.16,14.47,15.23,9.8A4.86,4.86,0,0,1,147.76,59Z"/><polyline class="cls-3" points="28.22 137.53 27.78 144.35 34.75 141.72 34.81 148.41 41.44 146.02 40.84 151.45 47.16 149.7 47.87 156.51 53.97 154.07 53.97 159.65 59.77 157.8 59.92 163.61 66.6 162.19 66.6 167.72 73.15 166.4 73.99 170.7 78.55 169.87 78 174.76 83.03 172.73 85.04 178.81 89.19 176.71 90.06 181.85 94.15 179.89 94.08 184.89 96.69 181.53"/></svg>