<svg id="Layer_1" data-name="Layer 1" xmlns="http://www.w3.org/2000/svg" width="200" height="200" viewBox="0 0 200 200"><defs><style>.cls-1{fill:#e84033;}.cls-2{fill:#603813;stroke:#42210b;stroke-miterlimit:10;}.cls-3{fill:#5b483d;}</style></defs><polygon class="cls-1" points="91.3 181.33 159.77 137.33 120.2 74.88 51.73 118.87 91.3 181.33"/><polygon class="cls-2" points="102.96 85.18 119.5 74.55 110.33 60.08 93.79 70.7 102.96 85.18"/><polygon class="cls-2" points="85.61 96.32 102.15 85.69 92.98 71.22 76.44 81.85 85.61 96.32"/><polygon class="cls-2" points="68.69 107.19 85.23 96.57 76.06 82.09 59.52 92.72 68.69 107.19"/><polygon class="cls-2" points="51.76 118.07 68.3 107.44 59.13 92.97 42.59 103.6 51.76 118.07"/><polygon class="cls-2" points="93.43 69.87 110 59.22 100.83 44.75 84.26 55.4 93.43 69.87"/><polygon class="cls-2" points="76.04 81.04 92.62 70.39 83.45 55.92 66.87 66.57 76.04 81.04"/><polygon class="cls-2" points="59.08 91.94 75.66 81.29 66.49 66.82 49.91 77.47 59.08 91.94"/><polygon class="cls-2" points="42.11 102.84 58.69 92.19 49.52 77.72 32.94 88.37 42.11 102.84"/><polygon class="cls-2" points="83.79 54.91 100.33 44.28 91.16 29.81 74.62 40.43 83.79 54.91"/><polygon class="cls-2" points="66.45 66.05 82.99 55.42 73.82 40.95 57.28 51.58 66.45 66.05"/><path class="cls-2" d="M41.34,61.82l15.55-10L66.06,66.3,49.52,76.92,41.31,64A7.73,7.73,0,0,0,41.34,61.82Z"/><path class="cls-2" d="M32.57,83.5c-.95.87.34-.1.56-.25a9.29,9.29,0,0,0,1.69-1.57,11.61,11.61,0,0,0,1.65-2.75,7.8,7.8,0,0,0,.21-6.2A6.42,6.42,0,0,0,36,71.41l0,0,0-.08c.15-.08.31-.16.46-.26a10.87,10.87,0,0,0,4.79-6.42l8,12.54L32.6,87.8l-2-3.09.2-.12A5.69,5.69,0,0,0,32.57,83.5Z"/><polygon class="cls-2" points="74.22 39.79 90.75 29.17 81.58 14.69 65.05 25.32 74.22 39.79"/><polygon class="cls-2" points="56.87 50.94 73.41 40.31 64.24 25.84 47.7 36.47 56.87 50.94"/><path class="cls-2" d="M40.23,58.8a10.16,10.16,0,0,0,2.31-3.52,1.46,1.46,0,0,0,.07-.19,15.65,15.65,0,0,0-1-12.67h0l-.11-.21a4.87,4.87,0,0,0-.94-1.13l6.79-4.36,9.17,14.47L41.25,61A4.7,4.7,0,0,0,40.23,58.8Z"/><polyline class="cls-3" points="159.77 137.33 160.21 144.15 153.24 141.53 153.18 148.21 146.56 145.82 147.16 151.25 140.83 149.5 140.12 156.31 134.03 153.87 134.03 159.45 128.22 157.6 128.07 163.41 121.4 161.99 121.4 167.52 114.84 166.2 114 170.5 109.44 169.67 109.99 174.56 104.96 172.53 102.95 178.61 98.8 176.51 97.93 181.65 93.84 179.69 93.92 184.69 91.3 181.33"/></svg>