<svg id="Layer_1" data-name="Layer 1" xmlns="http://www.w3.org/2000/svg" width="200" height="200" viewBox="0 0 200 200"><defs><style>.cls-1,.cls-3{fill:#744500;}.cls-1,.cls-5,.cls-6{stroke:#000;stroke-miterlimit:10;}.cls-2{fill:#ffddf1;}.cls-4,.cls-5{fill:#5f3300;}.cls-6,.cls-7{fill:#fff;}.cls-8{fill:#2a1700;}</style></defs><path class="cls-1" d="M40.24,78.84c1.87,1.75,3.89,4.33,6.79,6.85,7.47,6.49,10.07,16.42,0,16.64-4.8.11-9.66-1.67-14.83-7.57a13.13,13.13,0,0,1-3.54-10.28,7.21,7.21,0,0,1-5.56-3.63C20.77,77,19.68,73.37,27.8,68.39c8.94-5.48,11.68-2.86,14,1C43.48,72.05,42.58,75.79,40.24,78.84Z"/><path class="cls-1" d="M104,97.5c6.34-10.93,7.19-21.3,3-25a13.37,13.37,0,0,0-15.37-.42c-4.82,3.4-6.63,11.2-3.37,18.54"/><path class="cls-1" d="M97.65,70.15c7.06,4.13,14.3,2.91,16.88-1,2-2.92,1.32-7.48-1-10.11-4.77-5.5-17.92-4-24.6,2.89-6.43,6.64-7.07,18.54-.72,28.65"/><path class="cls-1" d="M133.26,148.6c10.19,5.86,17.85-.21,22.37,5.55s-1.33,10.69-6,15.33c-8.72,8.69-18.06,12.09-21.61,1.23C125.79,163.84,127,145,133.26,148.6Z"/><path class="cls-2" d="M138,156.47c3-2.33,7.09-2,9.2.66s1.41,6.76-1.56,9.09-6.63,5.2-9.2-.66C135.05,162.45,135,158.8,138,156.47Z"/><ellipse class="cls-1" cx="76" cy="115" rx="55.5" ry="36.5"/><path class="cls-3" d="M35.26,132.48s-2,2.69-8.19-.1-5.49-6.09-5.49-6.09a7.51,7.51,0,1,0,13.68,6.19Z"/><path class="cls-1" d="M117.29,119.82a27.15,27.15,0,0,0,5.4-3.3c10.1-7.94,10.82-20.43,10.89-22.21.17-3.89.35-8.22-2.65-12.1-.38-.49-3.76-4.73-9-5.09-6-.4-12.25,4.4-14.53,12"/><path class="cls-1" d="M127.76,79.54c2.73,7.7,9,11.45,13.52,10.15,3.37-1,5.83-4.87,5.79-8.35C147,74.07,136,66.72,126.41,67.68c-9.21.94-17.37,9.61-19,21.43"/><path class="cls-4" d="M30.81,144.64c-5.8-2.36-7.14-15.1-2.77-18.31,3.14-2.31,6.88,3.44,14.27,2.36,9.56-1.41,12.36-12.13,18.78-11.08,4,.66,7.4,5.62,8.43,8.6.14.4.23.58.16.77-.59,1.71-9.28.85-18.12,8.65C40.05,145.78,34.87,146.3,30.81,144.64Z"/><path class="cls-5" d="M69.75,125.38c.25-1,1.45-6.09-1.71-10.1a7.11,7.11,0,0,0-2.91-2.42c-5.42-2.24-12.85,4.33-15.11,6.32a33.07,33.07,0,0,0-6.69,8.2"/><path class="cls-5" d="M47.46,131.84c-.07-.46-1.21-7.24-6.74-11.21-.95-.68-5.69-3.55-9.79-1.76-4.35,1.9-7,8.66-4.85,16.11"/><path class="cls-1" d="M98.5,147.7c2.68,9.05,7.53,13.77,10,15.8,13.79,11.38,33.32,5.14,40,3,1.05-.34,8.47-2.78,14-8a24.21,24.21,0,0,0,6.06-8.81c.26-.75.47-1.5.47-1.5.23-1.36-.15-2.13.59-3.46,2.34-4.18,9.36-2.54,11.68-6,2-3-1.22-8.41-2.12-9.92-8.57-14.29-42-17.73-48.68-18.35"/><line class="cls-6" x1="143" y1="140.23" x2="158.94" y2="151.16"/><line class="cls-6" x1="155.87" y1="140.61" x2="145" y2="151.16"/><path class="cls-1" d="M114.92,149.6c10.94,6.25,19.21-.32,24,5.85s-1.49,11.48-6.52,16.49C123,181.3,113,185,109.2,173.36,106.82,166,108.22,145.77,114.92,149.6Z"/><path class="cls-2" d="M119.08,157.76a7.12,7.12,0,1,1,8.77,11.18c-3.33,2.61-7.43,5.82-10.41-.86C115.85,164.52,115.75,160.37,119.08,157.76Z"/><path class="cls-7" d="M47,95.1c8.42-8.36,25.45-12.54,38.7-9.28,11.6,2.86,18.72,11,18.34,18.84-.09,1.93-.3,6.2-3.71,7.67-5.88,2.52-12.31-7-26.52-7.76-15.36-.77-25.87,9.51-31.1,6.7C38.55,109.05,41.39,100.64,47,95.1Z"/><path class="cls-8" d="M169.5,138.5c-1.63-.59-1.6-1.37-5-4s-5.05-3.91-7.5-4.5c-5.08-1.23-10,1.63-11.5,2.5-3.74,2.17-3.65,3.77-6.5,4.5-4,1-7.65-1.19-9-2-1.13-.67-5.77-3.45-7-9-1.38-6.25,2.2-13.19,7-15,1.67-.63,4.11-.42,9,0a64.39,64.39,0,0,1,7,1c.83.16,2.73.55,8,2,3.84,1,5.75,1.58,7,2a40.35,40.35,0,0,1,12,6c3.8,2.92,8.93,6.85,8,11S173.52,140,169.5,138.5Z"/><path class="cls-7" d="M155.88,119.35l-1.69-4.46-3.12,5.77,10.66,7Z"/><path d="M140.78,132.16c.35-.63,1-1.58,1.58-2.51a72.17,72.17,0,0,0,7.36-13.56c.31-.79.61-1.6.89-2.47a4.51,4.51,0,0,0,.53.1,4.27,4.27,0,0,0,1,.25,5.6,5.6,0,0,0,1.13.29,4.72,4.72,0,0,0,1,.35c-.29.78-.62,1.57-1,2.42-.13.3-3.44,7.65-11.93,14.64Z"/><path d="M151,114.2h0a6.14,6.14,0,0,0,1.1.26,5.67,5.67,0,0,0,1.1.28c.16.07.33.14.51.2-.24.61-.5,1.23-.79,1.89h0a43.37,43.37,0,0,1-9.95,12.86,72.2,72.2,0,0,0,7.26-13.41c.26-.67.51-1.36.76-2.08m-.66-1.2c-.31,1-.65,1.93-1,2.91-3.75,9.61-10,16.53-9.18,17.06a.21.21,0,0,0,.12,0c.35,0,1.08-.58,1.53-.95a44.85,44.85,0,0,0,12.07-14.82c.34-.77.77-1.8,1.2-3a4.79,4.79,0,0,1-1.54-.46,5.69,5.69,0,0,1-1.15-.28,6.1,6.1,0,0,1-1.1-.26,5.38,5.38,0,0,1-.92-.23Z"/><path d="M177,140.73c-3.59,0-6.51-1.82-6.51-4s2.92-4.05,6.51-4.05,6.51,1.82,6.51,4.05S180.58,140.73,177,140.73Z"/><path d="M177,133.13c3.26,0,6,1.63,6,3.55s-2.75,3.55-6,3.55-6-1.63-6-3.55,2.75-3.55,6-3.55m0-1c-3.87,0-7,2-7,4.55s3.14,4.55,7,4.55,7-2,7-4.55-3.14-4.55-7-4.55Z"/></svg>