<svg id="Layer_1" data-name="Layer 1" xmlns="http://www.w3.org/2000/svg" xmlns:xlink="http://www.w3.org/1999/xlink" width="200" height="200" viewBox="0 0 200 200"><defs><style>.cls-1,.cls-8{fill:#5f3300;}.cls-2,.cls-5{fill:#744500;}.cls-12,.cls-13,.cls-2,.cls-7,.cls-8{stroke:#000;stroke-miterlimit:10;}.cls-3{fill:#ffddfc;filter:url(#filter);}.cls-4{fill:#ffddf1;}.cls-6{fill:#fff;}.cls-7{fill:none;fill-rule:evenodd;}.cls-9{fill:url(#Sky_2);}.cls-10{fill:url(#Sky_2-2);}.cls-11,.cls-13{fill:#2a1700;}.cls-14{fill:#ff7baa;}.cls-15{fill:#ff93aa;}</style><filter id="filter" x="106" y="22.52" width="44" height="46" filterUnits="userSpaceOnUse"><feOffset input="SourceAlpha"/><feGaussianBlur stdDeviation="5" result="blur"/><feFlood/><feComposite operator="in" in2="blur"/><feComposite in="SourceGraphic"/></filter><linearGradient id="Sky_2" x1="-314.98" y1="71.08" x2="-289.97" y2="71.08" gradientTransform="matrix(-1, 0, 0, 1, -239.34, 0)" gradientUnits="userSpaceOnUse"><stop offset="0" stop-color="#cadef2"/><stop offset="0.06" stop-color="#c1daf0"/><stop offset="0.17" stop-color="#a7d0ec"/><stop offset="0.31" stop-color="#7ec0e5"/><stop offset="0.47" stop-color="#45a9dc"/><stop offset="0.57" stop-color="#1e9ad5"/><stop offset="0.87" stop-color="#0075bc"/><stop offset="0.99" stop-color="#005b95"/></linearGradient><linearGradient id="Sky_2-2" x1="100.03" y1="69.76" x2="125.04" y2="69.76" gradientTransform="matrix(1, 0, 0, 1, 0, 0)" xlink:href="#Sky_2"/></defs><path class="cls-1" d="M117.5,166.5C123,177,114.11,173,105,173s-17-7.24-17-10,5,3,14,1S116.22,164.05,117.5,166.5Z"/><path class="cls-2" d="M142.12,44.72c0,9.42-6.4,17.06-14.29,17.06s-4.38-16.37-14.29-17.06c-17.82-1.23,1.11-11.78,14.29-17.06C142.61,21.74,142.12,35.3,142.12,44.72Z"/><path class="cls-3" d="M134,45.43c0,4-2.87,7.28-6.42,7.28s-6.43-3.26-6.43-7.28,3-6.57,6.43-7.29C135.8,36.43,134,41.4,134,45.43Z"/><path class="cls-2" d="M64.9,46.38c-11.13,4.75-11.07,15.3-18.56,15.3s-7.74-8.25-8.53-15.3C36.32,33.19,39.48,23,50.43,27.21,57.36,29.88,71.73,43.47,64.9,46.38Z"/><path class="cls-4" d="M56.32,44.61c0,4.23-3,7.66-6.77,7.66s-6.78-3.43-6.78-7.66,0-9.44,6.78-7.66C53.15,37.9,56.32,40.38,56.32,44.61Z"/><path class="cls-5" d="M158.23,124.88s2.3,2.46-1.49,8.05-6.94,4.38-6.94,4.38a7.51,7.51,0,1,0,8.43-12.43Z"/><path class="cls-2" d="M154,152.43c.68-2.47,1.06-5.72,2.21-9.39,3-9.44,0-19.26-8.68-14.2-4.14,2.41-7.36,6.47-8.68,14.2a13.13,13.13,0,0,0,2.36,10.62,7.22,7.22,0,0,0-2.85,6c0,4.52,1,8.19,10.49,8.19,10.49,0,11.46-3.67,11.46-8.19C160.26,156.52,157.55,153.81,154,152.43Z"/><path class="cls-5" d="M123,102.42A41.49,41.49,0,0,0,133.44,75c0-20.76-15.67-38.13-36.64-42.51a12.46,12.46,0,0,1,1.31-4.09,13.21,13.21,0,0,1,6.38-5.79,18.87,18.87,0,0,0-11.44,3.14,17.76,17.76,0,0,0-4.22,4.08,54.39,54.39,0,0,0-3.5-11.3,53.35,53.35,0,0,0-4.87-8.8A84.29,84.29,0,0,1,80,21a80.82,80.82,0,0,1-1.8,10.5,22.15,22.15,0,0,0-17.39-2.77,9.61,9.61,0,0,1,6.41,3.1,8.42,8.42,0,0,1,1.61,2.8A43,43,0,0,0,39.39,75c0,16.83,10.3,31.43,25.38,38.69-6.25,5.37-9.94,12-9.94,19.21,0,17.88,22.83,32.38,51,32.38s51-14.5,51-32.38C156.83,118.86,142.71,106.89,123,102.42Z"/><path class="cls-6" d="M106.08,138.27c1.78,10.93-6.27,25.39-11.33,25.39S92,148.13,87.27,138c-10.07-21.73-5.78-10.48,6-12.35C98.3,124.9,104.15,126.39,106.08,138.27Z"/><path class="cls-7" d="M96.5,50.5a10.24,10.24,0,0,1-3.79-1,11.07,11.07,0,0,1-5.21-6"/><path class="cls-2" d="M80,52a15.61,15.61,0,0,0,4.43-3.23A11.07,11.07,0,0,0,87.5,42.5"/><path class="cls-2" d="M87.67,50.75A62.29,62.29,0,0,1,88.15,58a61.39,61.39,0,0,1-.24,6.26"/><path class="cls-2" d="M56.5,124.5a27,27,0,0,0-2,6c-2.6,12.59,4.91,22.6,6,24,2.39,3.08,5,6.51,9.83,7.54.61.13,5.93,1.19,10.18-1.93,4.85-3.56,6.53-11.27,3.37-18.54"/><path class="cls-2" d="M74.48,162c-7-4.13-14.3-2.92-16.88,1-2,2.92-1.32,7.48,1,10.11,4.77,5.5,17.92,4,24.6-2.89,6.43-6.65,7.07-18.54.72-28.65"/><path class="cls-2" d="M128.5,134.5c6.33,10.93,7.18,21.3,3,25a13.37,13.37,0,0,1-15.37.42c-4.83-3.4-6.63-11.2-3.37-18.54"/><path class="cls-2" d="M122.16,161.85c7.05-4.13,14.3-2.91,16.88,1,1.94,2.92,1.32,7.48-1,10.11-4.77,5.5-17.92,4-24.6-2.89-6.43-6.64-7.08-18.54-.72-28.65"/><path class="cls-8" d="M149.23,152.89a6.43,6.43,0,0,1,2.41-.73,6.27,6.27,0,0,1,2.41.25"/><path class="cls-6" d="M72.92,82c-1,0-2.2,0-3.54,0-1.83,0-4-.06-6.5-.06C53.1,81.88,47,79.81,47,69.5c0-6.82,7.11-12.38,15.84-12.38S78.71,62.68,78.71,69.5c0,2.51.11,4.54.2,6.17.16,3,.25,4.62-.49,5.4S75.93,82,72.92,82Z"/><path d="M62.88,57.62c8.45,0,15.33,5.33,15.33,11.88,0,2.52.11,4.56.2,6.2.15,2.65.24,4.4-.35,5s-2.41.75-5.14.75c-1,0-2.19,0-3.54,0-1.86,0-4-.06-6.5-.06-9.71,0-15.34-1.94-15.34-11.88,0-6.55,6.88-11.88,15.34-11.88m0-1c-9,0-16.34,5.77-16.34,12.88,0,11.34,7.32,12.88,16.34,12.88,4.38,0,7.63.1,10,.1,8.71,0,6.29-1.27,6.29-13,0-7.11-7.31-12.88-16.33-12.88Z"/><ellipse class="cls-9" cx="63.13" cy="71.08" rx="12.5" ry="10.83"/><path d="M63.13,60.75c6.62,0,12,4.63,12,10.33s-5.39,10.33-12,10.33-12-4.64-12-10.33,5.39-10.33,12-10.33m0-1c-7.18,0-13,5.07-13,11.33s5.82,11.33,13,11.33,13-5.08,13-11.33-5.83-11.33-13-11.33Z"/><ellipse cx="63.13" cy="71.08" rx="9.81" ry="8.49"/><path d="M63.13,63.09c5.14,0,9.32,3.58,9.32,8s-4.18,8-9.32,8-9.31-3.58-9.31-8,4.18-8,9.31-8m0-1c-5.69,0-10.31,4-10.31,9s4.62,9,10.31,9,10.32-4,10.32-9-4.62-9-10.32-9Z"/><path class="cls-6" d="M102.75,80.75c-3,0-4.78-.14-5.5-.91s-.65-2.42-.49-5.4c.09-1.63.2-3.66.2-6.16,0-6.83,7.1-12.39,15.83-12.39s15.84,5.56,15.84,12.39c0,10.31-6.06,12.38-15.84,12.38-2.52,0-4.67,0-6.49.06l-3.55,0Z"/><path d="M112.79,56.39c8.46,0,15.34,5.33,15.34,11.89,0,9.93-5.63,11.88-15.34,11.88-2.53,0-4.64,0-6.5.06l-3.54,0c-2.73,0-4.55-.12-5.14-.75s-.5-2.38-.35-5c.09-1.64.2-3.68.2-6.19,0-6.56,6.88-11.89,15.33-11.89m0-1c-9,0-16.33,5.77-16.33,12.89,0,11.71-2.42,13,6.29,13,2.41,0,5.66-.09,10-.09,9,0,16.34-1.55,16.34-12.88,0-7.12-7.32-12.89-16.34-12.89Z"/><path class="cls-10" d="M113,80.5c-7,0-13-4.88-13-10.65,0-6,5.61-10.83,12.51-10.83S125,63.88,125,69.85,119.86,80.5,113,80.5Z"/><path d="M112.54,59.52c6.61,0,12,4.63,12,10.33S119.58,80,113,80c-6.76,0-12.47-4.65-12.47-10.15,0-5.7,5.39-10.33,12-10.33m0-1c-7.19,0-13,5.07-13,11.33S105.82,81,113,81s12.54-4.89,12.54-11.15-5.82-11.33-13-11.33Z"/><ellipse cx="112.54" cy="69.85" rx="9.81" ry="8.49"/><path d="M112.54,61.86c5.13,0,9.31,3.59,9.31,8s-4.18,8-9.31,8-9.32-3.59-9.32-8,4.18-8,9.32-8m0-1c-5.7,0-10.32,4-10.32,9s4.62,9,10.32,9,10.31-4,10.31-9-4.62-9-10.31-9Z"/><path class="cls-11" d="M133.5,76.5c3.69,4-10.9,40.73-41.93,44.5-25.29,3.08-45.91-17.64-51.07-33.5-.45-1.4-3.11-9.56,0-12,3.52-2.76,9.82,5.45,21,6,11.94.58,14-8.35,26-8,10.33.3,11.51,7,23,8C124,82.66,131.43,74.25,133.5,76.5Z"/><ellipse cx="87.36" cy="80.78" rx="9.88" ry="6.68"/><path d="M87.36,74.6c5.17,0,9.38,2.77,9.38,6.18S92.53,87,87.36,87,78,84.19,78,80.78s4.21-6.18,9.39-6.18m0-1C81.62,73.6,77,76.81,77,80.78S81.62,88,87.36,88s10.38-3.21,10.38-7.18S93.09,73.6,87.36,73.6Z"/><path class="cls-12" d="M75.5,104.5c.23,6.84,8.25,11.58,15,11,5.34-.46,11.39-4.38,12-10,.74-6.76-6.67-13.21-14-13C82,92.68,75.28,98.08,75.5,104.5Z"/><path class="cls-13" d="M48.5,91.5c2.6,8,11.12,15.69,18,16,8.2.37,16.16-7.32,19-13a3.9,3.9,0,0,1,4-2c4,1,10.57,12,19,12,4,0,9.81-2.85,17-14"/><path class="cls-14" d="M101.5,106.63c-.74-3.21-7.31-4.2-11-4.13-5.49.1-12.81,2.68-13,6.2s6.72,7.9,13,7.23C96.49,115.29,102.27,110,101.5,106.63Z"/><path class="cls-15" d="M96,110.84a3.44,3.44,0,0,1,0,2.84A3.36,3.36,0,0,1,94,115a12.05,12.05,0,0,1-5,1c-2.29,0-7.37-.72-7.94-3.22a2.82,2.82,0,0,1,.39-1.94c.77-1.36,3.25-2.84,7.26-2.84C90,108,94.74,108,96,110.84Z"/><path class="cls-8" d="M87.5,163.5c-.57.59-3.52,3.75-3,8a6.14,6.14,0,0,0,1,3c2.8,4,10.63,2.46,13,2a25.88,25.88,0,0,0,8-3"/><path class="cls-8" d="M105.5,168.5a16.08,16.08,0,0,0,0,11c.37.89,2.44,5,6,5.49,3.78.52,8.38-3.2,10-9.48"/><circle class="cls-6" cx="61.25" cy="69.25" r="1.75"/><circle class="cls-6" cx="116.52" cy="67.96" r="1.75"/></svg>