<svg id="Layer_1" data-name="Layer 1" xmlns="http://www.w3.org/2000/svg" xmlns:xlink="http://www.w3.org/1999/xlink" width="200" height="200" viewBox="0 0 200 200"><defs><style>.cls-1{filter:url(#AI_Shadow_1);}.cls-2,.cls-4{fill:#ed7b33;}.cls-3{fill:none;}.cls-3,.cls-4,.cls-5{stroke:#000;stroke-miterlimit:10;}.cls-5,.cls-6{fill:#569218;}</style><filter id="AI_Shadow_1" name="AI_Shadow_1"><feGaussianBlur result="blur" stdDeviation="2" in="SourceAlpha"/><feOffset result="offsetBlurredAlpha" dx="4" dy="4" in="blur"/><feMerge><feMergeNode in="offsetBlurredAlpha"/><feMergeNode in="SourceGraphic"/></feMerge></filter></defs><g class="cls-1"><path class="cls-2" d="M109.47,131.17c-13.27,27.69-43.73,67.57-55.1,62.13s-.18-56.24,13.09-83.93S86,91.38,98.15,96.52C109.76,101.44,122.74,103.47,109.47,131.17Z"/><path class="cls-3" d="M102.6,122.77a35.78,35.78,0,0,0-24-10"/><path class="cls-4" d="M73.13,128.21a37,37,0,0,1,18.94,10.12"/><path class="cls-4" d="M84.1,150.27a21.42,21.42,0,0,0-18-6"/><path class="cls-4" d="M61.6,160.77a20.55,20.55,0,0,1,15,5"/><path class="cls-5" d="M93.6,101.77c.33-.6,9.2,3.42,9,4,0,.12-.51.06-1,0C97.36,105.21,93.36,102.2,93.6,101.77Z"/><path class="cls-6" d="M146,34.49c-5.17-2.78-10.49,3.28-14.69,11.11-2.69,5-8.79,10.59-13.16,15.48l-.25-.1A12,12,0,0,0,122,50c-.67-4-3.22-7.63-5.18-7.63s-3.55,3.29-3.55,7.36c0,3.42-3,9.62-3,12.27a1.33,1.33,0,0,1-.09.44l-.72,1.73a1.15,1.15,0,0,1-1.94.3c-1.83-2.27-5.41-4.39-7-4.39-2.26,0,0,4,0,6.91a32.52,32.52,0,0,0,3,10.49,1.18,1.18,0,0,1,0,1h0a1.14,1.14,0,0,1-2.1,0C98.63,72.07,93.06,63,88.4,60c-7-4.49-14.76-5-16.57-3-7.31,8.13,6.88,4.18,11.25,11.21,8.08,13,12.61,18.32,15.26,20a1.13,1.13,0,0,1,.45,1.4l-5,12a1.14,1.14,0,0,0,.61,1.5l6.66,2.78a1.15,1.15,0,0,0,1.5-.61l3.64-8.7a1.15,1.15,0,0,1,2.06-.1,33.94,33.94,0,0,0,3.85,5.48c5.48,6.41,11.23,7.32,14.69,7.54,6.17.38-.38-5.08-6.37-15.42-3.86-6.65-4.34-11.28-6.75-11.61a1.13,1.13,0,0,1-.93-1.53l1.56-3.73a1.14,1.14,0,0,1,1.88-.34c2.8,2.92,7.24,5.76,11.33,5.76,6.63,0,9.82-7.47,9.82-10.63s-5.38-1.91-12-1.91c-3,0-5.83-.26-8-.24l.17-.42c7.7-1.26,23.61-8.07,28.51-16.23C150.6,45.61,151.17,37.27,146,34.49Z"/></g></svg>