<svg id="Layer_1" data-name="Layer 1" xmlns="http://www.w3.org/2000/svg" xmlns:xlink="http://www.w3.org/1999/xlink" width="200" height="200" viewBox="0 0 200 200"><defs><style>.cls-1{filter:url(#AI_Shadow_1);}.cls-2,.cls-4{fill:#ed7b33;}.cls-3{fill:none;}.cls-3,.cls-4,.cls-5{stroke:#000;stroke-miterlimit:10;}.cls-5,.cls-6{fill:#569218;}</style><filter id="AI_Shadow_1" name="AI_Shadow_1"><feGaussianBlur result="blur" stdDeviation="2" in="SourceAlpha"/><feOffset result="offsetBlurredAlpha" dx="4" dy="4" in="blur"/><feMerge><feMergeNode in="offsetBlurredAlpha"/><feMergeNode in="SourceGraphic"/></feMerge></filter></defs><g class="cls-1"><path class="cls-2" d="M87.62,118.9c13.28,27.69,43.74,67.57,55.11,62.13s.18-56.24-13.1-83.93S111.08,79.11,99,84.25C87.34,89.17,74.35,91.2,87.62,118.9Z"/><path class="cls-3" d="M94.5,110.5a35.78,35.78,0,0,1,24-10"/><path class="cls-4" d="M124,115.94A36.94,36.94,0,0,0,105,126.06"/><path class="cls-4" d="M113,138a21.42,21.42,0,0,1,18-6"/><path class="cls-4" d="M135.5,148.5a20.55,20.55,0,0,0-15,5"/><path class="cls-5" d="M103.5,89.5c-.34-.6-9.2,3.42-9,4,0,.12.51.06,1,0C99.74,92.94,103.74,89.93,103.5,89.5Z"/><path class="cls-6" d="M51.11,22.22c5.17-2.78,10.48,3.28,14.69,11.11,2.68,5,8.78,10.59,13.16,15.48l.25-.1a11.93,11.93,0,0,1-4.13-11c.67-4,3.22-7.63,5.18-7.63s3.55,3.29,3.55,7.36c0,3.42,3,9.62,3,12.27a1.33,1.33,0,0,0,.09.44l.72,1.73a1.15,1.15,0,0,0,1.94.3c1.83-2.27,5.41-4.39,7-4.39,2.26,0,0,4,0,6.91a32.52,32.52,0,0,1-3,10.49,1.18,1.18,0,0,0,0,1h0a1.14,1.14,0,0,0,2.1,0c2.75-6.36,8.32-15.42,13-18.42,7-4.49,14.77-5,16.58-3C132.58,52.9,118.39,49,114,56c-8.08,13-12.61,18.32-15.26,20a1.13,1.13,0,0,0-.45,1.4l5,12a1.15,1.15,0,0,1-.61,1.5l-6.66,2.78a1.15,1.15,0,0,1-1.5-.61l-3.64-8.7a1.15,1.15,0,0,0-2.06-.1A34.58,34.58,0,0,1,85,89.72C79.55,96.13,73.8,97,70.34,97.26c-6.18.38.38-5.08,6.37-15.42,3.86-6.65,4.34-11.28,6.74-11.61a1.13,1.13,0,0,0,.94-1.53L82.83,65A1.14,1.14,0,0,0,81,64.63c-2.8,2.92-7.24,5.76-11.33,5.76-6.63,0-9.82-7.47-9.82-10.63s5.37-1.91,12-1.91c3,0,5.83-.26,8-.24l-.18-.42C71.87,55.93,56,49.12,51.07,41,46.5,33.34,45.93,25,51.11,22.22Z"/></g></svg>