<svg id="Layer_1" data-name="Layer 1" xmlns="http://www.w3.org/2000/svg" xmlns:xlink="http://www.w3.org/1999/xlink" width="200" height="200" viewBox="0 0 200 200"><defs><style>.cls-1{filter:url(#AI_Shadow_1);}.cls-2{fill:#b47143;stroke:#000;stroke-miterlimit:10;}</style><filter id="AI_Shadow_1" name="AI_Shadow_1"><feGaussianBlur result="blur" stdDeviation="2" in="SourceAlpha"/><feOffset result="offsetBlurredAlpha" dx="4" dy="4" in="blur"/><feMerge><feMergeNode in="offsetBlurredAlpha"/><feMergeNode in="SourceGraphic"/></feMerge></filter></defs><g class="cls-1"><path class="cls-2" d="M28.79,142.83c0,14.65,9.59,20.76,22.23,20.76a20,20,0,0,0,5.75-.84c1.16,11.7,11.36,20.84,23.78,20.84,13.19,0,23.22-15.71,23.22-28.46,0-9.39-5.15-12.08-13.48-15.68l36.27-52a20.35,20.35,0,0,0,15,6.92c12.09,0,27.2-16.75,27.2-30.77s-15.11-20-27.2-20c-.42,0-.83,0-1.24,0-.94.07-1.91.23-1.91.23-2.53.42-6.31.36-9.55,1.81a13.19,13.19,0,0,0-5,4,20.3,20.3,0,0,1,6-4c3.66-1.6,5.42-1,6-2,1.86-3.14-9.58-20.37-24.16-20.08-14,.28-24.55,16.5-24.55,28.47,0,2.95-1.1,10.86,4.14,17.65a21.89,21.89,0,0,0,9.57,7Q85.22,99.07,69.55,121.48c-4.16-6.64-10.91-11-18.53-11C38.38,110.52,28.79,128.17,28.79,142.83Z"/><path class="cls-2" d="M100.89,76.67a21.51,21.51,0,0,0,13,0"/><path class="cls-2" d="M73.39,140.17a23.17,23.17,0,0,1,10-2c10.93.29,17.79,8.51,19,10"/></g></svg>