<svg id="Layer_1" data-name="Layer 1" xmlns="http://www.w3.org/2000/svg" xmlns:xlink="http://www.w3.org/1999/xlink" width="200" height="200" viewBox="0 0 200 200"><defs><style>.cls-1{filter:url(#AI_Shadow_1);}.cls-2{fill:#b47143;stroke:#000;stroke-miterlimit:10;}</style><filter id="AI_Shadow_1" name="AI_Shadow_1"><feGaussianBlur result="blur" stdDeviation="2" in="SourceAlpha"/><feOffset result="offsetBlurredAlpha" dx="4" dy="4" in="blur"/><feMerge><feMergeNode in="offsetBlurredAlpha"/><feMergeNode in="SourceGraphic"/></feMerge></filter></defs><g class="cls-1"><path class="cls-2" d="M139.87,111.85c-7.62,0-14.37,4.32-18.53,11Q105.67,100.42,90,78a21.8,21.8,0,0,0,9.57-7c5.24-6.79,4.14-14.7,4.14-17.65,0-12-10.56-28.18-24.55-28.46C64.58,24.64,53.14,41.87,55,45c.58,1,2.33.41,6,2a20.7,20.7,0,0,1,6,4,13.29,13.29,0,0,0-5-4c-3.24-1.45-7-1.38-9.55-1.81,0,0-1-.16-1.92-.22-.41,0-.82,0-1.23,0-12.09,0-27.21,6-27.21,20S37.21,95.7,49.3,95.7a20.32,20.32,0,0,0,15-6.93l36.27,52c-8.33,3.61-13.47,6.3-13.47,15.69,0,12.74,10,28.46,23.22,28.46,12.41,0,22.61-9.15,23.77-20.85a20.07,20.07,0,0,0,5.76.85c12.64,0,22.22-6.11,22.22-20.77S152.51,111.85,139.87,111.85Z"/><path class="cls-2" d="M90,78a21.5,21.5,0,0,1-7,1,21.75,21.75,0,0,1-6-1"/><path class="cls-2" d="M117.5,141.5a23.5,23.5,0,0,0-10-2c-10.94.29-17.8,8.51-19,10"/></g></svg>