<?xml version="1.0" encoding="UTF-8"?><svg id="a" xmlns="http://www.w3.org/2000/svg" width="1600" height="900" xmlns:xlink="http://www.w3.org/1999/xlink" viewBox="0 0 1600 900"><defs><style>.al{fill:url(#aa);}.am{fill:url(#a`);}.an{fill:none;fill-rule:evenodd;}.an,.ao,.ap,.aq,.ar,.as,.at,.au{stroke-miterlimit:10;}.an,.ao,.aq,.ar,.as,.at,.au{stroke:#000;}.av,.ar{fill:#fff;}.aw{fill:#ffddf1;}.ax{fill:#ff7bac;}.ay{fill:#ff7baa;}.b`{fill:#ff93aa;}.ba,.aq{fill:#744500;}.bb{fill:#8cc63f;}.bc,.at{fill:#2a1700;}.bd,.au{fill:#5f3300;}.be{fill:#ffddfc;filter:url(#x);}.bf{filter:url(#ah);}.bg{filter:url(#ab);}.bh{filter:url(#ag);}.bi{filter:url(#ac);}.bj{filter:url(#ae);}.bk{filter:url(#af);}.bl{filter:url(#ad);}.bm{filter:url(#ai);}.bn{filter:url(#aj);}.bo{filter:url(#ak);}.bp{filter:url(#p);}.bq{filter:url(#q);}.br{filter:url(#r);}.bs{filter:url(#s);}.bt{filter:url(#d);}.bu{filter:url(#e);}.bv{filter:url(#f);}.bw{filter:url(#g);}.bx{filter:url(#l);}.by{filter:url(#m);}.c`{filter:url(#n);}.ca{filter:url(#o);}.cb{filter:url(#h);}.cc{filter:url(#i);}.cd{filter:url(#j);}.ce{filter:url(#k);}.cf{filter:url(#t);}.cg{filter:url(#u);}.ch{filter:url(#v);}.ci{filter:url(#w);}.cj{filter:url(#b);}.ck{filter:url(#c);}.ap{fill:#f0d6a5;stroke:#bf9b71;}.as{fill:#b47143;}</style><filter id="b"><feGaussianBlur in="SourceAlpha" result="blur" stdDeviation="2"/><feOffset dx="4" dy="4" in="blur" result="offsetBlurredAlpha"/><feMerge><feMergeNode in="offsetBlurredAlpha"/><feMergeNode in="SourceGraphic"/></feMerge></filter><filter id="c"><feGaussianBlur in="SourceAlpha" result="blur" stdDeviation="2"/><feOffset dx="4" dy="4" in="blur" result="offsetBlurredAlpha"/><feMerge><feMergeNode in="offsetBlurredAlpha"/><feMergeNode in="SourceGraphic"/></feMerge></filter><filter id="d"><feGaussianBlur in="SourceAlpha" result="blur" stdDeviation="2"/><feOffset dx="4" dy="4" in="blur" result="offsetBlurredAlpha"/><feMerge><feMergeNode in="offsetBlurredAlpha"/><feMergeNode in="SourceGraphic"/></feMerge></filter><filter id="e"><feGaussianBlur in="SourceAlpha" result="blur" stdDeviation="2"/><feOffset dx="4" dy="4" in="blur" result="offsetBlurredAlpha"/><feMerge><feMergeNode in="offsetBlurredAlpha"/><feMergeNode in="SourceGraphic"/></feMerge></filter><filter id="f"><feGaussianBlur in="SourceAlpha" result="blur" stdDeviation="2"/><feOffset dx="4" dy="4" in="blur" result="offsetBlurredAlpha"/><feMerge><feMergeNode in="offsetBlurredAlpha"/><feMergeNode in="SourceGraphic"/></feMerge></filter><filter id="g"><feGaussianBlur in="SourceAlpha" result="blur" stdDeviation="2"/><feOffset dx="4" dy="4" in="blur" result="offsetBlurredAlpha"/><feMerge><feMergeNode in="offsetBlurredAlpha"/><feMergeNode in="SourceGraphic"/></feMerge></filter><filter id="h"><feGaussianBlur in="SourceAlpha" result="blur" stdDeviation="2"/><feOffset dx="4" dy="4" in="blur" result="offsetBlurredAlpha"/><feMerge><feMergeNode in="offsetBlurredAlpha"/><feMergeNode in="SourceGraphic"/></feMerge></filter><filter id="i"><feGaussianBlur in="SourceAlpha" result="blur" stdDeviation="2"/><feOffset dx="4" dy="4" in="blur" result="offsetBlurredAlpha"/><feMerge><feMergeNode in="offsetBlurredAlpha"/><feMergeNode in="SourceGraphic"/></feMerge></filter><filter id="j"><feGaussianBlur in="SourceAlpha" result="blur" stdDeviation="2"/><feOffset dx="4" dy="4" in="blur" result="offsetBlurredAlpha"/><feMerge><feMergeNode in="offsetBlurredAlpha"/><feMergeNode in="SourceGraphic"/></feMerge></filter><filter id="k"><feGaussianBlur in="SourceAlpha" result="blur" stdDeviation="2"/><feOffset dx="4" dy="4" in="blur" result="offsetBlurredAlpha"/><feMerge><feMergeNode in="offsetBlurredAlpha"/><feMergeNode in="SourceGraphic"/></feMerge></filter><filter id="l"><feGaussianBlur in="SourceAlpha" result="blur" stdDeviation="2"/><feOffset dx="4" dy="4" in="blur" result="offsetBlurredAlpha"/><feMerge><feMergeNode in="offsetBlurredAlpha"/><feMergeNode in="SourceGraphic"/></feMerge></filter><filter id="m"><feGaussianBlur in="SourceAlpha" result="blur" stdDeviation="2"/><feOffset dx="4" dy="4" in="blur" result="offsetBlurredAlpha"/><feMerge><feMergeNode in="offsetBlurredAlpha"/><feMergeNode in="SourceGraphic"/></feMerge></filter><filter id="n"><feGaussianBlur in="SourceAlpha" result="blur" stdDeviation="2"/><feOffset dx="4" dy="4" in="blur" result="offsetBlurredAlpha"/><feMerge><feMergeNode in="offsetBlurredAlpha"/><feMergeNode in="SourceGraphic"/></feMerge></filter><filter id="o"><feGaussianBlur in="SourceAlpha" result="blur" stdDeviation="2"/><feOffset dx="4" dy="4" in="blur" result="offsetBlurredAlpha"/><feMerge><feMergeNode in="offsetBlurredAlpha"/><feMergeNode in="SourceGraphic"/></feMerge></filter><filter id="p"><feGaussianBlur in="SourceAlpha" result="blur" stdDeviation="2"/><feOffset dx="4" dy="4" in="blur" result="offsetBlurredAlpha"/><feMerge><feMergeNode in="offsetBlurredAlpha"/><feMergeNode in="SourceGraphic"/></feMerge></filter><filter id="q"><feGaussianBlur in="SourceAlpha" result="blur" stdDeviation="2"/><feOffset dx="4" dy="4" in="blur" result="offsetBlurredAlpha"/><feMerge><feMergeNode in="offsetBlurredAlpha"/><feMergeNode in="SourceGraphic"/></feMerge></filter><filter id="r"><feGaussianBlur in="SourceAlpha" result="blur" stdDeviation="2"/><feOffset dx="4" dy="4" in="blur" result="offsetBlurredAlpha"/><feMerge><feMergeNode in="offsetBlurredAlpha"/><feMergeNode in="SourceGraphic"/></feMerge></filter><filter id="s"><feGaussianBlur in="SourceAlpha" result="blur" stdDeviation="2"/><feOffset dx="4" dy="4" in="blur" result="offsetBlurredAlpha"/><feMerge><feMergeNode in="offsetBlurredAlpha"/><feMergeNode in="SourceGraphic"/></feMerge></filter><filter id="t"><feGaussianBlur in="SourceAlpha" result="blur" stdDeviation="2"/><feOffset dx="4" dy="4" in="blur" result="offsetBlurredAlpha"/><feMerge><feMergeNode in="offsetBlurredAlpha"/><feMergeNode in="SourceGraphic"/></feMerge></filter><filter id="u"><feGaussianBlur in="SourceAlpha" result="blur" stdDeviation="2"/><feOffset dx="4" dy="4" in="blur" result="offsetBlurredAlpha"/><feMerge><feMergeNode in="offsetBlurredAlpha"/><feMergeNode in="SourceGraphic"/></feMerge></filter><filter id="v"><feGaussianBlur in="SourceAlpha" result="blur" stdDeviation="2"/><feOffset dx="4" dy="4" in="blur" result="offsetBlurredAlpha"/><feMerge><feMergeNode in="offsetBlurredAlpha"/><feMergeNode in="SourceGraphic"/></feMerge></filter><filter id="w"><feGaussianBlur in="SourceAlpha" result="blur" stdDeviation="2"/><feOffset dx="4" dy="4" in="blur" result="offsetBlurredAlpha"/><feMerge><feMergeNode in="offsetBlurredAlpha"/><feMergeNode in="SourceGraphic"/></feMerge></filter><filter id="x" filterUnits="userSpaceOnUse"><feOffset dx="0" dy="0"/><feGaussianBlur result="y" stdDeviation="5"/><feFlood flood-color="#000" flood-opacity=".75"/><feComposite in2="y" operator="in"/><feComposite in="SourceGraphic"/></filter><linearGradient id="a`" x1="125.78" y1="554.85" x2="200.15" y2="554.85" gradientTransform="translate(693.69 53.07) rotate(-177.86) scale(1 -1)" gradientUnits="userSpaceOnUse"><stop offset="0" stop-color="#cadef2"/><stop offset=".06" stop-color="#c0daf0"/><stop offset=".17" stop-color="#a7d0ec"/><stop offset=".31" stop-color="#7dbfe5"/><stop offset=".47" stop-color="#44a9db"/><stop offset=".57" stop-color="#1e9ad5"/><stop offset=".87" stop-color="#0075bc"/><stop offset=".99" stop-color="#005b95"/></linearGradient><linearGradient id="aa" x1="564.74" y1="551.19" x2="639.11" y2="551.19" gradientTransform="translate(72.42 29.87) rotate(2.14)" xlink:href="#a`"/><filter id="ab"><feGaussianBlur in="SourceAlpha" result="blur" stdDeviation="2"/><feOffset dx="4" dy="4" in="blur" result="offsetBlurredAlpha"/><feMerge><feMergeNode in="offsetBlurredAlpha"/><feMergeNode in="SourceGraphic"/></feMerge></filter><filter id="ac"><feGaussianBlur in="SourceAlpha" result="blur" stdDeviation="2"/><feOffset dx="4" dy="4" in="blur" result="offsetBlurredAlpha"/><feMerge><feMergeNode in="offsetBlurredAlpha"/><feMergeNode in="SourceGraphic"/></feMerge></filter><filter id="ad"><feGaussianBlur in="SourceAlpha" result="blur" stdDeviation="2"/><feOffset dx="4" dy="4" in="blur" result="offsetBlurredAlpha"/><feMerge><feMergeNode in="offsetBlurredAlpha"/><feMergeNode in="SourceGraphic"/></feMerge></filter><filter id="ae"><feGaussianBlur in="SourceAlpha" result="blur" stdDeviation="2"/><feOffset dx="4" dy="4" in="blur" result="offsetBlurredAlpha"/><feMerge><feMergeNode in="offsetBlurredAlpha"/><feMergeNode in="SourceGraphic"/></feMerge></filter><filter id="af"><feGaussianBlur in="SourceAlpha" result="blur" stdDeviation="2"/><feOffset dx="4" dy="4" in="blur" result="offsetBlurredAlpha"/><feMerge><feMergeNode in="offsetBlurredAlpha"/><feMergeNode in="SourceGraphic"/></feMerge></filter><filter id="ag"><feGaussianBlur in="SourceAlpha" result="blur" stdDeviation="2"/><feOffset dx="4" dy="4" in="blur" result="offsetBlurredAlpha"/><feMerge><feMergeNode in="offsetBlurredAlpha"/><feMergeNode in="SourceGraphic"/></feMerge></filter><filter id="ah"><feGaussianBlur in="SourceAlpha" result="blur" stdDeviation="2"/><feOffset dx="4" dy="4" in="blur" result="offsetBlurredAlpha"/><feMerge><feMergeNode in="offsetBlurredAlpha"/><feMergeNode in="SourceGraphic"/></feMerge></filter><filter id="ai"><feGaussianBlur in="SourceAlpha" result="blur" stdDeviation="2"/><feOffset dx="4" dy="4" in="blur" result="offsetBlurredAlpha"/><feMerge><feMergeNode in="offsetBlurredAlpha"/><feMergeNode in="SourceGraphic"/></feMerge></filter><filter id="aj"><feGaussianBlur in="SourceAlpha" result="blur" stdDeviation="2"/><feOffset dx="4" dy="4" in="blur" result="offsetBlurredAlpha"/><feMerge><feMergeNode in="offsetBlurredAlpha"/><feMergeNode in="SourceGraphic"/></feMerge></filter><filter id="ak"><feGaussianBlur in="SourceAlpha" result="blur" stdDeviation="2"/><feOffset dx="4" dy="4" in="blur" result="offsetBlurredAlpha"/><feMerge><feMergeNode in="offsetBlurredAlpha"/><feMergeNode in="SourceGraphic"/></feMerge></filter></defs><rect class="bb" x="-.48" y="-60.48" width="1600" height="1024"/><g class="cj"><path class="as" d="M323.6,117.36c-7.62,0-14.37,4.32-18.53,10.96-10.45-14.94-20.89-29.88-31.34-44.81,2.26-.86,6.36-2.79,9.57-6.96,5.24-6.79,4.14-14.7,4.14-17.65,0-11.97-10.56-28.18-24.55-28.46-14.58-.29-26.02,16.94-24.16,20.07,.58,.97,2.33,.41,6,2,2.81,1.22,4.8,2.86,6,4-1.85-2.32-3.72-3.43-5-4-3.24-1.45-7.02-1.38-9.55-1.81,0,0-.97-.16-1.91-.22-.41-.03-.82-.04-1.24-.04-12.09,0-27.2,5.98-27.2,20s15.11,30.77,27.2,30.77c5.82,0,11.1-2.64,15.02-6.93l36.27,52.01c-8.33,3.6-13.48,6.29-13.48,15.68,0,12.75,10.03,28.46,23.22,28.46,12.41,0,22.61-9.15,23.77-20.85,1.84,.55,3.77,.85,5.75,.85,12.64,0,22.23-6.11,22.23-20.77s-9.59-32.31-22.23-32.31Z"/><path class="as" d="M273.74,83.5c-1.61,.51-4.03,1.07-7,1-2.48-.06-4.54-.54-6-1"/><path class="as" d="M301.24,147c-2.27-.99-5.74-2.11-10-2-10.94,.29-17.8,8.51-19,10"/></g><g class="ck"><path class="as" d="M746.73,117.36c-7.62,0-14.37,4.32-18.53,10.96-10.45-14.94-20.89-29.88-31.34-44.81,2.26-.86,6.36-2.79,9.57-6.96,5.24-6.79,4.14-14.7,4.14-17.65,0-11.97-10.56-28.18-24.55-28.46-14.58-.29-26.02,16.94-24.16,20.07,.58,.97,2.33,.41,6,2,2.81,1.22,4.8,2.86,6,4-1.85-2.32-3.72-3.43-5-4-3.24-1.45-7.02-1.38-9.55-1.81,0,0-.97-.16-1.91-.22-.41-.03-.82-.04-1.24-.04-12.09,0-27.2,5.98-27.2,20s15.11,30.77,27.2,30.77c5.82,0,11.1-2.64,15.02-6.93l36.27,52.01c-8.33,3.6-13.48,6.29-13.48,15.68,0,12.75,10.03,28.46,23.22,28.46,12.41,0,22.61-9.15,23.77-20.85,1.84,.55,3.77,.85,5.75,.85,12.64,0,22.23-6.11,22.23-20.77s-9.59-32.31-22.23-32.31Z"/><path class="as" d="M696.87,83.5c-1.61,.51-4.03,1.07-7,1-2.48-.06-4.54-.54-6-1"/><path class="as" d="M724.37,147c-2.27-.99-5.74-2.11-10-2-10.94,.29-17.8,8.51-19,10"/></g><g class="bt"><path class="as" d="M1157.34,117.36c-7.62,0-14.37,4.32-18.53,10.96-10.45-14.94-20.89-29.88-31.34-44.81,2.26-.86,6.36-2.79,9.57-6.96,5.24-6.79,4.14-14.7,4.14-17.65,0-11.97-10.56-28.18-24.55-28.46-14.58-.29-26.02,16.94-24.16,20.07,.58,.97,2.33,.41,6,2,2.81,1.22,4.8,2.86,6,4-1.85-2.32-3.72-3.43-5-4-3.24-1.45-7.02-1.38-9.55-1.81,0,0-.97-.16-1.91-.22-.41-.03-.82-.04-1.24-.04-12.09,0-27.2,5.98-27.2,20s15.11,30.77,27.2,30.77c5.82,0,11.1-2.64,15.02-6.93l36.27,52.01c-8.33,3.6-13.48,6.29-13.48,15.68,0,12.75,10.03,28.46,23.22,28.46,12.41,0,22.61-9.15,23.77-20.85,1.84,.55,3.77,.85,5.75,.85,12.64,0,22.23-6.11,22.23-20.77s-9.59-32.31-22.23-32.31Z"/><path class="as" d="M1107.47,83.5c-1.61,.51-4.03,1.07-7,1-2.48-.06-4.54-.54-6-1"/><path class="as" d="M1134.97,147c-2.27-.99-5.74-2.11-10-2-10.94,.29-17.8,8.51-19,10"/></g><g class="bu"><path class="as" d="M943.1,332.12c-7.62,0-14.37,4.32-18.53,10.96-10.45-14.94-20.89-29.88-31.34-44.81,2.26-.86,6.36-2.79,9.57-6.96,5.24-6.79,4.14-14.7,4.14-17.65,0-11.97-10.56-28.18-24.55-28.46-14.58-.29-26.02,16.94-24.16,20.07,.58,.97,2.33,.41,6,2,2.81,1.22,4.8,2.86,6,4-1.85-2.32-3.72-3.43-5-4-3.24-1.45-7.02-1.38-9.55-1.81,0,0-.97-.16-1.91-.22-.41-.03-.82-.04-1.24-.04-12.09,0-27.2,5.98-27.2,20s15.11,30.77,27.2,30.77c5.82,0,11.1-2.64,15.02-6.93l36.27,52.01c-8.33,3.6-13.48,6.29-13.48,15.68,0,12.75,10.03,28.46,23.22,28.46,12.41,0,22.61-9.15,23.77-20.85,1.84,.55,3.77,.85,5.75,.85,12.64,0,22.23-6.11,22.23-20.77s-9.59-32.31-22.23-32.31Z"/><path class="as" d="M893.24,298.27c-1.61,.51-4.03,1.07-7,1-2.48-.06-4.54-.54-6-1"/><path class="as" d="M920.74,361.77c-2.27-.99-5.74-2.11-10-2-10.94,.29-17.8,8.51-19,10"/></g><g class="bv"><path class="as" d="M536.59,332.12c-7.62,0-14.37,4.32-18.53,10.96-10.45-14.94-20.89-29.88-31.34-44.81,2.26-.86,6.36-2.79,9.57-6.96,5.24-6.79,4.14-14.7,4.14-17.65,0-11.97-10.56-28.18-24.55-28.46-14.58-.29-26.02,16.94-24.16,20.07,.58,.97,2.33,.41,6,2,2.81,1.22,4.8,2.86,6,4-1.85-2.32-3.72-3.43-5-4-3.24-1.45-7.02-1.38-9.55-1.81,0,0-.97-.16-1.91-.22-.41-.03-.82-.04-1.24-.04-12.09,0-27.2,5.98-27.2,20s15.11,30.77,27.2,30.77c5.82,0,11.1-2.64,15.02-6.93l36.27,52.01c-8.33,3.6-13.48,6.29-13.48,15.68,0,12.75,10.03,28.46,23.22,28.46,12.41,0,22.61-9.15,23.77-20.85,1.84,.55,3.77,.85,5.75,.85,12.64,0,22.23-6.11,22.23-20.77s-9.59-32.31-22.23-32.31Z"/><path class="as" d="M486.72,298.27c-1.61,.51-4.03,1.07-7,1-2.48-.06-4.54-.54-6-1"/><path class="as" d="M514.22,361.77c-2.27-.99-5.74-2.11-10-2-10.94,.29-17.8,8.51-19,10"/></g><g class="bw"><path class="as" d="M329.6,553.98c-7.62,0-14.37,4.32-18.53,10.96-10.45-14.94-20.89-29.88-31.34-44.81,2.26-.86,6.36-2.79,9.57-6.96,5.24-6.79,4.14-14.7,4.14-17.65,0-11.97-10.56-28.18-24.55-28.46-14.58-.29-26.02,16.94-24.16,20.07,.58,.97,2.33,.41,6,2,2.81,1.22,4.8,2.86,6,4-1.85-2.32-3.72-3.43-5-4-3.24-1.45-7.02-1.38-9.55-1.81,0,0-.97-.16-1.91-.22-.41-.03-.82-.04-1.24-.04-12.09,0-27.2,5.98-27.2,20s15.11,30.77,27.2,30.77c5.82,0,11.1-2.64,15.02-6.93l36.27,52.01c-8.33,3.6-13.48,6.29-13.48,15.68,0,12.75,10.03,28.46,23.22,28.46,12.41,0,22.61-9.15,23.77-20.85,1.84,.55,3.77,.85,5.75,.85,12.64,0,22.23-6.11,22.23-20.77s-9.59-32.31-22.23-32.31Z"/><path class="as" d="M279.74,520.13c-1.61,.51-4.03,1.07-7,1-2.48-.06-4.54-.54-6-1"/><path class="as" d="M307.24,583.63c-2.27-.99-5.74-2.11-10-2-10.94,.29-17.8,8.51-19,10"/></g><g class="cb"><path class="as" d="M1163.34,553.98c-7.62,0-14.37,4.32-18.53,10.96-10.45-14.94-20.89-29.88-31.34-44.81,2.26-.86,6.36-2.79,9.57-6.96,5.24-6.79,4.14-14.7,4.14-17.65,0-11.97-10.56-28.18-24.55-28.46-14.58-.29-26.02,16.94-24.16,20.07,.58,.97,2.33,.41,6,2,2.81,1.22,4.8,2.86,6,4-1.85-2.32-3.72-3.43-5-4-3.24-1.45-7.02-1.38-9.55-1.81,0,0-.97-.16-1.91-.22-.41-.03-.82-.04-1.24-.04-12.09,0-27.2,5.98-27.2,20s15.11,30.77,27.2,30.77c5.82,0,11.1-2.64,15.02-6.93l36.27,52.01c-8.33,3.6-13.48,6.29-13.48,15.68,0,12.75,10.03,28.46,23.22,28.46,12.41,0,22.61-9.15,23.77-20.85,1.84,.55,3.77,.85,5.75,.85,12.64,0,22.23-6.11,22.23-20.77s-9.59-32.31-22.23-32.31Z"/><path class="as" d="M1113.47,520.13c-1.61,.51-4.03,1.07-7,1-2.48-.06-4.54-.54-6-1"/><path class="as" d="M1140.97,583.63c-2.27-.99-5.74-2.11-10-2-10.94,.29-17.8,8.51-19,10"/></g><g class="cc"><path class="as" d="M947.1,809.88c-7.62,0-14.37,4.32-18.53,10.96-10.45-14.94-20.89-29.88-31.34-44.81,2.26-.86,6.36-2.79,9.57-6.96,5.24-6.79,4.14-14.7,4.14-17.65,0-11.97-10.56-28.18-24.55-28.46-14.58-.29-26.02,16.94-24.16,20.07,.58,.97,2.33,.41,6,2,2.81,1.22,4.8,2.86,6,4-1.85-2.32-3.72-3.43-5-4-3.24-1.45-7.02-1.38-9.55-1.81,0,0-.97-.16-1.91-.22-.41-.03-.82-.04-1.24-.04-12.09,0-27.2,5.98-27.2,20s15.11,30.77,27.2,30.77c5.82,0,11.1-2.64,15.02-6.93l36.27,52.01c-8.33,3.6-13.48,6.29-13.48,15.68,0,12.75,10.03,28.46,23.22,28.46,12.41,0,22.61-9.15,23.77-20.85,1.84,.55,3.77,.85,5.75,.85,12.64,0,22.23-6.11,22.23-20.77s-9.59-32.31-22.23-32.31Z"/><path class="as" d="M897.24,776.03c-1.61,.51-4.03,1.07-7,1-2.48-.06-4.54-.54-6-1"/><path class="as" d="M924.74,839.53c-2.27-.99-5.74-2.11-10-2-10.94,.29-17.8,8.51-19,10"/></g><g class="cd"><path class="as" d="M540.59,809.88c-7.62,0-14.37,4.32-18.53,10.96-10.45-14.94-20.89-29.88-31.34-44.81,2.26-.86,6.36-2.79,9.57-6.96,5.24-6.79,4.14-14.7,4.14-17.65,0-11.97-10.56-28.18-24.55-28.46-14.58-.29-26.02,16.94-24.16,20.07,.58,.97,2.33,.41,6,2,2.81,1.22,4.8,2.86,6,4-1.85-2.32-3.72-3.43-5-4-3.24-1.45-7.02-1.38-9.55-1.81,0,0-.97-.16-1.91-.22-.41-.03-.82-.04-1.24-.04-12.09,0-27.2,5.98-27.2,20s15.11,30.77,27.2,30.77c5.82,0,11.1-2.64,15.02-6.93l36.27,52.01c-8.33,3.6-13.48,6.29-13.48,15.68,0,12.75,10.03,28.46,23.22,28.46,12.41,0,22.61-9.15,23.77-20.85,1.84,.55,3.77,.85,5.75,.85,12.64,0,22.23-6.11,22.23-20.77s-9.59-32.31-22.23-32.31Z"/><path class="as" d="M490.72,776.03c-1.61,.51-4.03,1.07-7,1-2.48-.06-4.54-.54-6-1"/><path class="as" d="M518.22,839.53c-2.27-.99-5.74-2.11-10-2-10.94,.29-17.8,8.51-19,10"/></g><g class="ce"><path class="as" d="M211.83,842.19c0,14.66,9.59,20.77,22.23,20.77,1.99,0,3.91-.29,5.75-.85,1.16,11.7,11.36,20.85,23.77,20.85,13.19,0,23.22-15.72,23.22-28.46,0-9.39-5.14-12.08-13.48-15.68l36.27-52.01c3.92,4.29,9.21,6.93,15.02,6.93,12.09,0,27.2-16.75,27.2-30.77s-15.11-20-27.2-20c-.41,0-.83,.01-1.24,.04-.95,.06-1.91,.22-1.91,.22-2.53,.42-6.31,.36-9.55,1.81-1.28,.57-3.15,1.68-5,4,1.2-1.14,3.19-2.78,6-4,3.67-1.59,5.42-1.03,6-2,1.86-3.13-9.58-20.36-24.16-20.07-13.99,.28-24.55,16.49-24.55,28.46,0,2.95-1.1,10.86,4.14,17.65,3.21,4.17,7.31,6.1,9.57,6.96-10.45,14.94-20.89,29.88-31.34,44.81-4.16-6.64-10.91-10.96-18.53-10.96-12.64,0-22.23,17.65-22.23,32.31Z"/><path class="as" d="M283.93,776.03c1.61,.51,4.03,1.07,7,1,2.48-.06,4.54-.54,6-1"/><path class="as" d="M256.43,839.53c2.27-.99,5.74-2.11,10-2,10.94,.29,17.8,8.51,19,10"/></g><g class="bx"><path class="as" d="M634.96,842.19c0,14.66,9.59,20.77,22.23,20.77,1.99,0,3.91-.29,5.75-.85,1.16,11.7,11.36,20.85,23.77,20.85,13.19,0,23.22-15.72,23.22-28.46,0-9.39-5.14-12.08-13.48-15.68l36.27-52.01c3.92,4.29,9.21,6.93,15.02,6.93,12.09,0,27.2-16.75,27.2-30.77s-15.11-20-27.2-20c-.41,0-.83,.01-1.24,.04-.95,.06-1.91,.22-1.91,.22-2.53,.42-6.31,.36-9.55,1.81-1.28,.57-3.15,1.68-5,4,1.2-1.14,3.19-2.78,6-4,3.67-1.59,5.42-1.03,6-2,1.86-3.13-9.58-20.36-24.16-20.07-13.99,.28-24.55,16.49-24.55,28.46,0,2.95-1.1,10.86,4.14,17.65,3.21,4.17,7.31,6.1,9.57,6.96-10.45,14.94-20.89,29.88-31.34,44.81-4.16-6.64-10.91-10.96-18.53-10.96-12.64,0-22.23,17.65-22.23,32.31Z"/><path class="as" d="M707.06,776.03c1.61,.51,4.03,1.07,7,1,2.48-.06,4.54-.54,6-1"/><path class="as" d="M679.56,839.53c2.27-.99,5.74-2.11,10-2,10.94,.29,17.8,8.51,19,10"/></g><g class="by"><path class="as" d="M1243.79,586.29c0,14.66,9.59,20.77,22.23,20.77,1.99,0,3.91-.29,5.75-.85,1.16,11.7,11.36,20.85,23.77,20.85,13.19,0,23.22-15.72,23.22-28.46,0-9.39-5.14-12.08-13.48-15.68l36.27-52.01c3.92,4.29,9.21,6.93,15.02,6.93,12.09,0,27.2-16.75,27.2-30.77s-15.11-20-27.2-20c-.41,0-.83,.01-1.24,.04-.95,.06-1.91,.22-1.91,.22-2.53,.42-6.31,.36-9.55,1.81-1.28,.57-3.15,1.68-5,4,1.2-1.14,3.19-2.78,6-4,3.67-1.59,5.42-1.03,6-2,1.86-3.13-9.58-20.36-24.16-20.07-13.99,.28-24.55,16.49-24.55,28.46,0,2.95-1.1,10.86,4.14,17.65,3.21,4.17,7.31,6.1,9.57,6.96-10.45,14.94-20.89,29.88-31.34,44.81-4.16-6.64-10.91-10.96-18.53-10.96-12.64,0-22.23,17.65-22.23,32.31Z"/><path class="as" d="M1315.89,520.13c1.61,.51,4.03,1.07,7,1,2.48-.06,4.54-.54,6-1"/><path class="as" d="M1288.39,583.63c2.27-.99,5.74-2.11,10-2,10.94,.29,17.8,8.51,19,10"/></g><g class="c`"><path class="as" d="M825.33,622.29c0,14.66,9.59,20.77,22.23,20.77,1.99,0,3.91-.29,5.75-.85,1.16,11.7,11.36,20.85,23.77,20.85,13.19,0,23.22-15.72,23.22-28.46,0-9.39-5.14-12.08-13.48-15.68l36.27-52.01c3.92,4.29,9.21,6.93,15.02,6.93,12.09,0,27.2-16.75,27.2-30.77s-15.11-20-27.2-20c-.41,0-.83,.01-1.24,.04-.95,.06-1.91,.22-1.91,.22-2.53,.42-6.31,.36-9.55,1.81-1.28,.57-3.15,1.68-5,4,1.2-1.14,3.19-2.78,6-4,3.67-1.59,5.42-1.03,6-2,1.86-3.13-9.58-20.36-24.16-20.07-13.99,.28-24.55,16.49-24.55,28.46,0,2.95-1.1,10.86,4.14,17.65,3.21,4.17,7.31,6.1,9.57,6.96-10.45,14.94-20.89,29.88-31.34,44.81-4.16-6.64-10.91-10.96-18.53-10.96-12.64,0-22.23,17.65-22.23,32.31Z"/><path class="as" d="M897.43,556.13c1.61,.51,4.03,1.07,7,1,2.48-.06,4.54-.54,6-1"/><path class="as" d="M869.93,619.63c2.27-.99,5.74-2.11,10-2,10.94,.29,17.8,8.51,19,10"/></g><g class="ca"><path class="as" d="M823.33,149.66c0,14.66,9.59,20.77,22.23,20.77,1.99,0,3.91-.29,5.75-.85,1.16,11.7,11.36,20.85,23.77,20.85,13.19,0,23.22-15.72,23.22-28.46,0-9.39-5.14-12.08-13.48-15.68l36.27-52.01c3.92,4.29,9.21,6.93,15.02,6.93,12.09,0,27.2-16.75,27.2-30.77s-15.11-20-27.2-20c-.41,0-.83,.01-1.24,.04-.95,.06-1.91,.22-1.91,.22-2.53,.42-6.31,.36-9.55,1.81-1.28,.57-3.15,1.68-5,4,1.2-1.14,3.19-2.78,6-4,3.67-1.59,5.42-1.03,6-2,1.86-3.13-9.58-20.36-24.16-20.07-13.99,.28-24.55,16.49-24.55,28.46,0,2.95-1.1,10.86,4.14,17.65,3.21,4.17,7.31,6.1,9.57,6.96-10.45,14.94-20.89,29.88-31.34,44.81-4.16-6.64-10.91-10.96-18.53-10.96-12.64,0-22.23,17.65-22.23,32.31Z"/><path class="as" d="M895.43,83.5c1.61,.51,4.03,1.07,7,1,2.48-.06,4.54-.54,6-1"/><path class="as" d="M867.93,147c2.27-.99,5.74-2.11,10-2,10.94,.29,17.8,8.51,19,10"/></g><g class="bp"><path class="as" d="M630.96,364.42c0,14.66,9.59,20.77,22.23,20.77,1.99,0,3.91-.29,5.75-.85,1.16,11.7,11.36,20.85,23.77,20.85,13.19,0,23.22-15.72,23.22-28.46,0-9.39-5.14-12.08-13.48-15.68l36.27-52.01c3.92,4.29,9.21,6.93,15.02,6.93,12.09,0,27.2-16.75,27.2-30.77s-15.11-20-27.2-20c-.41,0-.83,.01-1.24,.04-.95,.06-1.91,.22-1.91,.22-2.53,.42-6.31,.36-9.55,1.81-1.28,.57-3.15,1.68-5,4,1.2-1.14,3.19-2.78,6-4,3.67-1.59,5.42-1.03,6-2,1.86-3.13-9.58-20.36-24.16-20.07-13.99,.28-24.55,16.49-24.55,28.46,0,2.95-1.1,10.86,4.14,17.65,3.21,4.17,7.31,6.1,9.57,6.96-10.45,14.94-20.89,29.88-31.34,44.81-4.16-6.64-10.91-10.96-18.53-10.96-12.64,0-22.23,17.65-22.23,32.31Z"/><path class="as" d="M703.06,298.27c1.61,.51,4.03,1.07,7,1,2.48-.06,4.54-.54,6-1"/><path class="as" d="M675.56,361.77c2.27-.99,5.74-2.11,10-2,10.94,.29,17.8,8.51,19,10"/></g><g class="bq"><path class="as" d="M1041.57,364.42c0,14.66,9.59,20.77,22.23,20.77,1.99,0,3.91-.29,5.75-.85,1.16,11.7,11.36,20.85,23.77,20.85,13.19,0,23.22-15.72,23.22-28.46,0-9.39-5.14-12.08-13.48-15.68l36.27-52.01c3.92,4.29,9.21,6.93,15.02,6.93,12.09,0,27.2-16.75,27.2-30.77s-15.11-20-27.2-20c-.41,0-.83,.01-1.24,.04-.95,.06-1.91,.22-1.91,.22-2.53,.42-6.31,.36-9.55,1.81-1.28,.57-3.15,1.68-5,4,1.2-1.14,3.19-2.78,6-4,3.67-1.59,5.42-1.03,6-2,1.86-3.13-9.58-20.36-24.16-20.07-13.99,.28-24.55,16.49-24.55,28.46,0,2.95-1.1,10.86,4.14,17.65,3.21,4.17,7.31,6.1,9.57,6.96-10.45,14.94-20.89,29.88-31.34,44.81-4.16-6.64-10.91-10.96-18.53-10.96-12.64,0-22.23,17.65-22.23,32.31Z"/><path class="as" d="M1113.66,298.27c1.61,.51,4.03,1.07,7,1,2.48-.06,4.54-.54,6-1"/><path class="as" d="M1086.16,361.77c2.27-.99,5.74-2.11,10-2,10.94,.29,17.8,8.51,19,10"/></g><g class="br"><path class="as" d="M416.82,149.66c0,14.66,9.59,20.77,22.23,20.77,1.99,0,3.91-.29,5.75-.85,1.16,11.7,11.36,20.85,23.77,20.85,13.19,0,23.22-15.72,23.22-28.46,0-9.39-5.14-12.08-13.48-15.68l36.27-52.01c3.92,4.29,9.21,6.93,15.02,6.93,12.09,0,27.2-16.75,27.2-30.77s-15.11-20-27.2-20c-.41,0-.83,.01-1.24,.04-.95,.06-1.91,.22-1.91,.22-2.53,.42-6.31,.36-9.55,1.81-1.28,.57-3.15,1.68-5,4,1.2-1.14,3.19-2.78,6-4,3.67-1.59,5.42-1.03,6-2,1.86-3.13-9.58-20.36-24.16-20.07-13.99,.28-24.55,16.49-24.55,28.46,0,2.95-1.1,10.86,4.14,17.65,3.21,4.17,7.31,6.1,9.57,6.96-10.45,14.94-20.89,29.88-31.34,44.81-4.16-6.64-10.91-10.96-18.53-10.96-12.64,0-22.23,17.65-22.23,32.31Z"/><path class="as" d="M488.91,83.5c1.61,.51,4.03,1.07,7,1,2.48-.06,4.54-.54,6-1"/><path class="as" d="M461.41,147c2.27-.99,5.74-2.11,10-2,10.94,.29,17.8,8.51,19,10"/></g><g class="bs"><path class="as" d="M207.83,364.42c0,14.66,9.59,20.77,22.23,20.77,1.99,0,3.91-.29,5.75-.85,1.16,11.7,11.36,20.85,23.77,20.85,13.19,0,23.22-15.72,23.22-28.46,0-9.39-5.14-12.08-13.48-15.68l36.27-52.01c3.92,4.29,9.21,6.93,15.02,6.93,12.09,0,27.2-16.75,27.2-30.77s-15.11-20-27.2-20c-.41,0-.83,.01-1.24,.04-.95,.06-1.91,.22-1.91,.22-2.53,.42-6.31,.36-9.55,1.81-1.28,.57-3.15,1.68-5,4,1.2-1.14,3.19-2.78,6-4,3.67-1.59,5.42-1.03,6-2,1.86-3.13-9.58-20.36-24.16-20.07-13.99,.28-24.55,16.49-24.55,28.46,0,2.95-1.1,10.86,4.14,17.65,3.21,4.17,7.31,6.1,9.57,6.96-10.45,14.94-20.89,29.88-31.34,44.81-4.16-6.64-10.91-10.96-18.53-10.96-12.64,0-22.23,17.65-22.23,32.31Z"/><path class="as" d="M279.93,298.27c1.61,.51,4.03,1.07,7,1,2.48-.06,4.54-.54,6-1"/><path class="as" d="M252.43,361.77c2.27-.99,5.74-2.11,10-2,10.94,.29,17.8,8.51,19,10"/></g><g class="cf"><path class="as" d="M752.73,553.98c-7.62,0-14.37,4.32-18.53,10.96-10.45-14.94-20.89-29.88-31.34-44.81,2.26-.86,6.36-2.79,9.57-6.96,5.24-6.79,4.14-14.7,4.14-17.65,0-11.97-10.56-28.18-24.55-28.46-14.58-.29-26.02,16.94-24.16,20.07,.58,.97,2.33,.41,6,2,2.81,1.22,4.8,2.86,6,4-1.85-2.32-3.72-3.43-5-4-3.24-1.45-7.02-1.38-9.55-1.81,0,0-.97-.16-1.91-.22-.41-.03-.82-.04-1.24-.04-12.09,0-27.2,5.98-27.2,20s15.11,30.77,27.2,30.77c5.82,0,11.1-2.64,15.02-6.93l36.27,52.01c-8.33,3.6-13.48,6.29-13.48,15.68,0,12.75,10.03,28.46,23.22,28.46,12.41,0,22.61-9.15,23.77-20.85,1.84,.55,3.77,.85,5.75,.85,12.64,0,22.23-6.11,22.23-20.77s-9.59-32.31-22.23-32.31Z"/><path class="as" d="M702.87,520.13c-1.61,.51-4.03,1.07-7,1-2.48-.06-4.54-.54-6-1"/><path class="as" d="M730.37,583.63c-2.27-.99-5.74-2.11-10-2-10.94,.29-17.8,8.51-19,10"/></g><g class="cg"><path class="as" d="M1237.79,149.66c0,14.66,9.59,20.77,22.23,20.77,1.99,0,3.91-.29,5.75-.85,1.16,11.7,11.36,20.85,23.77,20.85,13.19,0,23.22-15.72,23.22-28.46,0-9.39-5.14-12.08-13.48-15.68l36.27-52.01c3.92,4.29,9.21,6.93,15.02,6.93,12.09,0,27.2-16.75,27.2-30.77s-15.11-20-27.2-20c-.41,0-.83,.01-1.24,.04-.95,.06-1.91,.22-1.91,.22-2.53,.42-6.31,.36-9.55,1.81-1.28,.57-3.15,1.68-5,4,1.2-1.14,3.19-2.78,6-4,3.67-1.59,5.42-1.03,6-2,1.86-3.13-9.58-20.36-24.16-20.07-13.99,.28-24.55,16.49-24.55,28.46,0,2.95-1.1,10.86,4.14,17.65,3.21,4.17,7.31,6.1,9.57,6.96-10.45,14.94-20.89,29.88-31.34,44.81-4.16-6.64-10.91-10.96-18.53-10.96-12.64,0-22.23,17.65-22.23,32.31Z"/><path class="as" d="M1309.89,83.5c1.61,.51,4.03,1.07,7,1,2.48-.06,4.54-.54,6-1"/><path class="as" d="M1282.39,147c2.27-.99,5.74-2.11,10-2,10.94,.29,17.8,8.51,19,10"/></g><g class="ch"><path class="as" d="M422.82,586.29c0,14.66,9.59,20.77,22.23,20.77,1.99,0,3.91-.29,5.75-.85,1.16,11.7,11.36,20.85,23.77,20.85,13.19,0,23.22-15.72,23.22-28.46,0-9.39-5.14-12.08-13.48-15.68l36.27-52.01c3.92,4.29,9.21,6.93,15.02,6.93,12.09,0,27.2-16.75,27.2-30.77s-15.11-20-27.2-20c-.41,0-.83,.01-1.24,.04-.95,.06-1.91,.22-1.91,.22-2.53,.42-6.31,.36-9.55,1.81-1.28,.57-3.15,1.68-5,4,1.2-1.14,3.19-2.78,6-4,3.67-1.59,5.42-1.03,6-2,1.86-3.13-9.58-20.36-24.16-20.07-13.99,.28-24.55,16.49-24.55,28.46,0,2.95-1.1,10.86,4.14,17.65,3.21,4.17,7.31,6.1,9.57,6.96-10.45,14.94-20.89,29.88-31.34,44.81-4.16-6.64-10.91-10.96-18.53-10.96-12.64,0-22.23,17.65-22.23,32.31Z"/><path class="as" d="M494.91,520.13c1.61,.51,4.03,1.07,7,1,2.48-.06,4.54-.54,6-1"/><path class="as" d="M467.41,583.63c2.27-.99,5.74-2.11,10-2,10.94,.29,17.8,8.51,19,10"/></g><g class="ci"><path class="as" d="M1357.56,332.12c-7.62,0-14.37,4.32-18.53,10.96-10.45-14.94-20.89-29.88-31.34-44.81,2.26-.86,6.36-2.79,9.57-6.96,5.24-6.79,4.14-14.7,4.14-17.65,0-11.97-10.56-28.18-24.55-28.46-14.58-.29-26.02,16.94-24.16,20.07,.58,.97,2.33,.41,6,2,2.81,1.22,4.8,2.86,6,4-1.85-2.32-3.72-3.43-5-4-3.24-1.45-7.02-1.38-9.55-1.81,0,0-.97-.16-1.91-.22-.41-.03-.82-.04-1.24-.04-12.09,0-27.2,5.98-27.2,20s15.11,30.77,27.2,30.77c5.82,0,11.1-2.64,15.02-6.93l36.27,52.01c-8.33,3.6-13.48,6.29-13.48,15.68,0,12.75,10.03,28.46,23.22,28.46,12.41,0,22.61-9.15,23.77-20.85,1.84,.55,3.77,.85,5.75,.85,12.64,0,22.23-6.11,22.23-20.77s-9.59-32.31-22.23-32.31Z"/><path class="as" d="M1307.7,298.27c-1.61,.51-4.03,1.07-7,1-2.48-.06-4.54-.54-6-1"/><path class="as" d="M1335.2,361.77c-2.27-.99-5.74-2.11-10-2-10.94,.29-17.8,8.51-19,10"/></g><g><path class="bd" d="M657.64,877.71c14.83,30.35-10.49,18.04-36.88,17.04-26.39-1-48.48-22.37-48.19-30.19s14.17,9.05,40.44,4.37c25.97-4.62,41.18,1.71,44.63,8.78Z"/><path class="aq" d="M741.64,535.46c-.98,26.69-20.31,47.63-43.17,46.76-22.86-.87-10.96-46.87-39.61-49.9-51.47-5.44,4.45-33.26,43.17-46.76,43.44-15.15,40.59,23.21,39.61,49.9Z"/><path class="be" d="M718.03,536.57c-.42,11.39-9.09,20.31-19.37,19.92-10.28-.39-18.27-9.94-17.85-21.33,.42-11.39,9.25-18.26,19.37-19.92,24.02-3.94,18.27,9.94,17.85,21.33Z"/><path class="aq" d="M517.83,531.69c-32.75,12.23-33.68,42.13-55.35,41.31-21.67-.82-21.57-24.22-23.13-44.29-2.92-37.53,7.28-66.09,38.55-52.93,19.8,8.33,59.99,48.4,39.93,55.9Z"/><path class="aw" d="M493.16,525.74c-.44,11.98-9.59,21.37-20.43,20.96-10.84-.41-19.27-10.46-18.83-22.44,.44-11.98,.98-26.75,20.43-20.96,10.35,3.08,19.27,10.46,18.83,22.44Z"/><path class="ba" d="M779.93,764.28s6.41,7.23-5.14,22.65c-11.55,15.42-20.56,11.64-20.56,11.64,9.72,6.96,23.35,4.92,30.44-4.55,7.1-9.47,4.97-22.78-4.75-29.74Z"/><path class="aq" d="M764.68,856.94c2.21-6.92,3.65-16.09,7.37-26.35,9.59-26.42,2.01-54.56-23.66-41.19-12.25,6.38-21.97,17.53-26.62,39.28-2.7,12.63,.27,23.1,5.73,30.33-5.24,3.64-8.58,9.15-8.85,16.67-.47,12.81,1.94,23.29,29.53,24.34,30.38,1.15,33.56-9.12,34.03-21.93,.33-8.86-7.25-16.86-17.51-21.16Z"/><path class="ba" d="M680.19,696.79c19.72-20.49,32.07-47.05,33.15-76.46,2.17-58.8-41.39-109.71-101.67-124.42,.55-3.08,1.7-7.17,4.21-11.45,5.93-10.08,15.43-14.3,19.07-15.7-5.68-.46-19.76-.82-33.46,7.64-5.79,3.57-9.88,7.72-12.65,11.1-1.42-8.98-4.02-20.14-8.95-32.4-4.1-10.19-8.82-18.7-13.19-25.47-.07,9.36-.72,20.04-2.43,31.7-1.61,11.03-3.87,20.93-6.31,29.55-4.73-3.18-13.58-8.25-25.87-10.29-10.33-1.71-18.94-.58-24.23,.53,2.57,.31,11.9,1.72,18.26,9.49,2.37,2.9,3.65,5.85,4.37,8.1-51.67,14.98-87.66,60.13-89.54,111.3-1.76,47.68,26.55,90.17,69.46,112.38-18.66,14.54-30.05,32.95-30.8,53.32-1.87,50.66,62.76,94.23,144.34,97.32,81.58,3.09,149.23-35.47,151.09-86.13,1.47-39.83-38.18-75.28-94.86-90.11Z"/><path class="av" d="M627.51,796.5c4,31.15-20.82,71.23-35.47,70.67-14.66-.56-6.48-44.28-18.98-73.39-26.9-62.64-15.67-30.32,18.75-34.31,14.55-1.68,31.36,3.17,35.7,37.03Z"/><path class="an" d="M608.91,546.83c-2.82-.33-6.75-1.17-10.88-3.4-9.85-5.32-13.48-14.59-14.46-17.42"/><path class="aq" d="M560.97,549.26c3.51-1.55,8.59-4.25,13.16-8.65,7.15-6.89,8.99-14.02,9.55-17.44"/><path class="aq" d="M583.31,546.58c.55,6.17,.84,13.04,.64,20.51-.17,6.39-.67,12.31-1.35,17.7"/><g><path class="aq" d="M485.34,752.05c-2.01,3.82-4.61,9.53-6.42,16.78-8.83,35.37,11.87,64.55,14.87,68.64,6.6,8.99,13.93,18.98,27.69,22.42,1.76,.44,17.05,4.03,29.67-4.34,14.42-9.55,20.09-31.2,11.71-52.14"/><path class="aq" d="M533.5,860.35c-20-12.45-41.12-9.81-48.99,.88-5.93,8.06-4.59,21.05,1.74,28.75,13.22,16.09,51.48,13.33,71.54-5.48,19.32-18.12,22.42-51.75,5.08-81.07"/></g><g><path class="aq" d="M692.83,788.28c17.21,31.65,18.59,61.13,6.08,71.14-5.49,4.39-14.86,6.01-15.29,6.08-10.93,1.8-22.07-1.21-29.27-6.57-13.63-10.16-18.03-32.47-7.84-52.88"/><path class="aq" d="M671.62,865.05c20.86-10.9,41.73-6.67,48.79,4.58,5.33,8.49,3.03,21.33-3.85,28.54-14.37,15.05-52.31,9.4-70.94-10.88-17.93-19.53-18.56-53.3,.89-81.23"/></g><path class="au" d="M750.96,842.63c1.4-.67,3.85-1.61,7.06-1.78,3.06-.16,5.51,.46,6.96,.95"/><g><g><path class="av" d="M542.88,634.45c-4.02,0-9.24-.27-15.85-.62-5.39-.28-11.5-.6-18.8-.88-28.9-1.1-46.59-7.79-45.48-37.76,.71-19.21,20.82-34.26,45.79-34.26,.78,0,1.56,.01,2.34,.04,25.81,.98,46.21,17.92,45.48,37.76-.26,7.06-.15,12.82-.07,17.44,.16,8.62,.25,13.37-2.14,15.8-1.75,1.78-4.91,2.47-11.28,2.47Z"/><path d="M508.54,560.43v1h0c.77,0,1.55,.01,2.32,.04,25.54,.97,45.72,17.68,45,37.24-.26,7.08-.15,12.84-.07,17.47,.16,8.48,.24,13.16-2,15.44-1.64,1.67-4.7,2.32-10.92,2.32-4.01,0-9.22-.27-15.82-.62-5.39-.28-11.5-.6-18.8-.88-28.59-1.08-46.09-7.69-45-37.24,.7-18.94,20.59-33.78,45.29-33.78v-1m0,0c-25.06,0-45.57,15.2-46.29,34.74-1.18,32.11,19.84,37.29,45.96,38.28,16.48,.62,27.42,1.5,34.67,1.5,18.56,0,12.86-5.75,13.98-36.2,.74-20.15-19.84-37.29-45.96-38.28-.79-.03-1.58-.04-2.36-.04h0Z"/></g><g><path class="am" d="M510.65,633.08c-.56,0-1.12-.01-1.68-.03-20.49-.78-36.64-15.58-36-33,.62-16.95,16.72-30.22,36.64-30.22,.56,0,1.12,.01,1.68,.03,20.49,.78,36.64,15.58,36,33-.62,16.94-16.72,30.22-36.64,30.22h0Z"/><path d="M509.61,570.33c.55,0,1.11,.01,1.66,.03,20.21,.77,36.15,15.34,35.52,32.49-.61,16.68-16.49,29.74-36.14,29.74-.55,0-1.11-.01-1.66-.03-20.21-.77-36.15-15.34-35.52-32.49,.61-16.68,16.49-29.74,36.14-29.74m0-1c-20.04,0-36.5,13.46-37.14,30.7-.65,17.73,15.68,32.73,36.48,33.52,.57,.02,1.14,.03,1.7,.03,20.04,0,36.5-13.46,37.14-30.7,.65-17.73-15.68-32.73-36.48-33.52-.57-.02-1.14-.03-1.7-.03h0Z"/></g><g><path d="M510.54,626.43c-.44,0-.88,0-1.33-.02-16.19-.61-28.96-12.31-28.45-26.07,.49-13.38,13.21-23.87,28.95-23.87,.44,0,.88,0,1.33,.02,16.19,.61,28.96,12.31,28.45,26.07-.49,13.38-13.21,23.87-28.95,23.87Z"/><path d="M509.72,575.97v1c.44,0,.87,0,1.31,.02,15.92,.6,28.47,12.06,27.97,25.55-.48,13.11-12.98,23.39-28.46,23.39-.44,0-.87,0-1.31-.02-15.92-.6-28.47-12.06-27.97-25.55,.48-13.11,12.98-23.38,28.46-23.39v-1m0,0c-15.89,0-28.95,10.68-29.45,24.35-.52,14.06,12.44,25.96,28.93,26.59,.45,.02,.9,.03,1.35,.03,15.89,0,28.95-10.68,29.46-24.35,.52-14.06-12.44-25.96-28.93-26.59-.45-.02-.9-.03-1.35-.03h0Z"/></g></g><g><g><path class="av" d="M659.68,635.09c-2.09,0-4.3-.04-6.76-.14-7.3-.28-13.41-.42-18.81-.55-16.44-.38-23.95-.56-26.83-3.8-2.3-2.59-1.86-7.36-1.06-16.02,.43-4.6,.96-10.34,1.22-17.4,.71-19.21,20.82-34.26,45.79-34.26,.78,0,1.56,.01,2.34,.04,25.81,.98,46.21,17.92,45.48,37.76-1.11,30.19-20.54,34.35-41.37,34.35h0Z"/><path d="M653.23,563.43c.77,0,1.55,.01,2.32,.04,25.54,.97,45.72,17.68,45,37.24-.49,13.31-4.51,22.34-12.29,27.61-6.41,4.33-15.22,6.26-28.58,6.26-2.08,0-4.29-.05-6.74-.14-7.3-.28-13.42-.42-18.82-.55-16.29-.38-23.73-.55-26.47-3.63-2.16-2.43-1.73-7.12-.94-15.64,.43-4.61,.96-10.35,1.22-17.43,.7-18.94,20.59-33.78,45.29-33.78m0-1c-25.07,0-45.57,15.2-46.29,34.74-1.56,42.33-12.76,36.06,45.96,38.28,2.3,.09,4.56,.14,6.78,.14,22.95,0,40.79-5.55,41.87-34.84,.74-20.15-19.84-37.29-45.96-38.28-.79-.03-1.58-.04-2.36-.04h0Z"/></g><g><path class="al" d="M655.27,634.56c-.57,0-1.15-.01-1.74-.03-21.23-.8-37.99-15.4-37.36-32.54,.62-16.95,16.72-30.22,36.64-30.22,.56,0,1.12,.01,1.68,.03,20.49,.78,36.64,15.58,36,33-.62,16.97-15.77,29.76-35.22,29.76h0Z"/><path d="M652.82,572.27c.55,0,1.11,.01,1.66,.03,20.22,.77,36.15,15.34,35.52,32.49-.3,8.07-3.94,15.48-10.27,20.85-6.39,5.43-15.07,8.42-24.45,8.42-.57,0-1.14-.01-1.72-.03-9.81-.37-19.42-3.99-26.35-9.94-7.09-6.08-10.83-13.92-10.53-22.09,.61-16.68,16.49-29.74,36.14-29.74m0-1c-20.04,0-36.5,13.46-37.14,30.7-.65,17.73,17.04,32.27,37.84,33.06,.59,.02,1.17,.03,1.75,.03,19.94,0,35.09-13.02,35.72-30.24,.65-17.73-15.68-32.73-36.48-33.52-.57-.02-1.14-.03-1.7-.03h0Z"/></g><g><path d="M653.75,628.38c-.44,0-.89,0-1.33-.02-16.19-.61-28.96-12.31-28.45-26.07,.49-13.38,13.21-23.87,28.96-23.87,.44,0,.89,0,1.33,.02,16.19,.61,28.96,12.31,28.45,26.07-.49,13.38-13.21,23.87-28.96,23.87h0Z"/><path d="M652.93,578.92c.44,0,.87,0,1.31,.02,15.92,.6,28.47,12.06,27.97,25.55-.48,13.11-12.98,23.39-28.46,23.39-.44,0-.87,0-1.31-.02-15.92-.6-28.47-12.06-27.97-25.55,.48-13.11,12.98-23.39,28.46-23.39m0-1c-15.89,0-28.95,10.68-29.45,24.35-.52,14.06,12.44,25.96,28.93,26.59,.45,.02,.9,.03,1.35,.03,15.89,0,28.95-10.68,29.45-24.35,.52-14.06-12.43-25.96-28.93-26.59-.45-.02-.9-.03-1.35-.03h0Z"/></g></g><path class="bc" d="M713.36,624.53c10.27,11.75-35.81,114.16-126.07,121.45-73.58,5.94-131.14-55-144.43-100.5-1.17-4-8.01-27.42,1.25-33.99,10.5-7.44,27.88,16.53,60.2,19.3,34.53,2.96,41.43-22.11,76.14-19.81,29.89,1.99,32.6,21.11,65.78,25.18,38.86,4.78,61.38-18.23,67.14-11.64Z"/><g><path d="M580.23,651.48c-.56,0-1.12-.01-1.69-.03-16.31-.62-29.24-10.03-28.84-20.97,.39-10.52,12.95-18.76,28.61-18.76,.56,0,1.12,.01,1.69,.03,16.31,.62,29.24,10.03,28.84,20.97-.39,10.52-12.96,18.76-28.61,18.76Z"/><path d="M578.32,611.21v1h0c.55,0,1.11,.01,1.67,.03,16.03,.61,28.75,9.78,28.36,20.45-.38,10.25-12.73,18.28-28.11,18.28-.55,0-1.11-.01-1.67-.03-16.03-.61-28.75-9.78-28.36-20.45,.38-10.25,12.73-18.28,28.11-18.28v-1m0,0c-15.83,0-28.71,8.39-29.11,19.24-.41,11.24,12.71,20.86,29.32,21.49,.57,.02,1.14,.03,1.71,.03,15.83,0,28.71-8.39,29.11-19.24,.41-11.24-12.71-20.86-29.32-21.49-.57-.02-1.14-.03-1.71-.03h0Z"/></g><path class="ao" d="M542.46,697.48c-.04,19.41,22.69,33.7,42.3,32.8,15.52-.71,33.43-11.14,35.8-27.01,2.84-19.06-17.93-38.14-39.19-38.36-18.8-.2-38.87,14.35-38.9,32.56Z"/><path class="at" d="M465.61,657.7c6.69,23.06,30.57,45.66,50.46,47.3,23.72,1.95,47.58-18.97,56.39-34.74,3.1-5.56,9.82-5.79,11.79-5.23,11.48,3.27,29.37,35.15,53.78,36.08,11.59,.44,28.71-6.99,50.7-37.79"/><path class="ay" d="M617.54,706.38c-1.8-9.17-20.73-12.69-31.43-12.91-15.92-.33-37.38,6.18-38.3,16.13-.91,9.93,18.65,23.12,36.9,21.91,17.42-1.16,34.72-15.5,32.83-25.13Z"/><path class="b`" d="M601.08,717.69c.12,.3,1.89,4.68-.3,8.05-1.01,1.55-2.59,2.47-5.84,3.52-4.32,1.39-8.23,2.65-14.59,2.28-6.63-.38-21.28-2.84-22.65-9.98-.46-2.4,.71-4.47,1.33-5.46,2.36-3.77,9.71-7.69,21.32-7.25,3.71,.14,17.47,.71,20.72,8.84Z"/><path class="au" d="M571.06,865.92c-1.71,1.6-10.58,10.24-9.52,22.33,.19,2.2,.47,5.45,2.58,8.61,7.7,11.52,30.53,8.12,37.44,7.09,5.43-.81,13.84-2.68,23.48-7.62"/><path class="au" d="M622.67,882.06c-.45,1.01-6.86,15.99-1.15,31.12,.97,2.58,6.54,14.45,16.8,16.22,10.89,1.87,24.62-8.15,29.95-25.76"/><ellipse class="av" cx="504.86" cy="596.07" rx="4.96" ry="5.07" transform="translate(-120.96 1063.55) rotate(-86.49)"/><ellipse class="av" cx="665.08" cy="598.48" rx="4.96" ry="5.07" transform="translate(27.05 1225.72) rotate(-86.49)"/></g><g class="bg"><path class="as" d="M1361.56,809.88c-7.62,0-14.37,4.32-18.53,10.96-10.45-14.94-20.89-29.88-31.34-44.81,2.26-.86,6.36-2.79,9.57-6.96,5.24-6.79,4.14-14.7,4.14-17.65,0-11.97-10.56-28.18-24.55-28.46-14.58-.29-26.02,16.94-24.16,20.07,.58,.97,2.33,.41,6,2,2.81,1.22,4.8,2.86,6,4-1.85-2.32-3.72-3.43-5-4-3.24-1.45-7.02-1.38-9.55-1.81,0,0-.97-.16-1.91-.22-.41-.03-.82-.04-1.24-.04-12.09,0-27.2,5.98-27.2,20s15.11,30.77,27.2,30.77c5.82,0,11.1-2.64,15.02-6.93l36.27,52.01c-8.33,3.6-13.48,6.29-13.48,15.68,0,12.75,10.03,28.46,23.22,28.46,12.41,0,22.61-9.15,23.77-20.85,1.84,.55,3.77,.85,5.75,.85,12.64,0,22.23-6.11,22.23-20.77s-9.59-32.31-22.23-32.31Z"/><path class="as" d="M1311.7,776.03c-1.61,.51-4.03,1.07-7,1-2.48-.06-4.54-.54-6-1"/><path class="as" d="M1339.2,839.53c-2.27-.99-5.74-2.11-10-2-10.94,.29-17.8,8.51-19,10"/></g><g class="bi"><path class="as" d="M1045.57,842.19c0,14.66,9.59,20.77,22.23,20.77,1.99,0,3.91-.29,5.75-.85,1.16,11.7,11.36,20.85,23.77,20.85,13.19,0,23.22-15.72,23.22-28.46,0-9.39-5.14-12.08-13.48-15.68l36.27-52.01c3.92,4.29,9.21,6.93,15.02,6.93,12.09,0,27.2-16.75,27.2-30.77s-15.11-20-27.2-20c-.41,0-.83,.01-1.24,.04-.95,.06-1.91,.22-1.91,.22-2.53,.42-6.31,.36-9.55,1.81-1.28,.57-3.15,1.68-5,4,1.2-1.14,3.19-2.78,6-4,3.67-1.59,5.42-1.03,6-2,1.86-3.13-9.58-20.36-24.16-20.07-13.99,.28-24.55,16.49-24.55,28.46,0,2.95-1.1,10.86,4.14,17.65,3.21,4.17,7.31,6.1,9.57,6.96-10.45,14.94-20.89,29.88-31.34,44.81-4.16-6.64-10.91-10.96-18.53-10.96-12.64,0-22.23,17.65-22.23,32.31Z"/><path class="as" d="M1117.66,776.03c1.61,.51,4.03,1.07,7,1,2.48-.06,4.54-.54,6-1"/><path class="as" d="M1090.16,839.53c2.27-.99,5.74-2.11,10-2,10.94,.29,17.8,8.51,19,10"/></g><g><g><path class="ax" d="M282.32,383.39l24.78,3.92-1.1-31.71-47.41-106.84-17.94,3.23v-48.78c11.44,1.31,22.26,2.55,33.33,2.55,8.14,0,16.32-.72,26.67-1.63,3.4-.3,7.03-.62,10.97-.94v48.77l-16-3.66,26.96,67.33,26.65-67.33-15.85,3.66v-48.75c12.24,1.4,23.24,2.55,33.64,2.55s20.3-1.14,30.72-2.34l1.84-.21v48.78l-17.95-3.23-46.48,106.85-1.1,31.7,25.39-3.92v48.8l-1.2-.11c-13.47-1.26-26.2-2.45-38.9-2.45-9.64,0-17.76,.77-28.04,1.74-2.82,.27-5.79,.55-8.98,.83v-48.8Z"/><path d="M311.11,203.73v47.6l-14.46-3.31-1.86-.43,.71,1.77,26.14,65.27,.93,2.33,.92-2.34,25.83-65.27,.7-1.77-1.86,.43-14.31,3.31v-47.56c12.04,1.37,22.88,2.49,33.14,2.49s20.34-1.14,30.77-2.34l1.29-.15v47.62l-16.97-3.05-.78-.14-.32,.73-46.29,106.4-.08,.17v.19l-1.08,31.01-.04,1.21,1.19-.18,24.22-3.74v47.67l-.66-.06c-13.48-1.26-26.22-2.45-38.94-2.45-9.67,0-17.8,.77-28.09,1.74-2.66,.25-5.45,.51-8.44,.78v-47.67l23.6,3.73,1.2,.19-.04-1.21-1.08-31.01v-.19l-.09-.18-47.21-106.4-.32-.72-.77,.14-16.97,3.05v-47.62c10.79,1.24,21.92,2.49,32.83,2.49,8.16,0,16.34-.72,26.71-1.63,3.3-.29,6.71-.59,10.43-.89m88.96-1.08c-11.38,1.31-21.84,2.61-33.06,2.61s-22.76-1.31-34.14-2.61v49.93l15.53-3.59-25.83,65.27-26.14-65.27,15.69,3.59v-49.93c-16.15,1.31-27.22,2.61-38.14,2.61s-22.45-1.31-33.83-2.61v49.93l18.15-3.26,47.21,106.4,1.08,31.01-24.76-3.92v49.93c14.92-1.31,25.07-2.61,37.52-2.61,13.23,0,26.6,1.3,40.6,2.61v-49.93l-25.37,3.92,1.08-31.01,46.29-106.4,18.15,3.26v-49.93h0Z"/></g><g><path class="ax" d="M470.36,439.42c-18.82,0-36.09-11.53-48.65-32.48-13.42-22.39-20.52-53.42-20.52-89.74s7.09-66.95,20.51-89.13c12.53-20.71,29.81-32.11,48.65-32.11s36.58,11.4,49.19,32.11c13.47,22.12,20.59,52.94,20.59,89.12s-7.12,67.4-20.59,89.74c-12.63,20.94-30.1,32.48-49.18,32.48Zm0-200.39c-9.97,0-19.03,7.64-25.5,21.5-6.68,14.31-10.21,33.91-10.21,56.67,0,46.22,14.69,78.5,35.71,78.5s36.33-32.28,36.33-78.5-14.94-78.18-36.33-78.18Z"/><path d="M470.36,196.46c18.93,0,36.24,11.32,48.76,31.87,13.42,22.04,20.52,52.77,20.52,88.86s-7.1,67.22-20.52,89.48c-12.54,20.79-29.85,32.24-48.76,32.24s-35.76-11.45-48.22-32.23c-13.38-22.31-20.44-53.26-20.44-89.48s7.07-66.77,20.44-88.87c12.44-20.55,29.56-31.87,48.22-31.87m0,199.74c21.68,0,36.83-32.49,36.83-79,0-22.87-3.6-42.54-10.4-56.89-6.66-14.05-16.05-21.79-26.43-21.79s-19.39,7.74-25.95,21.79c-6.71,14.38-10.26,34.05-10.26,56.89,0,46.52,14.89,79,36.22,79m0-200.74c-37.98,0-69.66,45.69-69.66,121.74s31.68,122.72,69.66,122.72,70.28-46.34,70.28-122.72-31.68-121.74-70.28-121.74h0Zm0,199.74c-19.84,0-35.22-30.35-35.22-78s15.38-77.68,35.22-77.68,35.83,30.68,35.83,77.68-15.53,78-35.83,78h0Z"/></g><g><path class="ax" d="M628.6,438.11c-35.94,0-58.85-42.83-59.78-111.78l-1.08-78.28-19.06,3.91v-48.78c3.71,.3,7.26,.67,10.69,1.02,7.82,.8,15.2,1.55,23.72,1.55,8.94,0,16.96-.76,25.45-1.56,3.72-.35,7.57-.71,11.57-1.02v48.8l-22.3-3.92v74.68c0,44.31,10.94,68.71,30.79,68.71s30.79-23.12,30.79-68.71v-74.68l-22.45,3.92v-48.8c4.1,.31,8.01,.67,11.79,1.03,8.43,.79,16.39,1.54,25.39,1.54,8.52,0,15.9-.75,23.72-1.55,3.43-.35,6.97-.71,10.69-1.02v48.78l-19.06-3.91-1.09,78.28c-.93,68.95-23.83,111.78-59.78,111.78Z"/><path d="M637.44,203.72c3.9,.3,7.63,.65,11.25,.99,8.44,.79,16.41,1.54,25.43,1.54,8.54,0,15.94-.76,23.77-1.56,3.26-.33,6.63-.68,10.14-.97v47.62l-17.87-3.67-1.18-.24-.02,1.21-1.08,77.68c-.45,33.6-6.23,61.74-16.7,81.38-10.43,19.56-25.16,29.9-42.58,29.9s-32.2-10.38-42.64-30.03c-10.44-19.65-16.19-47.75-16.65-81.26l-1.08-77.68-.02-1.21-1.18,.24-17.87,3.67v-47.62c3.51,.29,6.88,.64,10.14,.97,7.83,.8,15.23,1.56,23.77,1.56,8.96,0,16.99-.76,25.49-1.56,3.56-.34,7.22-.68,11.03-.97v47.66l-21.12-3.71-1.17-.21v75.28c0,44.63,11.11,69.21,31.29,69.21s31.29-23.29,31.29-69.21v-75.28l-1.17,.2-21.28,3.71v-47.67m71.58-1.08c-12.3,.98-22.45,2.61-34.91,2.61-13.23,0-24.3-1.63-37.68-2.61v49.93l22.45-3.92v74.09c0,43.08-9.38,68.21-30.29,68.21s-30.29-25.13-30.29-68.21v-74.09l22.3,3.92v-49.93c-13.23,.98-24.45,2.61-37.52,2.61s-22.6-1.63-34.91-2.61v49.93l19.07-3.92,1.08,77.68c.92,68.21,23.68,112.27,60.28,112.27s59.36-43.73,60.28-112.27l1.08-77.68,19.07,3.92v-49.93h0Z"/></g><g><path class="ax" d="M773.71,248.73l-16.51,3.25v-48.76c10.84,1.35,21.49,2.54,32.41,2.54,9.46,0,18.92-.97,29.88-2.08,1.53-.16,3.09-.32,4.68-.47v48.78l-18.08-3.28,20.15,149.81,23.48-195.69h29.25l23.63,195.28,20.77-149.4-18.39,3.28v-48.76c11.93,1.73,21.61,2.53,30.41,2.53,10.92,0,21.57-1.2,32.41-2.54v48.76l-16.67-3.24-32.78,186.15-37.43,2.87-17.96-146.43-18.45,143.56-37.89,2.87-32.92-189.02Z"/><path d="M878.53,203.32l23.11,191.03,.92,7.64,1.06-7.62,20.15-144.91,.19-1.36-1.36,.24-17.12,3.05v-47.59c11.69,1.67,21.22,2.46,29.91,2.46,10.76,0,21.24-1.16,31.91-2.48v47.59l-15.57-3.03-1-.19-.18,1-32.62,185.27-36.56,2.8-17.41-142-.97-7.9-1.02,7.9-17.89,139.2-37.03,2.81-32.75-188.07-.18-1.01-1,.2-15.42,3.03v-47.59c10.67,1.32,21.15,2.48,31.91,2.48,9.48,0,18.95-.97,29.92-2.08,1.36-.14,2.74-.28,4.14-.42v47.63l-16.81-3.05-1.35-.25,.18,1.36,19.53,145.23,1.05,7.79,.94-7.8,22.96-191.35h28.37m.89-1h-30.14l-23.07,192.23-19.53-145.23,17.99,3.26v-49.93c-13.07,1.31-24.14,2.61-35.06,2.61s-22.45-1.31-32.91-2.61v49.93l16.61-3.26,32.91,188.97,38.75-2.94,17.99-140.01,17.53,142.95,38.29-2.94,32.76-186.03,16.76,3.26v-49.93c-10.46,1.31-21.68,2.61-32.91,2.61s-21.99-1.31-30.91-2.61v49.93l18.3-3.26-20.15,144.91-23.22-191.91h0Z"/></g><g><path class="ax" d="M1041.35,439.42c-18.82,0-36.09-11.53-48.65-32.48-13.42-22.39-20.52-53.42-20.52-89.74s7.09-66.95,20.51-89.13c12.53-20.71,29.81-32.11,48.65-32.11s36.58,11.4,49.19,32.11c13.47,22.12,20.59,52.94,20.59,89.12s-7.12,67.4-20.59,89.74c-12.63,20.94-30.1,32.48-49.18,32.48Zm0-200.39c-9.97,0-19.03,7.64-25.5,21.5-6.68,14.31-10.22,33.91-10.22,56.67,0,46.22,14.69,78.5,35.71,78.5s36.33-32.28,36.33-78.5-14.94-78.18-36.33-78.18Z"/><path d="M1041.35,196.46c18.93,0,36.24,11.32,48.76,31.87,13.42,22.04,20.52,52.77,20.52,88.86s-7.1,67.22-20.52,89.48c-12.54,20.79-29.85,32.24-48.76,32.24s-35.76-11.45-48.22-32.23c-13.38-22.31-20.44-53.26-20.44-89.48s7.07-66.77,20.44-88.87c12.44-20.55,29.56-31.87,48.22-31.87m0,199.74c21.69,0,36.83-32.49,36.83-79,0-22.87-3.6-42.54-10.4-56.89-6.66-14.05-16.05-21.79-26.43-21.79s-19.39,7.74-25.95,21.79c-6.71,14.38-10.26,34.05-10.26,56.89,0,46.52,14.89,79,36.21,79m0-200.74c-37.98,0-69.66,45.69-69.66,121.74s31.68,122.72,69.66,122.72,70.28-46.34,70.28-122.72-31.68-121.74-70.28-121.74h0Zm0,199.74c-19.84,0-35.21-30.35-35.21-78s15.38-77.68,35.21-77.68,35.83,30.68,35.83,77.68-15.53,78-35.83,78h0Z"/></g><g><path class="ax" d="M1170.96,268.78l-.79,118.2,23.22-3.92v49.09c-12.04-1.71-23-2.53-33.49-2.53-11.19,0-23.12,.88-34.56,2.53v-49.08l21.53,3.92-.62-138.8-19.27,9.49-3.61-51.37,49.61-10.59,73.09,168.66-.95-119.56-22.45,3.92v-48.76c12.05,1.71,23.01,2.53,33.49,2.53,11.19,0,22.81-.85,34.56-2.53v48.76l-20.91-3.92-.62,179.46-26.31,12.37-71.94-167.85Z"/><path d="M1172.7,196.29l71.95,166.02,1.96,4.51-.04-4.92-.92-116.51v-1.18l-1.17,.2-21.28,3.71v-47.59c11.85,1.65,22.65,2.46,32.98,2.46,11.03,0,22.49-.83,34.06-2.46v47.58l-19.73-3.7-1.18-.22v1.2l-.62,178.55-25.56,12.02-70.79-165.17-1.89-4.4-.03,4.79-.77,115.21v1.19l1.17-.2,22.05-3.72v47.93c-11.84-1.65-22.65-2.46-32.98-2.46-11.03,0-22.78,.85-34.06,2.46v-47.91l20.35,3.7,1.18,.22v-1.2l-.62-137.4v-1.6l-1.44,.71-17.89,8.81-3.53-50.19,48.79-10.42m.59-1.15l-50.44,10.77,3.69,52.55,19.22-9.46,.61,137.4-21.53-3.92v50.26c11.07-1.63,23.07-2.61,35.06-2.61,11.23,0,22.61,.98,33.98,2.61v-50.26l-23.22,3.92,.77-115.21,71.2,166.12,27.06-12.73,.62-179.18,20.91,3.92v-49.94c-11.23,1.63-23.07,2.61-35.06,2.61-11.23,0-22.6-.98-33.98-2.61v49.93l22.45-3.92,.92,116.51-72.28-166.78h0Z"/></g><g><path class="ax" d="M1308.35,375.56l28.22,5.04v43.88l-28.22,5.04v-53.96Zm4.29-21.01l-6.73-161.57,33.71-2.53-6.72,164.1h-20.26Z"/><path d="M1339.1,191l-6.68,163.06h-19.3l-6.69-160.61,32.67-2.45m-30.25,185.17l27.22,4.86v43.04l-27.22,4.86v-52.77m31.29-186.25l-34.75,2.61,6.77,162.53h21.22l6.77-165.14h0Zm-32.29,185.05v55.16l29.22-5.22v-44.71l-29.22-5.22h0Z"/></g></g><g class="bl"><path class="as" d="M18.64,579.63c0,14.66,9.59,20.77,22.23,20.77,1.99,0,3.91-.29,5.75-.85,1.16,11.7,11.36,20.85,23.77,20.85,13.19,0,23.22-15.72,23.22-28.46,0-9.39-5.14-12.08-13.48-15.68l36.27-52.01c3.92,4.29,9.21,6.93,15.02,6.93,12.09,0,27.2-16.75,27.2-30.77s-15.11-20-27.2-20c-.41,0-.83,.01-1.24,.04-.95,.06-1.91,.22-1.91,.22-2.53,.42-6.31,.36-9.55,1.81-1.28,.57-3.15,1.68-5,4,1.2-1.14,3.19-2.78,6-4,3.67-1.59,5.42-1.03,6-2,1.86-3.13-9.58-20.36-24.16-20.07-13.99,.28-24.55,16.49-24.55,28.46,0,2.95-1.1,10.86,4.14,17.65,3.21,4.17,7.31,6.1,9.57,6.96-10.45,14.94-20.89,29.88-31.34,44.81-4.16-6.64-10.91-10.96-18.53-10.96-12.64,0-22.23,17.65-22.23,32.31Z"/><path class="as" d="M90.73,513.47c1.61,.51,4.03,1.07,7,1,2.48-.06,4.54-.54,6-1"/><path class="as" d="M63.23,576.97c2.27-.99,5.74-2.11,10-2,10.94,.29,17.8,8.51,19,10"/></g><g class="bj"><path class="as" d="M12.64,143.01c0,14.66,9.59,20.77,22.23,20.77,1.99,0,3.91-.29,5.75-.85,1.16,11.7,11.36,20.85,23.77,20.85,13.19,0,23.22-15.72,23.22-28.46,0-9.39-5.14-12.08-13.48-15.68l36.27-52.01c3.92,4.29,9.21,6.93,15.02,6.93,12.09,0,27.2-16.75,27.2-30.77s-15.11-20-27.2-20c-.41,0-.83,.01-1.24,.04-.95,.06-1.91,.22-1.91,.22-2.53,.42-6.31,.36-9.55,1.81-1.28,.57-3.15,1.68-5,4,1.2-1.14,3.19-2.78,6-4,3.67-1.59,5.42-1.03,6-2,1.86-3.13-9.58-20.36-24.16-20.07-13.99,.28-24.55,16.49-24.55,28.46,0,2.95-1.1,10.86,4.14,17.65,3.21,4.17,7.31,6.1,9.57,6.96-10.45,14.94-20.89,29.88-31.34,44.81-4.16-6.64-10.91-10.96-18.53-10.96-12.64,0-22.23,17.65-22.23,32.31Z"/><path class="as" d="M84.73,76.85c1.61,.51,4.03,1.07,7,1,2.48-.06,4.54-.54,6-1"/><path class="as" d="M57.23,140.35c2.27-.99,5.74-2.11,10-2,10.94,.29,17.8,8.51,19,10"/></g><g class="bk"><path class="as" d="M132.41,325.46c-7.62,0-14.37,4.32-18.53,10.96-10.45-14.94-20.89-29.88-31.34-44.81,2.26-.86,6.36-2.79,9.57-6.96,5.24-6.79,4.14-14.7,4.14-17.65,0-11.97-10.56-28.18-24.55-28.46-14.58-.29-26.02,16.94-24.16,20.07,.58,.97,2.33,.41,6,2,2.81,1.22,4.8,2.86,6,4-1.85-2.32-3.72-3.43-5-4-3.24-1.45-7.02-1.38-9.55-1.81,0,0-.97-.16-1.91-.22-.41-.03-.82-.04-1.24-.04-12.09,0-27.2,5.98-27.2,20s15.11,30.77,27.2,30.77c5.82,0,11.1-2.64,15.02-6.93l36.27,52.01c-8.33,3.6-13.48,6.29-13.48,15.68,0,12.75,10.03,28.46,23.22,28.46,12.41,0,22.61-9.15,23.77-20.85,1.84,.55,3.77,.85,5.75,.85,12.64,0,22.23-6.11,22.23-20.77s-9.59-32.31-22.23-32.31Z"/><path class="as" d="M82.55,291.61c-1.61,.51-4.03,1.07-7,1-2.48-.06-4.54-.54-6-1"/><path class="as" d="M110.05,355.11c-2.27-.99-5.74-2.11-10-2-10.94,.29-17.8,8.51-19,10"/></g><g class="bh"><path class="as" d="M136.41,803.23c-7.62,0-14.37,4.32-18.53,10.96-10.45-14.94-20.89-29.88-31.34-44.81,2.26-.86,6.36-2.79,9.57-6.96,5.24-6.79,4.14-14.7,4.14-17.65,0-11.97-10.56-28.18-24.55-28.46-14.58-.29-26.02,16.94-24.16,20.07,.58,.97,2.33,.41,6,2,2.81,1.22,4.8,2.86,6,4-1.85-2.32-3.72-3.43-5-4-3.24-1.45-7.02-1.38-9.55-1.81,0,0-.97-.16-1.91-.22-.41-.03-.82-.04-1.24-.04-12.09,0-27.2,5.98-27.2,20s15.11,30.77,27.2,30.77c5.82,0,11.1-2.64,15.02-6.93l36.27,52.01c-8.33,3.6-13.48,6.29-13.48,15.68,0,12.75,10.03,28.46,23.22,28.46,12.41,0,22.61-9.15,23.77-20.85,1.84,.55,3.77,.85,5.75,.85,12.64,0,22.23-6.11,22.23-20.77s-9.59-32.31-22.23-32.31Z"/><path class="as" d="M86.55,769.38c-1.61,.51-4.03,1.07-7,1-2.48-.06-4.54-.54-6-1"/><path class="as" d="M114.05,832.88c-2.27-.99-5.74-2.11-10-2-10.94,.29-17.8,8.51-19,10"/></g><g class="bf"><path class="as" d="M1551.41,120.7c-7.62,0-14.37,4.32-18.53,10.96-10.45-14.94-20.89-29.88-31.34-44.81,2.26-.86,6.36-2.79,9.57-6.96,5.24-6.79,4.14-14.7,4.14-17.65,0-11.97-10.56-28.18-24.55-28.46-14.58-.29-26.02,16.94-24.16,20.07,.58,.97,2.33,.41,6,2,2.81,1.22,4.8,2.86,6,4-1.85-2.32-3.72-3.43-5-4-3.24-1.45-7.02-1.38-9.55-1.81,0,0-.97-.16-1.91-.22-.41-.03-.82-.04-1.24-.04-12.09,0-27.2,5.98-27.2,20s15.11,30.77,27.2,30.77c5.82,0,11.1-2.64,15.02-6.93l36.27,52.01c-8.33,3.6-13.48,6.29-13.48,15.68,0,12.75,10.03,28.46,23.22,28.46,12.41,0,22.61-9.15,23.77-20.85,1.84,.55,3.77,.85,5.75,.85,12.64,0,22.23-6.11,22.23-20.77s-9.59-32.31-22.23-32.31Z"/><path class="as" d="M1501.55,86.85c-1.61,.51-4.03,1.07-7,1-2.48-.06-4.54-.54-6-1"/><path class="as" d="M1529.05,150.35c-2.27-.99-5.74-2.11-10-2-10.94,.29-17.8,8.51-19,10"/></g><g class="bm"><path class="as" d="M1557.41,557.33c-7.62,0-14.37,4.32-18.53,10.96-10.45-14.94-20.89-29.88-31.34-44.81,2.26-.86,6.36-2.79,9.57-6.96,5.24-6.79,4.14-14.7,4.14-17.65,0-11.97-10.56-28.18-24.55-28.46-14.58-.29-26.02,16.94-24.16,20.07,.58,.97,2.33,.41,6,2,2.81,1.22,4.8,2.86,6,4-1.85-2.32-3.72-3.43-5-4-3.24-1.45-7.02-1.38-9.55-1.81,0,0-.97-.16-1.91-.22-.41-.03-.82-.04-1.24-.04-12.09,0-27.2,5.98-27.2,20s15.11,30.77,27.2,30.77c5.82,0,11.1-2.64,15.02-6.93l36.27,52.01c-8.33,3.6-13.48,6.29-13.48,15.68,0,12.75,10.03,28.46,23.22,28.46,12.41,0,22.61-9.15,23.77-20.85,1.84,.55,3.77,.85,5.75,.85,12.64,0,22.23-6.11,22.23-20.77s-9.59-32.31-22.23-32.31Z"/><path class="as" d="M1507.55,523.47c-1.61,.51-4.03,1.07-7,1-2.48-.06-4.54-.54-6-1"/><path class="as" d="M1535.05,586.97c-2.27-.99-5.74-2.11-10-2-10.94,.29-17.8,8.51-19,10"/></g><g class="bn"><path class="as" d="M1439.64,845.54c0,14.66,9.59,20.77,22.23,20.77,1.99,0,3.91-.29,5.75-.85,1.16,11.7,11.36,20.85,23.77,20.85,13.19,0,23.22-15.72,23.22-28.46,0-9.39-5.14-12.08-13.48-15.68l36.27-52.01c3.92,4.29,9.21,6.93,15.02,6.93,12.09,0,27.2-16.75,27.2-30.77s-15.11-20-27.2-20c-.41,0-.83,.01-1.24,.04-.95,.06-1.91,.22-1.91,.22-2.53,.42-6.31,.36-9.55,1.81-1.28,.57-3.15,1.68-5,4,1.2-1.14,3.19-2.78,6-4,3.67-1.59,5.42-1.03,6-2,1.86-3.13-9.58-20.36-24.16-20.07-13.99,.28-24.55,16.49-24.55,28.46,0,2.95-1.1,10.86,4.14,17.65,3.21,4.17,7.31,6.1,9.57,6.96-10.45,14.94-20.89,29.88-31.34,44.81-4.16-6.64-10.91-10.96-18.53-10.96-12.64,0-22.23,17.65-22.23,32.31Z"/><path class="as" d="M1511.73,779.38c1.61,.51,4.03,1.07,7,1,2.48-.06,4.54-.54,6-1"/><path class="as" d="M1484.23,842.88c2.27-.99,5.74-2.11,10-2,10.94,.29,17.8,8.51,19,10"/></g><g class="bo"><path class="as" d="M1435.64,367.77c0,14.66,9.59,20.77,22.23,20.77,1.99,0,3.91-.29,5.75-.85,1.16,11.7,11.36,20.85,23.77,20.85,13.19,0,23.22-15.72,23.22-28.46,0-9.39-5.14-12.08-13.48-15.68l36.27-52.01c3.92,4.29,9.21,6.93,15.02,6.93,12.09,0,27.2-16.75,27.2-30.77s-15.11-20-27.2-20c-.41,0-.83,.01-1.24,.04-.95,.06-1.91,.22-1.91,.22-2.53,.42-6.31,.36-9.55,1.81-1.28,.57-3.15,1.68-5,4,1.2-1.14,3.19-2.78,6-4,3.67-1.59,5.42-1.03,6-2,1.86-3.13-9.58-20.36-24.16-20.07-13.99,.28-24.55,16.49-24.55,28.46,0,2.95-1.1,10.86,4.14,17.65,3.21,4.17,7.31,6.1,9.57,6.96-10.45,14.94-20.89,29.88-31.34,44.81-4.16-6.64-10.91-10.96-18.53-10.96-12.64,0-22.23,17.65-22.23,32.31Z"/><path class="as" d="M1507.73,301.61c1.61,.51,4.03,1.07,7,1,2.48-.06,4.54-.54,6-1"/><path class="as" d="M1480.23,365.11c2.27-.99,5.74-2.11,10-2,10.94,.29,17.8,8.51,19,10"/></g><path class="ar" d="M869.05,446.76c-77.26,0-161.05,57.9-162.46,122.4-.7,31.93,18.95,57.94,31.77,71.97-3.41,7.52-8.44,16.64-15.89,26.06-10.81,13.65-22.48,22.55-30.95,28,3.76,2.18,37.37,20.91,71.66,5.6,13.56-6.06,22.36-15.26,27.49-21.95,35.7,14.93,69.61,12.71,78.38,12.71,89.73,0,162.46-54.8,162.46-122.4s-72.74-122.4-162.46-122.4Z"/><path class="ap" d="M453.38,1015.32c-26.79,27.35-73.06-16.2-204-12-117.7,3.78-142.81,40.98-194,21-96.18-37.54-171.01-232.69-88-332,75.1-89.84,236.44-49.85,322,0,144.94,84.45,209.16,276.9,164,323Z"/></svg>