<svg id="Layer_1" data-name="Layer 1" xmlns="http://www.w3.org/2000/svg" xmlns:xlink="http://www.w3.org/1999/xlink" width="200" height="600" viewBox="0 0 200 600"><defs><style>.cls-1{filter:url(#AI_Shadow_1);}.cls-2{fill:#3c91bb;stroke:#000;stroke-miterlimit:10;}.cls-3{fill:#fff;}</style><filter id="AI_Shadow_1" name="AI_Shadow_1"><feGaussianBlur result="blur" stdDeviation="2" in="SourceAlpha"/><feOffset result="offsetBlurredAlpha" dx="4" dy="4" in="blur"/><feMerge><feMergeNode in="offsetBlurredAlpha"/><feMergeNode in="SourceGraphic"/></feMerge></filter></defs><g class="cls-1"><circle class="cls-2" cx="99.74" cy="295.43" r="75"/><path class="cls-3" d="M99.49,338.57s31.2-23.16,39.6-39.8l1.85-3.73a29.27,29.27,0,0,0,2.24-11.24c0-14.73-10.64-26.68-23.77-26.68-8.37,0-15.71,4.87-20,12.21-4.23-7.34-11.58-12.21-19.95-12.21-13.12,0-23.77,11.95-23.77,26.68A29.27,29.27,0,0,0,58,295l1.86,3.73c8.4,16.64,39.59,39.8,39.59,39.8Z"/></g><g class="cls-1"><circle class="cls-2" cx="99.74" cy="102.35" r="75"/><path class="cls-3" d="M99.49,145.5s31.2-23.16,39.6-39.81l1.85-3.73a29.22,29.22,0,0,0,2.24-11.23c0-14.74-10.64-26.68-23.77-26.68-8.37,0-15.71,4.86-20,12.2-4.23-7.34-11.58-12.2-19.95-12.2C66.39,64.05,55.74,76,55.74,90.73A29.22,29.22,0,0,0,58,102l1.86,3.73c8.4,16.65,39.59,39.81,39.59,39.81Z"/></g><g class="cls-1"><circle class="cls-2" cx="99.74" cy="488.35" r="75"/><path class="cls-3" d="M99.49,531.5s31.2-23.16,39.6-39.81l1.85-3.73a29.22,29.22,0,0,0,2.24-11.23c0-14.74-10.64-26.68-23.77-26.68-8.37,0-15.71,4.86-20,12.2-4.23-7.34-11.58-12.2-19.95-12.2-13.12,0-23.77,11.94-23.77,26.68A29.22,29.22,0,0,0,58,488l1.86,3.73c8.4,16.65,39.59,39.81,39.59,39.81Z"/></g></svg>