<?xml version="1.0" encoding="UTF-8"?><svg id="a" xmlns="http://www.w3.org/2000/svg" width="200" height="200" viewBox="0 0 200 200"><defs><style>.b{font-family:PostinoStd, Postino Std;font-size:18.83px;}.c{letter-spacing:-.03em;}.d{fill:#f4000d;}.e{fill:#ff931e;}.f{fill:#8cc63f;}.g{fill:#fff;stroke:#000;stroke-miterlimit:10;}.h{font-family:PacFont, PacFont;font-size:34.3px;}</style></defs><text/><g><path class="g" d="M155.79,100.39c-.34,17.7,17.22,23.75,15.63,33.27-3.66,21.99-106.38,43.38-135.68-1.49-1.02-1.57-10.46-16.47-7.07-33.84,6.36-32.57,52.46-46.32,80.35-48.01,25.35-1.54,56.56,5.62,59.21,19.26,1.88,9.7-12.14,15.11-12.45,30.82Z"/><text class="b" transform="translate(71.41 82.83) scale(.83 1)"><tspan class="c" x="0" y="0">F</tspan><tspan x="16.8" y="0">eed</tspan></text><text class="h" transform="translate(49.14 120.22) scale(.9 1)"><tspan class="d" x="0" y="0">e</tspan><tspan x="34.06" y="0">r</tspan><tspan class="e" x="67.36" y="0">i</tspan><tspan class="f" x="83.07" y="0">c</tspan></text></g></svg>