<?xml version="1.0" encoding="UTF-8"?><svg id="a" xmlns="http://www.w3.org/2000/svg" width="1200" height="1000" viewBox="0 0 1200 1000"><defs><style>.b{letter-spacing:-.02em;}.c{letter-spacing:-.03em;}.d{fill:#f4000d;}.e,.f,.g{fill:#fff;}.h{fill:#ff931e;}.i{fill:#8cc63f;}.j{fill:#3c91bb;}.k{font-family:PacFont, PacFont;font-size:151.27px;}.f{font-size:144.14px;}.f,.l{font-family:PostinoStd, Postino Std;}.f,.g{stroke:#000;stroke-miterlimit:10;}.m{letter-spacing:0em;}.l{font-size:83.04px;}</style></defs><text/><path class="g" d="M885.33,342.86c-57.3,72,319,217-230,268-190.82,17.73-358-115.3-358-278.5S452.69,72.86,644.33,72.86s410.04,57.61,241,270Z"/><path class="h" d="M943.33,645.36c9.92,106.83-145.9,281.39-262,161.5-69.24-71.5-248.43,9.05-261-161.5-7.37-99.97,117.08-181.5,261.5-181.5s252.23,81.69,261.5,181.5Z"/><g><ellipse class="g" cx="787.83" cy="855.86" rx="128.5" ry="123"/><ellipse class="j" cx="788.83" cy="855.86" rx="119.5" ry="113"/><polygon class="e" points="764.4 893.13 764.53 859.14 764.65 825.14 796.18 842.25 827.71 859.36 796.06 876.25 764.4 893.13"/></g><text class="l" transform="translate(454 211.41) scale(.87 1)"><tspan class="c" x="0" y="0">F</tspan><tspan x="74.07" y="0">eed</tspan></text><text class="f" transform="translate(508.31 651.79) scale(.85 1)"><tspan x="0" y="0">Pl</tspan><tspan class="b" x="204.97" y="0">a</tspan><tspan class="m" x="314.81" y="0">y</tspan></text><text class="k" transform="translate(366 376.31) scale(.94 1)"><tspan class="d" x="0" y="0">e</tspan><tspan x="150.21" y="0">r</tspan><tspan class="h" x="297.09" y="0">i</tspan><tspan class="i" x="366.37" y="0">c</tspan></text></svg>