<svg id="Layer_1" data-name="Layer 1" xmlns="http://www.w3.org/2000/svg" xmlns:xlink="http://www.w3.org/1999/xlink" width="200" height="200" viewBox="0 0 200 200"><defs><style>.cls-1{filter:url(#AI_Shadow_1);}.cls-2,.cls-3{fill:#42210b;}.cls-3{stroke:#000;stroke-miterlimit:10;}</style><filter id="AI_Shadow_1" name="AI_Shadow_1"><feGaussianBlur result="blur" stdDeviation="2" in="SourceAlpha"/><feOffset result="offsetBlurredAlpha" dx="4" dy="4" in="blur"/><feMerge><feMergeNode in="offsetBlurredAlpha"/><feMergeNode in="SourceGraphic"/></feMerge></filter></defs><g class="cls-1"><path class="cls-2" d="M129,129c0,12.7-17.2,22.5-27.81,22.5s-38.41-.29-34.88-12.5c4-14,25.36-64.58,43.48-44C123.44,110.5,129,116.3,129,129Z"/><path class="cls-3" d="M61.94,141.52A12.5,12.5,0,0,0,57,150.34,12,12,0,0,0,61,160.27c4,3.24,8-.05,20.6-1.1a74.63,74.63,0,0,1,13.74,0c9,.87,10.38,2.82,18.64,3.31,6.63.39,10.58.56,14.72-2.21a18.31,18.31,0,0,0,7.84-12.13,19.78,19.78,0,0,0-2-12.14"/><path class="cls-3" d="M73,124c-6.65,2.12-11.17,7.16-11.5,12.78-.4,6.87,5.67,11.22,6.39,11.72"/><path class="cls-3" d="M127.5,122.5c4.69,1.45,8.33,4.92,9,9,1,6-4.38,13.11-13,14"/><path class="cls-3" d="M87.5,110.5a15.17,15.17,0,0,1-3-8c-.34-6.7,4.82-9.24,4-15-.77-5.39-5.8-6.75-5-10s6.49-5.13,11-5c9.27.27,18.87,9.34,20,20a23,23,0,0,1-.56,7.38h0a25.48,25.48,0,0,1-3.44,7.61"/><path class="cls-3" d="M85.5,98.5c-6.88.72-16.1,8.28-17,15-1,7.49,5.27,12.57,5.7,13"/><path class="cls-3" d="M113.5,100.5a15.36,15.36,0,0,1,9,28"/></g></svg>