<svg id="Layer_1" data-name="Layer 1" xmlns="http://www.w3.org/2000/svg" xmlns:xlink="http://www.w3.org/1999/xlink" width="200" height="200" viewBox="0 0 200 200"><defs><style>.cls-1,.cls-2{fill:#5f3300;}.cls-11,.cls-2,.cls-3{stroke:#000;stroke-miterlimit:10;}.cls-3,.cls-6{fill:#744500;}.cls-4{fill:#ffddfc;filter:url(#filter);}.cls-5{fill:#ffddf1;}.cls-7{fill:#2a1700;}.cls-8{fill:#fff;}.cls-9{fill:url(#Sky_2);}.cls-10{fill:url(#Sky_2-2);}.cls-11{fill:none;fill-rule:evenodd;}</style><filter id="filter" x="108" y="20.52" width="45" height="46" filterUnits="userSpaceOnUse"><feOffset input="SourceAlpha"/><feGaussianBlur stdDeviation="5" result="blur"/><feFlood/><feComposite operator="in" in2="blur"/><feComposite in="SourceGraphic"/></filter><linearGradient id="Sky_2" x1="121.96" y1="67.25" x2="146.96" y2="67.25" gradientTransform="matrix(-1, 0, 0, 1, 200.66, 0)" gradientUnits="userSpaceOnUse"><stop offset="0" stop-color="#cadef2"/><stop offset="0.06" stop-color="#c1daf0"/><stop offset="0.17" stop-color="#a7d0ec"/><stop offset="0.31" stop-color="#7ec0e5"/><stop offset="0.47" stop-color="#45a9dc"/><stop offset="0.57" stop-color="#1e9ad5"/><stop offset="0.87" stop-color="#0075bc"/><stop offset="0.99" stop-color="#005b95"/></linearGradient><linearGradient id="Sky_2-2" x1="101.42" y1="67.31" x2="126.43" y2="67.31" gradientTransform="matrix(1, 0, 0, 1, 0, 0)" xlink:href="#Sky_2"/></defs><path class="cls-1" d="M119.15,164.46c5.5,10.5-3.39,6.5-12.5,6.5s-17-7.23-17-10,5,3,14,1S117.87,162,119.15,164.46Z"/><path class="cls-2" d="M89.15,161.46c-.57.59-3.52,3.76-3,8a6.08,6.08,0,0,0,1,3c2.8,4,10.63,2.46,13,2a25.62,25.62,0,0,0,8-3"/><path class="cls-2" d="M107.15,166.46a16.08,16.08,0,0,0,0,11c.37.9,2.44,5,6,5.49,3.78.52,8.38-3.2,10-9.48"/><path class="cls-3" d="M145.7,43.12c0,9.42-6.7,17.06-15,17.06s-4.58-16.38-15-17.06c-18.67-1.24,1.16-11.79,15-17.07C146.22,20.13,145.7,33.69,145.7,43.12Z"/><path class="cls-4" d="M137.19,43.82a6.76,6.76,0,1,1-13.47,0c0-4,3.1-6.56,6.74-7.28C139.08,34.83,137.19,39.8,137.19,43.82Z"/><path class="cls-3" d="M64.8,44.77C53.13,49.52,53.19,60.08,45.35,60.08s-8.11-8.25-8.94-15.31C34.85,31.58,38.16,21.38,49.63,25.6,56.89,28.27,72,41.86,64.8,44.77Z"/><path class="cls-5" d="M55.81,43a7.4,7.4,0,0,1-7.1,7.66A7.4,7.4,0,0,1,41.61,43c0-4.23,0-9.45,7.1-7.66C52.49,36.29,55.81,38.78,55.81,43Z"/><path class="cls-6" d="M162.58,123.27s2.42,2.47-1.55,8-7.27,4.38-7.27,4.38a8.1,8.1,0,0,0,10.93-2A7.28,7.28,0,0,0,162.58,123.27Z"/><path class="cls-3" d="M158.11,150.82c.7-2.47,1.1-5.72,2.31-9.38,3.11-9.45,0-19.26-9.1-14.21-4.34,2.41-7.7,6.47-9.09,14.21a12.66,12.66,0,0,0,2.47,10.61,7.1,7.1,0,0,0-3,6c0,4.52,1,8.18,11,8.18,11,0,12-3.66,12-8.18C164.71,154.92,161.87,152.2,158.11,150.82Z"/><path class="cls-6" d="M125.65,100.81a40.45,40.45,0,0,0,11-27.4c0-20.76-16.41-38.12-38.39-42.5a12.12,12.12,0,0,1,1.37-4.1A13.75,13.75,0,0,1,106.27,21a20.54,20.54,0,0,0-12,3.15,18,18,0,0,0-4.42,4.08A51.36,51.36,0,0,0,86.2,16.94a52.19,52.19,0,0,0-5.1-8.8,78.26,78.26,0,0,1-.46,11.21,80.06,80.06,0,0,1-1.88,10.5,24,24,0,0,0-9.49-3.28,24.51,24.51,0,0,0-8.74.51,10.35,10.35,0,0,1,6.72,3.1A8.59,8.59,0,0,1,68.94,33C50.47,39,38.07,55.35,38.07,73.41c0,16.83,10.79,31.43,26.59,38.69-6.55,5.38-10.42,12-10.42,19.21,0,17.89,23.93,32.38,53.44,32.38s53.44-14.49,53.44-32.38C161.12,117.25,146.32,105.28,125.65,100.81Z"/><path class="cls-7" d="M119.74,72.63C109,81,89,72.63,89.37,88.07c.35,13.14-3.28,28,22.37,23.81,12.25-2,18.5-9.18,23.84-22.79C145.57,63.6,128.19,66.06,119.74,72.63Z"/><path class="cls-7" d="M56.34,72c-9-6.66-27.6-9.15-16.92,16.7,5.7,13.8,12.38,21.08,25.47,23.11C92.3,116.09,88.42,101,88.8,87.69,89.23,72,67.85,80.52,56.34,72Z"/><ellipse cx="90.13" cy="82.17" rx="10.38" ry="6.68"/><path d="M90.13,76c5.36,0,9.88,2.83,9.88,6.18s-4.52,6.19-9.88,6.19-9.88-2.83-9.88-6.19S84.78,76,90.13,76m0-1c-6,0-10.88,3.22-10.88,7.18s4.87,7.19,10.88,7.19S101,86.14,101,82.17,96.14,75,90.13,75Z"/><polygon class="cls-8" points="96.19 105.61 92.28 108.4 98.92 108.89 102.71 97.8 96.19 105.61"/><path class="cls-8" d="M81.85,105.15l4.05,2.59-3.59,3.38c-.25.24-.58.34-.72,0l-5-12.62Z"/><path d="M89.63,112c-11.67,0-19.8-2.65-19.8-5,0-.25,0-.71,1.6-.71a39.33,39.33,0,0,1,5.21.63,80.49,80.49,0,0,0,12.77,1.24,82.8,82.8,0,0,0,12.85-1.23,43.44,43.44,0,0,1,5.48-.64c1.68,0,1.68.48,1.68.71C109.42,109.35,101.29,112,89.63,112Z"/><path d="M71.43,106.76a40.23,40.23,0,0,1,5.13.62,80,80,0,0,0,12.85,1.25,83.56,83.56,0,0,0,12.93-1.24,42.53,42.53,0,0,1,5.4-.63,2.91,2.91,0,0,1,1.17.15h0V107c0,1.58-6.63,4.53-19.3,4.53s-19.29-3-19.29-4.53v0a2.3,2.3,0,0,1,1.1-.16m36.31-1c-3.4,0-10.39,1.87-18.33,1.87s-14.72-1.87-18-1.87c-1.35,0-2.1.31-2.1,1.21,0,3,9.09,5.53,20.29,5.53s20.3-2.48,20.3-5.53c0-.9-.79-1.21-2.18-1.21Z"/><path class="cls-8" d="M76,78.15l-3.54,0c-1.83,0-4-.06-6.5-.06-9.77,0-15.83-2.07-15.83-12.38,0-6.83,7.1-12.38,15.83-12.38s15.84,5.55,15.84,12.38c0,2.5.11,4.53.2,6.16.16,3,.25,4.63-.49,5.41S79,78.15,76,78.15Z"/><path d="M65.94,53.8c8.46,0,15.34,5.33,15.34,11.88,0,2.51.11,4.55.2,6.19.14,2.65.24,4.41-.35,5s-2.41.75-5.15.75l-3.53,0c-1.87,0-4-.06-6.51-.06-9.71,0-15.33-2-15.33-11.88,0-6.55,6.88-11.88,15.33-11.88m0-1c-9,0-16.33,5.76-16.33,12.88,0,11.33,7.31,12.88,16.33,12.88,4.39,0,7.64.09,10,.09,8.72,0,6.3-1.26,6.3-13,0-7.12-7.32-12.88-16.34-12.88Z"/><path class="cls-9" d="M66.2,78.08c-6.89,0-12.5-4.86-12.5-10.83s5.61-10.83,12.5-10.83,12.5,4.86,12.5,10.83S73.09,78.08,66.2,78.08Z"/><path d="M66.2,56.92c6.62,0,12,4.64,12,10.33s-5.38,10.33-12,10.33-12-4.63-12-10.33,5.38-10.33,12-10.33m0-1c-7.18,0-13,5.07-13,11.33S59,78.58,66.2,78.58s13-5.07,13-11.33-5.82-11.33-13-11.33Z"/><path d="M66.2,75.74c-5.41,0-9.81-3.81-9.81-8.49s4.4-8.48,9.81-8.48S76,62.57,76,67.25,71.61,75.74,66.2,75.74Z"/><path d="M66.2,59.27c5.13,0,9.31,3.58,9.31,8s-4.18,8-9.31,8-9.31-3.59-9.31-8,4.17-8,9.31-8m0-1c-5.7,0-10.31,4-10.31,9s4.61,9,10.31,9,10.31-4,10.31-9-4.62-9-10.31-9Z"/><path class="cls-8" d="M104.14,78.21c-3,0-4.78-.14-5.5-.91s-.65-2.42-.49-5.4c.09-1.63.2-3.66.2-6.17,0-6.82,7.1-12.38,15.83-12.38S130,58.91,130,65.73c0,10.32-6.06,12.39-15.84,12.39-2.52,0-4.67,0-6.49.06l-3.55,0Z"/><path d="M114.18,53.85c8.46,0,15.34,5.33,15.34,11.88,0,9.94-5.63,11.89-15.34,11.89-2.53,0-4.64,0-6.5.06l-3.54,0c-2.73,0-4.55-.12-5.14-.75s-.5-2.38-.35-5c.09-1.64.2-3.68.2-6.2,0-6.55,6.88-11.88,15.33-11.88m0-1c-9,0-16.33,5.77-16.33,12.88,0,11.72-2.42,13,6.29,13,2.41,0,5.66-.09,10-.09,9,0,16.34-1.55,16.34-12.89,0-7.11-7.32-12.88-16.34-12.88Z"/><path class="cls-10" d="M113.93,78.14c-6.9,0-12.51-4.86-12.51-10.83S107,56.48,113.93,56.48s12.5,4.86,12.5,10.83S120.82,78.14,113.93,78.14Z"/><path d="M113.93,57c6.61,0,12,4.63,12,10.33s-5.39,10.33-12,10.33-12-4.63-12-10.33S107.31,57,113.93,57m0-1c-7.18,0-13,5.07-13,11.33s5.83,11.33,13,11.33,13-5.07,13-11.33S121.11,56,113.93,56Z"/><path d="M113.93,75.8c-5.41,0-9.82-3.81-9.82-8.49s4.41-8.49,9.82-8.49,9.81,3.81,9.81,8.49S119.34,75.8,113.93,75.8Z"/><path d="M113.93,59.32c5.13,0,9.31,3.59,9.31,8s-4.18,8-9.31,8-9.32-3.59-9.32-8,4.18-8,9.32-8m0-1c-5.7,0-10.32,4-10.32,9s4.62,9,10.32,9,10.31-4,10.31-9-4.62-9-10.31-9Z"/><path class="cls-8" d="M108.9,136.66c1.86,10.93-6.57,25.39-11.88,25.39s-2.92-15.52-7.83-25.62c-10.55-21.72-6.06-10.48,6.32-12.34C100.74,123.3,106.88,124.78,108.9,136.66Z"/><path class="cls-11" d="M91.51,55.7a12.19,12.19,0,0,1,2.27-5.53,13.59,13.59,0,0,1,7.08-4.82"/><path class="cls-3" d="M90.25,55.7a15,15,0,0,0-4.55-6.26,16.16,16.16,0,0,0-5.56-2.89"/><path class="cls-3" d="M90.75,57.15a61.89,61.89,0,0,1,.51,7.22A61.11,61.11,0,0,1,91,70.63"/><path class="cls-3" d="M54.5,127.5c-.43,4.89-.62,15.69,6,25,2.06,2.9,4.89,6.74,10,7.93.64.15,6.21,1.35,10.66-1.93,4.9-3.61,6.62-11.3,3.54-18.53"/><path class="cls-3" d="M74.83,160.43c-7.39-4.12-15-2.91-17.68,1-2,2.92-1.38,7.48,1,10.11,5,5.5,18.77,4,25.77-2.89,6.74-6.64,7.41-18.54.76-28.64"/><path class="cls-3" d="M129.5,132.5c7,12.13,8.85,22.8,5,26-1.44,1.2-3.91,1.54-5.36,1.74-.84.12-6.67.86-10.66-1.92-4.64-3.24-6.37-10.92-3.54-18.54"/><path class="cls-3" d="M124.79,160.24c7.39-4.12,15-2.91,17.69,1,2,2.93,1.38,7.48-1,10.12-5,5.49-18.77,4-25.77-2.89-6.74-6.65-7.41-18.55-.76-28.65"/><path class="cls-2" d="M153.16,151.28a7,7,0,0,1,5.05-.48"/><circle class="cls-8" cx="117.94" cy="66.05" r="1.75"/><circle class="cls-8" cx="62.49" cy="65.54" r="1.75"/></svg>