<svg id="Layer_1" data-name="Layer 1" xmlns="http://www.w3.org/2000/svg" xmlns:xlink="http://www.w3.org/1999/xlink" width="200" height="200" viewBox="0 0 200 200"><defs><style>.cls-1,.cls-2{fill:#5f3300;}.cls-11,.cls-2,.cls-3,.cls-9{stroke:#000;stroke-miterlimit:10;}.cls-3,.cls-6{fill:#744500;}.cls-4{fill:#ffddfc;filter:url(#filter);}.cls-5{fill:#ffddf1;}.cls-7{fill:#2a1700;}.cls-8{fill:#fff;}.cls-9{fill:none;}.cls-11,.cls-9{fill-rule:evenodd;}.cls-10{fill:url(#Sky_2);}.cls-11{fill:#603813;}.cls-12{fill:url(#Sky_2-2);}.cls-13{fill:#ff7baa;}.cls-14{fill:#ff93aa;}</style><filter id="filter" x="108" y="22.52" width="45" height="46" filterUnits="userSpaceOnUse"><feOffset input="SourceAlpha"/><feGaussianBlur stdDeviation="5" result="blur"/><feFlood/><feComposite operator="in" in2="blur"/><feComposite in="SourceGraphic"/></filter><linearGradient id="Sky_2" x1="97.96" y1="68.21" x2="122.96" y2="68.21" gradientUnits="userSpaceOnUse"><stop offset="0" stop-color="#cadef2"/><stop offset="0.06" stop-color="#c1daf0"/><stop offset="0.17" stop-color="#a7d0ec"/><stop offset="0.31" stop-color="#7ec0e5"/><stop offset="0.47" stop-color="#45a9dc"/><stop offset="0.57" stop-color="#1e9ad5"/><stop offset="0.87" stop-color="#0075bc"/><stop offset="0.99" stop-color="#005b95"/></linearGradient><linearGradient id="Sky_2-2" x1="-1744.15" y1="67.87" x2="-1719.15" y2="67.87" gradientTransform="matrix(-1, 0, 0, 1, -1663.1, 0)" xlink:href="#Sky_2"/></defs><path class="cls-1" d="M117.57,163.4c5.5,10.5-3.39,6.5-12.5,6.5s-17-7.24-17-10,5,3,14,1S116.29,161,117.57,163.4Z"/><path class="cls-2" d="M87.57,160.4c-.57.59-3.52,3.75-3,8a6.08,6.08,0,0,0,1,3c2.8,4,10.63,2.46,13,2a25.88,25.88,0,0,0,8-3"/><path class="cls-2" d="M105.57,165.4a16.08,16.08,0,0,0,0,11c.37.9,2.44,5,6,5.49,3.78.52,8.38-3.2,10-9.48"/><path class="cls-3" d="M145.7,45.12c0,9.42-6.7,17.06-15,17.06s-4.58-16.38-15-17.06c-18.67-1.24,1.16-11.79,15-17.07C146.22,22.13,145.7,35.69,145.7,45.12Z"/><path class="cls-4" d="M137.19,45.82a6.76,6.76,0,1,1-13.47,0c0-4,3.1-6.56,6.74-7.28C139.08,36.83,137.19,41.8,137.19,45.82Z"/><path class="cls-3" d="M64.8,46.77C53.13,51.52,53.19,62.08,45.35,62.08s-8.11-8.25-8.94-15.31C34.85,33.58,38.16,23.38,49.63,27.6,56.89,30.27,72,43.86,64.8,46.77Z"/><path class="cls-5" d="M55.81,45a7.4,7.4,0,0,1-7.1,7.66A7.4,7.4,0,0,1,41.61,45c0-4.23,0-9.45,7.1-7.66C52.49,38.29,55.81,40.78,55.81,45Z"/><path class="cls-6" d="M162.58,125.27s2.42,2.47-1.55,8-7.27,4.38-7.27,4.38a8.1,8.1,0,0,0,10.93-2A7.28,7.28,0,0,0,162.58,125.27Z"/><path class="cls-3" d="M155.11,152.82c.7-2.47,1.1-5.72,2.31-9.38,3.11-9.45,0-19.26-9.1-14.21-4.34,2.41-7.7,6.47-9.09,14.21a12.66,12.66,0,0,0,2.47,10.61,7.1,7.1,0,0,0-3,6c0,4.52,1,8.18,11,8.18,11,0,12-3.66,12-8.18C161.71,156.92,158.87,154.2,155.11,152.82Z"/><path class="cls-6" d="M124.65,99.81a40.45,40.45,0,0,0,11-27.4c0-20.76-16.41-38.12-38.39-42.5a12.12,12.12,0,0,1,1.37-4.1A13.75,13.75,0,0,1,105.27,20a20.54,20.54,0,0,0-12,3.15,18,18,0,0,0-4.42,4.08A51.36,51.36,0,0,0,85.2,15.94a52.19,52.19,0,0,0-5.1-8.8,78.26,78.26,0,0,1-.46,11.21,80.06,80.06,0,0,1-1.88,10.5,24,24,0,0,0-9.49-3.28,24.51,24.51,0,0,0-8.74.51,10.35,10.35,0,0,1,6.72,3.1A8.59,8.59,0,0,1,67.94,32C49.47,38,37.07,54.35,37.07,72.41c0,16.83,10.79,31.43,26.59,38.69-6.55,5.38-10.42,12-10.42,19.21,0,10.78,8.77,17.75,13.69,21.64,13.13,10.4,28.42,10.59,39.75,10.74,10.86.15,21.54.29,32.82-6.19,3.64-2.09,20.53-11.8,20.62-26.19C160.21,117,145.92,102.86,124.65,99.81Z"/><path class="cls-7" d="M119.74,74.63c-8.76,6.81-23.64,2.54-28.66,9-1.33,1.71-1.32,3.52-1.71,6.42-.46,3.39-1.63,12.16,4.13,18.43,6.25,6.79,16,5.64,18.24,5.38a24.78,24.78,0,0,0,10.81-4c5.67-3.75,9.55-9.9,13-18.78C145.57,65.6,128.19,68.06,119.74,74.63Z"/><path class="cls-7" d="M56.34,74C43.91,71.1,40.78,69.24,38.42,71.5c-2.83,2.71-3.41,8.55,1,19.23C41,94.61,44,103.28,52.76,109.4c2.72,1.89,6.33,4.47,11.74,5.1a22.36,22.36,0,0,0,19-7c.55-.61,7.54-8.56,5.3-17.81a16.16,16.16,0,0,0-2.3-5.19C82,77.86,74.46,78.31,56.34,74Z"/><ellipse cx="90.13" cy="84.17" rx="10.38" ry="6.68"/><path d="M90.13,78c5.36,0,9.88,2.83,9.88,6.18s-4.52,6.19-9.88,6.19-9.88-2.83-9.88-6.19S84.78,78,90.13,78m0-1c-6,0-10.88,3.22-10.88,7.18s4.87,7.19,10.88,7.19S101,88.14,101,84.17,96.14,77,90.13,77Z"/><path d="M68.93,112.19h-.28a5.94,5.94,0,0,1,1.52-2.25c6.67-7.53,15.87-8.15,19.33-8.38,0,0,.29,0,.8,0A44.59,44.59,0,0,1,110,106.77a6,6,0,0,1,1.35.84c-.57.28-2.61.66-6.47.66a66,66,0,0,1-14.61-1.64l-.27-.07a18.14,18.14,0,0,0-4.13-.63,5.42,5.42,0,0,0-3.72,1.2,7.42,7.42,0,0,0-1,1.07,6.42,6.42,0,0,1-2,1.87,8,8,0,0,1-2.84.94A52.12,52.12,0,0,1,68.93,112.19Z"/><path d="M90.3,102h0a44.16,44.16,0,0,1,19.49,5.18,3.44,3.44,0,0,1,.39.21,32,32,0,0,1-5.28.35,65.49,65.49,0,0,1-14.49-1.63l-.27-.06a18.3,18.3,0,0,0-4.25-.65,5.9,5.9,0,0,0-4,1.32,7.72,7.72,0,0,0-1,1.15A5.92,5.92,0,0,1,79,109.64a7.74,7.74,0,0,1-2.69.88,66.93,66.93,0,0,1-6.85,1.15,11,11,0,0,1,1.1-1.41c6.53-7.38,15.58-8,19-8.21,0,0,.29,0,.77,0m0-1c-.54,0-.83,0-.83,0-4,.27-13,1-19.67,8.55-1.91,2.15-1.69,2.74-1.6,2.89s.13.2.73.2a48.94,48.94,0,0,0,7.57-1.19,8.71,8.71,0,0,0,3-1c1.69-1,2.07-2.18,3-3a5,5,0,0,1,3.39-1.07,19.09,19.09,0,0,1,4.29.68,66.6,66.6,0,0,0,14.72,1.66c4.08,0,7-.44,7-1.07,0-.44-1-1-1.7-1.38a44.86,44.86,0,0,0-20-5.29Z"/><path class="cls-8" d="M106.9,135.66c1.86,10.93-6.57,25.39-11.88,25.39s-2.92-15.52-7.83-25.62c-10.55-21.72-6.06-10.48,6.32-12.34C98.74,122.3,104.88,123.78,106.9,135.66Z"/><path class="cls-9" d="M97.5,44.5a18.32,18.32,0,0,0,6,5,19.64,19.64,0,0,0,10,2,22.78,22.78,0,0,0,6-1"/><path class="cls-3" d="M53.5,126.5a34.63,34.63,0,0,0,3,22c1.54,3,6.75,13,16,14a12.45,12.45,0,0,0,8.65-2c4.64-3.42,6.22-10.87,3.54-18.53"/><path class="cls-3" d="M74.83,162.43c-7.39-4.12-15-2.91-17.68,1-2,2.92-1.38,7.48,1,10.11,5,5.5,18.77,4,25.77-2.89,6.74-6.64,7.41-18.54.76-28.64"/><path class="cls-3" d="M127.5,132.5c8,13.27,10.81,24.73,7,28-1.38,1.19-3.92,1.54-5.36,1.74-.83.12-6.66.86-10.66-1.92-4.64-3.24-6.37-10.92-3.54-18.54"/><path class="cls-3" d="M124.79,162.24c7.39-4.12,15-2.91,17.69,1,2,2.93,1.38,7.48-1,10.12-5,5.49-18.77,4-25.77-2.89-6.74-6.65-7.41-18.55-.76-28.65"/><path class="cls-2" d="M150.16,153.28a7,7,0,0,1,5.05-.48"/><path class="cls-8" d="M100.67,79.2c-3,0-4.78-.15-5.5-.91s-.65-2.42-.49-5.4c.09-1.63.2-3.67.2-6.17,0-6.83,7.1-12.38,15.83-12.38s15.84,5.55,15.84,12.38c0,10.31-6.06,12.38-15.84,12.38-2.52,0-4.67,0-6.49.06-1.35,0-2.52,0-3.55,0Z"/><path d="M110.71,54.84c8.46,0,15.34,5.33,15.34,11.88,0,9.94-5.62,11.88-15.34,11.88-2.52,0-4.64,0-6.5.06-1.35,0-2.52,0-3.54,0-2.73,0-4.54-.13-5.14-.75s-.49-2.38-.35-5c.09-1.64.2-3.68.2-6.2,0-6.55,6.88-11.88,15.33-11.88m0-1c-9,0-16.33,5.77-16.33,12.88,0,11.71-2.42,13,6.29,13,2.41,0,5.66-.1,10-.1,9,0,16.34-1.54,16.34-12.88,0-7.11-7.32-12.88-16.34-12.88Z"/><path class="cls-10" d="M110.92,79c-7,0-13-4.88-13-10.65,0-6,5.6-10.83,12.5-10.83S123,62.32,123,68.3,117.79,79,110.92,79Z"/><path d="M110.46,58c6.62,0,12,4.63,12,10.33s-5,10.15-11.54,10.15c-6.76,0-12.46-4.65-12.46-10.15,0-5.7,5.38-10.33,12-10.33m0-1c-7.18,0-13,5.07-13,11.33s6.28,11.15,13.46,11.15,12.54-4.9,12.54-11.15S117.64,57,110.46,57Z"/><ellipse cx="110.46" cy="68.3" rx="9.81" ry="8.49"/><path d="M110.46,60.31c5.13,0,9.31,3.58,9.31,8s-4.18,8-9.31,8-9.31-3.58-9.31-8,4.17-8,9.31-8m0-1c-5.7,0-10.31,4-10.31,9s4.61,9,10.31,9,10.31-4,10.31-9-4.62-9-10.31-9Z"/><circle class="cls-8" cx="106.92" cy="73.11" r="1.75"/><path class="cls-11" d="M126.5,69.5c-2,1.59-6.09-4.1-14-6-9-2.18-15.6,2.42-17,0-1.07-1.85,2-5.94,5-8,3.57-2.41,7.36-2.17,10-2a21.07,21.07,0,0,1,11,4c1.78,1.32,4,3,5,6C126.66,64,128.1,68.25,126.5,69.5Z"/><path class="cls-9" d="M84.76,44.81a18.45,18.45,0,0,1-6,5,19.64,19.64,0,0,1-10,2,23.2,23.2,0,0,1-6-1"/><path class="cls-8" d="M78.34,78.86l-3.55,0c-1.82,0-4-.06-6.49-.06-9.78,0-15.84-2.08-15.84-12.39C52.46,59.56,59.57,54,68.3,54s15.83,5.56,15.83,12.38c0,2.51.11,4.54.2,6.17.16,3,.25,4.62-.49,5.4S81.35,78.86,78.34,78.86Z"/><path d="M68.3,54.5c8.45,0,15.33,5.33,15.33,11.88,0,2.52.11,4.56.2,6.2.14,2.65.24,4.41-.35,5s-2.41.75-5.14.75l-3.54,0c-1.86,0-4-.06-6.5-.06-9.71,0-15.34-2-15.34-11.89C53,59.83,59.84,54.5,68.3,54.5m0-1c-9,0-16.34,5.77-16.34,12.88,0,11.34,7.32,12.89,16.34,12.89,4.38,0,7.63.09,10,.09,8.71,0,6.29-1.26,6.29-13,0-7.11-7.31-12.88-16.33-12.88Z"/><path class="cls-12" d="M68.09,78.61c-6.86,0-12-4.58-12-10.65s5.61-10.83,12.5-10.83S81.06,62,81.06,68,75.24,78.61,68.09,78.61Z"/><path d="M68.55,57.63c6.62,0,12,4.63,12,10.33,0,5.5-5.71,10.15-12.47,10.15-6.58,0-11.54-4.36-11.54-10.15s5.38-10.33,12-10.33m0-1c-7.18,0-13,5.07-13,11.33s5.36,11.15,12.54,11.15S81.56,74.22,81.56,68s-5.83-11.33-13-11.33Z"/><ellipse cx="68.55" cy="67.96" rx="9.81" ry="8.49"/><path d="M68.55,60c5.14,0,9.31,3.59,9.31,8s-4.17,8-9.31,8-9.31-3.59-9.31-8,4.18-8,9.31-8m0-1c-5.69,0-10.31,4-10.31,9s4.62,9,10.31,9,10.31-4,10.31-9-4.61-9-10.31-9Z"/><circle class="cls-8" cx="69.09" cy="71.77" r="1.75"/><path class="cls-11" d="M52.4,69.92c2.05,1.59,6.09-4.1,14-6,9-2.18,15.59,2.42,17,0,1.07-1.85-2-5.94-5-8-3.57-2.41-7.36-2.17-10-2a21,21,0,0,0-11,4c-1.78,1.32-3.95,3-5,6C52.24,64.38,50.79,68.67,52.4,69.92Z"/><path class="cls-3" d="M90.29,39.32a67,67,0,0,1,.48,7.22c0,2.26-.08,4.35-.24,6.26"/><path class="cls-8" d="M97.16,103.9,93.49,107l6.51,1,3-12.41Z"/><path class="cls-8" d="M79.84,103.61,84,106.44l-3.55,3.47c-.25.25-.58.34-.73,0L74.41,96.46Z"/><path class="cls-13" d="M98,104a8.37,8.37,0,0,0,1.11,2.64,10.5,10.5,0,0,0,1.77,2.21,12.18,12.18,0,0,1,4.3,6.52c1.3,4.89-1.1,11.16-5.55,13.47-7.67,4-18.9-5.21-18.86-11.18,0-2.91,3-5.13,2-8.84-.61-2.27-2-2.63-1.77-3.82C81.77,101.28,96.44,100.5,98,104Z"/><path class="cls-14" d="M96,112c2.16,3.27,2.87,3.58,4,6a7.81,7.81,0,0,1,1,4,5.47,5.47,0,0,1-1,3,5.72,5.72,0,0,1-3,2,8.15,8.15,0,0,1-5,0c-3.39-1.1-6.17-4.57-6-7.73.1-2.25,1.58-2.31,2-5.27.48-3.24-1-4.82,0-6s3.44-.88,5,0C94.13,108.64,94.19,109.27,96,112Z"/></svg>