<?xml version="1.0" encoding="UTF-8"?><svg id="a" xmlns="http://www.w3.org/2000/svg" width="200" height="200" viewBox="0 0 200 200"><defs><style>.b{fill:#fff;}.c{fill:#3c91bb;stroke:#000;stroke-miterlimit:10;}</style></defs><circle class="c" cx="96.5" cy="101.5" r="75"/><g><path class="b" d="M68.43,73.31l3.35-.44v4.23c-2.02-.08-3.45-.22-5-.22s-2.8,.14-4.32,.22v-4.23l2.64,.33-.28-11.41-2.36,.97-.37-4.48c1.89-.39,5.7-.86,9.33-.86,5.11,0,7.68,2.02,7.68,6.16,0,3.84-2.53,6.88-7.42,6.88-1.21,0-2.44-.33-3.21-.66l-.04,3.51Zm.07-6.96c.64,.3,1.38,.64,3.02,.64,2.11,0,3.34-1.27,3.34-2.98s-1.26-2.79-3.63-2.79c-1.45,0-1.96,.06-2.68,.19l-.05,4.95Z"/><path class="b" d="M79.89,70.22c0-4.34,2.53-7.27,6.08-7.27s6.07,2.9,6.07,7.27-2.49,7.32-6.07,7.32-6.08-2.96-6.08-7.32Zm8.5,0c0-2.27-1.1-3.62-2.4-3.62s-2.44,1.35-2.44,3.62,1.08,3.68,2.44,3.68,2.4-1.38,2.4-3.68Z"/><path class="b" d="M99.68,73.07l2.07-.25v4.23c-1.25-.08-2.49-.17-3.74-.17s-2.58,.08-4.21,.17v-4.23l2.84,.25-.18-5.69-2.42,1.11-.66-4.48,6.62-1.08-.31,10.14Zm.68-15.56v3.4l-4.38,.47v-4.39l4.38,.53Z"/><path class="b" d="M108.34,73.07l2.07-.25v4.23c-1.25-.08-2.49-.17-3.74-.17s-2.58,.08-3.72,.17v-4.23l2.27,.25-.18-5.69-1.85,1.11-.66-4.48,5.99-1.08-.26,2.9c1.03-1.16,2.51-2.68,4.65-2.68,2.49,0,3.1,2.57,3.12,6.16,0,.83-.07,2.68-.15,3.73l1.91-.44-.29,4.31-5.28,.28c.26-1.96,.44-4.34,.44-6.47s-.64-2.6-1.48-2.6c-1.17,0-1.94,.91-2.84,1.77v3.18Z"/><path class="b" d="M123.4,67.46c-.04,.36-.13,1.44-.13,2.49,0,2.29,.44,3.48,2.33,3.48,1.28,0,2.82-1.13,3.54-1.93l1.26,3.9c-.79,.72-2.86,1.93-5.26,1.93-3.57,0-5.22-1.58-5.22-7.02,0-.97,.09-1.91,.15-2.85l-2.36,.25v-4.23l2.6,.19,.37-3.65,3.79-1.08c-.2,.86-.57,3.15-.75,4.73l5.44-.19v4.23l-5.75-.25Z"/></g></svg>