<svg id="Layer_1" data-name="Layer 1" xmlns="http://www.w3.org/2000/svg" xmlns:xlink="http://www.w3.org/1999/xlink" width="200" height="200" viewBox="0 0 200 200"><defs><style>.cls-1{filter:url(#AI_Shadow_1);}.cls-2{fill:#3c91bb;}.cls-2,.cls-3{stroke:#000;stroke-miterlimit:10;}.cls-3{fill:#fff;}</style><filter id="AI_Shadow_1" name="AI_Shadow_1"><feGaussianBlur result="blur" stdDeviation="2" in="SourceAlpha"/><feOffset result="offsetBlurredAlpha" dx="4" dy="4" in="blur"/><feMerge><feMergeNode in="offsetBlurredAlpha"/><feMergeNode in="SourceGraphic"/></feMerge></filter></defs><g class="cls-1"><circle class="cls-2" cx="93.6" cy="101.56" r="75"/><path class="cls-3" d="M133.73,108.48V97.19H124A29,29,0,0,0,117.68,83l6.64-7-7.59-8-7.47,7.87a30.91,30.91,0,0,0-10-3.61V61.43H88.55V72.21a31.17,31.17,0,0,0-11.84,4.54L69.32,69l-7.59,8,7,7.33a29,29,0,0,0-5.33,12.9H53.22v11.29H63.94a29.06,29.06,0,0,0,4.76,10.08l-7,7.33,7.59,8,7.39-7.77a31.17,31.17,0,0,0,11.84,4.54v10.78H99.29V130.56a31,31,0,0,0,11.1-4.29l7.23,7.6,7.59-8-6.72-7.07a28.88,28.88,0,0,0,5-10.34Z"/><ellipse class="cls-2" cx="93.6" cy="101.29" rx="4.2" ry="4.43"/></g></svg>