<?xml version="1.0" encoding="UTF-8"?><svg id="a" xmlns="http://www.w3.org/2000/svg" width="1600" height="900" xmlns:xlink="http://www.w3.org/1999/xlink" viewBox="0 0 1600 900"><defs><style>.p{fill:url(#o);}.q{fill:url(#n);}.r{fill-rule:evenodd;}.r,.s,.t,.u,.v,.w,.x,.y,.a`,.aa,.ab,.ac{stroke-miterlimit:10;}.r,.t,.v,.w,.x,.y,.aa,.ab,.ac{stroke:#000;}.r,.ac{fill:none;}.ad,.v{fill:#ed7b33;}.ae{fill:#fff;}.af{fill:#ffddf1;}.ag{fill:#e84033;}.ah,.t{fill:#744500;}.ai{fill:#6a9b52;}.aj{fill:#8cc63f;}.ak,.x{fill:#42210b;}.al{fill:#5b483d;}.am{fill:#2a1700;}.an,.aa{fill:#569218;}.ao,.ab{fill:#5f3300;}.ap{fill:#7ac4fb;}.aq{fill:#ffddfc;filter:url(#l);}.ar{filter:url(#d);}.as{filter:url(#e);}.at{filter:url(#f);}.au{filter:url(#g);}.av{filter:url(#h);}.aw{filter:url(#i);}.ax{filter:url(#j);}.ay{filter:url(#k);}.b`{filter:url(#b);}.ba{filter:url(#c);}.s{fill:#f0d6a5;}.s,.u{stroke:#bf9b71;}.u{fill:#f3d4a9;}.w{fill:#b47143;}.y{fill:#3c91bb;}.a`{fill:#603813;stroke:#42210b;}</style><filter id="b"><feGaussianBlur in="SourceAlpha" result="blur" stdDeviation="2"/><feOffset dx="4" dy="4" in="blur" result="offsetBlurredAlpha"/><feMerge><feMergeNode in="offsetBlurredAlpha"/><feMergeNode in="SourceGraphic"/></feMerge></filter><filter id="c"><feGaussianBlur in="SourceAlpha" result="blur" stdDeviation="2"/><feOffset dx="4" dy="4" in="blur" result="offsetBlurredAlpha"/><feMerge><feMergeNode in="offsetBlurredAlpha"/><feMergeNode in="SourceGraphic"/></feMerge></filter><filter id="d"><feGaussianBlur in="SourceAlpha" result="blur" stdDeviation="2"/><feOffset dx="4" dy="4" in="blur" result="offsetBlurredAlpha"/><feMerge><feMergeNode in="offsetBlurredAlpha"/><feMergeNode in="SourceGraphic"/></feMerge></filter><filter id="e"><feGaussianBlur in="SourceAlpha" result="blur" stdDeviation="2"/><feOffset dx="4" dy="4" in="blur" result="offsetBlurredAlpha"/><feMerge><feMergeNode in="offsetBlurredAlpha"/><feMergeNode in="SourceGraphic"/></feMerge></filter><filter id="f"><feGaussianBlur in="SourceAlpha" result="blur" stdDeviation="2"/><feOffset dx="4" dy="4" in="blur" result="offsetBlurredAlpha"/><feMerge><feMergeNode in="offsetBlurredAlpha"/><feMergeNode in="SourceGraphic"/></feMerge></filter><filter id="g"><feGaussianBlur in="SourceAlpha" result="blur" stdDeviation="2"/><feOffset dx="4" dy="4" in="blur" result="offsetBlurredAlpha"/><feMerge><feMergeNode in="offsetBlurredAlpha"/><feMergeNode in="SourceGraphic"/></feMerge></filter><filter id="h"><feGaussianBlur in="SourceAlpha" result="blur" stdDeviation="2"/><feOffset dx="4" dy="4" in="blur" result="offsetBlurredAlpha"/><feMerge><feMergeNode in="offsetBlurredAlpha"/><feMergeNode in="SourceGraphic"/></feMerge></filter><filter id="i"><feGaussianBlur in="SourceAlpha" result="blur" stdDeviation="2"/><feOffset dx="4" dy="4" in="blur" result="offsetBlurredAlpha"/><feMerge><feMergeNode in="offsetBlurredAlpha"/><feMergeNode in="SourceGraphic"/></feMerge></filter><filter id="j"><feGaussianBlur in="SourceAlpha" result="blur" stdDeviation="2"/><feOffset dx="4" dy="4" in="blur" result="offsetBlurredAlpha"/><feMerge><feMergeNode in="offsetBlurredAlpha"/><feMergeNode in="SourceGraphic"/></feMerge></filter><filter id="k"><feGaussianBlur in="SourceAlpha" result="blur" stdDeviation="2"/><feOffset dx="4" dy="4" in="blur" result="offsetBlurredAlpha"/><feMerge><feMergeNode in="offsetBlurredAlpha"/><feMergeNode in="SourceGraphic"/></feMerge></filter><filter id="l" filterUnits="userSpaceOnUse"><feOffset dx="0" dy="0"/><feGaussianBlur result="m" stdDeviation="5"/><feFlood flood-color="#000" flood-opacity=".75"/><feComposite in2="m" operator="in"/><feComposite in="SourceGraphic"/></filter><linearGradient id="n" x1="-523.25" y1="545.05" x2="-464.23" y2="545.05" gradientTransform="translate(621.71) rotate(-180) scale(1 -1)" gradientUnits="userSpaceOnUse"><stop offset="0" stop-color="#cadef2"/><stop offset=".06" stop-color="#c0daf0"/><stop offset=".17" stop-color="#a7d0ec"/><stop offset=".31" stop-color="#7dbfe5"/><stop offset=".47" stop-color="#44a9db"/><stop offset=".57" stop-color="#1e9ad5"/><stop offset=".87" stop-color="#0075bc"/><stop offset=".99" stop-color="#005b95"/></linearGradient><linearGradient id="o" x1="1196.09" y1="545.19" x2="1255.11" y2="545.19" gradientTransform="matrix(1, 0, 0, 1, 0, 0)" xlink:href="#n"/></defs><rect class="ap" x="-22.48" y="-76.48" width="1629" height="1038"/><path class="aj" d="M1419.75,519.52c-27.94-4.41-52.78-7.18-77.53-8.56-202.18-11.3-419.2,23.55-475.63,34.06-200.1,37.27-244.96,69.26-340.79,46.5-34.41-8.17-60.09-19.77-143.3-39.77-91.76-22.06-137.71-35.2-178.07-33.23-91.31,4.46-139.39,41.4-234.01,32.71-43.5-4-77.84-15.89-99.89-25.21,33.44,126.5,66.89,253,100.33,379.5H1576.35c100.89-6.84,182.22-67.72,196.09-144.5,12.56-69.54-32.47-139.63-112.76-174-50.83-21.08-133.39-50.7-239.93-67.5Z"/><g><path class="u" d="M863.52,854.52c3,44-32.91,40.44-64,36-28-4-67.43,17.51-64-34,1-15,36.82-26.98,68-33,57-11,59.04,16.95,60,31Z"/><path class="u" d="M1012.52,906.52c0,15.46-31.68,34-53.5,34s-49.5-16.54-49.5-32,28.18-31,50-31,53,13.54,53,29Z"/><path class="u" d="M826.52,786.52c6,26-23.67,24-43,24s-60,7-44-19c3.76-6.11,25.01-14.41,44-18,37-7,41.39,6,43,13Z"/><path class="u" d="M753.52,738.52c-.59,9.37-27,27-54.5,27-19.05,0-57.38,5.63-48.5-21,7-21,29.95-21,49-21s55-1,54,15Z"/><path class="u" d="M598.52,748.52c-5.04,3.39-16.05,11-34,11s-51,9-43-13c2.08-5.71,26.08-20.91,44-22,20.56-1.26,64.84,2.61,33,24Z"/><path class="s" d="M495.52,743.52c0,8.56-24.5,21-43,21s-50,.56-50-8,31.24-17.04,49.5-20c18.5-3,43.5-1.56,43.5,7Z"/><path class="s" d="M480.52,703.52c0,8.28-32.97,23-46.5,23s-49.5,2.28-49.5-6,36.47-23,50-23,46-2.28,46,6Z"/><path class="s" d="M495.52,672.52c0,9.66-18.4,12-30,12s-49,.66-49-9,38.4-15,50-15,29,2.34,29,12Z"/><path class="s" d="M531.52,642.52c-.58,4.66-18.82,7-26,7s-32,1.69-32-3,24.82-12,32-12,27,0,26,8Z"/><path class="s" d="M566.52,619.52c-1.32,2.42-16.48,7-22,7s-31,1-28-7c.97-2.59,22.48-5,28-5s28-6,22,5Z"/><path class="s" d="M601.52,599.52c0,3.04-12.48,1.4-18,6-6,5-44,1.04-44-2s30.82-9,38-9,24,1.96,24,5Z"/></g><path class="ae" d="M983.28,154.29c-5.48,1.55-7.49-3.1-18.74-5.55-7.99-1.74-12.35-.58-15.17,.92-1.42,.75-3.86,2.1-4.46,4.62-.74,3.11,1.73,6.21,2.68,7.4,2.93,3.68,6.39,4.43,6.14,5.57-.21,.94-2.57,.4-6.14,1.83-1.25,.5-4.31,1.72-6.25,4.62-2.05,3.07-1.84,6.51-1.78,7.4,.58,9.52,13.37,15.81,16.96,17.57,5.35,2.63,14,6.88,22.31,3.7,4.02-1.54,4.33-3.42,12.49-7.4,4.29-2.09,7.02-3.39,10.71-3.7,4.42-.38,7.56,.88,12.49,2.77,12.69,4.87,19.04,7.31,20.53,7.4,10.12,.62,13.08-11.38,23.2-10.17,1.13,.13,3.13,.71,7.14,1.85,9.22,2.63,9.58,3.67,12.49,3.7,6.81,.07,7.56-5.57,13.39-5.55,7.21,.03,8.66,8.69,16.06,9.25,5.76,.44,12.04-4.26,14.28-10.17,3.29-8.71-2.91-18.18-8.92-22.19-6.49-4.33-9.97-.45-17.85-3.7-12.63-5.21-9.83-17.71-21.42-23.12-10.47-4.89-24.88-.34-33.02,4.62-5.52,3.37-6.2,5.74-10.71,6.47-7.8,1.27-10.41-5.06-22.31-6.47-3.53-.42-9.31-1.1-15.17,1.85-5.23,2.63-4.92,5.34-8.92,6.47Z"/><path class="ae" d="M993.52,96.52c0-16.73,23.78-31.59,44-33,21.29-1.48,25.2,12.88,46,12,23.34-.99,29.69-23.24,58-24,5.85-.16,12.23-.24,17,4,9.89,8.79,.97,25.54,10,33,7.51,6.21,16.91-2.72,29,4,7.17,3.99,13.33,12.39,13,21-.5,13.2-16.14,24.63-29,24-15.94-.79-20.67-19.76-33-18-11.06,1.58-10.5,17.31-26,23-12.44,4.57-25.44-.92-28-2-12.63-5.33-12.48-12.66-23-16-11.45-3.64-17.06,3.31-30,4-21.22,1.14-48-15.3-48-32Z"/><path class="ai" d="M1138.52,567.52c1.64-2.57,2.51-3.16,3-3,.69,.23,.67,2,1,2,.43,0,.63-3,1-3s.58,3,1,3c.33,0,.38-1.89,1-2,.67-.12,1.22,2.04,2,2,1.05-.06,1.52-4.05,2-4,.47,.05,.42,3.95,1,4,.3,.03,.48-.97,1-1,.38-.02,.73,.48,1,1"/><path class="ai" d="M1050.49,799.52c-14.12-11.14-18.42-15.16-17.93-15.63,1.08-1.05,24.75,16.92,32.61,12.23,2.37-1.41,3.09-4.77,3.44-6.39,1.27-5.89-2.09-10.06-1-10.6,1.5-.73,7.33,11.44,14.67,11.55,9.11,.14,15.22-18.33,17.93-17.67,1.56,.38,1.3,6.88-3.26,26.51"/><path class="ai" d="M1337.65,781.76c.93-19.29,1.65-24.4,2.18-24.38,1.07,.03-1.2,20.67,8.29,22.47,8.65,1.64,21.06-13.5,26.46-12.04,3.41,.92,2.1,7.94-1.96,18.27"/><path class="ai" d="M318.02,579.02c-1.29-4.78-1.27-5.9-1-6,.58-.22,2.24,4.21,4,4,1.6-.19,2.09-4.1,3-4,.99,.1,.87,4.82,2,5,1.22,.2,2.46-5.1,4-5,.9,.06,1.54,1.93,2,4"/><path class="ai" d="M713.52,646.52c-.51-6.97,.19-8.77,1-9,1.8-.51,4.7,6.59,7,6,1.91-.49,1.63-5.84,3-6,.94-.11,2.05,2.29,3,5"/><path class="ai" d="M1282.02,570.63c1.29-4.78,1.27-5.9,1-6-.58-.22-2.24,4.21-4,4-1.55-.19-1.91-4.05-3-4-1.07,.05-1.27,3.76-2.5,3.89-1.15,.12-1.55-3.1-3.5-3.89-1.29-.52-3.48-.08-7.5,3.89"/><path class="ai" d="M467.52,812.52c-6.16-7.74-7.28-9.75-7-10,.65-.58,8.35,8.77,12,7,3.03-1.47,1.68-9.85,3-10,1.28-.15,2.29,7.76,5,8,2.3,.21,4.28-5.28,5-5,.41,.16,.28,2.15-2,10"/><g class="b`"><path class="ad" d="M322.04,292.34c13.27,27.69,43.73,67.57,55.1,62.13,11.37-5.44,.18-56.24-13.09-83.94s-18.55-17.99-30.68-12.84c-11.61,4.92-24.6,6.95-11.33,34.64Z"/><path class="ac" d="M328.91,283.95c2.37-2.27,6.68-5.79,13-8,4.34-1.52,8.22-1.93,11-2"/><path class="v" d="M358.38,289.39c-2.78,.55-6.73,1.67-10.97,4.07-3.53,1.99-6.15,4.24-7.96,6.05"/><path class="v" d="M347.41,311.45c1.35-1.33,3.99-3.6,8-5,4.34-1.52,8.1-1.26,10-1"/><path class="v" d="M369.91,321.95c-1.72-.13-4.63-.12-8,1-1.63,.54-4.32,1.67-7,4"/><path class="aa" d="M337.91,262.95c-.33-.6-9.2,3.42-9.01,3.98,.04,.12,.51,.07,1,0,4.25-.54,8.25-3.55,8.01-3.98Z"/><path class="an" d="M285.52,195.67c5.18-2.78,10.49,3.29,14.7,11.11,2.68,4.99,8.78,10.59,13.16,15.49l.25-.11c-2.73-2.39-4.93-6.28-4.14-11.02,.67-4.01,3.22-7.63,5.18-7.63s3.55,3.29,3.55,7.36c0,3.43,2.96,9.62,3.03,12.28,0,.15,.03,.3,.09,.44l.72,1.73c.33,.79,1.4,.96,1.93,.3,1.83-2.27,5.41-4.39,7.05-4.39,2.26,0,0,4.01,0,6.91,0,1.98-1.38,7.31-2.97,10.49-.15,.3-.17,.65-.04,.97h0c.39,.93,1.7,.94,2.1,.02,2.75-6.36,8.32-15.42,12.97-18.42,6.96-4.49,14.76-4.98,16.57-2.96,7.31,8.13-6.88,4.17-11.25,11.21-8.08,13.02-12.61,18.32-15.26,19.96-.48,.29-.66,.89-.44,1.4l5.04,12.04c.24,.58-.03,1.25-.61,1.49l-6.66,2.78c-.58,.24-1.25-.03-1.49-.61l-3.64-8.7c-.37-.88-1.59-.94-2.06-.1-1,1.8-2.3,3.66-3.85,5.48-5.48,6.41-11.23,7.32-14.69,7.54-6.18,.38,.38-5.08,6.37-15.42,3.85-6.65,4.34-11.27,6.74-11.61,.75-.1,1.23-.84,.94-1.53l-1.56-3.72c-.32-.76-1.31-.94-1.88-.34-2.8,2.92-7.24,5.76-11.33,5.76-6.63,0-9.82-7.47-9.82-10.63s5.37-1.91,12-1.91c3.05,0,5.83-.26,7.95-.24l-.17-.42c-7.7-1.27-23.6-8.08-28.5-16.24-4.57-7.61-5.14-15.96,.04-18.74Z"/></g><g class="ba"><path class="ad" d="M501.82,571.34c-13.27,27.69-43.73,67.57-55.1,62.13-11.37-5.44-.18-56.24,13.09-83.94,13.27-27.69,18.55-17.99,30.68-12.84,11.61,4.92,24.6,6.95,11.33,34.64Z"/><path class="ac" d="M494.94,562.95c-2.37-2.27-6.68-5.79-13-8-4.34-1.52-8.22-1.93-11-2"/><path class="v" d="M465.47,568.39c2.78,.55,6.73,1.67,10.97,4.07,3.53,1.99,6.15,4.24,7.96,6.05"/><path class="v" d="M476.44,590.45c-1.35-1.33-3.99-3.6-8-5-4.34-1.52-8.1-1.26-10-1"/><path class="v" d="M453.94,600.95c1.72-.13,4.63-.12,8,1,1.63,.54,4.32,1.67,7,4"/><path class="aa" d="M485.94,541.95c.33-.6,9.2,3.42,9.01,3.98-.04,.12-.51,.07-1,0-4.25-.54-8.25-3.55-8.01-3.98Z"/><path class="an" d="M538.34,474.67c-5.18-2.78-10.49,3.29-14.7,11.11-2.68,4.99-8.78,10.59-13.16,15.49l-.25-.11c2.73-2.39,4.93-6.28,4.14-11.02-.67-4.01-3.22-7.63-5.18-7.63s-3.55,3.29-3.55,7.36c0,3.43-2.96,9.62-3.03,12.28,0,.15-.03,.3-.09,.44l-.72,1.73c-.33,.79-1.4,.96-1.93,.3-1.83-2.27-5.41-4.39-7.05-4.39-2.26,0,0,4.01,0,6.91,0,1.98,1.38,7.31,2.97,10.49,.15,.3,.17,.65,.04,.97h0c-.39,.93-1.7,.94-2.1,.02-2.75-6.36-8.32-15.42-12.97-18.42-6.96-4.49-14.76-4.98-16.57-2.96-7.31,8.13,6.88,4.17,11.25,11.21,8.08,13.02,12.61,18.32,15.26,19.96,.48,.29,.66,.89,.44,1.4l-5.04,12.04c-.24,.58,.03,1.25,.61,1.49l6.66,2.78c.58,.24,1.25-.03,1.49-.61l3.64-8.7c.37-.88,1.59-.94,2.06-.1,1,1.8,2.3,3.66,3.85,5.48,5.48,6.41,11.23,7.32,14.69,7.54,6.18,.38-.38-5.08-6.37-15.42-3.85-6.65-4.34-11.27-6.74-11.61-.75-.1-1.23-.84-.94-1.53l1.56-3.72c.32-.76,1.31-.94,1.88-.34,2.8,2.92,7.24,5.76,11.33,5.76,6.63,0,9.82-7.47,9.82-10.63s-5.37-1.91-12-1.91c-3.05,0-5.83-.26-7.95-.24l.17-.42c7.7-1.27,23.6-8.08,28.5-16.24,4.57-7.61,5.14-15.96-.04-18.74Z"/></g><g class="ar"><path class="w" d="M477.64,211.24c-4.54,0-8.57,2.48-11.05,6.28-6.23-8.56-12.46-17.13-18.68-25.69,1.35-.49,3.79-1.6,5.7-3.99,3.12-3.89,2.47-8.43,2.47-10.12,0-6.86-6.29-16.16-14.64-16.32-8.69-.17-15.51,9.71-14.4,11.51,.34,.56,1.39,.23,3.58,1.15,1.67,.7,2.86,1.64,3.58,2.29-1.11-1.33-2.22-1.97-2.98-2.29-1.93-.83-4.19-.79-5.7-1.04,0,0-.58-.09-1.14-.13-.24-.02-.49-.02-.74-.02-7.21,0-16.22,3.43-16.22,11.47s9.01,17.64,16.22,17.64c3.47,0,6.62-1.51,8.96-3.97l21.62,29.82c-4.97,2.07-8.03,3.61-8.03,8.99,0,7.31,5.98,16.32,13.84,16.32,7.4,0,13.48-5.24,14.17-11.95,1.1,.32,2.25,.49,3.43,.49,7.54,0,13.25-3.5,13.25-11.91s-5.71-18.52-13.25-18.52Z"/><path class="w" d="M447.91,191.83c-.96,.29-2.4,.61-4.17,.57-1.48-.03-2.7-.31-3.58-.57"/><path class="w" d="M464.3,228.24c-1.35-.57-3.42-1.21-5.96-1.15-6.52,.17-10.61,4.88-11.33,5.73"/></g><g class="as"><path class="w" d="M259.43,607.95c0,13.01,8.18,18.43,18.97,18.43,1.7,0,3.34-.26,4.91-.75,.99,10.38,9.69,18.5,20.29,18.5,11.26,0,19.82-13.95,19.82-25.26,0-8.33-4.39-10.72-11.5-13.92l30.95-46.16c3.35,3.81,7.86,6.15,12.82,6.15,10.32,0,23.21-14.87,23.21-27.31s-12.89-17.75-23.21-17.75c-.35,0-.71,.01-1.05,.04-.81,.06-1.63,.2-1.63,.2-2.16,.38-5.39,.32-8.15,1.6-1.09,.51-2.68,1.49-4.27,3.55,1.03-1.01,2.72-2.47,5.12-3.55,3.13-1.41,4.63-.91,5.12-1.77,1.59-2.78-8.17-18.07-20.61-17.81-11.94,.25-20.95,14.64-20.95,25.26,0,2.62-.94,9.64,3.53,15.66,2.74,3.7,6.24,5.41,8.17,6.18-8.91,13.26-17.83,26.51-26.74,39.77-3.55-5.89-9.31-9.73-15.81-9.73-10.79,0-18.97,15.66-18.97,28.67Z"/><path class="w" d="M320.94,549.24c1.37,.45,3.44,.95,5.97,.89,2.12-.05,3.87-.48,5.12-.89"/><path class="w" d="M297.48,605.59c1.93-.88,4.9-1.88,8.53-1.77,9.33,.26,15.19,7.55,16.21,8.87"/></g><g><polygon class="ag" points="245.26 466.29 313.42 422.88 274.03 361.26 205.87 404.67 245.26 466.29"/><g><polygon class="a`" points="256.86 371.42 273.33 360.94 264.2 346.66 247.74 357.14 256.86 371.42"/><polygon class="a`" points="239.6 382.42 256.07 371.93 246.94 357.65 230.47 368.14 239.6 382.42"/><polygon class="a`" points="222.75 393.15 239.22 382.66 230.09 368.38 213.62 378.87 222.75 393.15"/><polygon class="a`" points="205.9 403.88 222.37 393.39 213.24 379.11 196.77 389.6 205.9 403.88"/></g><g><polygon class="a`" points="247.38 356.32 263.88 345.81 254.75 331.53 238.25 342.04 247.38 356.32"/><polygon class="a`" points="230.07 367.34 246.58 356.83 237.45 342.55 220.94 353.06 230.07 367.34"/><polygon class="a`" points="213.18 378.1 229.69 367.59 220.56 353.31 204.06 363.82 213.18 378.1"/><polygon class="a`" points="196.3 388.86 212.8 378.34 203.67 364.07 187.17 374.58 196.3 388.86"/></g><g><polygon class="a`" points="237.79 341.56 254.25 331.07 245.12 316.79 228.66 327.28 237.79 341.56"/><polygon class="a`" points="220.52 352.55 236.99 342.07 227.86 327.79 211.39 338.27 220.52 352.55"/><path class="a`" d="M195.53,348.38l15.48-9.86,9.13,14.28-16.46,10.49-8.17-12.78c.1-.69,.11-1.4,.03-2.12Z"/><path class="a`" d="M186.8,369.77c-.94,.86,.34-.1,.55-.25,.6-.42,1.21-.97,1.69-1.54,.68-.82,1.22-1.75,1.64-2.72,.86-1.97,1.06-4.24,.21-6.12-.17-.44-.4-.87-.69-1.3,0,0-.01-.01-.02-.02-.01-.03-.02-.05-.03-.08,.16-.08,.31-.16,.46-.26,2.38-1.56,4.17-3.78,4.77-6.33l7.91,12.37-16.46,10.49-1.95-3.05c.07-.03,.14-.08,.21-.11,.63-.26,1.22-.62,1.72-1.08Z"/></g><polygon class="a`" points="228.25 326.65 244.72 316.16 235.59 301.88 219.13 312.37 228.25 326.65"/><polygon class="a`" points="210.99 337.64 227.45 327.15 218.33 312.88 201.86 323.36 210.99 337.64"/><path class="a`" d="M194.42,345.4c1.01-.98,1.77-2.16,2.3-3.47,.03-.06,.05-.13,.07-.19,1.54-4.01,.98-9.06-1.02-12.49v-.02c-.05-.07-.08-.14-.12-.2-.28-.45-.59-.82-.94-1.11l6.76-4.3,9.13,14.28-15.16,9.67c-.08-.81-.56-1.49-1.02-2.16Z"/><polyline class="al" points="313.42 422.88 313.86 429.61 306.92 427.02 306.86 433.61 300.27 431.26 300.86 436.61 294.57 434.89 293.86 441.61 287.79 439.21 287.79 444.71 282.01 442.89 281.86 448.61 275.22 447.21 275.22 452.67 268.69 451.37 267.86 455.61 263.32 454.79 263.86 459.61 258.86 457.61 256.86 463.61 252.73 461.54 251.86 466.61 247.79 464.68 247.86 469.61 245.26 466.29"/></g><g><polygon class="ag" points="358.68 154.03 312.16 126.53 339.04 87.5 385.56 114.99 358.68 154.03"/><g><polygon class="a`" points="350.76 93.93 339.52 87.29 345.75 78.25 356.99 84.89 350.76 93.93"/><polygon class="a`" points="362.54 100.9 351.3 94.26 357.53 85.21 368.77 91.85 362.54 100.9"/><polygon class="a`" points="374.04 107.7 362.8 101.05 369.03 92.01 380.27 98.65 374.04 107.7"/><polygon class="a`" points="385.54 114.49 374.3 107.85 380.53 98.81 391.77 105.45 385.54 114.49"/></g><g><polygon class="a`" points="357.23 84.37 345.97 77.71 352.2 68.67 363.46 75.32 357.23 84.37"/><polygon class="a`" points="369.04 91.35 357.78 84.69 364.01 75.65 375.27 82.3 369.04 91.35"/><polygon class="a`" points="380.57 98.16 369.3 91.5 375.53 82.46 386.8 89.12 380.57 98.16"/><polygon class="a`" points="392.09 104.98 380.83 98.32 387.06 89.27 398.32 95.93 392.09 104.98"/></g><g><polygon class="a`" points="363.78 75.01 352.54 68.37 358.77 59.33 370.01 65.97 363.78 75.01"/><polygon class="a`" points="375.56 81.98 364.32 75.34 370.55 66.29 381.79 72.93 375.56 81.98"/><path class="a`" d="M392.62,79.33l-10.56-6.25-6.23,9.05,11.24,6.64,5.58-8.1c-.07-.44-.08-.89-.02-1.34Z"/><path class="a`" d="M398.57,92.89c.64,.55-.23-.06-.38-.16-.41-.27-.83-.61-1.15-.98-.46-.52-.83-1.11-1.12-1.72-.59-1.25-.72-2.69-.14-3.88,.12-.28,.27-.55,.47-.82h.01s.01-.05,.02-.06c-.11-.05-.21-.1-.32-.16-1.62-.99-2.85-2.39-3.26-4.01l-5.4,7.84,11.24,6.64,1.33-1.93s-.09-.05-.14-.07c-.43-.16-.83-.39-1.18-.68Z"/></g><polygon class="a`" points="370.28 65.57 359.05 58.93 365.28 49.88 376.51 56.52 370.28 65.57"/><polygon class="a`" points="382.06 72.53 370.83 65.89 377.06 56.85 388.29 63.49 382.06 72.53"/><path class="a`" d="M393.37,77.45c-.69-.62-1.21-1.37-1.57-2.2-.02-.04-.03-.08-.05-.12-1.05-2.54-.67-5.74,.69-7.92h0c.03-.05,.05-.1,.08-.14,.19-.29,.4-.52,.64-.7l-4.61-2.73-6.23,9.05,10.35,6.12c.05-.51,.38-.94,.7-1.37Z"/><polyline class="al" points="312.16 126.53 311.86 130.8 316.59 129.15 316.63 133.33 321.13 131.84 320.73 135.23 325.02 134.14 325.51 138.4 329.65 136.87 329.65 140.36 333.59 139.2 333.69 142.83 338.23 141.94 338.23 145.4 342.68 144.58 343.25 147.27 346.35 146.74 345.98 149.8 349.39 148.53 350.76 152.33 353.58 151.02 354.17 154.23 356.95 153.01 356.9 156.13 358.68 154.03"/></g><g><ellipse class="y" cx="1530.94" cy="62.48" rx="37.06" ry="33.9"/><path class="ae" d="M1530.82,81.98s15.41-10.47,19.56-17.99l.92-1.69c.7-1.55,1.1-3.26,1.1-5.08,0-6.66-5.26-12.06-11.74-12.06-4.14,0-7.76,2.2-9.86,5.52-2.09-3.32-5.72-5.52-9.86-5.52-6.49,0-11.74,5.4-11.74,12.06,0,1.82,.4,3.53,1.1,5.08l.92,1.69c4.15,7.52,19.56,17.99,19.56,17.99h.03Z"/></g><g><ellipse class="y" cx="1530.94" cy="144.29" rx="37.06" ry="33.9"/><path class="ae" d="M1530.82,163.79s15.41-10.47,19.56-17.99l.92-1.69c.7-1.55,1.1-3.26,1.1-5.08,0-6.66-5.26-12.06-11.74-12.06-4.14,0-7.76,2.2-9.86,5.52-2.09-3.32-5.72-5.52-9.86-5.52-6.49,0-11.74,5.4-11.74,12.06,0,1.82,.4,3.53,1.1,5.08l.92,1.69c4.15,7.52,19.56,17.99,19.56,17.99h.03Z"/></g><g><ellipse class="y" cx="1530.94" cy="226.1" rx="37.06" ry="33.9"/><path class="ae" d="M1530.82,245.6s15.41-10.47,19.56-17.99l.92-1.69c.7-1.55,1.1-3.26,1.1-5.08,0-6.66-5.26-12.06-11.74-12.06-4.14,0-7.76,2.2-9.86,5.52-2.09-3.32-5.72-5.52-9.86-5.52-6.49,0-11.74,5.4-11.74,12.06,0,1.82,.4,3.53,1.1,5.08l.92,1.69c4.15,7.52,19.56,17.99,19.56,17.99h.03Z"/></g><g class="at"><path class="w" d="M554.36,128.79c0,7.31,4.76,10.36,11.04,10.36,.99,0,1.94-.15,2.86-.42,.58,5.84,5.64,10.4,11.81,10.4,6.55,0,11.53-7.84,11.53-14.2,0-4.69-2.56-6.03-6.69-7.83l18.01-25.95c1.95,2.14,4.57,3.46,7.46,3.46,6.01,0,13.51-8.36,13.51-15.35s-7.5-9.98-13.51-9.98c-.21,0-.41,0-.61,.02-.47,.03-.95,.11-.95,.11-1.26,.21-3.14,.18-4.74,.9-.63,.28-1.56,.84-2.48,2,.6-.57,1.59-1.39,2.98-2,1.82-.79,2.69-.51,2.98-1,.93-1.56-4.76-10.16-12-10.02-6.95,.14-12.19,8.23-12.19,14.2,0,1.47-.55,5.42,2.05,8.81,1.6,2.08,3.63,3.04,4.75,3.47l-15.56,22.36c-2.07-3.31-5.42-5.47-9.2-5.47-6.28,0-11.04,8.81-11.04,16.12Z"/><path class="w" d="M590.16,95.78c.8,.25,2,.53,3.48,.5,1.23-.03,2.25-.27,2.98-.5"/><path class="w" d="M576.51,127.46c1.13-.49,2.85-1.06,4.97-1,5.43,.15,8.84,4.25,9.44,4.99"/></g><g><polygon class="ag" points="542.53 55.95 567.57 40.41 553.1 18.35 528.06 33.89 542.53 55.95"/><g><polygon class="a`" points="546.79 21.99 552.84 18.23 549.49 13.12 543.44 16.87 546.79 21.99"/><polygon class="a`" points="540.45 25.92 546.5 22.17 543.15 17.06 537.1 20.81 540.45 25.92"/><polygon class="a`" points="534.26 29.76 540.31 26.01 536.96 20.9 530.91 24.65 534.26 29.76"/><polygon class="a`" points="528.07 33.6 534.12 29.85 530.77 24.74 524.72 28.49 528.07 33.6"/></g><g><polygon class="a`" points="543.31 16.58 549.37 12.82 546.02 7.71 539.96 11.47 543.31 16.58"/><polygon class="a`" points="536.95 20.53 543.01 16.76 539.66 11.65 533.6 15.41 536.95 20.53"/><polygon class="a`" points="530.75 24.38 536.81 20.61 533.46 15.5 527.39 19.26 530.75 24.38"/><polygon class="a`" points="524.54 28.23 530.61 24.46 527.25 19.35 521.19 23.11 524.54 28.23"/></g><g><polygon class="a`" points="539.79 11.29 545.83 7.54 542.48 2.43 536.43 6.18 539.79 11.29"/><polygon class="a`" points="533.44 15.23 539.49 11.48 536.14 6.37 530.09 10.12 533.44 15.23"/><path class="a`" d="M524.26,13.74l5.69-3.53,3.35,5.11-6.05,3.75-3-4.58c.04-.25,.04-.5,.01-.76Z"/><path class="a`" d="M521.05,21.39c-.35,.31,.12-.04,.2-.09,.22-.15,.45-.35,.62-.55,.25-.29,.45-.63,.6-.97,.32-.71,.39-1.52,.08-2.19-.06-.16-.15-.31-.25-.47h0v-.04s.1-.06,.16-.09c.87-.56,1.53-1.35,1.75-2.27l2.91,4.43-6.05,3.75-.72-1.09s.05-.03,.08-.04c.23-.09,.45-.22,.63-.39Z"/></g><polygon class="a`" points="536.28 5.96 542.33 2.2 538.98 -2.91 532.93 .85 536.28 5.96"/><polygon class="a`" points="529.94 9.89 535.99 6.14 532.64 1.03 526.59 4.78 529.94 9.89"/><path class="a`" d="M523.85,12.67c.37-.35,.65-.77,.85-1.24,.01-.02,.02-.05,.03-.07,.57-1.44,.36-3.24-.37-4.47h0s-.03-.06-.04-.08c-.1-.16-.22-.29-.34-.4l2.48-1.54,3.35,5.11-5.57,3.46c-.03-.29-.2-.53-.38-.77Z"/><polyline class="al" points="567.57 40.41 567.73 42.82 565.18 41.89 565.16 44.25 562.74 43.4 562.96 45.32 560.65 44.7 560.39 47.11 558.16 46.25 558.16 48.22 556.03 47.57 555.98 49.62 553.54 49.11 553.54 51.07 551.14 50.6 550.83 52.12 549.17 51.83 549.37 53.55 547.53 52.84 546.79 54.99 545.27 54.24 544.96 56.06 543.46 55.37 543.49 57.13 542.53 55.95"/></g><g class="au"><path class="ad" d="M344.59,15.5c-5.71,9.56-18.82,23.34-23.71,21.46-4.89-1.88-.08-19.42,5.63-28.99,5.71-9.56,7.98-6.21,13.2-4.44,4.99,1.7,10.58,2.4,4.87,11.96Z"/><path class="ac" d="M341.63,12.6c-1.02-.78-2.87-2-5.59-2.76-1.87-.53-3.54-.67-4.73-.69"/><path class="v" d="M328.95,14.48c1.2,.19,2.89,.58,4.72,1.4,1.52,.69,2.65,1.46,3.43,2.09"/><path class="v" d="M333.67,22.1c-.58-.46-1.72-1.24-3.44-1.73-1.87-.52-3.48-.44-4.3-.35"/><path class="v" d="M323.99,25.73c.74-.04,1.99-.04,3.44,.35,.7,.19,1.86,.58,3.01,1.38"/><path class="aa" d="M337.76,5.35c.14-.21,3.96,1.18,3.88,1.37-.02,.04-.22,.02-.43,0-1.83-.19-3.55-1.23-3.45-1.37Z"/><path class="an" d="M360.31-17.89c-2.23-.96-4.51,1.13-6.32,3.84-1.15,1.72-3.78,3.66-5.66,5.35l-.11-.04c1.17-.83,2.12-2.17,1.78-3.81-.29-1.38-1.39-2.64-2.23-2.64s-1.53,1.14-1.53,2.54c0,1.18-1.27,3.32-1.3,4.24,0,.05-.01,.1-.04,.15l-.31,.6c-.14,.27-.6,.33-.83,.1-.79-.78-2.33-1.51-3.04-1.51-.97,0,0,1.38,0,2.39,0,.68,.59,2.52,1.28,3.62,.07,.1,.07,.23,.02,.33h0c-.17,.32-.73,.32-.9,0-1.18-2.2-3.58-5.33-5.58-6.36-3-1.55-6.35-1.72-7.13-1.02-3.14,2.81,2.96,1.44,4.84,3.87,3.48,4.5,5.43,6.33,6.57,6.89,.2,.1,.28,.31,.19,.48l-2.17,4.16c-.1,.2,.01,.43,.26,.52l2.87,.96c.25,.08,.54-.01,.64-.21l1.57-3c.16-.31,.68-.32,.89-.04,.43,.62,.99,1.27,1.66,1.89,2.36,2.21,4.83,2.53,6.32,2.6,2.66,.13-.16-1.75-2.74-5.33-1.66-2.3-1.87-3.89-2.9-4.01-.32-.04-.53-.29-.4-.53l.67-1.29c.14-.26,.56-.32,.81-.12,1.21,1.01,3.12,1.99,4.88,1.99,2.85,0,4.23-2.58,4.23-3.67s-2.31-.66-5.17-.66c-1.31,0-2.51-.09-3.42-.08l.08-.14c3.31-.44,10.16-2.79,12.27-5.61,1.97-2.63,2.21-5.51-.02-6.47Z"/></g><g class="av"><path class="ad" d="M453.49,110.19c8.52,15.45,28.08,37.7,35.38,34.66,7.3-3.03,.11-31.37-8.41-46.82-8.52-15.45-11.91-10.03-19.7-7.16-7.45,2.74-15.79,3.88-7.27,19.33Z"/><path class="ac" d="M457.91,105.51c1.52-1.27,4.29-3.23,8.35-4.46,2.79-.85,5.28-1.08,7.06-1.12"/><path class="v" d="M476.83,108.54c-1.79,.31-4.32,.93-7.05,2.27-2.26,1.11-3.95,2.36-5.11,3.37"/><path class="v" d="M469.78,120.85c.86-.74,2.56-2.01,5.14-2.79,2.79-.85,5.2-.7,6.42-.56"/><path class="v" d="M484.23,126.71c-1.1-.07-2.98-.07-5.14,.56-1.05,.3-2.78,.93-4.49,2.23"/><path class="aa" d="M463.68,93.79c-.21-.34-5.9,1.91-5.78,2.22,.03,.07,.33,.04,.64,0,2.73-.3,5.3-1.98,5.14-2.22Z"/><path class="an" d="M430.04,56.26c3.32-1.55,6.73,1.83,9.44,6.2,1.72,2.78,5.64,5.91,8.45,8.64l.16-.06c-1.75-1.34-3.16-3.5-2.66-6.15,.43-2.24,2.07-4.26,3.33-4.26s2.28,1.84,2.28,4.1c0,1.91,1.9,5.37,1.94,6.85,0,.08,.02,.17,.06,.24l.46,.96c.21,.44,.9,.54,1.24,.17,1.18-1.27,3.47-2.45,4.53-2.45,1.45,0,0,2.24,0,3.85,0,1.1-.88,4.08-1.91,5.85-.1,.17-.11,.37-.03,.54h0c.25,.52,1.09,.52,1.35,.01,1.76-3.55,5.34-8.6,8.33-10.28,4.47-2.5,9.48-2.78,10.64-1.65,4.69,4.53-4.42,2.33-7.22,6.25-5.19,7.26-8.1,10.22-9.8,11.13-.31,.16-.42,.5-.29,.78l3.24,6.71c.16,.32-.02,.7-.39,.83l-4.28,1.55c-.37,.14-.8-.02-.96-.34l-2.34-4.85c-.24-.49-1.02-.52-1.32-.06-.64,1-1.48,2.04-2.47,3.06-3.52,3.58-7.21,4.08-9.43,4.2-3.96,.21,.24-2.83,4.09-8.6,2.47-3.71,2.78-6.29,4.33-6.48,.48-.06,.79-.47,.6-.85l-1-2.08c-.2-.42-.84-.52-1.21-.19-1.8,1.63-4.65,3.21-7.28,3.21-4.26,0-6.31-4.17-6.31-5.93s3.45-1.06,7.71-1.06c1.96,0,3.74-.15,5.1-.14l-.11-.23c-4.94-.71-15.15-4.51-18.3-9.06-2.94-4.25-3.3-8.9,.02-10.45Z"/></g><g><polygon class="ag" points="413.99 480.66 367.47 453.16 394.35 414.12 440.87 441.62 413.99 480.66"/><g><polygon class="a`" points="406.06 420.56 394.83 413.92 401.06 404.87 412.29 411.51 406.06 420.56"/><polygon class="a`" points="417.85 427.52 406.61 420.88 412.84 411.84 424.08 418.48 417.85 427.52"/><polygon class="a`" points="429.35 434.32 418.11 427.68 424.34 418.63 435.58 425.28 429.35 434.32"/><polygon class="a`" points="440.85 441.12 429.61 434.48 435.84 425.43 447.08 432.07 440.85 441.12"/></g><g><polygon class="a`" points="412.54 410.99 401.28 404.34 407.51 395.29 418.77 401.95 412.54 410.99"/><polygon class="a`" points="424.35 417.97 413.09 411.32 419.32 402.27 430.58 408.93 424.35 417.97"/><polygon class="a`" points="435.88 424.79 424.61 418.13 430.84 409.08 442.11 415.74 435.88 424.79"/><polygon class="a`" points="447.4 431.6 436.14 424.94 442.37 415.9 453.63 422.56 447.4 431.6"/></g><g><polygon class="a`" points="419.09 401.64 407.85 395 414.08 385.95 425.32 392.59 419.09 401.64"/><polygon class="a`" points="430.87 408.6 419.63 401.96 425.86 392.92 437.1 399.56 430.87 408.6"/><path class="a`" d="M447.93,405.96l-10.56-6.25-6.23,9.05,11.24,6.64,5.58-8.1c-.07-.44-.08-.89-.02-1.34Z"/><path class="a`" d="M453.88,419.51c.64,.55-.23-.06-.38-.16-.41-.27-.83-.61-1.15-.98-.46-.52-.83-1.11-1.12-1.72-.59-1.25-.72-2.69-.14-3.88,.12-.28,.27-.55,.47-.82h.01s.01-.05,.02-.06c-.11-.05-.21-.1-.32-.16-1.62-.99-2.85-2.39-3.26-4.01l-5.4,7.84,11.24,6.64,1.33-1.93s-.09-.05-.14-.07c-.43-.16-.83-.39-1.18-.68Z"/></g><polygon class="a`" points="425.59 392.19 414.35 385.55 420.58 376.51 431.82 383.15 425.59 392.19"/><polygon class="a`" points="437.37 399.16 426.14 392.52 432.37 383.47 443.6 390.11 437.37 399.16"/><path class="a`" d="M448.68,404.07c-.69-.62-1.21-1.37-1.57-2.2-.02-.04-.03-.08-.05-.12-1.05-2.54-.67-5.74,.69-7.92h0c.03-.05,.05-.1,.08-.14,.19-.29,.4-.52,.64-.7l-4.61-2.73-6.23,9.05,10.35,6.12c.05-.51,.38-.94,.7-1.37Z"/><polyline class="al" points="367.47 453.16 367.16 457.42 371.9 455.78 371.94 459.95 376.44 458.46 376.04 461.86 380.33 460.76 380.81 465.02 384.96 463.5 384.96 466.98 388.9 465.83 389 469.46 393.54 468.57 393.54 472.02 397.99 471.2 398.56 473.89 401.66 473.37 401.29 476.42 404.7 475.16 406.07 478.96 408.89 477.64 409.48 480.86 412.26 479.63 412.21 482.76 413.99 480.66"/></g><g class="aw"><path class="w" d="M431.7,721.13c-4.54,0-8.57,2.48-11.05,6.28-6.23-8.56-12.46-17.13-18.68-25.69,1.35-.49,3.79-1.6,5.7-3.99,3.12-3.89,2.47-8.43,2.47-10.12,0-6.86-6.29-16.16-14.64-16.32-8.69-.17-15.51,9.71-14.4,11.51,.34,.56,1.39,.23,3.58,1.15,1.67,.7,2.86,1.64,3.58,2.29-1.11-1.33-2.22-1.97-2.98-2.29-1.93-.83-4.19-.79-5.7-1.04,0,0-.58-.09-1.14-.13-.24-.02-.49-.02-.74-.02-7.21,0-16.22,3.43-16.22,11.47s9.01,17.64,16.22,17.64c3.47,0,6.62-1.51,8.96-3.97l21.62,29.82c-4.97,2.07-8.03,3.61-8.03,8.99,0,7.31,5.98,16.32,13.84,16.32,7.4,0,13.48-5.24,14.17-11.95,1.1,.32,2.25,.49,3.43,.49,7.54,0,13.25-3.5,13.25-11.91s-5.71-18.52-13.25-18.52Z"/><path class="w" d="M401.97,701.72c-.96,.29-2.4,.61-4.17,.57-1.48-.03-2.7-.31-3.58-.57"/><path class="w" d="M418.37,738.13c-1.35-.57-3.42-1.21-5.96-1.15-6.52,.17-10.61,4.88-11.33,5.73"/></g><g><polygon class="ag" points="544.5 773.5 611.05 735.38 572.59 681.27 506.05 719.39 544.5 773.5"/><g><polygon class="a`" points="555.83 690.2 571.91 680.99 562.99 668.45 546.92 677.66 555.83 690.2"/><polygon class="a`" points="538.98 699.85 555.05 690.64 546.14 678.11 530.07 687.31 538.98 699.85"/><polygon class="a`" points="522.53 709.27 538.6 700.06 529.69 687.53 513.62 696.73 522.53 709.27"/><polygon class="a`" points="506.08 718.69 522.15 709.49 513.24 696.95 497.17 706.16 506.08 718.69"/></g><g><polygon class="a`" points="546.57 676.94 562.68 667.71 553.77 655.17 537.66 664.4 546.57 676.94"/><polygon class="a`" points="529.68 686.61 545.79 677.39 536.88 664.85 520.76 674.08 529.68 686.61"/><polygon class="a`" points="513.19 696.06 529.3 686.83 520.39 674.29 504.28 683.52 513.19 696.06"/><polygon class="a`" points="496.7 705.5 512.81 696.27 503.9 683.74 487.79 692.96 496.7 705.5"/></g><g><polygon class="a`" points="537.21 663.97 553.28 654.77 544.37 642.23 528.29 651.43 537.21 663.97"/><polygon class="a`" points="520.35 673.63 536.43 664.42 527.51 651.88 511.44 661.09 520.35 673.63"/><path class="a`" d="M495.95,669.96l15.11-8.66,8.91,12.54-16.07,9.21-7.98-11.22c.1-.6,.11-1.23,.03-1.86Z"/><path class="a`" d="M487.43,688.75c-.92,.76,.33-.09,.54-.22,.58-.37,1.18-.85,1.65-1.35,.66-.72,1.19-1.54,1.6-2.39,.84-1.73,1.03-3.72,.21-5.38-.17-.39-.39-.77-.67-1.14,0,0-.01-.01-.02-.02-.01-.02-.02-.05-.03-.07,.15-.07,.31-.14,.45-.23,2.32-1.37,4.08-3.32,4.66-5.56l7.72,10.87-16.07,9.21-1.91-2.68c.07-.03,.13-.07,.2-.1,.61-.23,1.19-.54,1.68-.94Z"/></g><polygon class="a`" points="527.9 650.88 543.97 641.67 535.06 629.13 518.99 638.34 527.9 650.88"/><polygon class="a`" points="511.05 660.53 527.12 651.33 518.21 638.79 502.13 648 511.05 660.53"/><path class="a`" d="M494.87,667.34c.99-.86,1.73-1.9,2.25-3.05,.03-.05,.04-.11,.07-.17,1.51-3.52,.96-7.95-.99-10.97v-.02c-.05-.06-.08-.12-.12-.18-.27-.4-.58-.72-.92-.98l6.6-3.78,8.91,12.54-14.8,8.49c-.08-.71-.54-1.31-1-1.89Z"/><polyline class="al" points="611.05 735.38 611.48 741.29 604.7 739.01 604.64 744.8 598.21 742.73 598.79 747.44 592.64 745.92 591.95 751.83 586.03 749.71 586.03 754.54 580.38 752.94 580.24 757.97 573.75 756.74 573.75 761.53 567.38 760.39 566.57 764.12 562.14 763.39 562.66 767.63 557.78 765.88 555.83 771.14 551.79 769.32 550.95 773.78 546.97 772.08 547.04 776.41 544.5 773.5"/></g><g class="ax"><path class="ad" d="M313.03,820.28c15.66,34.29,29.21,94.68,15.04,101.5-14.17,6.82-53.32-43.35-68.98-77.64-15.66-34.29-2.29-31.9,12.2-39.69,13.86-7.45,26.08-18.47,41.74,15.82Z"/><path class="ac" d="M299.63,820.45c-4.03,.54-10.77,2-17.88,6.41-4.88,3.03-8.35,6.47-10.62,9.12"/><path class="v" d="M281.4,853.23c2.73-2.27,6.92-5.23,12.55-7.49,4.68-1.88,8.89-2.68,12.04-3.04"/><path class="v" d="M310.96,859.67c-2.33,.27-6.57,1.09-11.07,3.89-4.88,3.03-7.62,6.87-8.88,8.92"/><path class="v" d="M303.04,889.6c1.24-1.76,3.56-4.59,7.29-6.98,1.81-1.16,5.01-2.9,9.34-3.69"/><path class="aa" d="M272.64,812.93c-.3-.79,10.53-6.27,10.91-5.66,.08,.13-.34,.54-.79,.97-3.89,3.7-9.9,5.25-10.12,4.69Z"/><path class="an" d="M250.58,710.07c-6.73,2.87-5.21,12.71-1.15,22.84,2.59,6.46,3.05,16.71,4.21,24.74l-.3,.16c-.1-4.5-2.03-9.64-7.14-12.54-4.32-2.45-9.77-2.78-11.33-.88s.3,5.99,4.14,9.13c3.24,2.65,6.75,10.32,9.21,12.44,.14,.12,.26,.26,.35,.42l1.06,2.04c.49,.93-.2,2.1-1.25,2.11-3.6,.02-8.44,1.85-9.74,3.44-1.79,2.19,3.79,3.1,6.53,5.34,1.87,1.53,8,4.32,12.28,5.24,.41,.09,.76,.34,.95,.71h0c.57,1.09-.46,2.38-1.65,2.05-8.2-2.26-21.18-3.87-27.71-1.68-9.77,3.28-16.42,10.46-15.95,13.78,1.89,13.37,9.41-3.44,19.52-2.24,18.72,2.24,27.32,1.95,30.98,.64,.65-.23,1.36,.05,1.68,.65l7.38,14.2c.36,.69,1.21,.94,1.9,.56l7.92-4.3c.69-.38,.96-1.24,.61-1.92l-5.34-10.26c-.54-1.04,.37-2.27,1.54-2.07,2.49,.42,5.29,.61,8.24,.51,10.41-.35,15.83-5.23,18.78-8.41,5.26-5.69-5.1-3.56-19.64-5.75-9.34-1.41-14.1-4.52-16.32-2.45-.69,.64-1.76,.54-2.19-.28l-2.28-4.39c-.47-.9,.15-1.99,1.16-2.09,4.98-.46,11.19-2.57,14.44-6.53,5.26-6.43,.73-15.3-2.26-17.74s-6.07,3.73-11.33,10.16c-2.42,2.95-4.87,5.45-6.53,7.52l-.26-.49c4.91-8.45,11.09-29.13,7.26-40.2-3.57-10.33-11.02-17.33-17.75-14.46Z"/></g><g><polygon class="ag" points="431.51 864.91 476.03 885.07 489.75 843.87 445.23 823.71 431.51 864.91"/><g><polygon class="a`" points="478.89 838.53 489.65 843.4 492.83 833.85 482.07 828.98 478.89 838.53"/><polygon class="a`" points="467.62 833.43 478.37 838.29 481.55 828.75 470.8 823.88 467.62 833.43"/><polygon class="a`" points="456.61 828.44 467.36 833.31 470.54 823.76 459.79 818.9 456.61 828.44"/><polygon class="a`" points="445.61 823.46 456.36 828.33 459.54 818.78 448.79 813.91 445.61 823.46"/></g><g><polygon class="a`" points="482.31 828.52 493.09 833.4 496.27 823.85 485.49 818.97 482.31 828.52"/><polygon class="a`" points="471.01 823.4 481.79 828.28 484.97 818.74 474.19 813.86 471.01 823.4"/><polygon class="a`" points="459.98 818.41 470.76 823.29 473.94 813.74 463.16 808.86 459.98 818.41"/><polygon class="a`" points="448.95 813.41 459.73 818.29 462.91 808.75 452.13 803.87 448.95 813.41"/></g><g><polygon class="a`" points="485.55 818.57 496.3 823.44 499.48 813.89 488.73 809.02 485.55 818.57"/><polygon class="a`" points="474.27 813.46 485.03 818.33 488.21 808.79 477.45 803.92 474.27 813.46"/><path class="a`" d="M467.09,799.22l10.11,4.58-3.18,9.55-10.75-4.87,2.85-8.55c.35-.18,.68-.42,.98-.71Z"/><path class="a`" d="M454.18,802.04c-.74-.19,.17,.14,.31,.2,.41,.16,.88,.29,1.31,.34,.62,.07,1.24,.03,1.83-.08,1.21-.23,2.31-.9,2.86-1.98,.14-.24,.25-.5,.34-.8v-.02s.02-.03,.03-.04c.09,.06,.19,.11,.29,.15,1.57,.69,3.24,.85,4.61,.29l-2.76,8.27-10.75-4.87,.68-2.04s.08,.04,.13,.07c.35,.23,.72,.42,1.12,.52Z"/></g><polygon class="a`" points="488.87 808.6 499.62 813.47 502.8 803.92 492.05 799.05 488.87 808.6"/><polygon class="a`" points="477.59 803.49 488.35 808.36 491.53 798.82 480.77 793.95 477.59 803.49"/><path class="a`" d="M468.04,797.64c.81,.19,1.63,.17,2.42,0,.04,0,.07-.02,.11-.03,2.39-.58,4.48-2.58,5.32-4.78h0c.02-.05,.04-.09,.05-.14,.11-.3,.16-.58,.16-.86l4.41,2-3.18,9.55-9.91-4.48c.34-.31,.47-.79,.61-1.26Z"/><polyline class="al" points="476.03 885.07 473.13 887.59 471.78 883.15 468.76 885.36 467.44 881.18 465.22 883.31 463.72 879.49 460.4 881.42 459.29 877.49 456.79 879.37 455.52 875.78 452.85 877.66 451.08 873.77 448.6 875.63 446.82 871.84 444.58 872.86 443.31 870.25 441.31 872.17 440.4 868.93 436.94 869.95 436.39 867.12 433.76 868.41 433.16 865.66 430.94 867.38 431.51 864.91"/></g><g class="ay"><path class="w" d="M564.6,891.72c0,15.25,10.29,21.6,23.86,21.6,2.13,0,4.2-.31,6.18-.88,1.25,12.17,12.2,21.68,25.52,21.68,14.16,0,24.93-16.35,24.93-29.61,0-9.77-5.52-12.57-14.47-16.31l38.94-54.11c4.21,4.46,9.88,7.21,16.13,7.21,12.98,0,29.2-17.42,29.2-32.01s-16.22-20.8-29.2-20.8c-.45,0-.89,.01-1.33,.04-1.02,.06-2.05,.23-2.05,.23-2.72,.44-6.78,.38-10.25,1.88-1.37,.59-3.38,1.74-5.37,4.16,1.29-1.19,3.43-2.89,6.44-4.16,3.94-1.65,5.82-1.07,6.44-2.08,2-3.26-10.28-21.18-25.93-20.88-15.02,.29-26.35,17.16-26.35,29.61,0,3.07-1.18,11.3,4.44,18.36,3.45,4.33,7.85,6.35,10.27,7.24-11.21,15.54-22.43,31.08-33.64,46.62-4.47-6.91-11.71-11.4-19.89-11.4-13.57,0-23.86,18.36-23.86,33.61Z"/><path class="w" d="M641.99,822.9c1.73,.53,4.33,1.11,7.51,1.04,2.67-.06,4.87-.56,6.44-1.04"/><path class="w" d="M612.47,888.96c2.43-1.03,6.16-2.2,10.73-2.08,11.74,.31,19.11,8.85,20.4,10.4"/></g><g><path class="ak" d="M1399.41,726.24c0,8.63-12.15,15.29-19.65,15.29s-27.15-.19-24.65-8.49c2.86-9.51,17.92-43.87,30.73-29.89,9.65,10.53,13.58,14.47,13.58,23.1Z"/><path class="x" d="M1352.02,734.74c-.39,.28-3.18,2.32-3.47,6-.21,2.63,.93,5.33,2.77,6.75,2.86,2.2,5.64-.04,14.56-.75,1.77-.14,5.3-.41,9.71,0,6.36,.59,7.34,1.92,13.17,2.25,4.68,.27,7.47,.38,10.4-1.5,1.24-.8,4.71-3.38,5.55-8.24,.7-4.09-.88-7.31-1.39-8.24"/><path class="x" d="M1359.83,722.84c-4.7,1.44-7.89,4.87-8.12,8.68-.28,4.67,4.01,7.62,4.51,7.96"/><path class="x" d="M1398.35,721.82c3.32,.98,5.89,3.35,6.36,6.11,.7,4.05-3.1,8.91-9.19,9.51"/><path class="x" d="M1370.08,713.67c-.9-1.21-2-3.08-2.12-5.43-.24-4.55,3.41-6.28,2.83-10.19-.54-3.66-4.1-4.58-3.53-6.79,.56-2.18,4.59-3.48,7.77-3.4,6.55,.18,13.33,6.35,14.13,13.59,.28,2.57-.4,5.01-.4,5.01h0c-.41,1.6-1.18,3.33-2.43,5.18"/><path class="x" d="M1368.67,705.52c-4.86,.49-11.38,5.63-12.01,10.19-.71,5.09,3.72,8.54,4.03,8.83"/><path class="x" d="M1388.46,706.88c4.89-.05,9.23,3.03,10.6,7.47,1.32,4.28-.39,8.95-4.24,11.55"/></g><path class="ao" d="M1237.65,776.81c12.69,25.03-7.82,15.5-28.85,15.5s-39.23-17.26-39.23-23.84,11.54,7.15,32.31,2.38c20.53-4.71,32.82,.13,35.77,5.96Z"/><path class="ab" d="M1168.42,769.66c-1.31,1.4-8.12,8.94-6.92,19.07,.22,1.85,.54,4.57,2.31,7.15,6.46,9.44,24.53,5.85,30,4.77,4.29-.85,10.93-2.69,18.46-7.15"/><path class="ab" d="M1209.96,781.58c-.33,.86-4.99,13.66,0,26.19,.85,2.14,5.63,11.94,13.85,13.1,8.72,1.23,19.35-7.63,23.08-22.6"/><path class="t" d="M1298.94,487.51c0,22.47-15.47,40.68-34.56,40.68s-10.58-39.04-34.56-40.68c-43.09-2.94,2.69-28.1,34.56-40.68,35.76-14.12,34.56,18.21,34.56,40.68Z"/><path class="aq" d="M1279.29,489.19c0,9.59-6.96,17.36-15.54,17.36s-15.54-7.77-15.54-17.36,7.15-15.65,15.54-17.36c19.91-4.07,15.54,7.77,15.54,17.36Z"/><path class="t" d="M1112.22,491.47c-26.93,11.32-26.79,36.48-44.88,36.48s-18.73-19.67-20.64-36.48c-3.59-31.45,4.04-55.77,30.52-45.71,16.76,6.37,51.51,38.77,35.01,45.71Z"/><path class="af" d="M1091.47,487.26c0,10.09-7.34,18.26-16.39,18.26s-16.39-8.18-16.39-18.26,0-22.51,16.39-18.26c8.72,2.26,16.39,8.18,16.39,18.26Z"/><path class="ah" d="M1337.89,678.6s5.57,5.88-3.59,19.2c-9.16,13.32-16.78,10.44-16.78,10.44,8.32,5.54,19.62,3.39,25.24-4.8,5.63-8.18,3.44-19.31-4.87-24.84Z"/><path class="t" d="M1327.56,744.29c1.63-5.89,2.55-13.64,5.33-22.38,7.19-22.51,0-45.92-20.99-33.86-10.01,5.75-17.78,15.43-20.99,33.86-1.86,10.7,.93,19.4,5.7,25.31-4.26,3.23-6.87,7.97-6.87,14.29,0,10.78,2.33,19.51,25.37,19.51,25.37,0,27.7-8.74,27.7-19.51,0-7.46-6.56-13.94-15.25-17.22Z"/><path class="ah" d="M1252.66,625.06c15.81-17.84,25.29-40.57,25.29-65.32,0-49.49-37.88-90.89-88.59-101.34,.36-2.6,1.19-6.08,3.16-9.76,4.64-8.66,12.43-12.51,15.42-13.8-4.75-.21-16.5-.06-27.66,7.49-4.71,3.19-8,6.8-10.2,9.73-1.46-7.5-3.97-16.8-8.46-26.95-3.73-8.44-7.93-15.43-11.78-20.98,.23,7.87,.01,16.86-1.05,26.72-1.01,9.32-2.59,17.71-4.35,25.04-4.04-2.53-11.58-6.5-21.89-7.82-8.67-1.11-15.81,.11-20.18,1.21,2.15,.17,9.97,1.07,15.52,7.39,2.07,2.36,3.22,4.8,3.89,6.67-42.62,14.24-71.24,53.33-71.24,96.39,0,40.13,24.91,74.94,61.36,92.24-15.11,12.81-24.04,28.65-24.04,45.79,0,42.63,55.22,77.2,123.33,77.2s123.33-34.56,123.33-77.2c0-33.53-34.15-62.05-81.86-72.72Z"/><path class="am" d="M1239.02,557.87c-24.87,19.97-71.05,0-70.1,36.81,.81,31.34-7.58,66.76,51.63,56.78,28.28-4.77,42.71-21.9,55.02-54.34,23.06-60.76-17.05-54.9-36.55-39.25Z"/><path class="am" d="M1092.69,556.45c-20.83-15.88-63.7-21.82-39.06,39.8,13.16,32.9,28.57,50.27,58.79,55.1,63.27,10.12,54.31-25.8,55.17-57.57,1.01-37.33-48.34-17.08-74.91-37.33Z"/><g><path d="M1170.68,597.26c-13.57,0-24.61-7.46-24.61-16.63s11.04-16.63,24.61-16.63,24.61,7.46,24.61,16.63-11.04,16.63-24.61,16.63Z"/><path d="M1170.68,564.5c13.29,0,24.11,7.23,24.11,16.13s-10.81,16.13-24.11,16.13-24.11-7.23-24.11-16.13,10.81-16.13,24.11-16.13m0-1c-13.87,0-25.11,7.67-25.11,17.13s11.24,17.13,25.11,17.13,25.11-7.67,25.11-17.13-11.24-17.13-25.11-17.13h0Z"/></g><polygon class="ae" points="1184.65 636.51 1175.64 643.16 1190.98 644.33 1199.71 617.89 1184.65 636.51"/><path class="ae" d="M1151.56,635.41l9.35,6.17-8.28,8.06c-.56,.57-1.33,.8-1.66,0l-11.58-30.1,12.17,15.87Z"/><g><path d="M1169.51,652.43c-25.12,0-46.34-5.82-46.34-12.7,0-1.17,.51-2.38,4.33-2.38,2.91,0,6.98,.66,12.14,1.5,8.08,1.32,18.15,2.96,29.36,2.96s21.35-1.62,29.57-2.93c5.19-.82,9.67-1.53,12.73-1.53,4,0,4.54,1.2,4.54,2.38,0,6.88-21.22,12.7-46.34,12.7Z"/><path d="M1211.31,636.86v1c4.04,0,4.04,1.27,4.04,1.88,0,5.89-18.42,12.2-45.84,12.2s-45.84-6.31-45.84-12.2c0-.66,0-1.88,3.83-1.88,2.87,0,6.92,.66,12.06,1.5,8.1,1.32,18.19,2.96,29.44,2.96s21.42-1.63,29.65-2.93c5.17-.82,9.63-1.53,12.65-1.53v-1m0,0c-7.84,0-23.97,4.46-42.3,4.46s-33.96-4.46-41.5-4.46c-3.1,0-4.83,.75-4.83,2.88,0,7.29,20.97,13.2,46.84,13.2s46.84-5.91,46.84-13.2c0-2.12-1.82-2.88-5.04-2.88h0Z"/></g><g><path class="ae" d="M1138.03,571.74c-2.36,0-5.07-.04-8.19-.09-4.3-.07-9.17-.14-14.98-.14-22.96,0-37.2-5.05-37.2-30.21,0-16.66,16.69-30.21,37.2-30.21s37.2,13.55,37.2,30.21c0,5.95,.25,10.78,.46,14.66,.39,7.34,.6,11.39-1.36,13.45-1.87,1.97-5.88,2.33-13.12,2.33Z"/><path d="M1114.86,511.59c20.23,0,36.7,13.33,36.7,29.71,0,5.96,.25,10.8,.46,14.69,.38,7.2,.59,11.17-1.22,13.08-1.73,1.83-5.82,2.17-12.76,2.17-2.35,0-5.05-.04-8.18-.09-4.3-.07-9.17-.14-14.99-.14-22.66,0-36.7-4.97-36.7-29.71,0-16.38,16.46-29.71,36.7-29.71m0-1c-20.82,0-37.7,13.75-37.7,30.71,0,27.02,16.88,30.71,37.7,30.71,10.12,0,17.62,.23,23.17,.23,20.11,0,14.53-3.02,14.53-30.94,0-16.96-16.88-30.71-37.7-30.71h0Z"/></g><g><path class="q" d="M1115.45,571.57c-16.27,0-29.51-11.89-29.51-26.51s13.24-26.51,29.51-26.51,29.51,11.89,29.51,26.51-13.24,26.51-29.51,26.51Z"/><path d="M1115.45,519.04c16,0,29.01,11.67,29.01,26.01s-13.01,26.01-29.01,26.01-29.01-11.67-29.01-26.01,13.01-26.01,29.01-26.01m0-1c-16.57,0-30.01,12.09-30.01,27.01s13.44,27.01,30.01,27.01,30.01-12.09,30.01-27.01-13.44-27.01-30.01-27.01h0Z"/></g><g><path d="M1115.45,565.98c-12.85,0-23.3-9.39-23.3-20.92s10.45-20.92,23.3-20.92,23.3,9.39,23.3,20.92-10.45,20.92-23.3,20.92Z"/><path d="M1115.45,524.63c12.57,0,22.8,9.16,22.8,20.42s-10.23,20.42-22.8,20.42-22.8-9.16-22.8-20.42,10.23-20.42,22.8-20.42m0-1c-13.14,0-23.8,9.59-23.8,21.42s10.66,21.42,23.8,21.42,23.8-9.59,23.8-21.42-10.66-21.42-23.8-21.42h0Z"/></g><g><path class="ae" d="M1203.01,571.88c-7.24,0-11.26-.36-13.12-2.33-1.96-2.06-1.74-6.1-1.36-13.45,.2-3.88,.46-8.72,.46-14.67,0-16.66,16.69-30.21,37.2-30.21s37.2,13.55,37.2,30.21c0,25.16-14.23,30.21-37.2,30.21-5.82,0-10.69,.07-14.98,.14-3.12,.05-5.83,.09-8.19,.09h0Z"/><path d="M1226.19,511.73c20.23,0,36.7,13.33,36.7,29.71,0,24.74-14.04,29.71-36.7,29.71-5.82,0-10.69,.07-14.99,.14-3.13,.05-5.83,.09-8.18,.09-6.94,0-11.03-.35-12.76-2.17-1.81-1.9-1.6-5.87-1.22-13.08,.2-3.89,.46-8.73,.46-14.69,0-16.38,16.46-29.71,36.7-29.71m0-1c-20.82,0-37.7,13.75-37.7,30.71,0,27.92-5.59,30.94,14.53,30.94,5.55,0,13.05-.23,23.17-.23,20.82,0,37.7-3.69,37.7-30.71,0-16.96-16.88-30.71-37.7-30.71h0Z"/></g><g><ellipse class="p" cx="1225.6" cy="545.19" rx="29.51" ry="26.51"/><path d="M1225.6,519.18c16,0,29.01,11.67,29.01,26.01s-13.01,26.01-29.01,26.01-29.01-11.67-29.01-26.01,13.01-26.01,29.01-26.01m0-1c-16.57,0-30.01,12.09-30.01,27.01s13.44,27.01,30.01,27.01,30.01-12.09,30.01-27.01-13.44-27.01-30.01-27.01h0Z"/></g><g><path d="M1225.6,566.11c-12.85,0-23.3-9.39-23.3-20.92s10.45-20.92,23.3-20.92,23.3,9.39,23.3,20.92-10.45,20.92-23.3,20.92Z"/><path d="M1225.6,524.77c12.57,0,22.8,9.16,22.8,20.42s-10.23,20.42-22.8,20.42-22.8-9.16-22.8-20.42,10.23-20.42,22.8-20.42m0-1c-13.14,0-23.8,9.59-23.8,21.42s10.66,21.42,23.8,21.42,23.8-9.59,23.8-21.42-10.66-21.42-23.8-21.42h0Z"/></g><path class="ae" d="M1214,710.53c4.29,26.05-15.17,60.52-27.41,60.52s-6.76-37.01-18.08-61.08c-24.35-51.79-14-24.99,14.58-29.43,12.08-1.88,26.24,1.67,30.91,29.98Z"/><path class="r" d="M1173.86,517.52c.4-2.85,1.53-8.01,5.25-13.2,5.67-7.91,13.61-10.67,16.33-11.48"/><path class="t" d="M1170.94,517.52c-1.16-3.14-4.01-9.49-10.5-14.92-4.86-4.07-9.78-5.97-12.83-6.89"/><path class="t" d="M1172.11,520.97c.65,5.17,1.1,10.94,1.17,17.22,.06,5.38-.18,10.37-.58,14.92"/><g><path class="t" d="M1088.45,688.69c-.98,11.66-1.44,37.41,13.85,59.6,4.76,6.91,11.28,16.08,23.05,18.9,1.48,.35,14.33,3.23,24.61-4.59,11.31-8.6,15.28-26.94,8.16-44.19"/><path class="t" d="M1135.37,767.19c-17.06-9.83-34.59-6.94-40.82,2.3-4.7,6.96-3.18,17.83,2.33,24.11,11.52,13.1,43.33,9.57,59.48-6.89,15.55-15.84,17.11-44.21,1.75-68.3"/></g><g><path class="t" d="M1261.54,700.61c16.08,28.91,20.42,54.36,11.54,61.98-3.32,2.85-9.02,3.67-12.37,4.15-1.93,.28-15.38,2.05-24.61-4.59-10.71-7.71-14.7-26.03-8.16-44.19"/><path class="t" d="M1250.68,766.74c17.06-9.83,34.59-6.94,40.82,2.3,4.7,6.96,3.18,17.83-2.33,24.11-11.52,13.1-43.33,9.57-59.48-6.89-15.55-15.84-17.11-44.21-1.75-68.3"/></g><path class="ab" d="M1316.15,745.38c1.15-.6,3.16-1.48,5.83-1.72,2.55-.23,4.6,.21,5.83,.57"/><ellipse class="ae" cx="1234.86" cy="542.18" rx="4.04" ry="4.17"/><ellipse class="ae" cx="1106.89" cy="540.97" rx="4.04" ry="4.17"/><text/></svg>