<?xml version="1.0" encoding="UTF-8"?><svg id="a" xmlns="http://www.w3.org/2000/svg" width="1600" height="900" xmlns:xlink="http://www.w3.org/1999/xlink" viewBox="0 0 1600 900"><defs><style>.w{fill:url(#e);}.x{fill:url(#d);}.y{fill:url(#p);}.a`{fill:url(#q);}.aa{fill:url(#m);}.ab{fill:url(#l);}.ac,.ad,.ae,.af,.ag,.ah,.ai,.aj,.ak,.al,.am,.an,.ao,.ap,.aq,.ar{stroke-miterlimit:10;}.ac,.ad,.ae,.af,.ah,.ai,.aj,.ak,.al,.am,.an,.ap,.aq,.ar{stroke:#000;}.ac,.ae{fill-rule:evenodd;}.ac,.ar{fill:none;}.as{font-family:PacFont, PacFont;font-size:100.85px;}.at{letter-spacing:-.02em;}.au{letter-spacing:-.03em;}.av{fill:#f4000d;}.aw,.aj{fill:#ed7b33;}.ax,.af,.ai{fill:#fff;}.ay{fill:#ffddf1;}.b`{fill:#e84033;}.ba{fill:#ff7baa;}.bb{fill:#ff931e;}.bc{fill:#ff93aa;}.bd,.ah{fill:#744500;}.be{fill:#6a9b52;}.bf{fill:#8cc63f;}.bg,.am{fill:#42210b;}.bh,.an{fill:#3c91bb;}.bi{fill:#5b483d;}.bj,.al{fill:#2a1700;}.bk,.ap{fill:#569218;}.bl,.aq{fill:#5f3300;}.bm{filter:url(#j);}.bm,.bn,.bo{fill:#ffddfc;}.bn{filter:url(#n);}.bo{filter:url(#b);}.bp{filter:url(#r);}.bq{filter:url(#s);}.br{filter:url(#f);}.bs{filter:url(#g);}.bt{filter:url(#h);}.bu{filter:url(#i);}.bv{filter:url(#t);}.bw{filter:url(#u);}.bx{filter:url(#v);}.ae,.ao{fill:#603813;}.af{font-size:96.1px;}.af,.by{font-family:PostinoStd, Postino Std;}.ag{fill:#f0d6a5;stroke:#bf9b71;}.ak{fill:#b47143;}.ao{stroke:#42210b;}.by{font-size:55.36px;}</style><filter id="b" filterUnits="userSpaceOnUse"><feOffset dx="0" dy="0"/><feGaussianBlur result="c" stdDeviation="5"/><feFlood flood-color="#000" flood-opacity=".75"/><feComposite in2="c" operator="in"/><feComposite in="SourceGraphic"/></filter><linearGradient id="d" x1="-8266.47" y1="468.25" x2="-8233.51" y2="468.25" gradientTransform="translate(-7846.28 835.68) rotate(174.75) scale(1 -1)" gradientUnits="userSpaceOnUse"><stop offset="0" stop-color="#cadef2"/><stop offset=".06" stop-color="#c0daf0"/><stop offset=".17" stop-color="#a7d0ec"/><stop offset=".31" stop-color="#7dbfe5"/><stop offset=".47" stop-color="#44a9db"/><stop offset=".57" stop-color="#1e9ad5"/><stop offset=".87" stop-color="#0075bc"/><stop offset=".99" stop-color="#005b95"/></linearGradient><linearGradient id="e" x1="451.54" y1="468.63" x2="484.5" y2="468.63" gradientTransform="translate(-34.86 118.27) rotate(-5.25)" xlink:href="#d"/><filter id="f"><feGaussianBlur in="SourceAlpha" result="blur" stdDeviation="2"/><feOffset dx="4" dy="4" in="blur" result="offsetBlurredAlpha"/><feMerge><feMergeNode in="offsetBlurredAlpha"/><feMergeNode in="SourceGraphic"/></feMerge></filter><filter id="g"><feGaussianBlur in="SourceAlpha" result="blur" stdDeviation="2"/><feOffset dx="4" dy="4" in="blur" result="offsetBlurredAlpha"/><feMerge><feMergeNode in="offsetBlurredAlpha"/><feMergeNode in="SourceGraphic"/></feMerge></filter><filter id="h"><feGaussianBlur in="SourceAlpha" result="blur" stdDeviation="2"/><feOffset dx="4" dy="4" in="blur" result="offsetBlurredAlpha"/><feMerge><feMergeNode in="offsetBlurredAlpha"/><feMergeNode in="SourceGraphic"/></feMerge></filter><filter id="i"><feGaussianBlur in="SourceAlpha" result="blur" stdDeviation="2"/><feOffset dx="4" dy="4" in="blur" result="offsetBlurredAlpha"/><feMerge><feMergeNode in="offsetBlurredAlpha"/><feMergeNode in="SourceGraphic"/></feMerge></filter><filter id="j" filterUnits="userSpaceOnUse"><feOffset dx="0" dy="0"/><feGaussianBlur result="k" stdDeviation="5"/><feFlood flood-color="#000" flood-opacity=".75"/><feComposite in2="k" operator="in"/><feComposite in="SourceGraphic"/></filter><linearGradient id="l" x1="1356.98" y1="515.39" x2="1401.65" y2="515.39" gradientTransform="translate(207.11 -332.03) rotate(18.45)" xlink:href="#d"/><linearGradient id="m" x1="-9716.12" y1="515.69" x2="-9671.45" y2="515.69" gradientTransform="translate(-7749.82 -2986.58) rotate(-161.55) scale(1 -1)" xlink:href="#d"/><filter id="n" filterUnits="userSpaceOnUse"><feOffset dx="0" dy="0"/><feGaussianBlur result="o" stdDeviation="5"/><feFlood flood-color="#000" flood-opacity=".75"/><feComposite in2="o" operator="in"/><feComposite in="SourceGraphic"/></filter><linearGradient id="p" x1="-8028.74" y1="664.71" x2="-7992.11" y2="664.71" gradientTransform="translate(-7685.93 2129.19) rotate(165.28) scale(1 -1)" xlink:href="#d"/><linearGradient id="q" x1="219.31" y1="663.16" x2="255.95" y2="663.16" gradientTransform="translate(-99.21 135.55) rotate(-14.72)" xlink:href="#d"/><filter id="r"><feGaussianBlur in="SourceAlpha" result="blur" stdDeviation="2"/><feOffset dx="4" dy="4" in="blur" result="offsetBlurredAlpha"/><feMerge><feMergeNode in="offsetBlurredAlpha"/><feMergeNode in="SourceGraphic"/></feMerge></filter><filter id="s"><feGaussianBlur in="SourceAlpha" result="blur" stdDeviation="2"/><feOffset dx="4" dy="4" in="blur" result="offsetBlurredAlpha"/><feMerge><feMergeNode in="offsetBlurredAlpha"/><feMergeNode in="SourceGraphic"/></feMerge></filter><filter id="t"><feGaussianBlur in="SourceAlpha" result="blur" stdDeviation="2"/><feOffset dx="4" dy="4" in="blur" result="offsetBlurredAlpha"/><feMerge><feMergeNode in="offsetBlurredAlpha"/><feMergeNode in="SourceGraphic"/></feMerge></filter><filter id="u"><feGaussianBlur in="SourceAlpha" result="blur" stdDeviation="2"/><feOffset dx="4" dy="4" in="blur" result="offsetBlurredAlpha"/><feMerge><feMergeNode in="offsetBlurredAlpha"/><feMergeNode in="SourceGraphic"/></feMerge></filter><filter id="v"><feGaussianBlur in="SourceAlpha" result="blur" stdDeviation="2"/><feOffset dx="4" dy="4" in="blur" result="offsetBlurredAlpha"/><feMerge><feMergeNode in="offsetBlurredAlpha"/><feMergeNode in="SourceGraphic"/></feMerge></filter></defs><rect class="ag" x="-24.98" y="-22.98" width="1650" height="942"/><g><path class="be" d="M479.07,589.74c-1.51-3.74-1.58-4.64-1.36-4.75,.48-.23,2.26,3.21,3.74,2.9,1.34-.29,1.42-3.47,2.2-3.46,.85,0,1.15,3.81,2.13,3.86,1.05,.06,1.65-4.31,2.97-4.35,.77-.02,1.47,1.43,2.04,3.06"/><path class="be" d="M451.03,604.21c-1.03-5.57-.59-7.08,.08-7.33,1.48-.55,4.55,4.93,6.45,4.26,1.58-.55,.88-4.83,2.03-5.07,.79-.17,1.93,1.68,2.97,3.78"/><path class="bl" d="M490.32,660.5c8.44,12.63-3.61,8.59-15.47,9.62-11.86,1.03-23-7.22-23.34-10.7s6.87,3.22,18.34-.32c11.33-3.5,18.5-1.54,20.47,1.4Z"/><path class="aq" d="M450.93,660.11c-.67,.81-4.12,5.13-2.92,10.44,.22,.97,.54,2.39,1.67,3.67,4.13,4.68,14.13,1.9,17.16,1.05,2.38-.66,6.02-1.96,10.04-4.69"/><path class="aq" d="M474.96,664.38c-.14,.47-2.11,7.48,1.35,13.87,.59,1.09,3.79,6.05,8.48,6.26,4.98,.22,10.51-4.99,11.85-13.1"/><path class="ah" d="M512.44,508c1.15,11.9-6.63,22.3-17.39,23.23-10.76,.94-7.97-20.16-21.57-19.85-24.44,.56,.07-15.01,17.39-23.23,19.43-9.23,20.42,7.95,21.57,19.85Z"/><path class="bo" d="M501.45,509.85c.49,5.08-3.03,9.53-7.87,9.96s-9.16-3.35-9.65-8.43c-.49-5.08,3.23-8.64,7.87-9.96,11.01-3.13,9.16,3.35,9.65,8.43Z"/><path class="ah" d="M407.39,519.24c-14.6,7.32-13.22,20.63-23.42,21.52s-11.57-9.5-13.51-18.31c-3.64-16.48-.59-29.73,14.85-25.7,9.78,2.55,31.03,18.01,22.08,22.49Z"/><path class="ay" d="M395.47,518.03c.52,5.34-3.2,10.03-8.3,10.47s-9.66-3.53-10.18-8.87c-.52-5.34-1.16-11.92,8.3-10.47,5.03,.77,9.66,3.53,10.18,8.87Z"/><path class="bd" d="M544.21,607.28s3.44,2.84-1.04,10.34c-4.48,7.5-8.92,6.35-8.92,6.35,4.97,2.52,11.23,.83,13.98-3.78,2.75-4.61,.95-10.39-4.02-12.92Z"/><path class="ah" d="M537.86,642.9c.62-3.2,.73-7.35,1.86-12.11,2.9-12.27-2.36-24.31-13.57-16.9-5.35,3.54-9.23,9.04-10.09,18.96-.5,5.76,1.52,10.23,4.52,13.12-2.23,1.92-3.46,4.55-3.14,7.9,.55,5.71,2.32,10.22,15.3,9.09,14.3-1.24,15.16-5.98,14.61-11.69-.38-3.95-4.42-7.06-9.48-8.37Z"/><path class="bd" d="M491.75,579.43c8-10.22,12.17-22.72,10.9-35.83-2.54-26.21-26.02-46.27-55.15-49.32,.07-1.4,.36-3.28,1.28-5.32,2.17-4.81,6.36-7.23,7.98-8.06-2.69,.12-9.31,.78-15.21,5.32-2.49,1.92-4.16,3.99-5.25,5.65-1.21-3.9-3.1-8.7-6.15-13.86-2.54-4.28-5.26-7.78-7.72-10.53,.53,4.16,.87,8.93,.78,14.2-.09,4.98-.55,9.51-1.17,13.47-2.41-1.14-6.86-2.88-12.74-3.07-4.94-.16-8.9,.83-11.32,1.63,1.22-.01,5.68,.08,9.13,3.16,1.29,1.15,2.06,2.38,2.54,3.34-23.29,9.63-37.42,31.73-35.21,54.53,2.06,21.25,17.89,38.46,39.33,45.84-7.86,7.52-12.08,16.35-11.2,25.43,1.32,13.61,13.59,21.42,20.45,25.77,18.36,11.64,38.28,10.15,53.03,9.06,14.15-1.04,28.06-2.07,41.94-11.53,4.48-3.06,25.26-17.22,23.62-35.39-1.52-16.81-21.84-33.05-49.88-34.49Z"/><path class="bj" d="M482.28,548.19c-10.57,9.59-30.45,5.88-36.19,14.64-1.52,2.31-1.28,4.59-1.44,8.29-.18,4.34-.63,15.54,7.63,22.8,8.96,7.87,21.56,5.31,24.39,4.73,7.01-1.42,11.65-4.79,13.57-6.28,6.93-5.38,11.21-13.58,14.66-25.19,9.88-33.31-12.43-28.24-22.62-18.99Z"/><path class="bj" d="M399.72,554.61c-16.52-2.3-20.82-4.29-23.62-1.17-3.35,3.74-3.39,11.18,3.65,24.15,2.56,4.72,7.46,15.34,19.65,22.06,3.77,2.08,8.78,4.93,15.89,5.12,8.36,.22,17.86-3.24,23.86-10.99,.64-.83,8.76-11.66,4.71-23.08-1.16-3.26-2.91-5.46-3.62-6.29-6.72-7.87-16.43-6.46-40.52-9.8Z"/><g><path d="M443.88,572.24c-6.77,0-12.19-3.21-12.61-7.47-.16-1.6,.41-3.24,1.64-4.72,2.28-2.74,6.46-4.63,11.17-5.04,.63-.05,1.26-.08,1.89-.08,6.77,0,12.19,3.21,12.61,7.47,.16,1.6-.41,3.24-1.64,4.72-2.28,2.74-6.46,4.63-11.17,5.04-.63,.05-1.26,.08-1.88,.08Z"/><path d="M445.97,555.43c6.52,0,11.72,3.02,12.11,7.02,.14,1.47-.39,2.97-1.53,4.35-2.2,2.64-6.25,4.46-10.83,4.86-.61,.05-1.23,.08-1.84,.08-6.52,0-11.72-3.02-12.11-7.02-.14-1.47,.39-2.97,1.53-4.35,2.2-2.64,6.25-4.46,10.83-4.86,.61-.05,1.23-.08,1.84-.08m0-1c-.63,0-1.28,.03-1.93,.08-7.82,.68-13.76,5.29-13.27,10.3,.45,4.59,6.14,7.92,13.1,7.92,.63,0,1.28-.03,1.93-.08,7.82-.68,13.76-5.29,13.27-10.3-.45-4.59-6.14-7.92-13.1-7.92h0Z"/></g><polygon class="ax" points="453.57 584.77 449.18 589.1 457.84 588.28 460.19 573.62 453.57 584.77"/><path class="ax" d="M434.79,586.03l5.8,2.36-3.85,4.99c-.26,.35-.66,.54-.92,.15l-9.32-14.7,8.29,7.18Z"/><g><path d="M419.17,600.57c-.23,0-.3-.05-.3-.05,0,0-.17-.47,1.79-2.54,8.12-8.56,20.07-10.42,24.57-11.12,.03,0,2.59-.39,6.75-.39,4.73,0,12.12,.51,20.41,2.94,.89,.26,1.38,.45,1.66,.58-.87,.16-2.95,.16-5.12,.17-5.4,.01-13.57,.04-22.48,1.75-8.65,1.67-16.04,4.6-20.93,6.54-2.98,1.18-5.33,2.11-6.36,2.11Z"/><path d="M451.99,585.96v1c4.54,0,11.53,.47,19.42,2.68-.77,.01-1.63,.01-2.47,.02-5.42,.01-13.62,.04-22.57,1.76-8.7,1.68-16.11,4.62-21.02,6.57-2.44,.97-4.59,1.82-5.72,2.03,.22-.34,.63-.88,1.41-1.7,8-8.44,19.83-10.28,24.28-10.97,.1-.02,2.57-.39,6.67-.39v-1m0,0c-4.25,0-6.82,.4-6.82,.4-5.11,.8-16.78,2.76-24.86,11.27-1.87,1.97-2.09,2.76-1.86,3.15,.12,.2,.36,.29,.72,.29,2.9,0,13.32-5.96,27.38-8.67,14.97-2.89,28.19-.96,28.29-2.31,.03-.45-1.42-.9-2.31-1.16-8.21-2.41-15.54-2.96-20.55-2.96h0Z"/></g><g><path class="ax" d="M407.29,561.53c-8.1,0-10.38-2-11.89-3.32-2.48-2.17-4.02-5.05-4.64-8.63-.38-2.23-.19-4.81,.55-7.48,.17-.6,4.22-14.73,13.73-16.15,.32-.05,.66-.07,.99-.07,3.46,0,7.53,2.6,14.91,7.33l.23,.15c7.55,4.83,10.96,7.15,12.74,11.38,.04,.09,3.55,8.6-.66,13.61-1.74,2.07-5.19,2.19-10.92,2.39-2.68,.09-5.72,.2-9.37,.52-2.06,.18-3.97,.27-5.68,.27Z"/><path d="M406.03,526.39h0c3.31,0,7.34,2.58,14.65,7.26l.22,.14c7.46,4.78,10.83,7.06,12.55,11.15,.03,.08,3.43,8.31-.58,13.09-1.59,1.9-4.97,2.02-10.55,2.21-2.69,.09-5.73,.2-9.39,.52-2.05,.18-3.94,.27-5.63,.27-7.91,0-10.11-1.92-11.56-3.19l-.07-.06c-2.33-2.03-3.81-4.82-4.41-8.29-.37-2.15-.18-4.66,.54-7.25,.16-.59,4.14-14.42,13.33-15.79,.3-.04,.61-.07,.91-.07m0-1c-.36,0-.71,.03-1.06,.08-9.74,1.45-13.85,15.46-14.14,16.51-1.11,3.96-.74,6.69-.57,7.69,.21,1.21,.95,5.57,4.74,8.88,1.56,1.36,3.88,3.5,12.29,3.5,1.66,0,3.55-.08,5.72-.27,11.86-1.03,17.92,.14,20.63-3.09,4.35-5.19,.91-13.7,.74-14.12-1.88-4.46-5.59-6.9-12.93-11.61-7.62-4.88-11.77-7.56-15.41-7.56h0Z"/></g><g><path class="x" d="M411.59,561.34c-8.46,0-15.36-5.36-16.05-12.46-.32-3.25,.75-6.52,2.99-9.21,2.83-3.4,7.23-5.59,12.08-6.01,.57-.05,1.15-.07,1.71-.07,8.46,0,15.36,5.36,16.05,12.46,.32,3.25-.75,6.52-2.99,9.21-2.83,3.4-7.23,5.59-12.08,6.01-.57,.05-1.15,.07-1.71,.07h0Z"/><path d="M412.33,534.08c8.2,0,14.89,5.16,15.55,12.01,.3,3.11-.72,6.25-2.88,8.85-2.74,3.3-7.02,5.42-11.74,5.83-.56,.05-1.12,.07-1.67,.07-8.2,0-14.89-5.16-15.55-12.01-.3-3.11,.72-6.25,2.88-8.85,2.74-3.3,7.02-5.42,11.74-5.83,.56-.05,1.12-.07,1.67-.07m0-1c-.58,0-1.17,.03-1.76,.08-9.34,.81-16.29,7.87-15.53,15.77,.72,7.4,7.95,12.91,16.55,12.91,.58,0,1.17-.03,1.76-.08,9.34-.81,16.29-7.87,15.53-15.77-.72-7.4-7.95-12.91-16.55-12.91h0Z"/></g><g><path d="M411.67,558.36c-6.66,0-12.08-4.21-12.62-9.79-.25-2.55,.59-5.12,2.35-7.23,2.22-2.67,5.69-4.4,9.51-4.73,.45-.04,.91-.06,1.35-.06,6.66,0,12.08,4.21,12.62,9.79,.25,2.55-.59,5.11-2.35,7.23-2.22,2.67-5.69,4.4-9.51,4.73-.45,.04-.91,.06-1.35,.06Z"/><path d="M412.25,537.05h0c6.4,0,11.61,4.01,12.13,9.34,.23,2.41-.56,4.85-2.23,6.86-2.14,2.57-5.48,4.23-9.17,4.55-.43,.04-.87,.06-1.31,.06-6.4,0-11.61-4.01-12.13-9.34-.23-2.41,.56-4.85,2.23-6.86,2.14-2.57,5.48-4.23,9.17-4.55,.43-.04,.87-.06,1.31-.06m0-1c-.46,0-.93,.02-1.39,.06-7.41,.64-12.92,6.25-12.32,12.51,.57,5.87,6.31,10.24,13.12,10.24,.46,0,.93-.02,1.39-.06,7.41-.64,12.92-6.25,12.31-12.51-.57-5.87-6.31-10.24-13.12-10.24h0Z"/></g><g><path class="ax" d="M459.36,557.69c-1.92,0-3.2-.36-4.13-1.17-4.18-3.61-3.4-10.92-2.28-14.67,1.37-4.58,4.29-7.26,7.99-10.67,6.84-6.3,11.37-10.46,17.12-10.46,.38,0,.76,.02,1.15,.05,6.59,.62,14.48,7.51,15.75,17.55,.23,1.81,.91,7.19-2.48,11.46-3.47,4.37-10.1,5.51-16.74,6.09-3.67,.32-6.7,.73-9.37,1.1-2.9,.4-5.18,.71-7.01,.71Z"/><path d="M478.06,521.23c.36,0,.73,.02,1.1,.05,7.96,.75,14.33,9.46,15.3,17.15,.22,1.72,.88,6.95-2.38,11.05-3.36,4.23-9.86,5.33-16.39,5.9-3.68,.32-6.71,.74-9.39,1.1-2.88,.39-5.15,.71-6.94,.71s-2.97-.32-3.81-1.05c-1.88-1.62-4.44-6.43-2.13-14.15,1.33-4.44,4.2-7.09,7.85-10.44,6.76-6.22,11.22-10.33,16.79-10.33m0-1c-5.95,0-10.66,4.33-17.46,10.59-3.89,3.57-6.75,6.28-8.13,10.89-1.16,3.88-1.93,11.42,2.43,15.19,1.1,.95,2.53,1.29,4.46,1.29,3.52,0,8.68-1.14,16.42-1.81,7.29-.63,13.65-1.95,17.09-6.28,3.54-4.46,2.81-10.07,2.58-11.83-1.02-8.11-7.65-17.18-16.2-17.99-.4-.04-.8-.06-1.19-.06h0Z"/></g><g><path class="w" d="M473.69,556.01c-8.46,0-15.36-5.36-16.05-12.46-.32-3.25,.75-6.52,2.99-9.21,2.83-3.4,7.23-5.59,12.08-6.01,.57-.05,1.15-.07,1.71-.07,8.46,0,15.36,5.36,16.05,12.46,.32,3.25-.75,6.52-2.99,9.21-2.83,3.4-7.23,5.59-12.08,6.01-.57,.05-1.15,.07-1.71,.07h0Z"/><path d="M474.43,528.75c8.2,0,14.89,5.16,15.55,12.01,.3,3.11-.72,6.25-2.88,8.85-2.74,3.3-7.02,5.42-11.74,5.83-.56,.05-1.12,.07-1.67,.07-8.2,0-14.89-5.16-15.55-12.01-.3-3.11,.72-6.25,2.88-8.85,2.74-3.3,7.02-5.42,11.74-5.83,.56-.05,1.12-.07,1.67-.07m0-1c-.58,0-1.17,.03-1.76,.08-9.34,.81-16.29,7.87-15.53,15.77,.72,7.4,7.95,12.91,16.55,12.91,.58,0,1.17-.03,1.76-.08,9.34-.81,16.29-7.87,15.53-15.77-.72-7.4-7.95-12.91-16.55-12.91h0Z"/></g><g><path d="M473.76,553.04c-6.66,0-12.08-4.21-12.62-9.79-.25-2.55,.59-5.11,2.35-7.23,2.22-2.67,5.69-4.4,9.51-4.73,.46-.04,.91-.06,1.35-.06,6.66,0,12.08,4.21,12.62,9.79,.25,2.55-.59,5.12-2.35,7.23-2.22,2.67-5.69,4.4-9.51,4.73-.45,.04-.9,.06-1.35,.06h0Z"/><path d="M474.35,531.73c6.4,0,11.61,4.01,12.13,9.34,.23,2.41-.56,4.85-2.23,6.86-2.14,2.57-5.48,4.23-9.17,4.55-.43,.04-.87,.06-1.31,.06-6.4,0-11.61-4.01-12.13-9.34-.23-2.41,.56-4.85,2.23-6.86,2.14-2.57,5.48-4.23,9.17-4.55,.43-.04,.87-.06,1.31-.06m0-1c-.46,0-.93,.02-1.39,.06-7.41,.64-12.92,6.25-12.32,12.51,.57,5.87,6.31,10.24,13.12,10.24,.46,0,.93-.02,1.39-.06,7.41-.64,12.92-6.25,12.31-12.51-.57-5.87-6.31-10.24-13.12-10.24h0Z"/></g><path class="ax" d="M473.04,626.69c3.76,13.59-5.44,32.79-12.34,33.39s-5.71-19.27-13.33-31.46c-16.39-26.23-9.17-12.55,6.71-16.3,6.71-1.59,14.88-.4,18.96,14.36Z"/><path class="ac" d="M443.47,530.02c1.59-2.87,3.36-4.66,4.68-5.76,1.46-1.22,2.35-1.58,3.66-2.86,1.92-1.89,2.89-3.96,3.41-5.39"/><path class="ah" d="M441.83,530.16c-.53-.66-1.37-1.6-2.54-2.58-2.06-1.72-3.76-2.36-5.57-3.33-1.59-.85-3.77-2.23-6.16-4.49"/><path class="ah" d="M442.66,531.93c.63,2.7,1.18,5.74,1.54,9.06,.31,2.84,.43,5.5,.44,7.93"/><path class="ah" d="M402.45,621.16c-.44,4.88-.71,16.39,6.6,27.43,2.37,3.59,10.37,15.67,22.53,15.86,1.4,.02,6.82,.11,11.01-3.5,5.62-4.85,6.76-14.42,2.33-23.8"/><path class="ah" d="M434.6,664.11c-10.12-4.37-19.85-1.98-22.89,3.22-2.29,3.92-.88,9.6,2.55,12.65,7.17,6.37,24.92,2.94,33.17-6.56,7.95-9.15,7.37-24.25-2.52-36.25"/><path class="ah" d="M499.46,620.37c12.07,15.84,17.09,30,12.54,34.56-1.65,1.65-4.91,2.39-6.76,2.8-1.06,.24-8.56,1.84-14.11-1.23-6.43-3.56-9.62-13.06-6.87-23"/><path class="ah" d="M499.58,658.22c9.11-6.04,19.14-5.37,23.13-.78,3.01,3.46,2.71,9.29-.08,12.88-5.82,7.5-23.93,7.19-33.88-.73-9.58-7.63-11.92-22.57-4.5-36.08"/><path class="aq" d="M531.48,644.04c.62-.38,1.71-.94,3.2-1.2,1.42-.25,2.61-.11,3.32,.02"/><ellipse class="ax" cx="407.34" cy="545.18" rx="2.22" ry="2.29" transform="translate(-166.42 911.16) rotate(-85.77)"/><ellipse class="ax" cx="480.28" cy="538.79" rx="2.22" ry="2.29" transform="translate(-92.49 978) rotate(-85.77)"/><g class="br"><path class="aw" d="M420.71,377.34c10.89,16.95,34.27,40.62,41.61,36.38,7.34-4.23-3.72-36.18-14.61-53.13-10.89-16.95-13.81-10.36-21.68-6.27-7.53,3.92-16.2,6.06-5.31,23.01Z"/><path class="ar" d="M424.8,371.5c1.45-1.61,4.13-4.15,8.27-5.99,2.84-1.26,5.44-1.78,7.32-2"/><path class="aj" d="M445.16,373.09c-1.85,.54-4.45,1.51-7.16,3.33-2.26,1.51-3.88,3.12-4.99,4.41"/><path class="aj" d="M439.23,387.98c.82-.94,2.46-2.57,5.08-3.73,2.84-1.26,5.4-1.34,6.71-1.29"/><path class="aj" d="M455.2,393.28c-1.17,.03-3.15,.22-5.36,1.16-1.07,.46-2.82,1.35-4.47,3.03"/><path class="ap" d="M429.47,357.41c-.27-.37-6,2.79-5.84,3.14,.04,.08,.35,0,.68-.06,2.85-.62,5.35-2.82,5.16-3.08Z"/><path class="bk" d="M389.35,317.54c3.32-2.12,7.34,1.43,10.72,6.19,2.16,3.04,6.68,6.24,9.98,9.11l.16-.08c-2.01-1.36-3.77-3.72-3.56-6.82,.18-2.62,1.67-5.12,2.99-5.24s2.63,1.89,2.91,4.5c.23,2.2,2.67,6,2.89,7.7,.01,.1,.04,.19,.09,.28l.61,1.06c.28,.49,1.01,.53,1.33,.07,1.09-1.58,3.37-3.17,4.48-3.28,1.53-.15,.27,2.58,.47,4.44,.14,1.27-.43,4.79-1.3,6.94-.08,.2-.07,.43,.04,.62h0c.33,.57,1.22,.49,1.42-.12,1.43-4.27,4.59-10.46,7.54-12.69,4.41-3.34,9.67-4.16,11.04-2.98,5.51,4.75-4.38,3.13-6.86,7.94-4.59,8.89-7.3,12.6-8.99,13.82-.3,.22-.39,.61-.21,.93l4.24,7.41c.2,.36,.06,.81-.31,1l-4.33,2.22c-.38,.19-.85,.06-1.06-.3l-3.06-5.36c-.31-.54-1.14-.5-1.4,.07-.56,1.22-1.31,2.5-2.24,3.77-3.28,4.48-7.12,5.44-9.45,5.8-4.16,.65-.09-3.29,3.27-10.33,2.16-4.53,2.17-7.53,3.78-7.9,.5-.12,.78-.62,.53-1.05l-1.31-2.29c-.27-.47-.95-.52-1.3-.1-1.7,2.06-4.52,4.17-7.29,4.44-4.5,.43-7.17-4.17-7.39-6.2s3.51-1.57,8.01-2c2.07-.2,3.93-.55,5.37-.67l-.15-.26c-5.31-.32-16.56-3.66-20.44-8.59-3.62-4.6-4.58-9.93-1.26-12.05Z"/></g><g class="bs"><path class="aw" d="M397.42,428.3c-4.89,10.57-17.04,26.29-22.35,24.81-5.31-1.48-2.24-20.31,2.66-30.88s7.64-7.29,13.28-5.96c5.4,1.28,11.31,1.46,6.41,12.03Z"/><path class="ar" d="M394.01,425.57c-1.15-.72-3.22-1.8-6.14-2.33-2.01-.36-3.76-.35-5.01-.25"/><path class="aj" d="M380.99,428.8c1.27,.08,3.08,.31,5.08,1,1.66,.57,2.92,1.27,3.81,1.84"/><path class="aj" d="M386.76,436.29c-.65-.42-1.93-1.13-3.78-1.46-2.01-.36-3.68-.11-4.53,.07"/><path class="aj" d="M377.06,441.05c.77-.12,2.08-.24,3.63,.02,.75,.13,2.01,.42,3.3,1.14"/><path class="ap" d="M389.16,418.37c.13-.23,4.26,.84,4.2,1.05-.01,.05-.23,.05-.45,.04-1.93-.01-3.84-.93-3.75-1.09Z"/><path class="bk" d="M410.1,391.81c-2.43-.78-4.58,1.64-6.17,4.64-1.01,1.92-3.54,4.2-5.31,6.16l-.12-.03c1.13-.98,1.97-2.48,1.43-4.16-.45-1.42-1.74-2.62-2.62-2.53s-1.47,1.34-1.31,2.81c.13,1.24-.96,3.6-.89,4.57,0,.05,0,.11-.02,.16l-.26,.66c-.12,.3-.59,.41-.86,.19-.91-.74-2.6-1.35-3.33-1.28-1.02,.1,.15,1.45,.27,2.5,.08,.72,.9,2.58,1.73,3.66,.08,.1,.1,.23,.06,.35h0c-.14,.35-.73,.41-.94,.1-1.48-2.18-4.33-5.21-6.53-6.1-3.3-1.32-6.82-1.17-7.55-.36-2.97,3.25,3.25,1.21,5.48,3.57,4.13,4.36,6.36,6.08,7.62,6.55,.22,.09,.33,.29,.25,.49l-1.8,4.56c-.09,.22,.06,.45,.33,.51l3.1,.72c.27,.06,.56-.06,.65-.29l1.3-3.3c.13-.34,.68-.41,.92-.13,.52,.61,1.17,1.22,1.94,1.82,2.71,2.08,5.32,2.16,6.88,2.09,2.79-.13-.36-1.82-3.45-5.3-1.99-2.24-2.38-3.89-3.47-3.9-.34,0-.58-.25-.48-.51l.56-1.41c.11-.29,.55-.4,.83-.21,1.37,.93,3.47,1.77,5.31,1.59,2.98-.28,4.12-3.12,4-4.26s-2.49-.46-5.46-.17c-1.37,.13-2.63,.15-3.58,.25l.06-.16c3.41-.79,10.29-3.93,12.17-7.09,1.76-2.95,1.7-5.99-.73-6.77Z"/></g><g class="bt"><path class="aw" d="M354.5,230.22c10.89,16.95,34.27,40.62,41.61,36.38,7.34-4.23-3.72-36.18-14.61-53.13s-13.81-10.36-21.68-6.27c-7.53,3.92-16.2,6.06-5.31,23.01Z"/><path class="ar" d="M358.59,224.37c1.45-1.61,4.13-4.15,8.27-5.99,2.84-1.26,5.44-1.78,7.32-2"/><path class="aj" d="M378.95,225.96c-1.85,.54-4.45,1.51-7.16,3.33-2.26,1.51-3.88,3.12-4.99,4.41"/><path class="aj" d="M373.02,240.86c.82-.94,2.46-2.57,5.08-3.73,2.84-1.26,5.4-1.34,6.71-1.29"/><path class="aj" d="M388.99,246.15c-1.17,.03-3.15,.22-5.36,1.16-1.07,.46-2.82,1.35-4.47,3.03"/><path class="ap" d="M363.26,210.28c-.27-.37-6,2.79-5.84,3.14,.04,.08,.35,0,.68-.06,2.85-.62,5.35-2.82,5.16-3.08Z"/><path class="bk" d="M323.14,170.41c3.32-2.12,7.34,1.43,10.72,6.19,2.16,3.04,6.68,6.24,9.98,9.11l.16-.08c-2.01-1.36-3.77-3.72-3.56-6.82,.18-2.62,1.67-5.12,2.99-5.24s2.63,1.89,2.91,4.5c.23,2.2,2.67,6,2.89,7.7,.01,.1,.04,.19,.09,.28l.61,1.06c.28,.49,1.01,.53,1.33,.07,1.09-1.58,3.37-3.17,4.48-3.28,1.53-.15,.27,2.58,.47,4.44,.14,1.27-.43,4.79-1.3,6.94-.08,.2-.07,.43,.04,.62h0c.33,.57,1.22,.49,1.42-.12,1.43-4.27,4.59-10.46,7.54-12.69,4.41-3.34,9.67-4.16,11.04-2.98,5.51,4.75-4.38,3.13-6.86,7.94-4.59,8.89-7.3,12.6-8.99,13.82-.3,.22-.39,.61-.21,.93l4.24,7.41c.2,.36,.06,.81-.31,1l-4.33,2.22c-.38,.19-.85,.06-1.06-.3l-3.06-5.36c-.31-.54-1.14-.5-1.4,.07-.56,1.22-1.31,2.5-2.24,3.77-3.28,4.48-7.12,5.44-9.45,5.8-4.16,.65-.09-3.29,3.27-10.33,2.16-4.53,2.17-7.53,3.78-7.9,.5-.12,.78-.62,.53-1.05l-1.31-2.29c-.27-.47-.95-.52-1.3-.1-1.7,2.06-4.52,4.17-7.29,4.44-4.5,.43-7.17-4.17-7.39-6.2s3.51-1.57,8.01-2c2.07-.2,3.93-.55,5.37-.67l-.15-.26c-5.31-.32-16.56-3.66-20.44-8.59-3.62-4.6-4.58-9.93-1.26-12.05Z"/></g><g class="bu"><path class="aw" d="M460.36,253.54c-7.7,18.65-26.99,46.28-35.57,43.58-8.58-2.7-3.95-35.99,3.75-54.64,7.7-18.65,12.17-12.79,21.29-10.34,8.72,2.35,18.24,2.75,10.53,21.4Z"/><path class="ar" d="M454.83,248.64c-1.87-1.29-5.22-3.24-9.93-4.22-3.24-.67-6.07-.67-8.08-.52"/><path class="aj" d="M433.91,254.16c2.05,.16,4.97,.6,8.2,1.85,2.68,1.03,4.73,2.29,6.16,3.32"/><path class="aj" d="M443.34,267.53c-1.06-.76-3.13-2.03-6.12-2.65-3.24-.67-5.93-.25-7.29,.05"/><path class="aj" d="M427.8,275.8c1.23-.2,3.34-.4,5.85,.09,1.22,.24,3.24,.77,5.33,2.08"/><path class="ap" d="M446.9,235.82c.2-.41,6.87,1.55,6.78,1.92-.02,.08-.36,.08-.72,.07-3.11-.05-6.2-1.7-6.06-2Z"/><path class="bk" d="M480.16,189.13c-3.93-1.42-7.35,2.83-9.86,8.13-1.6,3.38-5.62,7.39-8.45,10.82l-.19-.05c1.81-1.72,3.13-4.36,2.24-7.34-.76-2.52-2.85-4.66-4.26-4.53s-2.34,2.35-2.06,4.96c.23,2.19-1.48,6.37-1.35,8.07,0,.1,0,.19-.03,.29l-.41,1.16c-.19,.53-.94,.71-1.38,.32-1.48-1.33-4.21-2.43-5.39-2.32-1.63,.16,.27,2.57,.47,4.42,.13,1.27,1.49,4.59,2.86,6.51,.13,.18,.17,.41,.1,.62h0c-.22,.62-1.16,.72-1.51,.16-2.42-3.88-7.06-9.3-10.62-10.9-5.33-2.39-11-2.17-12.17-.75-4.72,5.71,5.25,2.2,8.89,6.4,6.72,7.78,10.35,10.86,12.38,11.72,.36,.15,.54,.52,.42,.87l-2.82,8.05c-.14,.39,.11,.8,.54,.91l5,1.32c.44,.12,.9-.11,1.04-.5l2.04-5.82c.21-.59,1.08-.71,1.48-.21,.85,1.08,1.91,2.19,3.15,3.24,4.39,3.73,8.61,3.91,11.12,3.81,4.49-.18-.62-3.22-5.65-9.43-3.24-3.99-3.9-6.92-5.66-6.97-.55-.02-.94-.45-.78-.92l.87-2.49c.18-.51,.88-.69,1.33-.35,2.22,1.68,5.62,3.19,8.58,2.91,4.79-.46,6.58-5.46,6.37-7.48s-4.01-.85-8.8-.39c-2.2,.21-4.23,.23-5.75,.39l.1-.28c5.47-1.34,16.5-6.8,19.48-12.36,2.79-5.19,2.63-10.57-1.3-11.99Z"/></g></g><g><g><path class="bl" d="M1311.94,748.13c3.42,19.6-9.24,8.49-24.48,3.6-15.24-4.89-24.45-20.59-22.93-24.97,1.52-4.38,6.71,7.44,22.86,9.09,15.96,1.64,23.75,7.71,24.54,12.28Z"/><path class="aq" d="M1263.42,727.28c-1.27,.63-7.95,4.06-9.42,11.07-.27,1.28-.66,3.16,.02,5.29,2.5,7.78,16.42,9.59,20.64,10.14,3.31,.43,8.54,.75,15.03-.47"/><path class="aq" d="M1290.77,744.86c-.44,.5-6.77,7.92-6.05,17.42,.12,1.62,1.32,9.25,7.01,11.93,6.03,2.84,15.78-.58,21.94-9.67"/><path class="ah" d="M1424.08,575.68c-5.19,14.94-20.6,23.46-34.43,19.02-13.83-4.43,1.35-28.42-15.65-35.08-30.54-11.96,8.44-18.06,34.43-19.02,29.17-1.08,20.84,20.14,15.65,35.08Z"/><path class="bm" d="M1409.45,572.23c-2.21,6.38-9.05,9.93-15.27,7.94-6.22-1.99-9.47-8.78-7.25-15.16s8.79-8.74,15.27-7.94c15.37,1.92,9.47,8.78,7.25,15.16Z"/><path class="ah" d="M1287.87,534.92c-22.13,1.27-27.83,18.04-40.94,13.83-13.11-4.2-9.03-17.43-6.54-29.06,4.66-21.75,15.8-36.15,32.66-23.31,10.67,8.13,28.37,37.75,14.81,38.53Z"/><path class="ay" d="M1273.81,527.3c-2.33,6.71-9.53,10.44-16.09,8.34-6.56-2.1-9.99-9.25-7.66-15.95,2.33-6.71,5.2-14.97,16.09-8.34,5.8,3.53,9.99,9.25,7.66,15.95Z"/><path class="bd" d="M1408.2,711.81s2.68,5.2-7.03,11.94c-9.71,6.73-14.57,3.04-14.57,3.04,4.75,5.61,13.43,6.81,19.4,2.68,5.96-4.14,6.95-12.04,2.2-17.65Z"/><path class="ah" d="M1380.54,751.48c2.54-3.54,4.99-8.48,9.03-13.64,10.4-13.3,10.6-30.54-7.4-27.4-8.58,1.5-16.45,6.13-23.03,17.64-3.82,6.68-3.8,13.12-1.71,18.16-3.83,1.16-6.82,3.7-8.28,7.91-2.49,7.17-2.81,13.52,13.88,18.87,18.38,5.89,22.09,.63,24.57-6.54,1.72-4.96-1.54-10.8-7.07-15Z"/><path class="bd" d="M1358.77,651.11c15.58-8.19,27.69-21.1,33.4-37.56,11.42-32.91-6.47-69.25-40.8-87.98,.86-1.65,2.27-3.77,4.54-5.75,5.36-4.68,11.89-5.43,14.36-5.6-3.4-1.24-11.95-3.87-21.77-1.45-4.15,1.02-7.37,2.66-9.64,4.1,.68-5.33,1-12.09,.09-19.89-.76-6.48-2.18-12.11-3.69-16.69-1.65,5.29-3.88,11.22-6.93,17.53-2.88,5.96-5.96,11.18-8.93,15.64-2.34-2.62-6.89-7.02-14.05-10.29-6.03-2.75-11.48-3.6-14.91-3.88,1.52,.62,6.98,3.03,9.54,8.52,.95,2.05,1.23,3.94,1.28,5.34-34.17-.43-63.93,18.91-73.87,47.55-9.26,26.69,.75,55.62,23.17,75.6-13.9,5.01-24.03,13.47-27.99,24.87-5.93,17.09,4.9,32.85,10.98,41.65,16.24,23.52,41.72,32.03,60.57,38.35,18.09,6.06,35.87,12.01,58.29,7.78,7.24-1.37,40.82-7.7,48.89-30.46,7.47-21.05-8.65-51.15-42.53-67.38Z"/><path class="bj" d="M1364.43,608.55c-18.41,6.1-40.94-8.65-52.91-1.06-3.16,2-4.14,4.87-6.38,9.25-2.63,5.14-9.43,18.41-3.24,31.44,6.71,14.12,23.72,17.54,27.54,18.31,9.46,1.91,17.07,.24,20.28-.56,11.56-2.91,21.42-10.57,32.13-22.79,30.74-35.05,.32-40.47-17.42-34.59Z"/><path class="bj" d="M1258.72,573.6c-19.17-11.31-23.37-15.94-28.58-13.62-6.23,2.78-10.41,11.73-8.91,31.01,.55,7.02,.7,22.35,12.05,36.76,3.51,4.45,8.12,10.48,16.82,14.39,10.22,4.59,23.9,5.33,35.63-.91,1.25-.67,17.32-9.52,18.66-25.4,.38-4.53-.57-8.09-.98-9.46-3.94-12.96-16.73-16.28-44.68-32.77Z"/><g><path d="M1314.42,620.1c-2.81,0-5.69-.47-8.56-1.39-6.16-1.97-11.11-5.71-13.25-10-1.14-2.28-1.37-4.55-.66-6.58,1.42-4.09,6.38-6.63,12.96-6.63,2.81,0,5.69,.47,8.56,1.39,6.16,1.97,11.11,5.71,13.25,10,1.14,2.28,1.37,4.55,.66,6.58-1.42,4.09-6.38,6.63-12.96,6.63Z"/><path d="M1304.89,596h0c2.72,0,5.63,.47,8.41,1.36,6.03,1.93,10.88,5.58,12.96,9.75,1.08,2.16,1.3,4.3,.64,6.19-1.35,3.88-6.13,6.29-12.49,6.29-2.76,0-5.59-.46-8.41-1.36-6.03-1.93-10.88-5.58-12.96-9.75-1.08-2.16-1.3-4.3-.64-6.19,1.35-3.88,6.13-6.29,12.49-6.29m0-1c-6.54,0-11.9,2.54-13.43,6.97-2.18,6.29,4.19,14,14.24,17.22,2.98,.96,5.95,1.41,8.71,1.41,6.54,0,11.9-2.54,13.43-6.97,2.18-6.29-4.19-14-14.24-17.22-2.98-.96-5.95-1.41-8.71-1.41h0Z"/></g><g><path d="M1331.82,656.69c-4.47,0-20.95-4.91-34.46-12.93l-.41-.25c-2.39-1.43-6.4-3.82-10.19-3.82-1.04,0-2.01,.18-2.89,.53-.77,.31-1.42,.73-2.12,1.17-1.18,.76-2.4,1.54-4.47,1.95-.77,.16-1.48,.23-2.26,.23-.94,0-1.9-.11-3.15-.26-11.96-1.45-13.79-2.24-14.02-2.51h0s-.07-.92,4.04-3.16c6.33-3.46,13.44-5.22,21.12-5.22,7.12,0,13.2,1.53,16.11,2.26,.16,.04,16.17,4.21,31.63,19.38,1.83,1.8,2,2.36,1.98,2.52h0s-.24,.11-.92,.11Z"/><path d="M1283.02,632.93h0c7.06,0,13.09,1.52,15.99,2.25,.04,.01,4.05,1.04,9.9,3.92,5.38,2.65,13.49,7.46,21.5,15.32,.9,.88,1.36,1.43,1.6,1.77-.06,0-.12,0-.19,0-4.42,0-20.77-4.88-34.2-12.86l-.41-.25c-2.44-1.46-6.52-3.89-10.44-3.89-1.1,0-2.13,.19-3.07,.57-.82,.33-1.49,.76-2.2,1.21-1.14,.73-2.32,1.49-4.29,1.88-.73,.15-1.42,.22-2.16,.22-.92,0-1.86-.11-3.08-.25-9.5-1.15-12.48-1.86-13.4-2.22,.31-.38,1.19-1.2,3.6-2.52,6.26-3.42,13.28-5.16,20.88-5.16m0-1c-6.49,0-13.95,1.23-21.36,5.28-4.38,2.39-4.33,3.44-4.27,3.73,.08,.4,.53,1.2,14.43,2.88,1.2,.15,2.2,.26,3.2,.26,.76,0,1.52-.07,2.36-.24,3.38-.69,4.66-2.35,6.67-3.15,.87-.35,1.78-.49,2.7-.49,3.87,0,7.99,2.6,10.35,4,13.03,7.74,29.8,13,34.71,13,.77,0,1.25-.13,1.38-.4,.33-.67-1.16-2.19-2.08-3.09-15.76-15.45-31.86-19.5-31.86-19.5-3.49-.88-9.31-2.28-16.24-2.28h0Z"/></g><path class="ax" d="M1309.36,698.43c-2.9,18.32-24.96,36.73-33.83,33.88-8.87-2.84,3.64-26.18,1-44.82-5.69-40.1-4.37-19.87,17.36-16.18,9.19,1.56,18.63,7.21,15.47,27.12Z"/><path class="ac" d="M1343.8,548.85c1.2,3.15,3.35,7.31,7.28,11.14,5.75,5.62,12.26,7.57,15.62,8.53,4.3,1.23,8.03,1.56,10.58,1.63"/><g><path class="ah" d="M1225.1,655.26c-3.25,5.66-9.99,19.39-7.09,36.49,.94,5.55,4.12,24.25,19.05,30.78,1.73,.75,8.38,3.66,15.56,1.47,9.65-2.94,16.38-13.9,16.12-27.49"/><path class="ah" d="M1241.01,723.67c-10.09-10.5-23.46-12.65-30.11-7.96-5.01,3.54-6.42,11.12-3.87,16.57,5.32,11.39,29.19,16.43,44.69,9.24,14.93-6.92,22.6-25.42,17.03-45.01"/></g><g><path class="ah" d="M1345.55,704.46c6.13,25.34,4.47,45.01-3.7,48.15-2.96,1.14-7.4,.34-9.92-.11-1.44-.26-11.61-2.21-16.77-8.77-5.98-7.62-4.64-20.72,4.28-31.29"/><path class="ah" d="M1324.66,750.16c14.63-2.57,26.66,3.42,29.05,11.01,1.8,5.72-1.81,12.6-7.25,15.49-11.37,6.04-33.6-3.71-41.51-18.4-7.61-14.15-2.19-33.37,14.5-45.83"/></g><path class="aq" d="M1372.01,749.56c.97-.13,2.63-.25,4.62,.21,1.9,.44,3.29,1.21,4.09,1.74"/><g><g><g><path class="ax" d="M1362.56,614.27c-4.15,0-9.03-.97-15.82-3.15-4.21-1.35-7.76-2.43-10.89-3.39-9.5-2.9-13.84-4.22-14.9-6.47-.83-1.75,.23-4.34,2.17-9.03,1.04-2.54,2.35-5.7,3.72-9.66,2.77-7.98,11.64-13.13,22.6-13.13,3.73,0,7.49,.6,11.18,1.78,8.53,2.73,15.35,8.16,18.71,14.89,2.29,4.59,2.71,9.31,1.2,13.65-3.43,9.89-9.14,14.5-17.95,14.5h0Z"/><path d="M1349.43,569.94c3.68,0,7.39,.59,11.02,1.76,8.4,2.69,15.11,8.03,18.41,14.64,2.23,4.47,2.64,9.05,1.17,13.26-3.35,9.66-8.91,14.17-17.48,14.17-4.09,0-8.93-.96-15.67-3.13-4.22-1.35-7.77-2.44-10.9-3.39-9.08-2.77-13.63-4.16-14.6-6.2-.73-1.55,.36-4.22,2.18-8.62,1.05-2.54,2.35-5.71,3.73-9.68,2.7-7.77,11.38-12.8,22.13-12.8m0-1c-10.82,0-20.15,5.04-23.07,13.47-8.22,23.69-13.68,18.31,20.23,29.18,5.7,1.83,11.11,3.17,15.98,3.17,8.01,0,14.54-3.65,18.43-14.84,3.92-11.28-5.14-24.34-20.23-29.18-3.82-1.22-7.66-1.8-11.33-1.8h0Z"/></g><g><path class="ab" d="M1355.22,612.27c-2.66,0-5.37-.43-8.04-1.29-6.66-2.13-12.28-6.7-15.03-12.22-2.01-4.03-2.37-8.19-1.03-12.04,2.48-7.16,10.21-11.97,19.22-11.97,2.73,0,5.47,.43,8.13,1.29,6.35,2.04,11.51,6.26,14.17,11.58,2.07,4.13,2.43,8.65,1.01,12.71-2.52,7.25-9.75,11.93-18.43,11.93h0Z"/><path d="M1350.33,575.26c2.68,0,5.37,.42,7.98,1.26,6.22,1.99,11.28,6.13,13.88,11.33,2,4.01,2.36,8.39,.99,12.33-2.44,7.05-9.5,11.6-17.96,11.6-2.61,0-5.27-.43-7.89-1.27-6.53-2.1-12.04-6.57-14.74-11.97-1.95-3.9-2.3-7.93-1.01-11.65,2.41-6.96,9.95-11.63,18.75-11.63m0-1c-9.03,0-17.04,4.67-19.69,12.3-3.44,9.92,4.38,21.05,16.38,24.9,2.78,.89,5.55,1.32,8.2,1.32,8.77,0,16.26-4.65,18.91-12.27,3.44-9.92-3.5-21.09-15.51-24.94-2.77-.89-5.58-1.31-8.29-1.31h0Z"/></g><g><path d="M1354.01,608.32c-2.16,0-4.32-.34-6.42-1.02-5.01-1.61-9.08-4.94-11.18-9.13-1.62-3.25-1.91-6.81-.8-10,1.96-5.63,8.04-9.42,15.15-9.42,2.16,0,4.32,.34,6.42,1.02,5.01,1.61,9.08,4.93,11.18,9.13,1.62,3.25,1.91,6.81,.8,10-1.96,5.63-8.04,9.42-15.15,9.42h0Z"/><path d="M1350.75,579.24c2.11,0,4.21,.33,6.27,.99,4.88,1.57,8.85,4.8,10.89,8.88,1.56,3.13,1.84,6.55,.77,9.61-1.89,5.43-7.78,9.08-14.67,9.08-2.11,0-4.21-.33-6.27-.99-4.88-1.57-8.85-4.8-10.89-8.88-1.56-3.13-1.84-6.55-.77-9.62,1.89-5.43,7.78-9.08,14.67-9.08m0-1c-7.16,0-13.52,3.71-15.62,9.76-2.73,7.87,2.78,16.72,12.3,19.78,2.2,.71,4.42,1.04,6.57,1.04,7.16,0,13.52-3.71,15.62-9.76,2.73-7.87-2.78-16.72-12.3-19.78-2.2-.71-4.42-1.04-6.57-1.04h0Z"/></g></g><ellipse class="ax" cx="1343.81" cy="599.26" rx="2.93" ry="3.08" transform="translate(637.56 1890.06) rotate(-85.35)"/></g><path class="ae" d="M1378.54,604.04c-4.3,1.42-7.93-9.76-20.11-17.02-13.93-8.3-27.41-4.52-28.43-9.12-.78-3.51,6.52-8.37,12.76-10,7.3-1.91,13.5,.51,17.82,2.19,2.56,1,10.37,4.36,16.19,12.24,2.25,3.05,4.97,6.84,5.06,12.19,.01,.82,.07,8.4-3.3,9.51Z"/><path class="ac" d="M1322.33,542.51c-2.92,1.83-7.24,3.91-12.78,4.71-8.11,1.17-14.53-1.02-17.82-2.19-4.21-1.49-7.39-3.38-9.48-4.8"/><g><g><g><path class="ax" d="M1300.83,595.25c-2.61,0-6.9-1.44-14.01-3.84-3.1-1.04-6.61-2.22-10.83-3.58-8.49-2.72-16.8-6.15-20.1-12.76-2.1-4.2-2.04-9.36,.19-15.78,2.77-7.98,11.64-13.13,22.6-13.13,3.73,0,7.49,.6,11.18,1.78,8.53,2.73,15.35,8.16,18.71,14.89,2.29,4.59,2.71,9.31,1.2,13.65-1.37,3.96-2.31,7.24-3.06,9.87-1.84,6.47-2.53,8.9-5.88,8.9Z"/><path d="M1278.69,545.66v1c3.68,0,7.39,.59,11.02,1.76,8.4,2.69,15.11,8.03,18.41,14.64,2.23,4.47,2.64,9.05,1.17,13.27-1.38,3.97-2.31,7.26-3.06,9.9-1.93,6.76-2.55,8.53-5.4,8.53-2.52,0-6.79-1.43-13.85-3.81-3.1-1.04-6.61-2.22-10.83-3.58-8.38-2.69-16.59-6.06-19.8-12.51-2.04-4.07-1.96-9.11,.22-15.39,2.7-7.77,11.38-12.8,22.13-12.8v-1m0,0c-10.82,0-20.15,5.05-23.07,13.47-6.24,17.97,5.14,24.34,20.23,29.18,14.29,4.58,21.18,7.44,24.99,7.44,5.23,0,4.65-5.39,9.41-19.1,3.92-11.28-5.14-24.34-20.23-29.18-3.82-1.23-7.66-1.81-11.33-1.8h0Z"/></g><g><path class="aa" d="M1284.4,588.84c-2.93,0-5.85-.46-8.67-1.36-6.26-2.01-11.1-5.9-13.63-10.97-2.02-4.05-2.34-8.59-.88-12.79,2.48-7.16,10.21-11.97,19.22-11.97,2.73,0,5.47,.43,8.13,1.29,6.35,2.04,11.51,6.26,14.17,11.58,2.07,4.13,2.43,8.65,1.02,12.71-2.43,6.99-10.02,11.51-19.36,11.51Z"/><path d="M1280.44,551.25v1c2.68,0,5.37,.43,7.98,1.26,6.22,1.99,11.28,6.13,13.88,11.33,2,4.01,2.36,8.39,.99,12.33-2.35,6.79-9.77,11.17-18.88,11.17-2.88,0-5.75-.45-8.52-1.34-6.13-1.97-10.87-5.77-13.34-10.72-1.99-3.99-2.29-8.28-.86-12.4,2.41-6.96,9.95-11.63,18.75-11.63v-1m0,0c-9.02,0-17.04,4.67-19.69,12.3-3.44,9.92,2.82,20.55,14.83,24.4,2.92,.94,5.92,1.39,8.83,1.39,9.03,0,17.22-4.34,19.83-11.84,3.44-9.92-3.5-21.09-15.51-24.94-2.77-.89-5.57-1.31-8.29-1.31h0Z"/></g><g><path d="M1284.11,585.31c-2.16,0-4.32-.34-6.42-1.02-5.01-1.61-9.08-4.94-11.18-9.14-1.62-3.25-1.91-6.8-.8-10,1.96-5.63,8.04-9.42,15.14-9.42,2.16,0,4.32,.34,6.42,1.02,5.01,1.61,9.08,4.93,11.18,9.13,1.62,3.25,1.91,6.81,.8,10-1.96,5.63-8.04,9.42-15.15,9.42Z"/><path d="M1280.86,556.24h0c2.1,0,4.21,.33,6.27,.99,4.88,1.57,8.85,4.8,10.89,8.88,1.56,3.13,1.84,6.55,.77,9.61-1.89,5.43-7.78,9.08-14.67,9.08-2.1,0-4.21-.33-6.27-.99-4.88-1.57-8.85-4.8-10.89-8.88-1.56-3.13-1.84-6.55-.77-9.62,1.89-5.43,7.78-9.08,14.67-9.08m0-1c-7.16,0-13.52,3.71-15.62,9.76-2.73,7.87,2.78,16.72,12.3,19.78,2.2,.71,4.42,1.04,6.57,1.04,7.16,0,13.52-3.71,15.62-9.76,2.73-7.87-2.78-16.72-12.3-19.78-2.2-.71-4.42-1.04-6.57-1.04h0Z"/></g></g><ellipse class="ax" cx="1281.29" cy="576.86" rx="2.93" ry="3.08" transform="translate(602.44 1807.15) rotate(-85.35)"/></g><path class="ae" d="M1254.39,564.97c2.55,3.62,12.44-3.23,26.71-2,16.33,1.4,24.75,12.2,28.43,9.12,2.82-2.36,.01-10.46-3.96-15.36-4.65-5.74-11.11-7.39-15.62-8.53-2.67-.68-11.01-2.5-20.6,.44-3.7,1.14-8.25,2.6-11.66,6.83-.52,.65-5.3,6.68-3.3,9.51Z"/><path class="ah" d="M1334.59,536.78c-.74,3.58-1.76,7.52-3.17,11.71-1.2,3.59-2.52,6.86-3.85,9.79"/><path class="ax" d="M1310.55,642.85l-7.83,2.94c3.44,1.69,6.89,3.38,10.33,5.08,3.96-6.02,7.93-12.03,11.89-18.05l-14.39,10.03Z"/><path class="ax" d="M1281.74,633.09l5.35,6.7-7.86,3.6c-.54,.26-1.15,.23-1.2-.42l-1.43-24.13,5.15,14.25Z"/><path class="ba" d="M1311.9,643.46c.11,1.04-.36,2.63,.41,4.78,.09,.24,.32,1.77,1.73,4.45,0,0,4.05,5.09,3.6,12.64-.51,8.45-7.98,17.11-16.67,18.38-15.02,2.19-28.75-18.38-25.4-27.84,1.63-4.59,7.81-6.52,8.2-12.93,.24-3.93-1.92-5.25-.85-7.01,3.33-5.49,28.3,1.15,28.98,7.53Z"/><path class="bc" d="M1304.15,655.07c1.82,6.35,2.83,7.21,3.39,11.66,.45,3.65,.07,5.46-.53,6.88-.36,.87-1.21,2.8-3.32,4.22-2.33,1.56-4.79,1.56-6.12,1.56-4.32,0-7.46-2.05-8.36-2.68-5.06-3.56-7.8-10.55-5.82-15.49,1.41-3.5,3.91-2.82,6.28-7.27,2.59-4.88,.9-8.2,3.3-9.51,2.29-1.25,6.24,.44,8.36,2.68,1.54,1.62,1.3,2.65,2.82,7.95Z"/></g><g><polygon class="b`" points="1387.49 506.32 1457.44 488.35 1442.22 426.11 1372.27 444.08 1387.49 506.32"/><g><polygon class="ao" points="1424.83 429.99 1441.72 425.65 1438.2 411.23 1421.3 415.57 1424.83 429.99"/><polygon class="ao" points="1407.11 434.54 1424.01 430.2 1420.48 415.78 1403.58 420.12 1407.11 434.54"/><polygon class="ao" points="1389.82 438.99 1406.71 434.65 1403.19 420.22 1386.29 424.57 1389.82 438.99"/><polygon class="ao" points="1372.53 443.43 1389.42 439.09 1385.9 424.67 1369 429.01 1372.53 443.43"/></g><g><polygon class="ao" points="1421.24 414.78 1438.17 410.43 1434.65 396.01 1417.71 400.36 1421.24 414.78"/><polygon class="ao" points="1403.48 419.35 1420.41 415 1416.89 400.57 1399.95 404.93 1403.48 419.35"/><polygon class="ao" points="1386.14 423.8 1403.08 419.45 1399.55 405.03 1382.62 409.38 1386.14 423.8"/><polygon class="ao" points="1368.81 428.26 1385.75 423.9 1382.22 409.48 1365.29 413.83 1368.81 428.26"/></g><g><polygon class="ao" points="1417.46 399.83 1434.36 395.49 1430.83 381.07 1413.93 385.41 1417.46 399.83"/><polygon class="ao" points="1399.74 404.38 1416.64 400.04 1413.11 385.62 1396.22 389.96 1399.74 404.38"/><path class="ao" d="M1379.94,394.14l15.89-4.08,3.53,14.42-16.9,4.34-3.16-12.91c.29-.55,.5-1.14,.64-1.77Z"/><path class="ao" d="M1366.37,409.71c-1.04,.47,.31,0,.54-.06,.63-.19,1.3-.49,1.87-.84,.81-.5,1.54-1.14,2.17-1.83,1.3-1.42,2.12-3.27,1.96-5.07-.02-.41-.08-.84-.2-1.28,0,0,0-.01,0-.02,0-.03,0-.05,0-.08,.16-.02,.31-.05,.46-.09,2.45-.67,4.61-2.04,5.85-4.02l3.06,12.5-16.9,4.34-.75-3.08c.07,0,.14-.03,.21-.04,.6-.05,1.21-.19,1.76-.44Z"/></g><polygon class="ao" points="1413.78 384.77 1430.67 380.43 1427.15 366 1410.25 370.35 1413.78 384.77"/><polygon class="ao" points="1396.06 389.32 1412.96 384.98 1409.43 370.56 1392.53 374.9 1396.06 389.32"/><path class="ao" d="M1379.87,391.35c1.14-.55,2.12-1.33,2.95-2.29,.04-.04,.07-.09,.11-.14,2.46-2.94,3.46-7.32,2.78-10.74v-.02c-.02-.07-.02-.13-.04-.2-.1-.45-.26-.85-.47-1.18l6.94-1.78,3.53,14.42-15.56,4.01c.17-.7-.03-1.4-.23-2.08Z"/><polyline class="bi" points="1457.44 488.35 1455.85 494.11 1450.77 490.06 1448.8 495.57 1443.94 491.82 1442.88 496.46 1438.09 493.32 1435.54 498.76 1431.14 495.11 1429.54 499.72 1425.2 496.63 1423.41 501.39 1418.23 498.42 1416.65 502.99 1411.53 500.14 1409.6 503.48 1406.02 501.56 1405.07 505.75 1401.45 502.73 1398.02 507.21 1395.15 504.35 1392.95 508.38 1390.08 505.66 1388.71 509.81 1387.49 506.32"/></g><g><polygon class="b`" points="1289.49 474.16 1263.4 445.19 1291.33 424.9 1317.42 453.87 1289.49 474.16"/><g><polygon class="ao" points="1298.02 431.87 1291.71 424.87 1298.18 420.17 1304.49 427.17 1298.02 431.87"/><polygon class="ao" points="1304.62 439.21 1298.32 432.21 1304.79 427.51 1311.1 434.51 1304.62 439.21"/><polygon class="ao" points="1311.08 446.37 1304.77 439.37 1311.24 434.67 1317.55 441.67 1311.08 446.37"/><polygon class="ao" points="1317.53 453.53 1311.22 446.53 1317.7 441.83 1324 448.83 1317.53 453.53"/></g><g><polygon class="ao" points="1304.78 426.87 1298.46 419.86 1304.94 415.16 1311.25 422.17 1304.78 426.87"/><polygon class="ao" points="1311.41 434.23 1305.09 427.21 1311.56 422.51 1317.88 429.53 1311.41 434.23"/><polygon class="ao" points="1317.87 441.41 1311.55 434.39 1318.03 429.69 1324.34 436.7 1317.87 441.41"/><polygon class="ao" points="1324.34 448.58 1318.02 441.57 1324.49 436.87 1330.81 443.88 1324.34 448.58"/></g><g><polygon class="ao" points="1311.55 422.03 1305.24 415.03 1311.72 410.33 1318.02 417.33 1311.55 422.03"/><polygon class="ao" points="1318.16 429.37 1311.85 422.37 1318.33 417.67 1324.63 424.67 1318.16 429.37"/><path class="ao" d="M1330.7,431.41l-5.93-6.58-6.47,4.7,6.3,7,5.79-4.21c.05-.31,.15-.61,.3-.91Z"/><path class="ao" d="M1331.7,441.89c.32,.51-.15-.09-.23-.19-.22-.27-.43-.6-.58-.92-.2-.45-.32-.93-.38-1.41-.12-.97,.12-1.97,.81-2.65,.15-.16,.32-.31,.52-.45h.01s.02-.03,.03-.03c-.06-.06-.13-.12-.18-.18-.9-1.03-1.43-2.25-1.34-3.43l-5.61,4.07,6.3,7,1.38-1.01s-.05-.05-.08-.08c-.26-.21-.49-.45-.66-.72Z"/></g><polygon class="ao" points="1318.31 417.12 1312 410.13 1318.48 405.42 1324.78 412.42 1318.31 417.12"/><polygon class="ao" points="1324.92 424.46 1318.61 417.46 1325.09 412.76 1331.39 419.76 1324.92 424.46"/><path class="ao" d="M1331.67,430.31c-.34-.57-.53-1.2-.58-1.84,0-.03,0-.06,0-.09-.14-1.95,.87-4.02,2.34-5.18h0s.05-.05,.08-.08c.2-.15,.4-.26,.61-.33l-2.59-2.87-6.47,4.7,5.8,6.45c.16-.33,.49-.55,.81-.76Z"/><polyline class="bi" points="1263.4 445.19 1262.19 448 1265.88 447.95 1264.93 450.78 1268.43 450.78 1267.35 452.98 1270.61 453.21 1269.95 456.19 1273.21 456.09 1272.39 458.44 1275.42 458.54 1274.64 461.01 1278.02 461.43 1277.21 463.76 1280.52 464.2 1280.29 466.14 1282.58 466.49 1281.6 468.46 1284.28 468.38 1284.35 471.24 1286.63 470.99 1286.29 473.29 1288.52 473.09 1287.76 475.18 1289.49 474.16"/></g><g><polygon class="b`" points="1348.2 354.71 1304.25 303.56 1352.76 266.52 1396.71 317.67 1348.2 354.71"/><g><polygon class="ao" points="1364.03 278.81 1353.42 266.45 1364.66 257.87 1375.27 270.23 1364.03 278.81"/><polygon class="ao" points="1375.16 291.76 1364.55 279.41 1375.79 270.83 1386.41 283.18 1375.16 291.76"/><polygon class="ao" points="1386.03 304.41 1375.41 292.05 1386.65 283.47 1397.27 295.82 1386.03 304.41"/><polygon class="ao" points="1396.89 317.05 1386.28 304.7 1397.52 296.11 1408.13 308.47 1396.89 317.05"/></g><g><polygon class="ao" points="1375.79 269.69 1365.15 257.31 1376.39 248.72 1387.03 261.11 1375.79 269.69"/><polygon class="ao" points="1386.94 282.67 1376.3 270.29 1387.54 261.71 1398.18 274.09 1386.94 282.67"/><polygon class="ao" points="1397.83 295.35 1387.19 282.96 1398.43 274.38 1409.07 286.76 1397.83 295.35"/><polygon class="ao" points="1408.72 308.02 1398.08 295.64 1409.32 287.05 1419.96 299.44 1408.72 308.02"/></g><g><polygon class="ao" points="1387.53 260.85 1376.92 248.5 1388.16 239.92 1398.78 252.27 1387.53 260.85"/><polygon class="ao" points="1398.67 273.81 1388.05 261.45 1399.29 252.87 1409.91 265.22 1398.67 273.81"/><path class="ao" d="M1420.14,277.13l-9.98-11.62-11.24,8.58,10.62,12.35,10.06-7.68c.1-.55,.28-1.1,.54-1.64Z"/><path class="ao" d="M1421.54,295.84c.54,.91-.25-.17-.38-.34-.37-.48-.73-1.06-.96-1.62-.34-.81-.53-1.66-.61-2.52-.18-1.74,.27-3.53,1.46-4.76,.26-.29,.56-.57,.91-.82h.02s.03-.05,.05-.06c-.11-.1-.21-.21-.31-.32-1.52-1.82-2.39-3.99-2.2-6.11l-9.74,7.44,10.62,12.35,2.4-1.84s-.09-.09-.14-.14c-.44-.36-.83-.79-1.12-1.28Z"/></g><polygon class="ao" points="1399.27 251.89 1388.66 239.54 1399.9 230.95 1410.52 243.31 1399.27 251.89"/><polygon class="ao" points="1410.41 264.84 1399.79 252.49 1411.03 243.91 1421.65 256.26 1410.41 264.84"/><path class="ao" d="M1421.83,275.13c-.56-1.02-.87-2.13-.95-3.27,0-.06,0-.11,0-.16-.19-3.48,1.61-7.21,4.16-9.33h.01c.05-.05,.09-.1,.14-.14,.35-.27,.7-.47,1.06-.61l-4.36-5.07-11.24,8.58,9.77,11.39c.28-.6,.85-1,1.41-1.39Z"/><polyline class="bi" points="1304.25 303.56 1302.09 308.62 1308.44 308.44 1306.73 313.52 1312.73 313.43 1310.82 317.39 1316.4 317.71 1315.18 323.06 1320.77 322.79 1319.3 327.02 1324.5 327.13 1323.09 331.57 1328.88 332.23 1327.42 336.42 1333.09 337.12 1332.63 340.6 1336.55 341.15 1334.82 344.72 1339.43 344.49 1339.46 349.62 1343.38 349.11 1342.73 353.23 1346.56 352.81 1345.19 356.58 1348.2 354.71"/></g><g><polygon class="b`" points="1426.85 195.94 1473.06 184.4 1462.8 143.7 1416.59 155.24 1426.85 195.94"/><g><polygon class="ao" points="1451.31 146.19 1462.47 143.4 1460.09 133.97 1448.93 136.75 1451.31 146.19"/><polygon class="ao" points="1439.6 149.11 1450.76 146.32 1448.38 136.89 1437.22 139.68 1439.6 149.11"/><polygon class="ao" points="1428.18 151.96 1439.34 149.17 1436.96 139.74 1425.8 142.53 1428.18 151.96"/><polygon class="ao" points="1416.76 154.81 1427.92 152.03 1425.54 142.59 1414.38 145.38 1416.76 154.81"/></g><g><polygon class="ao" points="1448.88 136.24 1460.07 133.45 1457.69 124.02 1446.5 126.81 1448.88 136.24"/><polygon class="ao" points="1437.15 139.17 1448.34 136.38 1445.96 126.95 1434.77 129.74 1437.15 139.17"/><polygon class="ao" points="1425.7 142.03 1436.89 139.24 1434.51 129.8 1423.32 132.6 1425.7 142.03"/><polygon class="ao" points="1414.25 144.89 1425.44 142.09 1423.06 132.66 1411.88 135.46 1414.25 144.89"/></g><g><polygon class="ao" points="1446.34 126.46 1457.5 123.67 1455.12 114.24 1443.96 117.03 1446.34 126.46"/><polygon class="ao" points="1434.63 129.38 1445.8 126.6 1443.42 117.16 1432.26 119.95 1434.63 129.38"/><path class="ao" d="M1421.5,122.64l10.49-2.62,2.38,9.43-11.16,2.79-2.13-8.44c.19-.36,.33-.74,.42-1.15Z"/><path class="ao" d="M1412.58,132.76c-.69,.3,.21,0,.35-.04,.41-.13,.86-.31,1.23-.54,.53-.33,1.01-.74,1.43-1.19,.86-.92,1.39-2.13,1.28-3.31-.01-.27-.06-.55-.14-.83h0s0-.05,0-.06c.1-.01,.21-.03,.31-.06,1.62-.43,3.04-1.32,3.86-2.61l2.06,8.17-11.16,2.79-.51-2.02s.09-.02,.14-.02c.4-.03,.8-.12,1.16-.28Z"/></g><polygon class="ao" points="1443.85 116.61 1455.02 113.82 1452.64 104.39 1441.48 107.18 1443.85 116.61"/><polygon class="ao" points="1432.15 119.53 1443.31 116.75 1440.93 107.31 1429.77 110.1 1432.15 119.53"/><path class="ao" d="M1421.45,120.81c.75-.35,1.4-.87,1.94-1.49,.03-.03,.05-.06,.07-.09,1.62-1.92,2.27-4.77,1.8-7.01h0c0-.05-.01-.1-.02-.14-.07-.3-.18-.55-.31-.77l4.58-1.14,2.38,9.43-10.28,2.57c.11-.45-.03-.91-.16-1.36Z"/><polyline class="bi" points="1473.06 184.4 1472.03 188.16 1468.65 185.5 1467.37 189.1 1464.14 186.63 1463.46 189.66 1460.28 187.6 1458.61 191.14 1455.68 188.74 1454.64 191.75 1451.77 189.72 1450.6 192.82 1447.16 190.87 1446.13 193.85 1442.74 191.98 1441.47 194.15 1439.1 192.88 1438.48 195.62 1436.08 193.63 1433.82 196.55 1431.91 194.68 1430.47 197.3 1428.57 195.51 1427.67 198.22 1426.85 195.94"/></g><g><path class="bg" d="M1461.66,761.75c-3.03,8.74-18.17,11.37-26.07,8.84-7.9-2.53-28.53-9.37-22.99-16.93,6.35-8.66,34.3-38.37,42.87-19.89,6.46,13.92,9.22,19.24,6.19,27.98Z"/><path class="am" d="M1408.75,754.35c-.51,.15-4.17,1.27-5.76,4.9-1.14,2.6-.89,5.71,.55,7.77,2.23,3.19,5.95,1.87,15.6,4.16,1.91,.45,5.73,1.38,10.23,3.28,6.49,2.75,7.05,4.42,13.09,6.73,4.84,1.85,7.74,2.91,11.48,2,1.59-.39,6.15-1.83,8.74-6.47,2.17-3.9,1.64-7.7,1.44-8.82"/><path class="am" d="M1421.16,744.94c-5.45-.13-10.03,2.26-11.61,6.05-1.94,4.63,1.54,9.07,1.96,9.59"/><path class="am" d="M1462.1,756.92c3.15,2.12,5.02,5.38,4.55,8.34-.69,4.34-6.39,7.97-13.02,6.53"/><path class="am" d="M1435.18,739.12c-.52-1.53-1.02-3.8-.32-6.22,1.35-4.69,5.8-5.2,6.56-9.36,.71-3.89-2.71-6.03-1.33-8.07,1.35-2.02,6.06-1.98,9.38-.81,6.84,2.4,11.81,10.93,10.11,18.53-.6,2.7-2.18,4.94-2.18,4.94h0c-1,1.48-2.41,2.97-4.38,4.42"/><path class="am" d="M1436.56,730.39c-5.3-1.15-13.96,1.85-16.24,6.26-2.53,4.91,.92,9.91,1.14,10.3"/><path class="am" d="M1456.93,738.45c5.17,1.6,8.66,6.19,8.54,11.15-.12,4.78-3.56,8.94-8.53,10.26"/></g></g><g><path class="ai" d="M939.92,369.5c-40.49,48,225.39,144.67-162.51,178.67-134.83,11.82-252.95-76.87-252.95-185.67s109.77-173.01,245.17-173.01,289.72,38.41,170.28,180.01Z"/><path class="bb" d="M980.9,571.18c7.01,71.22-103.09,187.6-185.12,107.67-48.92-47.67-175.53,6.03-184.41-107.67-5.2-66.65,82.72-121,184.76-121s178.22,54.46,184.76,121Z"/><g><ellipse class="ai" cx="871.03" cy="711.52" rx="90.79" ry="82"/><ellipse class="bh" cx="871.74" cy="711.52" rx="84.43" ry="75.34"/><polygon class="ax" points="854.48 736.36 854.57 713.7 854.65 691.03 876.93 702.44 899.21 713.85 876.85 725.11 854.48 736.36"/></g><text class="by" transform="translate(635.17 281.86) scale(.92 1)"><tspan class="au" x="0" y="0">F</tspan><tspan x="49.38" y="0">eed</tspan></text><text class="af" transform="translate(673.54 575.46) scale(.9 1)"><tspan x="0" y="0">Pl</tspan><tspan class="at" x="136.65" y="0">a</tspan><tspan x="209.88" y="0">y</tspan></text><text class="as" transform="translate(572.99 391.8)"><tspan class="av" x="0" y="0">e</tspan><tspan x="100.14" y="0">r</tspan><tspan class="bb" x="198.07" y="0">i</tspan><tspan class="bf" x="244.26" y="0">c</tspan></text></g><g><ellipse class="an" cx="1087.88" cy="444.78" rx="37.06" ry="33.9"/><path class="ax" d="M1087.76,464.28s15.41-10.47,19.56-17.99l.92-1.69c.7-1.55,1.1-3.26,1.1-5.08,0-6.66-5.26-12.06-11.74-12.06-4.14,0-7.76,2.2-9.86,5.52-2.09-3.32-5.72-5.52-9.86-5.52-6.49,0-11.74,5.4-11.74,12.06,0,1.82,.4,3.53,1.1,5.08l.92,1.69c4.15,7.52,19.56,17.99,19.56,17.99h.03Z"/></g><g><ellipse class="an" cx="1087.95" cy="345.61" rx="37.06" ry="33.9"/><path class="ax" d="M1087.83,365.11s15.41-10.47,19.56-17.99l.92-1.69c.7-1.55,1.1-3.26,1.1-5.08,0-6.66-5.26-12.06-11.74-12.06-4.14,0-7.76,2.2-9.86,5.52-2.09-3.32-5.72-5.52-9.86-5.52-6.49,0-11.74,5.4-11.74,12.06,0,1.82,.4,3.53,1.1,5.08l.92,1.69c4.15,7.52,19.56,17.99,19.56,17.99h.03Z"/></g><g><ellipse class="an" cx="1087.95" cy="248.61" rx="37.06" ry="33.9"/><path class="ax" d="M1087.83,268.11s15.41-10.47,19.56-17.99l.92-1.69c.7-1.55,1.1-3.26,1.1-5.08,0-6.66-5.26-12.06-11.74-12.06-4.14,0-7.76,2.2-9.86,5.52-2.09-3.32-5.72-5.52-9.86-5.52-6.49,0-11.74,5.4-11.74,12.06,0,1.82,.4,3.53,1.1,5.08l.92,1.69c4.15,7.52,19.56,17.99,19.56,17.99h.03Z"/></g><g><path class="bd" d="M385.21,770s3.7,3.69-2.38,12.07c-6.08,8.37-11.15,6.56-11.15,6.56,5.52,3.48,13.03,2.13,16.77-3.01,3.74-5.14,2.29-12.13-3.24-15.61Z"/><g><path class="bl" d="M339.32,839.66c11.31,11.56-2.51,9.63-15.28,12.94-12.77,3.32-26.3-3.16-27.25-6.73s8.03,2.05,19.95-3.8c11.78-5.79,19.94-5.1,22.57-2.41Z"/><path class="ah" d="M332,673.45c3.24,12.17-3.1,24.36-14.16,27.23s-11.75-19.56-25.88-16.83c-25.38,4.89-2.49-15.62,14.16-27.23,18.68-13.03,22.64,4.67,25.88,16.83Z"/><path class="bn" d="M320.86,677.32c1.38,5.19-1.53,10.45-6.5,11.74s-10.12-1.87-11.5-7.07,1.89-9.55,6.5-11.74c10.95-5.2,10.12,1.87,11.5,7.07Z"/><path class="ah" d="M224.41,703.69c-13.97,10.18-10.26,23.79-20.74,26.51-10.48,2.72-13.68-7.84-17.21-16.66-6.61-16.5-5.69-30.82,11.1-29.35,10.63,.93,35.42,13.25,26.86,19.49Z"/><path class="ay" d="M211.78,704.53c1.45,5.46-1.62,11-6.86,12.36s-10.67-1.96-12.12-7.43c-1.45-5.46-3.24-12.19,6.86-12.36,5.38-.09,10.67,1.96,12.12,7.43Z"/><path class="ah" d="M385.56,808.23c.1-3.43-.49-7.77-.13-12.92,.92-13.27-6.61-24.87-17.04-15.18-4.97,4.62-8.08,11.03-7.28,21.5,.46,6.08,3.34,10.37,6.95,12.85-2,2.39-2.83,5.35-1.92,8.78,1.55,5.84,4.16,10.22,17.5,6.75,14.69-3.82,14.79-8.9,13.24-14.74-1.07-4.04-5.81-6.56-11.31-7.04Z"/><path class="bd" d="M325,754.92c6.59-12.05,8.81-25.78,5.25-39.19-7.13-26.81-35.03-43.53-65.91-41.56-.16-1.46-.18-3.47,.43-5.76,1.44-5.39,5.4-8.65,6.94-9.8-2.78,.6-9.57,2.45-14.95,8.22-2.27,2.44-3.66,4.89-4.51,6.81-1.92-3.84-4.72-8.5-8.78-13.32-3.38-4.01-6.82-7.17-9.84-9.59,1.26,4.23,2.44,9.13,3.24,14.63,.76,5.2,1.05,9.98,1.08,14.22-2.7-.76-7.64-1.78-13.8-.94-5.18,.7-9.14,2.44-11.52,3.69,1.27-.23,5.93-.92,10.05,1.67,1.54,.97,2.56,2.11,3.21,3.03-22.64,14.12-33.59,39.6-27.39,62.93,5.78,21.74,25.22,36.84,48.83,40.73-6.91,9.21-9.8,19.14-7.33,28.42,6.14,23.09,43.1,33.51,82.56,23.26,39.46-10.25,66.47-37.28,60.33-60.37-4.83-18.16-28.72-28.47-57.89-27.07Z"/><path class="ax" d="M313.64,807.36c6.24,13.47-.07,35.07-7.16,36.91-7.09,1.84-9.25-19.03-19.27-30.36-21.56-24.39-11.71-11.43,4.21-18.13,6.73-2.83,15.44-3.05,22.22,11.59Z"/><path class="ac" d="M270.08,697.51c-1.4,.25-3.39,.44-5.68,.02-5.45-.99-8.47-4.65-9.34-5.79"/><path class="ah" d="M247.48,705.45c1.46-1.2,3.52-3.14,5.1-5.78,2.47-4.12,2.35-7.6,2.15-9.22"/><path class="ah" d="M257.8,701.05c1.12,2.7,2.21,5.76,3.16,9.15,.81,2.9,1.39,5.64,1.81,8.17"/><g><path class="ah" d="M239.46,807.62c-.43,2.01-.88,4.95-.74,8.48,.69,17.2,14.64,27.39,16.64,28.81,4.4,3.11,9.3,6.57,16.36,6.15,.9-.05,8.71-.62,13.59-6.19,5.57-6.36,5.28-16.93-1.64-25.17"/><path class="ah" d="M277.53,849.55c-11.3-2.76-21.03,1.45-23.31,7.38-1.72,4.48,.73,10.14,4.82,12.71,8.56,5.36,26.48-1.34,33.46-12.68,6.73-10.92,3.54-26.52-8.82-37.26"/></g><g><path class="ah" d="M343.75,794.34c12.62,11.81,17.38,24.89,12.79,31.19-2.02,2.76-6.28,4.83-6.47,4.92-4.98,2.37-10.73,2.61-14.91,1.21-7.93-2.63-13.13-12.06-11.09-22.71"/><path class="ah" d="M344.25,831.96c8.46-7.89,19.04-8.96,23.98-4.9,3.73,3.06,4.41,9.18,2.12,13.41-4.79,8.83-23.72,11.7-35.45,5.22-11.29-6.24-16.28-21.37-10.85-36.73"/></g><g><g><path class="ax" d="M221.8,752.36c-7.8,0-12.47-3.9-14.69-12.26-.91-3.41-.31-7.05,1.72-10.54,3.09-5.29,9.21-9.57,16.38-11.43,2.6-.68,5.24-1.02,7.83-1.02,9.48,0,17.06,4.56,18.86,11.36,.86,3.23,1.71,5.81,2.39,7.89,1.25,3.78,1.93,5.86,1.19,7.2-.97,1.75-4.61,2.64-12.57,4.59-2.57,.63-5.59,1.37-9.12,2.29-5.13,1.33-8.83,1.93-12,1.93Z"/><path d="M233.04,717.61h0c9.25,0,16.63,4.41,18.38,10.98,.86,3.24,1.72,5.83,2.4,7.91,1.16,3.53,1.86,5.65,1.23,6.8-.86,1.56-4.67,2.49-12.25,4.35-2.62,.64-5.59,1.37-9.12,2.29-5.08,1.32-8.75,1.91-11.88,1.91-7.64,0-12.02-3.67-14.21-11.89-.87-3.28-.3-6.79,1.67-10.15,3.03-5.18,9.03-9.37,16.08-11.2,2.56-.67,5.15-1,7.71-1m0-1c-2.57,0-5.25,.33-7.96,1.03-12.64,3.28-20.9,13.39-18.46,22.58,2.56,9.62,8.09,12.63,15.17,12.63,3.69,0,7.8-.82,12.13-1.94,28.4-7.38,23.59-3.28,18.46-22.58-1.92-7.22-9.89-11.73-19.35-11.73h0Z"/></g><g><path class="y" d="M228.5,751.1c-7.83,0-14.19-4.13-15.83-10.28-.86-3.24-.33-6.64,1.53-9.83,2.49-4.26,7.02-7.52,12.44-8.92,1.87-.49,3.78-.73,5.67-.73,7.83,0,14.19,4.13,15.83,10.28,.86,3.24,.33,6.64-1.53,9.83-2.49,4.26-7.02,7.52-12.44,8.92-1.87,.49-3.78,.73-5.67,.73h0Z"/><path d="M232.31,721.84c7.6,0,13.77,3.98,15.34,9.91,.83,3.11,.32,6.38-1.48,9.45-2.42,4.15-6.85,7.32-12.13,8.69-1.83,.48-3.7,.72-5.55,.72-7.6,0-13.77-3.98-15.34-9.91-.83-3.11-.32-6.38,1.48-9.45,2.42-4.15,6.85-7.32,12.13-8.69,1.83-.48,3.7-.72,5.55-.72m0-1c-1.89,0-3.84,.24-5.8,.75-10.06,2.61-16.47,11.28-14.32,19.36,1.73,6.51,8.49,10.65,16.31,10.65,1.89,0,3.84-.24,5.8-.75,10.06-2.61,16.47-11.28,14.32-19.36-1.73-6.51-8.49-10.65-16.31-10.65h0Z"/></g><g><path d="M228.9,747.92c-6.16,0-11.17-3.25-12.45-8.08-.68-2.54-.26-5.21,1.2-7.71,1.96-3.36,5.53-5.92,9.8-7.03,1.48-.38,2.98-.58,4.47-.58,6.16,0,11.17,3.25,12.45,8.08,.68,2.54,.26,5.21-1.2,7.71-1.96,3.36-5.53,5.92-9.8,7.03-1.48,.38-2.98,.58-4.47,.58Z"/><path d="M231.92,725.02h0c5.93,0,10.74,3.1,11.97,7.7,.64,2.41,.24,4.95-1.15,7.33-1.89,3.24-5.35,5.72-9.5,6.8-1.44,.37-2.9,.56-4.35,.56-5.93,0-10.74-3.1-11.97-7.7-.64-2.41-.24-4.95,1.15-7.33,1.89-3.24,5.35-5.72,9.5-6.8,1.44-.37,2.9-.56,4.35-.56m0-1c-1.5,0-3.05,.19-4.6,.59-7.98,2.07-13.06,8.95-11.36,15.36,1.37,5.16,6.73,8.45,12.93,8.45,1.5,0,3.05-.19,4.6-.59,7.98-2.07,13.06-8.95,11.36-15.36-1.37-5.16-6.73-8.45-12.93-8.45h0Z"/></g></g><g><g><path class="ax" d="M282.87,735.65c-2.82,0-3.25-1.51-4.42-7.27-.44-2.14-.98-4.8-1.84-8.03-.91-3.41-.31-7.05,1.72-10.54,3.09-5.29,9.21-9.57,16.38-11.43,2.6-.68,5.24-1.02,7.83-1.02,9.48,0,17.06,4.56,18.86,11.35,1.36,5.11,1.1,9.16-.79,12.4-3.07,5.25-10.13,7.7-17.32,9.57-3.53,.92-6.53,1.74-9.08,2.44-5.74,1.58-9.21,2.53-11.36,2.53h0Z"/><path d="M302.54,697.87c9.25,0,16.63,4.41,18.38,10.98,1.32,4.97,1.08,8.91-.73,12.02-2.97,5.09-9.93,7.5-17.01,9.34-3.54,.92-6.48,1.73-9.08,2.44-5.7,1.56-9.15,2.51-11.23,2.51-2.36,0-2.72-.95-3.93-6.87-.44-2.15-.98-4.82-1.84-8.06-.87-3.28-.29-6.79,1.67-10.15,3.03-5.18,9.04-9.37,16.08-11.2,2.56-.67,5.15-1,7.7-1m0-1c-2.57,0-5.25,.33-7.96,1.03-12.64,3.28-20.9,13.39-18.46,22.58,3.04,11.45,2.09,15.67,6.74,15.67,3.19,0,9.01-1.98,20.56-4.98,12.64-3.28,22.35-7.94,18.46-22.58-1.92-7.22-9.89-11.73-19.35-11.73h0Z"/></g><g><path class="a`" d="M297.51,731.18c-8.02,0-14.47-3.99-16.05-9.92-.86-3.24-.33-6.64,1.53-9.83,2.49-4.26,7.02-7.52,12.44-8.92,1.87-.49,3.78-.73,5.67-.73,7.83,0,14.19,4.13,15.82,10.28,.89,3.35,.4,6.78-1.43,9.91-2.33,4-6.69,7.07-11.95,8.44-1.98,.52-4.01,.78-6.03,.78h0Z"/><path d="M301.1,702.28c7.6,0,13.77,3.98,15.34,9.91,.86,3.22,.38,6.51-1.38,9.53-2.27,3.88-6.51,6.88-11.64,8.21-1.94,.5-3.93,.76-5.91,.76-7.79,0-14.05-3.84-15.57-9.55-.83-3.11-.32-6.38,1.48-9.45,2.42-4.15,6.84-7.32,12.13-8.69,1.83-.48,3.7-.72,5.55-.72m0-1c-1.89,0-3.84,.24-5.8,.75-10.06,2.61-16.47,11.28-14.32,19.36,1.71,6.42,8.69,10.29,16.53,10.29,2.02,0,4.1-.26,6.16-.79,10.06-2.61,15.88-10.88,13.74-18.96-1.73-6.51-8.49-10.65-16.31-10.65h0Z"/></g><g><path d="M297.68,728.36c-6.16,0-11.17-3.25-12.45-8.08-.68-2.54-.26-5.21,1.2-7.71,1.96-3.36,5.53-5.92,9.8-7.03,1.48-.38,2.98-.58,4.47-.58,6.16,0,11.17,3.25,12.45,8.08,.68,2.54,.26,5.21-1.2,7.71-1.96,3.36-5.53,5.92-9.8,7.03-1.48,.38-2.98,.58-4.47,.58h0Z"/><path d="M300.7,705.46c5.93,0,10.74,3.1,11.97,7.7,.64,2.41,.24,4.95-1.15,7.33-1.89,3.24-5.35,5.72-9.5,6.8-1.44,.37-2.9,.56-4.35,.56-5.93,0-10.74-3.1-11.97-7.7-.64-2.41-.24-4.95,1.15-7.33,1.89-3.24,5.35-5.72,9.5-6.8,1.44-.37,2.9-.56,4.35-.56m0-1c-1.5,0-3.04,.19-4.6,.59-7.98,2.07-13.06,8.95-11.36,15.36,1.37,5.16,6.73,8.45,12.93,8.45,1.5,0,3.05-.19,4.6-.59,7.98-2.07,13.06-8.95,11.36-15.36-1.37-5.16-6.73-8.45-12.93-8.45h0Z"/></g></g><path class="bj" d="M330.84,717.62c6.55,3.83-1.28,56.55-43.45,72.72-34.38,13.18-70.37-6.07-83.05-24.68-1.11-1.64-7.64-11.21-4.12-15.5,3.99-4.85,15.63,3.47,31.48,.11,16.93-3.59,16.75-15.88,33.67-19.79,14.58-3.37,18.53,4.86,34.97,1.96,19.25-3.39,26.83-16.97,30.5-14.82Z"/><g><path d="M264.47,749.46c-5.65,0-9.92-2.3-10.86-5.87-.44-1.64-.12-3.44,.9-5.2,1.91-3.27,5.96-5.98,10.82-7.24,1.85-.48,3.72-.73,5.54-.73,5.65,0,9.92,2.3,10.87,5.87,.44,1.64,.12,3.44-.9,5.2-1.91,3.27-5.96,5.98-10.82,7.24-1.86,.48-3.72,.73-5.54,.73Z"/><path d="M270.87,730.92h0c5.33,0,9.51,2.21,10.38,5.5,.4,1.51,.11,3.18-.85,4.82-1.84,3.16-5.77,5.78-10.51,7.01-1.81,.47-3.63,.71-5.41,.71-5.33,0-9.51-2.21-10.38-5.5-.4-1.51-.11-3.18,.85-4.82,1.84-3.16,5.77-5.78,10.51-7.01,1.81-.47,3.63-.71,5.41-.71m0-1c-1.81,0-3.72,.24-5.66,.74-8.03,2.09-13.44,7.93-12.08,13.06,1.03,3.89,5.67,6.24,11.35,6.24,1.81,0,3.72-.24,5.66-.74,8.03-2.09,13.44-7.93,12.08-13.06-1.03-3.89-5.67-6.24-11.35-6.24h0Z"/></g><path class="ad" d="M259.2,774.88c2.68,8.75,15.53,11.95,24.79,8.75,7.33-2.54,14.45-9.79,13.38-17.28-1.29-9-13.87-14.63-24.07-11.69-9.02,2.59-16.6,12.01-14.09,20.23Z"/><path class="al" d="M216.92,767.92c6.4,9.43,20.96,16.21,30.71,14.11,11.62-2.51,20.13-15.34,22.15-23.7,.71-2.95,3.9-4.01,4.92-4.04,5.95-.16,18.93,11.65,30.74,8.58,5.6-1.46,12.77-7.25,19.01-24.26"/><path class="ba" d="M296.36,768.17c-2.13-3.87-11.68-2.76-16.83-1.33-7.66,2.12-17.03,8.12-16.08,12.73,.94,4.61,12.13,7.76,20.69,4.61,8.17-3.01,14.46-11.94,12.22-16.01Z"/><path class="bc" d="M290.05,775.62c.1,.12,1.55,1.84,.98,3.67-.27,.84-.89,1.48-2.3,2.42-1.87,1.24-3.57,2.37-6.66,3.11-3.22,.77-10.57,1.76-12.22-1.27-.55-1.01-.28-2.12-.12-2.65,.6-2.04,3.58-4.85,9.19-6.31,1.79-.47,8.46-2.18,11.14,1.03Z"/><path class="aq" d="M296.27,846.7c-.59,.97-3.64,6.12-1.46,11.42,.4,.97,.98,2.39,2.43,3.51,5.28,4.09,15.73-.7,18.9-2.15,2.48-1.14,6.25-3.18,10.18-6.78"/><path class="aq" d="M323.2,846.61c-.07,.52-1.06,8.18,3.77,14.19,.82,1.02,5.14,5.58,10.29,4.91,5.47-.71,10.64-7.19,10.75-15.88"/><ellipse class="ax" cx="227.14" cy="734.55" rx="2.53" ry="2.34" transform="translate(-155.53 67.68) rotate(-12.67)"/><ellipse class="ax" cx="304.12" cy="712.77" rx="2.53" ry="2.34" transform="translate(-148.88 84.03) rotate(-12.67)"/><g class="bp"><path class="ak" d="M211.07,573.61c-5.34,1.39-9.2,5.87-10.78,11.63-10.31-9.35-20.61-18.7-30.92-28.06,1.41-1.06,3.89-3.26,5.31-6.98,2.31-6.07-.05-11.82-.64-14.05-2.4-9.01-13.04-19.31-22.89-16.97-10.27,2.43-14.83,17.49-12.9,19.51,.6,.63,1.72-.12,4.6,.42,2.21,.41,3.93,1.28,5,1.92-1.76-1.41-3.29-1.91-4.3-2.1-2.56-.5-5.19,.23-7.05,.38,0,0-.71,.05-1.39,.18-.29,.05-.58,.12-.87,.19-8.47,2.2-17.85,9.45-15.05,20.01,2.81,10.56,16.74,20.43,25.21,18.23,4.07-1.06,7.25-4.01,9.13-7.95l35.82,32.58c-5.11,4.23-8.18,7.19-6.3,14.27,2.55,9.6,12.72,19.61,21.96,17.22,8.69-2.26,14-11,12.47-20.03,1.4,.08,2.81-.05,4.2-.41,8.85-2.3,14.34-8.65,11.41-19.69-2.94-11.04-13.18-22.59-22.04-20.29Z"/><path class="ak" d="M169.37,557.18c-1.02,.68-2.61,1.54-4.7,2.03-1.75,.41-3.28,.42-4.4,.34"/><path class="ak" d="M201.35,600.01c-1.79-.33-4.44-.55-7.4,.31-7.6,2.21-10.76,9.65-11.3,10.99"/></g><g class="bq"><path class="ak" d="M188.54,510.44c2.45,9.22,9.78,11.43,18.09,9.27,1.31-.34,2.53-.85,3.64-1.52,2.72,7.16,10.96,11.18,19.12,9.06,8.68-2.25,12.64-13.86,10.51-21.88-1.57-5.91-5.4-6.72-11.49-7.57l15.15-38.93c3.3,2.03,7.21,2.79,11.04,1.79,7.95-2.07,15.09-15.19,12.74-24.01s-13.28-10.01-21.24-7.94c-.27,.07-.54,.15-.81,.24-.61,.2-1.22,.47-1.22,.47-1.59,.7-4.09,1.31-5.98,2.77-.74,.58-1.79,1.59-2.62,3.37,.6-.92,1.63-2.3,3.28-3.54,2.15-1.63,3.39-1.57,3.61-2.28,.7-2.29-9.71-11.18-19.24-8.51-9.16,2.57-13.38,14.57-11.38,22.11,.49,1.86,1.09,7.02,5.67,10.4,2.81,2.07,5.83,2.59,7.46,2.75-4.37,11.19-8.74,22.37-13.11,33.56-3.85-3.47-9.01-5.04-14.02-3.73-8.31,2.16-11.66,14.91-9.21,24.13Z"/><path class="ak" d="M224.88,456.49c1.14,.05,2.83-.02,4.77-.57,1.62-.46,2.89-1.11,3.78-1.65"/><path class="ak" d="M217.42,501.15c1.32-1.01,3.42-2.31,6.24-2.97,7.24-1.68,13.13,2.32,14.17,3.05"/></g><g class="bv"><path class="ak" d="M101.59,468.9c2.1,7.91,8.14,9.87,14.95,8.1,1.07-.28,2.07-.71,2.98-1.26,2.3,6.15,9.11,9.66,15.79,7.93,7.1-1.84,10.25-11.73,8.42-18.61-1.35-5.07-4.5-5.8-9.51-6.58l12.07-33.14c2.73,1.77,5.95,2.45,9.08,1.64,6.51-1.69,12.24-12.84,10.23-20.41-2.01-7.57-11-8.68-17.52-6.99-.22,.06-.44,.12-.66,.19-.5,.17-1,.39-1,.39-1.3,.58-3.35,1.08-4.88,2.31-.61,.49-1.45,1.34-2.12,2.86,.48-.78,1.32-1.95,2.66-3,1.75-1.37,2.77-1.31,2.94-1.92,.55-1.95-8.08-9.65-15.88-7.45-7.49,2.11-10.85,12.33-9.13,18.79,.42,1.59,.97,6.01,4.76,8.95,2.33,1.8,4.81,2.27,6.15,2.42-3.48,9.52-6.96,19.04-10.44,28.57-3.19-3-7.44-4.39-11.55-3.32-6.81,1.77-9.43,12.63-7.33,20.54Z"/><path class="ak" d="M130.91,423.12c.94,.05,2.32,.01,3.91-.44,1.33-.38,2.37-.92,3.09-1.38"/><path class="ak" d="M125.21,461.23c1.08-.85,2.79-1.94,5.1-2.48,5.93-1.37,10.8,2.1,11.66,2.74"/></g><g class="bw"><path class="ak" d="M163.76,321.98c-3.11,.81-5.35,3.48-6.25,6.94l-18.2-17c.82-.63,2.26-1.94,3.07-4.17,1.32-3.63-.08-7.1-.44-8.44-1.44-5.43-7.71-11.66-13.46-10.3-5.99,1.41-8.59,10.44-7.45,11.66,.35,.38,1-.06,2.69,.27,1.29,.25,2.3,.79,2.93,1.18-1.04-.86-1.93-1.16-2.52-1.28-1.5-.31-3.03,.12-4.12,.19,0,0-.41,.03-.81,.1-.17,.03-.34,.07-.51,.11-4.94,1.28-10.39,5.6-8.7,11.96,1.69,6.36,9.88,12.35,14.82,11.07,2.38-.62,4.22-2.37,5.3-4.74l21.09,19.74c-2.97,2.52-4.75,4.28-3.61,8.54,1.54,5.78,7.53,11.84,12.92,10.44,5.07-1.32,8.13-6.55,7.2-11.98,.82,.06,1.64-.02,2.45-.23,5.16-1.34,8.34-5.13,6.58-11.78s-7.81-13.63-12.97-12.29Z"/><path class="ak" d="M139.31,311.92c-.6,.4-1.52,.91-2.74,1.2-1.02,.24-1.92,.24-2.57,.18"/><path class="ak" d="M158.2,337.79c-1.05-.21-2.6-.35-4.33,.15-4.43,1.29-6.24,5.75-6.56,6.55"/></g></g><path class="aq" d="M379.6,812.86c.46-.72,1.33-1.87,2.78-2.91,1.38-.99,2.7-1.45,3.51-1.67"/></g><g><g class="bx"><g><path class="bh" d="M216.52,118.69c-.66,35.07-63.95,36.53-105.59,35.67-41.63-.87-97.06,3.94-96.4-31.13,.66-35.07,83.44-100.57,125.08-99.7,41.63,.87,77.57,60.09,76.91,95.17Z"/><path class="ar" d="M216.52,118.69c-.66,35.07-63.95,36.53-105.59,35.67-41.63-.87-97.06,3.94-96.4-31.13,.66-35.07,83.44-100.57,125.08-99.7,41.63,.87,77.57,60.09,76.91,95.17Z"/><path class="bh" d="M216.52,118.69c-.66,35.07-63.95,36.53-105.59,35.67-41.63-.87-97.06,3.94-96.4-31.13,.66-35.07,83.44-100.57,125.08-99.7,41.63,.87,77.57,60.09,76.91,95.17Z"/><path class="ar" d="M216.52,118.69c-.66,35.07-63.95,36.53-105.59,35.67-41.63-.87-97.06,3.94-96.4-31.13,.66-35.07,83.44-100.57,125.08-99.7,41.63,.87,77.57,60.09,76.91,95.17Z"/><path class="ar" d="M216.52,118.69c-.66,35.07-63.95,36.53-105.59,35.67-41.63-.87-97.06,3.94-96.4-31.13,.66-35.07,83.44-100.57,125.08-99.7,41.63,.87,77.57,60.09,76.91,95.17Z"/><path class="bh" d="M216.52,118.69c-.66,35.07-63.95,36.53-105.59,35.67-41.63-.87-97.06,3.94-96.4-31.13,.66-35.07,83.44-100.57,125.08-99.7,41.63,.87,77.57,60.09,76.91,95.17Z"/></g></g><g><path class="ax" d="M60.93,107.04c0-6.36,4.37-9.72,11.26-9.72s11.26,3.37,11.26,9.72-4.23,9.79-11.26,9.79-11.26-3.37-11.26-9.79Zm15.69,0c0-3.82-1.94-5-4.4-5s-4.5,1.18-4.5,5,2.08,5.14,4.5,5.14,4.4-1.22,4.4-5.14Z"/><path class="ax" d="M86.45,107.04c0-6.36,4.37-9.72,11.26-9.72s11.26,3.37,11.26,9.72-4.23,9.79-11.26,9.79-11.26-3.37-11.26-9.79Zm15.69,0c0-3.82-1.94-5-4.4-5s-4.5,1.18-4.5,5,2.08,5.14,4.5,5.14,4.4-1.22,4.4-5.14Z"/><path class="ax" d="M119.84,110.97v4.76l-6.48,.56v-5.87l6.48,.56Zm.1-12.12v4.76l-6.51,.56v-5.87l6.51,.56Z"/><path class="ax" d="M142.36,98.78c-1.3-.59-3.21-1.04-4.88-1.04-4.98,0-6.41,3.33-6.45,5.73,1.77-.66,4.37-1.04,6.24-1.04,4.78,0,8.7,1.94,8.7,6.15,0,5.14-4.3,8.27-10.92,8.27-7.33,0-11.19-4.34-11.19-10.56,0-7.74,5.59-13.41,13.54-13.41,3.58,0,5.94,.62,6.96,1.08l-2.01,4.83Zm-7.37,7.54c-1.13,0-2.46,.14-3.96,.49,0,2.57,1.6,5.28,4.78,5.28,2.93,0,3.92-1.81,3.92-3.09s-1.26-2.64-4.74-2.68Z"/><path class="ax" d="M148.94,107.04c0-6.36,4.37-9.72,11.26-9.72s11.26,3.37,11.26,9.72-4.23,9.79-11.26,9.79-11.26-3.37-11.26-9.79Zm15.69,0c0-3.82-1.94-5-4.4-5s-4.5,1.18-4.5,5,2.08,5.14,4.5,5.14,4.4-1.22,4.4-5.14Z"/></g></g></svg>