<svg id="Layer_1" data-name="Layer 1" xmlns="http://www.w3.org/2000/svg" xmlns:xlink="http://www.w3.org/1999/xlink" width="200" height="200" viewBox="0 0 200 200"><defs><style>.cls-1,.cls-2{fill:#5f3300;}.cls-11,.cls-2,.cls-3{stroke:#000;stroke-miterlimit:10;}.cls-3,.cls-6{fill:#744500;}.cls-4{fill:#ffddfc;filter:url(#filter);}.cls-5{fill:#ffddf1;}.cls-7{fill:#2a1700;}.cls-8{fill:#fff;}.cls-9{fill:url(#Sky_2);}.cls-10{fill:url(#Sky_2-2);}.cls-11{fill:none;fill-rule:evenodd;}</style><filter id="filter" x="104" y="25.52" width="44" height="46" filterUnits="userSpaceOnUse"><feOffset input="SourceAlpha"/><feGaussianBlur stdDeviation="5" result="blur"/><feFlood/><feComposite operator="in" in2="blur"/><feComposite in="SourceGraphic"/></filter><linearGradient id="Sky_2" x1="-760.27" y1="66.01" x2="-735.27" y2="66.01" gradientTransform="matrix(-1, -0.01, -0.01, 1, -685.73, -0.95)" gradientUnits="userSpaceOnUse"><stop offset="0" stop-color="#cadef2"/><stop offset="0.06" stop-color="#c1daf0"/><stop offset="0.17" stop-color="#a7d0ec"/><stop offset="0.31" stop-color="#7ec0e5"/><stop offset="0.47" stop-color="#45a9dc"/><stop offset="0.57" stop-color="#1e9ad5"/><stop offset="0.87" stop-color="#0075bc"/><stop offset="0.99" stop-color="#005b95"/></linearGradient><linearGradient id="Sky_2-2" x1="103.66" y1="66.06" x2="128.66" y2="66.06" gradientTransform="translate(-6.42 5.04) rotate(0.51)" xlink:href="#Sky_2"/></defs><path class="cls-1" d="M112,165.64c5.41,10.48-3.44,6.43-12.56,6.35S82.48,164.65,82.5,161.9s5,3,14,1.12S110.71,163.2,112,165.64Z"/><path class="cls-2" d="M82,162.39c-.58.58-3.55,3.7-3.07,7.93a6,6,0,0,0,1,3c2.76,3.95,10.61,2.53,13,2.1a25.91,25.91,0,0,0,8-2.91"/><path class="cls-2" d="M100,167.52c-.14.36-2.21,5.67-.09,10.92.36.89,2.39,5,6,5.51,3.77.54,8.41-3.11,10.08-9.34"/><path class="cls-3" d="M141.15,48.36c-.09,9.37-6.86,16.9-15.13,16.82S121.58,48.87,111.2,48.1c-18.66-1.39,1.27-11.7,15.12-16.82C141.87,25.53,141.23,39,141.15,48.36Z"/><path class="cls-4" d="M132.63,49a6.75,6.75,0,1,1-13.47-.12c0-4,3.16-6.49,6.8-7.18C134.6,40.07,132.66,45,132.63,49Z"/><path class="cls-3" d="M60.23,49.3c-11.71,4.62-11.74,15.11-19.58,15s-8-8.27-8.81-15.29c-1.44-13.12,2-23.22,13.39-18.93C52.47,32.84,67.41,46.47,60.23,49.3Z"/><path class="cls-5" d="M51.26,47.47A7.38,7.38,0,0,1,44.09,55a7.39,7.39,0,0,1-7-7.68c0-4.2.09-9.38,7.17-7.55C48,40.77,51.29,43.26,51.26,47.47Z"/><path class="cls-6" d="M157.32,128.15s2.39,2.47-1.63,8-7.31,4.28-7.31,4.28a8.16,8.16,0,0,0,11-1.9A7.21,7.21,0,0,0,157.32,128.15Z"/><path class="cls-3" d="M149.6,155.46c.73-2.45,1.15-5.68,2.39-9.31,3.2-9.35.17-19.14-9-14.19-4.36,2.36-7.76,6.36-9.22,14a12.52,12.52,0,0,0,2.38,10.57,7,7,0,0,0-3,5.93c0,4.49.94,8.14,10.92,8.23,11,.1,12-3.54,12.07-8C156.17,159.58,153.35,156.86,149.6,155.46Z"/><path class="cls-6" d="M119.61,102.52a40,40,0,0,0,11.2-27.13c.19-20.62-16.07-38-38-42.56a11.86,11.86,0,0,1,1.41-4.06,13.66,13.66,0,0,1,6.73-5.69,20.51,20.51,0,0,0-12,3,18,18,0,0,0-4.46,4,51.11,51.11,0,0,0-3.56-11.26,52.58,52.58,0,0,0-5-8.79,79.62,79.62,0,0,1-.55,11.13,79.76,79.76,0,0,1-2,10.42A24.34,24.34,0,0,0,55.14,28.7a10.34,10.34,0,0,1,6.7,3.14,8.4,8.4,0,0,1,1.66,2.79C45,40.4,32.43,56.58,32.28,74.53c-.15,16.72,10.51,31.33,26.24,38.68-6.59,5.28-10.52,11.84-10.59,19-.09,10.71,8.62,17.71,13.5,21.62,13,10.44,28.33,10.77,39.66,11,10.86.24,21.54.48,32.87-5.87,3.66-2.05,20.63-11.54,20.85-25.83C155,119.92,140.85,105.73,119.61,102.52Z"/><path class="cls-7" d="M114.93,77.45c-8.83,6.7-23.67,2.32-28.75,8.72-1.34,1.69-1.35,3.48-1.76,6.36-.49,3.37-1.74,12.07,4,18.35,6.18,6.8,16,5.74,18.19,5.51a24.9,24.9,0,0,0,10.84-3.89c5.71-3.68,9.64-9.75,13.2-18.55C140.84,68.71,123.43,71,114.93,77.45Z"/><path class="cls-7" d="M51.53,76.31c-12.4-3-15.51-4.9-17.9-2.67-2.85,2.67-3.48,8.47.83,19.11,1.57,3.87,4.44,12.51,13.18,18.66,2.71,1.91,6.29,4.5,11.69,5.18a22.47,22.47,0,0,0,19.06-6.79c.56-.6,7.62-8.44,5.46-17.65A16,16,0,0,0,81.6,87C77.12,80.34,69.61,80.71,51.53,76.31Z"/><path d="M85.17,93.32a13.68,13.68,0,0,1-7.4-2.07,5.71,5.71,0,0,1-2.91-4.66C74.89,83,79.5,80,85.15,80h.14a13.63,13.63,0,0,1,7.4,2.08c1.9,1.27,2.94,2.92,2.92,4.65,0,3.61-4.65,6.55-10.29,6.55Z"/><path d="M85.15,80.54h.14a13.17,13.17,0,0,1,7.12,2c1.76,1.18,2.72,2.68,2.7,4.24,0,3.34-4.42,6-9.79,6h-.14a13.15,13.15,0,0,1-7.13-2,5.25,5.25,0,0,1-2.7-4.23c0-3.34,4.43-6.06,9.8-6.06m0-1c-5.94,0-10.76,3.14-10.8,7s4.81,7.18,10.82,7.23h.15c5.94,0,10.76-3.13,10.79-7s-4.8-7.18-10.81-7.24Z"/><polygon class="cls-8" points="90.11 103.84 86.41 106.89 93.08 106.9 96.05 95.64 90.11 103.84"/><path class="cls-8" d="M75.7,103.42l4.23,2.28-3.34,3.61c-.23.25-.55.37-.71,0L70,97.2Z"/><path d="M62.78,113.5a.62.62,0,0,1-.29,0h0a7.29,7.29,0,0,1,1.57-1.69c6.85-6,16.07-6.6,19.54-6.81,0,0,.37,0,1,0A52.72,52.72,0,0,1,104,109c.38.15.66.28.86.38h0c-.76,0-2-.11-3.48-.26-2.73-.26-6.46-.61-10.73-.61-2.27,0-4.47.1-6.56.3a87,87,0,0,0-16.49,3.55A24.78,24.78,0,0,1,62.78,113.5Z"/><path d="M84.63,105.44h0a51.76,51.76,0,0,1,17.12,3.17l-.33,0c-2.73-.26-6.48-.61-10.77-.61-2.28,0-4.51.1-6.61.31a87.39,87.39,0,0,0-16.58,3.56c-1.54.46-2.93.87-3.86,1,.19-.2.45-.44.79-.74,6.72-5.94,15.82-6.49,19.24-6.69,0,0,.37,0,1,0m0-1c-.68,0-1.06,0-1.06,0-3.95.24-13,.9-19.84,6.94-1.58,1.39-1.82,2-1.67,2.31s.34.29.72.29c2.48,0,10.73-3.69,21.36-4.73,2.26-.22,4.44-.3,6.51-.3,6.66,0,12,.87,14.21.87.63,0,1-.07,1-.26.06-.35-1-.81-1.67-1.08a53.26,53.26,0,0,0-19.58-4.06Z"/><path class="cls-8" d="M72.3,82.85c-1.14,0-2.48-.08-4-.18-2.05-.12-4.37-.27-7.18-.29-9.79-.09-11.83-2.32-13-3.65a11.05,11.05,0,0,1-2.81-7,13.73,13.73,0,0,1,1-5.74c.18-.46,4.39-11.12,11.67-11.5h.25c2.74,0,5.56,2.28,11.19,6.83l.15.13c5.34,4.31,7.75,6.36,8.75,9.76,0,.07,2,6.92-1.58,10.46C75.83,82.5,74.56,82.85,72.3,82.85Z"/><path d="M58.18,55c2.55,0,5.5,2.39,10.86,6.72l.16.12c5.25,4.25,7.62,6.27,8.58,9.52,0,.07,1.91,6.63-1.45,10-.76.76-1.89,1-4,1-1.12,0-2.46-.08-4-.18-2.05-.12-4.38-.27-7.21-.29-9.57-.09-11.51-2.21-12.67-3.48l0-.05a10.53,10.53,0,0,1-2.63-6.67,13.08,13.08,0,0,1,1-5.52C46.89,65.71,51,55.35,57.94,55h.24m0-1h-.29c-7.54.4-11.8,11-12.11,11.81a14,14,0,0,0-1.05,6A11.72,11.72,0,0,0,47.62,79c1.29,1.41,3.33,3.77,13.46,3.86,5,0,8.59.47,11.22.47,2.18,0,3.68-.29,4.74-1.34,3.73-3.72,1.8-10.62,1.7-11-1.07-3.62-3.7-5.8-8.91-10C64.07,56.38,61.11,54,58.18,54Z"/><path class="cls-9" d="M61.34,82.4a13.47,13.47,0,0,1-8.84-3.25,10,10,0,0,1-3.57-7.61c0-5.87,5.64-10.65,12.47-10.65h.13a13.5,13.5,0,0,1,8.84,3.25,10,10,0,0,1,3.56,7.62c-.05,5.87-5.64,10.64-12.46,10.64Z"/><path d="M61.4,61.39h.12A13,13,0,0,1,70,64.52a9.48,9.48,0,0,1,3.39,7.23c-.05,5.6-5.41,10.15-12,10.15h-.13a13,13,0,0,1-8.51-3.12,9.52,9.52,0,0,1-3.4-7.24c0-5.6,5.42-10.15,12-10.15m0-1c-7.12,0-12.92,5-13,11.14s5.72,11.31,12.9,11.37h.14c7.12,0,12.91-5,13-11.14s-5.72-11.31-12.9-11.37Z"/><path d="M61.36,80.07a10.63,10.63,0,0,1-7-2.55,7.82,7.82,0,0,1-2.79-6c0-4.6,4.43-8.34,9.78-8.34h.11a10.6,10.6,0,0,1,6.94,2.55,7.82,7.82,0,0,1,2.79,6c0,4.6-4.43,8.34-9.78,8.34Z"/><path d="M61.4,63.72h.1a10.06,10.06,0,0,1,6.62,2.43,7.32,7.32,0,0,1,2.62,5.58c0,4.32-4.2,7.84-9.28,7.84h-.1a10.09,10.09,0,0,1-6.61-2.42,7.32,7.32,0,0,1-2.63-5.59c0-4.32,4.2-7.84,9.28-7.84m0-1c-5.64,0-10.24,3.94-10.28,8.84s4.54,9,10.23,9h.11c5.65,0,10.24-3.93,10.28-8.83s-4.53-9-10.23-9Z"/><path class="cls-8" d="M98.53,83.12c-2.65,0-4-.34-4.79-1.25-2.86-3.09-1.68-8.68-.53-11.5,1.4-3.44,3.83-5.31,6.91-7.68,5.21-4,9-6.9,13-6.9a8.81,8.81,0,0,1,1.69.17c6.12,1.2,10.36,8.6,10.48,14.75,0,1.42.11,5.64-2.79,8.68s-8,3.47-12.51,3.47h-1.53c-2.44,0-4.51.09-6.34.17C100.73,83.07,99.56,83.12,98.53,83.12Z"/><path d="M113.09,56.29a8.77,8.77,0,0,1,1.6.16c5.88,1.16,10,8.31,10.07,14.3,0,1.34.1,5.4-2.65,8.3s-7.7,3.31-12.15,3.31h-1.52c-2.46,0-4.54.09-6.37.17-1.36,0-2.52.1-3.54.1-2.46,0-3.7-.3-4.43-1.09-2.69-2.91-1.45-8.45-.43-11,1.29-3.16,3.41-4.9,6.76-7.47,5.12-4,8.83-6.8,12.66-6.8m0-1c-4.17,0-8,2.91-13.27,7-3.25,2.5-5.65,4.4-7.07,7.89-1.2,2.94-2.4,8.76.62,12,1,1.13,2.68,1.41,5.16,1.41s5.64-.27,9.91-.27H110c5.33,0,10-.62,12.87-3.62,3.06-3.22,3-7.64,2.93-9-.12-6.4-4.44-14-10.88-15.23a9.21,9.21,0,0,0-1.79-.18Z"/><path class="cls-10" d="M109.06,82.88a13.56,13.56,0,0,1-8.84-3.25A10,10,0,0,1,96.65,72c.06-5.87,5.65-10.65,12.47-10.65h.13a13.51,13.51,0,0,1,8.84,3.26,10,10,0,0,1,3.57,7.61c0,5.87-5.65,10.65-12.47,10.65Z"/><path d="M109.12,61.86h.13A13,13,0,0,1,117.76,65a9.51,9.51,0,0,1,3.4,7.24c0,5.59-5.42,10.15-12,10.15h-.12a13,13,0,0,1-8.52-3.13A9.52,9.52,0,0,1,97.15,72c0-5.6,5.42-10.16,12-10.16m0-1c-7.12,0-12.91,5-13,11.15s5.73,11.31,12.91,11.37h.13c7.12,0,12.91-5,13-11.14s-5.72-11.31-12.9-11.38Z"/><path d="M109.08,80.55A10.6,10.6,0,0,1,102.14,78a7.85,7.85,0,0,1-2.8-6c0-4.6,4.43-8.35,9.79-8.35h.1a10.59,10.59,0,0,1,6.94,2.56,7.79,7.79,0,0,1,2.8,6c0,4.6-4.43,8.34-9.79,8.34Z"/><path d="M109.13,64.19h.1a10.15,10.15,0,0,1,6.61,2.43,7.34,7.34,0,0,1,2.63,5.58c0,4.33-4.2,7.85-9.29,7.85h-.09a10.11,10.11,0,0,1-6.62-2.43A7.37,7.37,0,0,1,99.84,72c0-4.33,4.21-7.85,9.29-7.85m0-1c-5.65,0-10.24,3.94-10.29,8.84s4.54,9,10.24,9h.1c5.65,0,10.25-3.94,10.29-8.84s-4.54-9-10.23-9Z"/><path class="cls-8" d="M101.55,138c1.76,10.87-6.8,25.16-12.1,25.12s-2.8-15.45-7.61-25.53c-10.36-21.67-6-10.46,6.42-12.21C93.51,124.64,99.63,126.17,101.55,138Z"/><path class="cls-11" d="M86.84,60.39a15.84,15.84,0,0,1,4-4.14c1.21-.84,1.92-1,3-2a11.41,11.41,0,0,0,3-3.95"/><path class="cls-3" d="M85.58,60.38a13.94,13.94,0,0,0-1.73-2.2,20.77,20.77,0,0,0-4-3,22,22,0,0,1-4.33-3.95"/><path class="cls-3" d="M86.07,61.82a61.37,61.37,0,0,1,.14,13.4"/><path class="cls-3" d="M48.23,128.41A34.23,34.23,0,0,0,51,150.3c1.52,3,6.63,13,15.88,14a12.53,12.53,0,0,0,8.67-1.91c4.67-3.36,6.31-10.74,3.7-18.39"/><path class="cls-3" d="M69.24,164.3c-7.35-4.16-15-3-17.69.8-2.06,2.88-1.45,7.42.92,10.05,4.94,5.51,18.74,4.16,25.8-2.64,6.79-6.54,7.57-18.36,1-28.46"/><path class="cls-3" d="M122.17,135c7.91,13.26,10.6,24.67,6.76,27.88-1.4,1.17-3.93,1.5-5.38,1.69-.83.1-6.67.79-10.64-2-4.62-3.25-6.28-10.9-3.38-18.45"/><path class="cls-3" d="M119.2,164.55c7.43-4,15-2.76,17.68,1.11,2,2.92,1.31,7.44-1.1,10-5,5.41-18.81,3.82-25.74-3.1-6.68-6.66-7.25-18.49-.51-28.47"/><path class="cls-2" d="M144.65,155.87a6.88,6.88,0,0,1,2.53-.7,7.34,7.34,0,0,1,2.53.26"/><ellipse class="cls-8" cx="58.1" cy="69.52" rx="1.75" ry="1.74"/><ellipse class="cls-8" cx="114.17" cy="69.98" rx="1.75" ry="1.74"/></svg>