<?xml version="1.0" encoding="UTF-8"?><svg xmlns="http://www.w3.org/2000/svg" width="200" height="200" viewBox="0 0 200 200"><defs><style>.c{fill:#fff;}.d{fill:none;stroke:#000;stroke-miterlimit:10;}</style></defs><g id="a"><g><g><path class="d" d="M125.79,50.9c0,2.94-1.97,5.32-4.39,5.32s-4.39-2.38-4.39-5.32,2.02-4.79,4.39-5.32c5.63-1.25,4.39,2.38,4.39,5.32Z"/><path class="d" d="M132.39,49.45c0,6.69-4.21,12.11-9.39,12.11s-2.88-11.62-9.39-12.11c-11.71-.87,.73-8.36,9.39-12.11,9.72-4.2,9.39,5.42,9.39,12.11Z"/></g><g><path class="d" d="M77.74,48.95c0,2.96-1.97,5.37-4.39,5.37s-4.39-2.4-4.39-5.37,0-6.62,4.39-5.37c2.34,.66,4.39,2.4,4.39,5.37Z"/><path class="d" d="M81.89,49.2c-7.32,3.37-7.28,10.86-12.2,10.86s-5.09-5.86-5.61-10.86c-.98-9.36,1.1-16.6,8.3-13.61,4.56,1.9,14,11.54,9.52,13.61Z"/></g><path class="d" d="M159.83,113.91s2.33,2.56-1.5,8.35c-3.83,5.8-7.02,4.54-7.02,4.54,3.48,2.41,8.21,1.47,10.56-2.09,2.35-3.56,1.44-8.4-2.04-10.81Z"/><g><path class="c" d="M92.49,181.5c-1.04,0-1.76-.27-2.18-.82-.63-.81-.67-2.28-.12-4.38,.87-3.36,3.84-8.01,8.29-10.29l.18-.09,.06-.19c.26-.77,.74-1.61,1.3-2.57,.38-.65,.79-1.36,1.21-2.17,2.13-4.15,3.64-6.67,6.62-6.67,.99,0,2.11,.28,3.42,.85,3.34,1.45,5.12,2.79,5.43,4.09,.31,1.27-.79,2.63-2.06,4.2-.82,1.02-1.76,2.17-2.43,3.47l-.48,.94c-.44,.87-.89,1.75-1.35,2.59l-.04,.06-.02,.07c-.63,2.8-3.07,5.45-6.37,6.93-.43,.19-.91,.41-1.42,.65-2.89,1.33-7.25,3.35-10.05,3.35h0Z"/><path d="M107.86,154.82c.91,0,1.99,.27,3.22,.8,3.14,1.37,4.87,2.63,5.15,3.75,.25,1.03-.77,2.3-1.96,3.76-.84,1.04-1.79,2.21-2.48,3.55-.16,.31-.32,.63-.48,.94-.43,.86-.88,1.74-1.34,2.56l-.07,.13-.03,.14c-.6,2.65-2.93,5.17-6.09,6.58-.43,.19-.91,.41-1.42,.65-2.85,1.31-7.15,3.3-9.85,3.3-.88,0-1.46-.2-1.79-.62-.36-.47-.66-1.53-.03-3.95,.71-2.72,3.43-7.61,8.03-9.97l.37-.19,.13-.39c.24-.73,.71-1.54,1.26-2.48,.37-.64,.79-1.37,1.22-2.19,2.04-3.98,3.48-6.39,6.18-6.39m0-1c-3.4,0-5.06,3.02-7.07,6.94-1.05,2.05-2.09,3.46-2.54,4.81-4.75,2.42-7.71,7.37-8.55,10.6-1.14,4.4,.32,5.82,2.79,5.82,3.4,0,8.71-2.71,11.68-4.04,3.56-1.59,6.02-4.43,6.66-7.28,.64-1.14,1.24-2.37,1.84-3.54,2.62-5.11,9.48-7.79-1.19-12.44-1.4-.61-2.59-.89-3.62-.89h0Z"/></g><g><path class="c" d="M149.53,160.57c-2.42,0-8.85,0-10.01-2.37-.5-1.02,0-2.51,1.47-4.41,.81-1.04,1.99-2.12,3.32-3.04l.29-.2-.09-.34c-.82-3.02-1.26-6.26-1.26-9.37,0-10.6,4.54-19.23,10.11-19.23,1.71,0,3.42,.83,4.94,2.41,3.4,3.5,5.38,9.94,5.17,16.8-.14,4.61-.46,8.22-.98,11.04l-.02,.13,.04,.12c.17,.48,.25,1,.25,1.53,0,3.8-4.31,6.9-9.62,6.9-.47,0-.99,0-1.55,.01-.65,0-1.35,.02-2.08,.02Z"/><path d="M153.37,122.12c1.57,0,3.15,.78,4.58,2.25,3.31,3.41,5.24,9.71,5.03,16.44-.14,4.58-.46,8.16-.97,10.96l-.05,.26,.09,.25c.15,.43,.22,.89,.22,1.36,0,3.53-4.09,6.4-9.12,6.4-.47,0-.99,0-1.56,.01-.65,0-1.34,.02-2.07,.02-2.11,0-8.53,0-9.56-2.09-.51-1.04,.49-2.69,1.42-3.89,.78-1,1.92-2.04,3.21-2.94l.58-.4-.19-.68c-.81-2.98-1.24-6.17-1.24-9.23,0-10.15,4.4-18.73,9.61-18.73m0-1c-5.86,0-10.61,8.83-10.61,19.73,0,3.25,.47,6.55,1.27,9.5-1.46,1.01-2.64,2.13-3.43,3.15-5.4,6.96,2.74,7.59,8.93,7.59,1.36,0,2.62-.03,3.63-.03,5.59,0,10.12-3.31,10.12-7.4,0-.6-.1-1.17-.28-1.69,.49-2.69,.84-6.29,.98-11.11,.33-10.89-4.75-19.73-10.61-19.73h0Z"/></g><g><path class="c" d="M105.06,160.07c-28.98,0-52.56-16.91-52.56-37.7,0-13.25,9.43-25.29,25.22-32.2l.87-.38-.8-.5c-7.54-4.73-11.87-11.87-11.87-19.6,0-10.95,8.63-20.45,21.49-23.64l.73-.18-5.15-6.93,9.56,5,.21,.02c.3,0,.57-.19,.66-.48l5.67-17.57-1.14,19.1,.5,.03c.55,.03,1.09,.07,1.63,.13l.24,.02,3.54-3.62-1.88,3.83,.66,.11c13.92,2.41,24.03,12.58,24.03,24.18,0,5.71-2.45,11.28-6.9,15.68l-.66,.65,.91,.19c22.16,4.7,37.63,19.57,37.63,36.16,0,20.79-23.58,37.7-52.56,37.7Z"/><path d="M98.35,29.8l-.88,14.66-.06,1,1,.06c.54,.03,1.08,.07,1.6,.13l.48,.05,.34-.34,1.18-1.2-.21,.42-.59,1.2,1.32,.23c13.68,2.37,23.61,12.33,23.61,23.69,0,5.57-2.4,11.02-6.75,15.33l-1.32,1.3,1.81,.38c10.58,2.25,20.09,6.98,26.78,13.32,6.84,6.49,10.46,14.22,10.46,22.35,0,20.51-23.36,37.2-52.06,37.2s-52.06-16.69-52.06-37.2c0-13.04,9.32-24.91,24.92-31.74l1.73-.76-1.6-1c-7.39-4.63-11.63-11.62-11.63-19.18,0-10.71,8.48-20.02,21.11-23.16l1.46-.36-.9-1.2-3.4-4.57,7.51,3.93c.17,.09,.36,.14,.55,.14,.52,0,.98-.33,1.14-.83l4.46-13.82m1.18-6.49c-.08,0-.15,.04-.18,.14l-6.41,19.86c-.03,.09-.1,.14-.19,.14-.03,0-.06,0-.09-.02l-10.63-5.56s-.06-.02-.09-.02c-.15,0-.26,.18-.15,.32l5.49,7.38c-12.66,3.15-21.86,12.76-21.86,24.13,0,8.16,4.75,15.42,12.1,20.02-15.3,6.7-25.52,18.82-25.52,32.66,0,21.1,23.76,38.2,53.06,38.2s53.06-17.1,53.06-38.2c0-17.34-16.05-31.98-38.03-36.65,4.4-4.36,7.05-9.95,7.05-16.04,0-12.13-10.48-22.26-24.44-24.67l2.43-4.93c.07-.15-.05-.29-.18-.29-.05,0-.09,.02-.14,.06l-4.7,4.81c-.54-.06-1.09-.1-1.65-.13l1.26-21c0-.13-.09-.21-.2-.21h0Z"/></g><g><path class="c" d="M80.2,171.9c-2.42,0-8.85,0-10.01-2.37-.5-1.02,0-2.51,1.47-4.41,1.3-1.68,3.94-3.92,7.43-5.17l.35-.13-.02-.37c-.06-1.1-.09-2.33-.09-3.63,0-7.54,0-12.98,7.06-12.98,1.8,0,3.2,.54,4.3,1.65,1.94,1.97,2.85,5.67,2.77,11.33-.04,3.18-.14,5.62-.28,7.46v.1l.02,.1c.16,.47,.24,.98,.24,1.5,0,3.8-4.31,6.9-9.62,6.9-.47,0-.99,0-1.55,.01-.65,0-1.35,.02-2.08,.02Z"/><path d="M86.4,143.34c1.66,0,2.94,.49,3.94,1.5,1.82,1.84,2.7,5.53,2.62,10.97-.04,3.17-.14,5.59-.28,7.42l-.02,.21,.07,.19c.14,.42,.22,.87,.22,1.34,0,3.53-4.09,6.4-9.12,6.4-.47,0-.99,0-1.56,.01-.65,0-1.34,.02-2.07,.02-2.11,0-8.53,0-9.56-2.09-.51-1.04,.49-2.69,1.42-3.89,1.2-1.55,3.81-3.79,7.21-5l.7-.25-.04-.75c-.06-1.09-.09-2.3-.09-3.6,0-8.2,.29-12.48,6.56-12.48m0-1c-7.56,0-7.56,6.04-7.56,13.48,0,1.35,.03,2.56,.1,3.66-3.41,1.22-6.2,3.46-7.66,5.33-5.4,6.96,2.74,7.59,8.93,7.59,1.36,0,2.62-.03,3.63-.03,5.59,0,10.12-3.31,10.12-7.4,0-.59-.09-1.14-.27-1.66,.15-1.89,.24-4.33,.28-7.49,.1-7.45-1.46-13.48-7.56-13.48h0Z"/></g><g><g><path class="c" d="M86.11,70.97c-.55,0-1.19-.01-1.92-.02-1-.02-2.17-.04-3.54-.04-5.31,0-8.39-1.27-8.39-7.73,0-4.26,3.76-7.73,8.39-7.73s8.39,3.47,8.39,7.73c0,1.6,.06,2.9,.11,3.95,.09,1.85,.14,2.97-.27,3.4-.36,.38-1.32,.45-2.77,.45Z"/><path d="M80.65,55.95c4.35,0,7.89,3.24,7.89,7.23,0,1.61,.06,2.92,.11,3.97,.07,1.48,.13,2.76-.13,3.03-.28,.3-1.82,.3-2.4,.3s-1.19-.01-1.91-.02c-1-.02-2.17-.04-3.55-.04-5.12,0-7.89-1.15-7.89-7.23,0-3.99,3.54-7.23,7.89-7.23m0-1c-4.91,0-8.89,3.69-8.89,8.23,0,7.24,3.98,8.23,8.89,8.23,2.39,0,4.16,.06,5.46,.06,4.74,0,3.42-.81,3.42-8.29,0-4.55-3.98-8.23-8.89-8.23h0Z"/></g><g><path class="c" d="M80.79,70.93c-3.63,0-6.58-3.02-6.58-6.74s2.95-6.74,6.58-6.74,6.58,3.02,6.58,6.74-2.95,6.74-6.58,6.74Z"/><path d="M80.79,57.94c3.35,0,6.08,2.8,6.08,6.24s-2.73,6.24-6.08,6.24-6.08-2.8-6.08-6.24,2.73-6.24,6.08-6.24m0-1c-3.91,0-7.08,3.24-7.08,7.24s3.17,7.24,7.08,7.24,7.08-3.24,7.08-7.24-3.17-7.24-7.08-7.24h0Z"/></g><g><path d="M80.79,69.43c-2.82,0-5.11-2.35-5.11-5.24s2.29-5.24,5.11-5.24,5.11,2.35,5.11,5.24-2.29,5.24-5.11,5.24Z"/><path d="M80.79,59.44c2.54,0,4.61,2.13,4.61,4.74s-2.07,4.74-4.61,4.74-4.61-2.13-4.61-4.74,2.07-4.74,4.61-4.74m0-1c-3.1,0-5.61,2.57-5.61,5.74s2.51,5.74,5.61,5.74,5.61-2.57,5.61-5.74-2.51-5.74-5.61-5.74h0Z"/></g></g><g><g><path class="c" d="M103.15,70.9c-1.53,0-2.49-.08-2.86-.46-.41-.43-.35-1.53-.27-3.37,.05-1.04,.11-2.34,.11-3.93,0-4.24,3.87-7.7,8.62-7.7s8.62,3.45,8.62,7.7c0,6.44-3.16,7.7-8.62,7.7-1.41,0-2.61,.02-3.63,.04-.75,.01-1.41,.02-1.97,.02h0Z"/><path d="M108.75,55.95c4.48,0,8.12,3.23,8.12,7.2,0,6.05-2.85,7.2-8.12,7.2-1.41,0-2.62,.02-3.64,.04-.75,.01-1.4,.02-1.97,.02-.6,0-2.21,0-2.5-.31-.26-.27-.2-1.53-.13-3,.05-1.05,.11-2.35,.11-3.95,0-3.97,3.64-7.2,8.12-7.2m0-1c-5.04,0-9.12,3.67-9.12,8.2,0,7.45-1.35,8.26,3.51,8.26,1.34,0,3.16-.06,5.61-.06,5.04,0,9.12-.98,9.12-8.2,0-4.53-4.08-8.2-9.12-8.2h0Z"/></g><g><path class="c" d="M108.6,70.93c-3.63,0-6.58-3.02-6.58-6.74s2.95-6.74,6.58-6.74,6.58,3.02,6.58,6.74-2.95,6.74-6.58,6.74Z"/><path d="M108.6,57.94c3.35,0,6.08,2.8,6.08,6.24s-2.73,6.24-6.08,6.24-6.08-2.8-6.08-6.24,2.73-6.24,6.08-6.24m0-1c-3.91,0-7.08,3.24-7.08,7.24s3.17,7.24,7.08,7.24,7.08-3.24,7.08-7.24-3.17-7.24-7.08-7.24h0Z"/></g><g><path d="M108.6,69.43c-2.82,0-5.11-2.35-5.11-5.24s2.29-5.24,5.11-5.24,5.11,2.35,5.11,5.24-2.29,5.24-5.11,5.24Z"/><path d="M108.6,59.44c2.54,0,4.61,2.13,4.61,4.74s-2.07,4.74-4.61,4.74-4.61-2.13-4.61-4.74,2.07-4.74,4.61-4.74m0-1c-3.1,0-5.61,2.57-5.61,5.74s2.51,5.74,5.61,5.74,5.61-2.57,5.61-5.74-2.51-5.74-5.61-5.74h0Z"/></g></g><g><path class="c" d="M121.48,170.31c-2.42,0-8.85,0-10.01-2.37-.5-1.02,0-2.51,1.47-4.41,1.26-1.63,3.82-3.82,7.22-5.09l.33-.12v-.35c-.02-1.16,0-2.46,.08-3.87,.03-.55,.05-1.1,.07-1.64,.27-6.6,.47-11.37,6.99-11.37,7.06,0,7.06,5.45,7.06,12.98,0,.94,.02,1.87,.05,2.78,.05,1.99,.1,3.87-.11,5.46v.16c.06,.3,.09,.61,.09,.91,0,3.8-4.31,6.9-9.62,6.9-.47,0-.99,0-1.55,.01-.65,0-1.35,.02-2.08,.02Z"/><path d="M127.63,141.59c6.27,0,6.56,4.28,6.56,12.48,0,.94,.02,1.88,.05,2.79,.05,1.97,.09,3.83-.11,5.39l-.02,.16,.03,.16c.05,.27,.08,.54,.08,.82,0,3.53-4.09,6.4-9.12,6.4-.47,0-.99,0-1.56,.01-.65,0-1.34,.02-2.07,.02-2.11,0-8.53,0-9.56-2.09-.51-1.04,.49-2.69,1.42-3.89,1.22-1.57,3.7-3.69,7-4.93l.66-.25v-.7c-.02-1.15,0-2.44,.07-3.84,.03-.56,.05-1.1,.07-1.64,.31-7.35,.71-10.89,6.49-10.89m0-1c-7.56,0-7.21,6.05-7.56,13.48-.07,1.45-.09,2.74-.08,3.9-3.31,1.24-6.02,3.42-7.44,5.25-5.4,6.96,2.74,7.59,8.93,7.59,1.36,0,2.62-.03,3.63-.03,5.59,0,10.12-3.31,10.12-7.4,0-.35-.03-.68-.1-1,.31-2.37,.07-5.3,.07-8.3,0-7.45,0-13.48-7.56-13.48h0Z"/></g><g><line class="d" x1="89.91" y1="50.82" x2="94.47" y2="57.04"/><line class="d" x1="99.4" y1="50.64" x2="94.33" y2="57.07"/><line class="d" x1="94.33" y1="57.82" x2="94.82" y2="69.55"/></g><g><g><g><g><path class="c" d="M105.72,92.9c-3.51,0-5.93-.71-7.38-2.18-2.04-2.07-2.01-5.43-1.97-8.99,.01-.95,.02-1.9,0-2.84-.14-4.72,3.53-5.3,9.54-5.87,3.67-.35,7.82-.74,10.9-2.82,2.26-1.53,5.22-2.51,7.55-2.51,1.25,0,2.93,.29,3.83,1.68,1.21,1.88,.75,5.31-1.34,9.94-3.84,8.51-8.13,12.09-15.83,13.18-1.97,.28-3.75,.42-5.29,.42h0Z"/><path d="M124.35,68.18c1.64,0,2.79,.49,3.41,1.45,.78,1.2,1.17,3.82-1.38,9.47-3.76,8.33-7.95,11.83-15.44,12.89-1.95,.28-3.7,.42-5.22,.42-3.37,0-5.67-.67-7.02-2.03-1.9-1.92-1.86-5.18-1.82-8.64,.01-.94,.02-1.91,0-2.86-.13-4.28,3.2-4.8,9.09-5.36,3.73-.35,7.95-.75,11.13-2.9,2.18-1.47,5.04-2.43,7.27-2.43m0-1c-2.58,0-5.64,1.12-7.83,2.6-7.33,4.95-20.94,0-20.66,9.12,.21,6.85-1.69,14.5,9.85,14.5,1.54,0,3.31-.14,5.36-.43,8.33-1.18,12.58-5.43,16.21-13.47,4.21-9.33,1.27-12.33-2.94-12.33h0Z"/></g><g><path class="c" d="M84.57,92.88c-1.57,0-3.38-.14-5.38-.42-7.83-1.09-12.2-4.66-16.11-13.17-2.11-4.6-2.59-8.02-1.39-9.9,.91-1.41,2.63-1.71,3.93-1.71,2.37,0,5.39,.99,7.69,2.51,3.13,2.07,7.35,2.47,11.08,2.81,6.12,.57,9.86,1.16,9.71,5.87-.03,.94-.02,1.89,0,2.84,.04,3.54,.08,6.88-1.96,8.95-1.48,1.49-3.95,2.22-7.55,2.22h0Z"/><path d="M65.61,68.18c2.28,0,5.19,.95,7.41,2.43,3.23,2.14,7.52,2.54,11.31,2.9,6,.56,9.39,1.08,9.26,5.36-.03,.95-.02,1.92,0,2.86,.04,3.43,.08,6.67-1.82,8.59-1.38,1.39-3.73,2.07-7.2,2.07-1.54,0-3.33-.14-5.31-.42-7.64-1.06-11.9-4.56-15.72-12.88-2.57-5.6-2.19-8.21-1.42-9.42,.63-.98,1.81-1.48,3.5-1.48m0-1c-4.29,0-7.28,2.99-2.99,12.32,3.69,8.03,8.02,12.28,16.49,13.46,2.08,.29,3.89,.43,5.45,.43,11.74,0,9.81-7.64,10.02-14.49,.28-9.12-13.56-4.17-21.01-9.12-2.22-1.47-5.34-2.6-7.96-2.6h0Z"/></g></g><g><ellipse class="c" cx="95.06" cy="75.42" rx="5.97" ry="3.74"/><path d="M95.06,72.18c2.96,0,5.47,1.49,5.47,3.24s-2.5,3.24-5.47,3.24-5.47-1.49-5.47-3.24,2.5-3.24,5.47-3.24m0-1c-3.57,0-6.47,1.9-6.47,4.24s2.89,4.24,6.47,4.24,6.47-1.9,6.47-4.24-2.89-4.24-6.47-4.24h0Z"/></g><polygon class="d" points="99.62 89.27 96.96 90.92 101.48 91.21 104.05 84.66 99.62 89.27"/><path class="d" d="M89.87,89l2.75,1.53-2.44,2c-.17,.14-.39,.2-.49,0l-3.41-7.46,3.58,3.93Z"/></g><g><path class="c" d="M94.82,92.65c-6.62,0-10.84-1.55-10.84-2.62,0-.15,.36-.18,.67-.18,.67,0,1.7,.16,2.88,.35,1.97,.31,4.42,.7,7.17,.7s5.22-.39,7.22-.7c1.24-.19,2.31-.36,3.03-.36,.61,0,.71,.12,.71,.12,0,1.13-4.22,2.68-10.84,2.68Z"/><path d="M104.83,90.35c-1.02,.71-4.32,1.8-10.01,1.8s-9.04-1.11-10.03-1.8c.64,.02,1.58,.17,2.66,.34,1.99,.32,4.46,.71,7.25,.71s5.28-.39,7.3-.7c1.16-.18,2.16-.33,2.84-.35m.11-1c-1.9,0-5.81,1.05-10.25,1.05s-8.23-1.05-10.05-1.05c-.75,0-1.17,.18-1.17,.68,0,1.72,5.08,3.12,11.34,3.12s11.34-1.4,11.34-3.12c0-.5-.44-.68-1.22-.68h0Z"/></g></g></g></g><g id="b"/></svg>