<?xml version="1.0" encoding="UTF-8"?><svg id="a" xmlns="http://www.w3.org/2000/svg" width="1280" height="1024" viewBox="0 0 1280 1024"><defs><style>.b,.c{fill:#fff;}.d{fill:#155500;}.e{fill:#2a1700;}.f{fill:#744500;}.f,.c,.g,.h,.i,.j{stroke:#000;stroke-miterlimit:10;}.g{fill:#ffdff3;}.h{fill:#ffdffe;}.i{fill:#5f3300;}.k{font-family:MyriadPro-Regular, Myriad Pro;font-size:12px;}.j{fill:none;}</style></defs><path class="f" d="M351.79,85.12c0,26.79-17.24,48.5-38.5,48.5s-11.79-46.55-38.5-48.5c-48-3.5,3-33.5,38.5-48.5,39.84-16.83,38.5,21.71,38.5,48.5Z"/><path class="f" d="M484.17,380.78c-30,13.5-29.84,43.5-50,43.5s-20.86-23.46-23-43.5c-4-37.5,4.5-66.5,34-54.5,18.67,7.6,57.38,46.23,39,54.5Z"/><path class="f" d="M698.13,283.92c0,26.79-17.24,48.5-38.5,48.5s-11.79-46.55-38.5-48.5c-48-3.5,3-33.5,38.5-48.5,39.84-16.83,38.5,21.71,38.5,48.5Z"/><path class="f" d="M767.03,579.09s9.55,10.24-6.15,33.45c-15.7,23.22-28.78,18.19-28.78,18.19,14.26,9.65,33.64,5.91,43.29-8.36,9.65-14.26,5.91-33.64-8.36-43.29Z"/><path class="g" d="M467.17,379.78c0,11.87-8.06,21.5-18,21.5s-18-9.63-18-21.5,0-26.5,18-21.5c9.58,2.66,18,9.63,18,21.5Z"/><path class="h" d="M639.07,395.73c0,11.77-8.06,21.3-18,21.3s-18-9.54-18-21.3,8.28-19.2,18-21.3c23.06-5,18,9.54,18,21.3Z"/><path class="i" d="M754.35,702.49c2.79-10.25,4.36-23.77,9.15-38.99,12.33-39.22,0-80-36-59-17.17,10.02-30.49,26.88-36,59-3.2,18.65,1.6,33.81,9.78,44.1-7.3,5.62-11.78,13.88-11.78,24.9,0,18.78,4,34,43.5,34,43.5,0,47.5-15.22,47.5-34,0-13-11.25-24.29-26.15-30.01Z"/><path class="i" d="M612.5,746c0-28.44-16.34-51.5-36.5-51.5s-30.33,23.73-36.5,51.5c-1.82,8.17-1.49,15.09,.29,21-17.43,5.23-33.05,18.06-36.29,32.5-13,58,29.58,35,52.5,35,41.5,0,41.5-15.67,41.5-35,0-1.89-.18-3.75-.53-5.57,10.4-9.2,15.53-29.34,15.53-47.93Z"/><path class="f" d="M639.5,578.5c18,9,29-43,28-56-2.79-36.3-40-85-95.05-85.03-.97,0-.95-2.97-1.95-5.97l-20-53-19,43c-.5-3.61,2.72,17.41-1.09,2.3l-25.99-50.12,1.08,6.82c-2.73,.14-11.33,43.68-14,44l-29-16-6,32c-39.77,14.14-77,56.6-77,98,0,12.25,13.02,46.72,22,50-46.94,29.24-46,56.8-46,107,0,88.09,62.95,96,177,96s177.63-6.24,170-94c-6-69,13.51-95.64-63-119Z"/><path class="i" d="M666.26,724.65c.16-2.02,.24-4.07,.24-6.15,0-30.38-17.01-55-38-55s-38,24.62-38,55c0,17.89,5.9,33.78,15.04,43.82,.55,16.87,7.66,30.18,44.96,30.18,24.85,0,45-14.55,45-32.5,0-15.55,0-37.54-29.24-35.35Z"/><path class="i" d="M521.53,753.3c6.77-12.17,7.97-30.07,7.97-48.58,0-35.19-19.28-63.72-43.06-63.72s-43.06,28.53-43.06,63.72c0,7.14,.81,13.87,2.28,20.12-18.86,4.98-35.65,15.3-35.65,33.45,0,28.19,39.27,37.22,65.13,37.22,58.67,0,46.83-16.66,46.83-37.22,0-1.69-.16-3.36-.43-4.99Z"/><g><path class="b" d="M499.19,431.5c-2.14,0-4.6-.04-7.42-.08-3.9-.06-8.31-.13-13.59-.13-20.79,0-33.68-4.75-33.68-28.39,0-15.66,15.11-28.39,33.68-28.39s33.68,12.74,33.68,28.39c0,5.6,.23,10.14,.42,13.8,.35,6.95,.54,10.78-1.28,12.69-1.69,1.78-5.46,2.12-11.81,2.12Z"/><path d="M478.18,375c18.29,0,33.18,12.51,33.18,27.89,0,5.61,.23,10.16,.42,13.82,.34,6.81,.53,10.56-1.14,12.32-1.57,1.65-5.23,1.96-11.45,1.96-2.13,0-4.58-.04-7.41-.08-3.9-.06-8.32-.13-13.59-.13-20.48,0-33.18-4.67-33.18-27.89,0-15.38,14.88-27.89,33.18-27.89m0-1c-18.88,0-34.18,12.94-34.18,28.89,0,25.42,15.3,28.89,34.18,28.89,9.17,0,15.98,.22,21.01,.22,18.23,0,13.17-2.84,13.17-29.11,0-15.96-15.3-28.89-34.18-28.89h0Z"/></g><g><path class="d" d="M478.71,431.34c-14.73,0-26.71-11.18-26.71-24.91s11.98-24.91,26.71-24.91,26.71,11.18,26.71,24.91-11.98,24.91-26.71,24.91Z"/><path d="M478.71,382.01c14.45,0,26.21,10.95,26.21,24.41s-11.76,24.41-26.21,24.41-26.21-10.95-26.21-24.41,11.76-24.41,26.21-24.41m0-1c-15.03,0-27.21,11.38-27.21,25.41s12.18,25.41,27.21,25.41,27.21-11.38,27.21-25.41-12.18-25.41-27.21-25.41h0Z"/></g><g><path d="M478.71,426.08c-11.62,0-21.08-8.82-21.08-19.65s9.46-19.66,21.08-19.66,21.08,8.82,21.08,19.66-9.46,19.65-21.08,19.65Z"/><path d="M478.71,387.27c11.35,0,20.58,8.59,20.58,19.15s-9.23,19.16-20.58,19.16-20.58-8.59-20.58-19.16,9.23-19.15,20.58-19.15m0-1c-11.92,0-21.58,9.02-21.58,20.15s9.66,20.16,21.58,20.16,21.58-9.02,21.58-20.16-9.66-20.15-21.58-20.15h0Z"/></g><g><path class="b" d="M551.02,431.42c-6.47,0-10.3-.34-12.01-2.14-1.82-1.92-1.63-5.73-1.27-12.65,.19-3.65,.42-8.19,.42-13.78,0-15.63,15.33-28.35,34.17-28.35s34.17,12.72,34.17,28.35c0,23.61-13.08,28.35-34.17,28.35-5.35,0-9.83,.07-13.78,.13-2.87,.04-5.36,.08-7.53,.08h0Z"/><path d="M572.33,375c18.57,0,33.67,12.49,33.67,27.85,0,23.19-12.88,27.85-33.67,27.85-5.36,0-9.84,.07-13.79,.13-2.88,.04-5.36,.08-7.52,.08-6.33,0-10.06-.32-11.65-1.99-1.67-1.76-1.48-5.5-1.13-12.28,.19-3.65,.42-8.2,.42-13.8,0-15.36,15.11-27.85,33.67-27.85m0-1c-19.15,0-34.67,12.92-34.67,28.85,0,26.23-5.14,29.07,13.36,29.07,5.1,0,12.01-.22,21.31-.22,19.15,0,34.67-3.46,34.67-28.85,0-15.93-15.52-28.85-34.67-28.85h0Z"/></g><g><path class="d" d="M571.76,431.5c-14.55,0-26.4-11.21-26.4-24.98s11.84-24.98,26.4-24.98,26.4,11.21,26.4,24.98-11.84,24.98-26.4,24.98Z"/><path d="M571.76,382.03c14.28,0,25.9,10.98,25.9,24.48s-11.62,24.48-25.9,24.48-25.9-10.98-25.9-24.48,11.62-24.48,25.9-24.48m0-1c-14.85,0-26.9,11.41-26.9,25.48s12.04,25.48,26.9,25.48,26.9-11.41,26.9-25.48-12.04-25.48-26.9-25.48h0Z"/></g><g><ellipse cx="571.76" cy="406.52" rx="20.83" ry="19.71"/><path d="M571.76,387.3c11.21,0,20.33,8.62,20.33,19.21s-9.12,19.21-20.33,19.21-20.33-8.62-20.33-19.21,9.12-19.21,20.33-19.21m0-1c-11.78,0-21.33,9.05-21.33,20.21s9.55,20.21,21.33,20.21,21.33-9.05,21.33-20.21-9.55-20.21-21.33-20.21h0Z"/></g><text class="k" transform="translate(487.12 516.02)"><tspan x="0" y="0">155500</tspan></text><line class="j" x1="511.42" y1="366.43" x2="525.14" y2="387.53"/><line class="j" x1="540" y1="365.8" x2="524.73" y2="387.63"/><line class="j" x1="524.73" y1="390.17" x2="526.2" y2="430"/><g><path class="e" d="M561.59,519.5c-11.66,0-19.92-2.61-25.23-7.97-8.49-8.57-8.35-22.9-8.21-38.06,.04-3.7,.07-7.52-.03-11.23-.56-21.15,15.45-22.91,33.99-24.94,12.5-1.37,26.66-2.92,37.01-11,7.97-6.23,18.44-10.25,26.67-10.25,6.06,0,10.74,2.15,13.51,6.21,5.26,7.7,3.93,22.3-3.84,42.21-13.28,34.02-28.84,48.97-55.5,53.34-6.84,1.12-13.03,1.69-18.39,1.69h0Z"/><path d="M625.8,416.54c7.44,0,11.23,3.26,13.1,5.99,5.16,7.56,3.82,22-3.89,41.75-6.59,16.89-13.47,28.56-21.63,36.73-8.82,8.82-19.46,14-33.48,16.3-6.82,1.12-12.98,1.68-18.31,1.68-11.52,0-19.66-2.56-24.87-7.82-8.34-8.42-8.21-22.65-8.06-37.71,.04-3.7,.07-7.53-.03-11.25-.25-9.46,2.76-15.55,9.48-19.15,6.18-3.31,14.87-4.27,24.07-5.27,12.56-1.38,26.8-2.94,37.26-11.1,7.89-6.16,18.24-10.14,26.37-10.14m0-1c-8.9,0-19.45,4.48-26.98,10.35-25.25,19.71-72.16,0-71.19,36.35,.72,27.31-5.82,57.76,33.96,57.76,5.3,0,11.41-.54,18.47-1.7,28.72-4.71,43.37-21.62,55.88-53.65,14.52-37.19,4.38-49.11-10.14-49.11h0Z"/></g><g><path class="e" d="M489.99,519.42c-5.73,0-12.35-.58-19.66-1.71-28.5-4.43-45.13-19.6-59.33-54.1-8.16-19.83-9.68-34.49-4.38-42.39,2.94-4.39,8.04-6.71,14.75-6.71,8.8,0,20,4.08,28.53,10.4,11.05,8.19,26.18,9.76,39.52,11.15,19.83,2.06,36.95,3.84,36.35,25.29-.1,3.77-.07,7.65-.03,11.4,.15,15.14,.3,29.44-8.35,38.18-5.66,5.72-14.63,8.5-27.41,8.5h0Z"/><path d="M421.37,415c8.7,0,19.79,4.04,28.24,10.3,11.16,8.27,26.36,9.85,39.77,11.24,9.84,1.02,19.14,1.99,25.75,5.36,7.19,3.66,10.41,9.83,10.15,19.42-.11,3.78-.07,7.67-.03,11.42,.15,15.03,.3,29.23-8.2,37.82-5.57,5.62-14.42,8.36-27.06,8.36-5.71,0-12.3-.57-19.59-1.71-15-2.33-26.39-7.59-35.82-16.55-8.73-8.29-16.08-20.12-23.12-37.25-8.09-19.67-9.63-34.17-4.43-41.92,3.59-5.36,9.78-6.49,14.34-6.49m0-1c-15.52,0-26.35,12.08-10.83,49.8,13.36,32.48,29.02,49.63,59.71,54.41,7.55,1.17,14.08,1.72,19.74,1.72,42.52,0,35.52-30.88,36.29-58.57,1.03-36.86-49.09-16.87-76.08-36.86-8.04-5.96-19.32-10.5-28.83-10.5h0Z"/></g><g><path d="M527.9,464.79c-12.01,0-21.78-7.36-21.78-16.41s9.77-16.41,21.78-16.41,21.78,7.36,21.78,16.41-9.77,16.41-21.78,16.41Z"/><path d="M527.9,432.46c11.74,0,21.28,7.14,21.28,15.91s-9.55,15.91-21.28,15.91-21.28-7.14-21.28-15.91,9.55-15.91,21.28-15.91m0-1c-12.31,0-22.28,7.57-22.28,16.91s9.98,16.91,22.28,16.91,22.28-7.57,22.28-16.91-9.98-16.91-22.28-16.91h0Z"/></g><polygon class="c" points="543.6 503.55 534.45 510.11 550.03 511.27 558.89 485.16 543.6 503.55"/><path class="c" d="M509.99,502.47l9.49,6.09-8.41,7.96c-.57,.57-1.35,.79-1.68,0l-11.76-29.72,12.36,15.67Z"/><g><path d="M525.5,518.53c-20.66,0-38.11-5.3-38.11-11.58,0-1.11,.42-2.13,3.48-2.13,2.38,0,5.74,.61,9.99,1.38,6.67,1.21,14.97,2.71,24.23,2.71s17.62-1.49,24.4-2.68c4.27-.75,7.96-1.4,10.47-1.4,3.22,0,3.65,1.08,3.65,2.13,0,6.28-17.45,11.58-38.11,11.58Z"/><path d="M559.96,504.32v1c3.15,0,3.15,1.02,3.15,1.63,0,5.35-15.11,11.08-37.61,11.08s-37.61-5.73-37.61-11.08c0-.65,0-1.63,2.98-1.63,2.34,0,5.84,.63,9.9,1.37,6.69,1.21,15.02,2.72,24.31,2.72s17.69-1.49,24.49-2.69c4.25-.75,7.92-1.39,10.38-1.39v-1m0,0c-6.46,0-19.76,4.08-34.87,4.08s-27.99-4.08-34.21-4.08c-2.55,0-3.98,.69-3.98,2.63,0,6.67,17.29,12.08,38.61,12.08s38.61-5.41,38.61-12.08c0-1.94-1.5-2.63-4.15-2.63h0Z"/></g><g><path class="b" d="M554,717.5c-11.06,0-13.41-19.78-16.38-44.82-2.52-21.2-5.37-45.23-14.17-64.89-2.96-6.61-5.62-12.5-7.99-17.76-11.79-26.14-16.67-36.96-15.07-39.45,.16-.25,.5-.59,1.55-.59,1.58,0,4.12,.77,7.34,1.74,6.19,1.87,15.55,4.7,27.13,4.7h0c3.88,0,7.8-.32,11.65-.95,3.02-.49,5.95-.74,8.7-.74,23.36,0,38.07,18.28,43.73,54.33,5.27,33.61-10.24,75.51-28.28,96.6-6.61,7.73-12.92,11.82-18.23,11.82Z"/><path d="M501.95,550.5c1.51,0,4.02,.76,7.2,1.72,6.22,1.88,15.62,4.72,27.27,4.72,3.91,0,7.85-.32,11.74-.96,3-.49,5.9-.74,8.62-.74,10.27,0,18.92,3.57,25.69,10.6,8.52,8.84,14.42,23.41,17.54,43.31,3.12,19.87-1.34,39.94-5.62,53.27-5.42,16.86-13.63,32.51-22.54,42.93-6.42,7.51-12.76,11.65-17.85,11.65-10.61,0-12.94-19.58-15.88-44.38-2.52-21.24-5.37-45.3-14.21-65.03-2.96-6.61-5.62-12.5-7.99-17.76-11.02-24.45-16.56-36.72-15.1-38.97,.06-.1,.24-.36,1.13-.36m0-1c-6.16,0-.43,10.53,21.05,58.5,19.41,43.35,10.01,110,31,110s54.36-62.08,47-109c-6.89-43.92-25.86-54.75-44.22-54.75-2.96,0-5.9,.28-8.78,.75-4.08,.67-7.94,.94-11.58,.94-17.54,0-29.65-6.44-34.47-6.44h0Z"/></g><g><path class="e" d="M250.7,270.5c-12.23,0-21.02-2.87-26.88-8.78-10.17-10.25-10.01-28.06-9.85-46.92,.04-4.46,.08-9.07-.03-13.56-.62-25.64,16.97-27.76,37.34-30.22,13.71-1.65,29.24-3.53,40.59-13.28,8.75-7.52,20.24-12.38,29.27-12.38,6.35,0,11.16,2.25,14.3,6.69,6.44,9.11,5.18,27.07-3.64,51.94-14.58,41.11-31.66,59.19-60.92,64.46-7.51,1.35-14.29,2.04-20.17,2.04h0Z"/><path d="M321.14,145.86c6.18,0,10.85,2.18,13.89,6.48,8.01,11.34,2.4,34.26-3.71,51.49-7.24,20.43-14.8,34.54-23.78,44.43-9.69,10.67-21.37,16.93-36.76,19.71-7.48,1.35-14.23,2.03-20.09,2.03-12.09,0-20.77-2.82-26.52-8.63-10.02-10.11-9.87-27.81-9.7-46.56,.04-4.46,.08-9.08-.03-13.58-.28-11.54,3.05-18.95,10.49-23.34,6.78-4,16.32-5.15,26.41-6.37,13.78-1.66,29.39-3.55,40.85-13.4,8.67-7.45,20.03-12.26,28.95-12.26m0-1c-9.77,0-21.34,5.41-29.6,12.5-27.7,23.81-79.15,0-78.1,43.89,.79,32.97-6.38,69.74,37.25,69.74,5.81,0,12.51-.65,20.26-2.05,31.51-5.69,47.58-26.11,61.3-64.79,15.93-44.91,4.81-59.3-11.12-59.3h0Z"/></g><g><path class="e" d="M172.16,270.41c-6.29,0-13.55-.7-21.57-2.07-31.28-5.36-49.53-23.69-65.12-65.38-9.26-24.79-10.72-42.84-4.23-52.2,3.29-4.75,8.7-7.25,15.64-7.25,9.66,0,21.95,4.93,31.31,12.57,12.11,9.88,28.71,11.78,43.35,13.46,21.78,2.49,40.58,4.65,39.92,30.65-.12,4.55-.07,9.24-.03,13.76,.17,18.83,.34,36.62-10.04,47.09-6.25,6.31-15.82,9.38-29.24,9.38h0Z"/><path d="M96.89,144c9.55,0,21.72,4.89,30.99,12.45,12.23,9.97,28.9,11.88,43.6,13.56,10.8,1.24,21,2.4,28.26,6.47,7.95,4.45,11.51,11.97,11.22,23.67-.12,4.56-.07,9.25-.03,13.78,.17,18.73,.33,36.41-9.89,46.73-6.16,6.21-15.6,9.23-28.88,9.23-6.26,0-13.49-.69-21.48-2.06-16.47-2.82-28.96-9.18-39.33-20.01-9.59-10.03-17.67-24.34-25.41-45.06-9.2-24.62-10.68-42.52-4.28-51.74,3.24-4.67,8.36-7.04,15.23-7.04m0-1c-17.02,0-28.91,14.59-11.88,60.13,14.66,39.23,31.83,59.94,65.5,65.7,8.28,1.42,15.45,2.08,21.65,2.08,46.64,0,38.96-37.28,39.81-70.72,1.13-44.51-53.85-20.37-83.45-44.51-8.82-7.19-21.19-12.68-31.63-12.68h0Z"/></g><g><ellipse cx="213.74" cy="184.51" rx="23.94" ry="19.92"/><path d="M213.74,165.09c12.93,0,23.44,8.71,23.44,19.42s-10.52,19.42-23.44,19.42-23.44-8.71-23.44-19.42,10.52-19.42,23.44-19.42m0-1c-13.5,0-24.44,9.14-24.44,20.42s10.94,20.42,24.44,20.42,24.44-9.14,24.44-20.42-10.94-20.42-24.44-20.42h0Z"/></g><polygon class="c" points="230.96 251.13 220.93 259.06 238.01 260.46 247.74 228.93 230.96 251.13"/><path class="c" d="M194.1,249.83l10.41,7.36-9.22,9.61c-.63,.68-1.48,.95-1.84,0l-12.9-35.89,13.55,18.92Z"/><g><path d="M214.1,270.22c-28.5,0-51.68-6.84-51.68-15.24,0-1.45,.58-2.93,4.88-2.93,3.24,0,7.78,.79,13.53,1.79,9.01,1.57,20.21,3.52,32.7,3.52s23.79-1.93,32.94-3.49c5.78-.98,10.77-1.83,14.18-1.83,4.51,0,5.11,1.48,5.11,2.93,0,8.4-23.18,15.24-51.68,15.24Z"/><path d="M260.66,251.55v1c4.61,0,4.61,1.58,4.61,2.43,0,7.12-20.57,14.74-51.18,14.74s-51.18-7.62-51.18-14.74c0-.85,0-2.43,4.38-2.43,3.2,0,7.72,.79,13.44,1.79,9.03,1.57,20.26,3.53,32.79,3.53s23.85-1.94,33.03-3.5c5.76-.98,10.73-1.82,14.1-1.82v-1m0,0c-8.73,0-26.7,5.32-47.13,5.32s-37.83-5.32-46.23-5.32c-3.45,0-5.38,.9-5.38,3.43,0,8.69,23.36,15.74,52.18,15.74s52.18-7.05,52.18-15.74c0-2.53-2.03-3.43-5.61-3.43h0Z"/></g><g><path class="b" d="M179.02,174.01c-2.63,0-5.64-.05-9.12-.11-4.79-.08-10.21-.17-16.69-.17-25.62,0-41.5-6.04-41.5-36.12,0-19.91,18.62-36.12,41.5-36.12s41.5,16.2,41.5,36.12c0,7.09,.28,12.85,.51,17.48,.44,8.9,.68,13.8-1.66,16.25-2.13,2.24-6.75,2.66-14.53,2.66Z"/><path d="M153.21,102c22.61,0,41,15.98,41,35.62,0,7.1,.28,12.87,.51,17.5,.43,8.76,.67,13.58-1.52,15.88-2.01,2.11-6.53,2.51-14.17,2.51-2.62,0-5.63-.05-9.11-.11-4.79-.08-10.22-.17-16.7-.17-25.31,0-41-5.96-41-35.62,0-19.64,18.39-35.62,41-35.62m0-1c-23.19,0-42,16.39-42,36.62,0,32.22,18.8,36.62,42,36.62,11.27,0,19.63,.27,25.82,.27,22.41,0,16.18-3.6,16.18-36.89,0-20.22-18.8-36.62-42-36.62h0Z"/></g><g><path class="d" d="M153.87,173.8c-18.16,0-32.93-14.22-32.93-31.71s14.77-31.71,32.93-31.71,32.93,14.22,32.93,31.71-14.77,31.71-32.93,31.71Z"/><path d="M153.87,110.88c17.88,0,32.43,14,32.43,31.21s-14.55,31.21-32.43,31.21-32.43-14-32.43-31.21,14.55-31.21,32.43-31.21m0-1c-18.46,0-33.43,14.42-33.43,32.21s14.97,32.21,33.43,32.21,33.43-14.42,33.43-32.21-14.97-32.21-33.43-32.21h0Z"/></g><g><path d="M153.87,167.13c-14.34,0-26.02-11.23-26.02-25.04s11.67-25.04,26.02-25.04,26.02,11.23,26.02,25.04-11.67,25.04-26.02,25.04Z"/><path d="M153.87,117.55c14.07,0,25.52,11.01,25.52,24.54s-11.45,24.54-25.52,24.54-25.52-11.01-25.52-24.54,11.45-24.54,25.52-24.54m0-1c-14.64,0-26.52,11.44-26.52,25.54s11.87,25.54,26.52,25.54,26.52-11.44,26.52-25.54-11.87-25.54-26.52-25.54h0Z"/></g><g><path class="b" d="M251.42,174.17c-7.78,0-12.4-.42-14.53-2.66-2.34-2.45-2.1-7.35-1.66-16.25,.23-4.63,.51-10.39,.51-17.48,0-19.91,18.62-36.12,41.5-36.12s41.5,16.2,41.5,36.12c0,30.07-15.88,36.12-41.5,36.12-6.48,0-11.91,.09-16.69,.17-3.48,.06-6.49,.11-9.12,.11h0Z"/><path d="M277.24,102.16c22.61,0,41,15.98,41,35.62,0,29.66-15.69,35.62-41,35.62-6.49,0-11.91,.09-16.7,.17-3.48,.06-6.49,.11-9.11,.11-7.64,0-12.16-.4-14.17-2.51-2.19-2.3-1.95-7.12-1.52-15.88,.23-4.63,.51-10.4,.51-17.5,0-19.64,18.39-35.62,41-35.62m0-1c-23.19,0-42,16.39-42,36.62,0,33.29-6.22,36.89,16.18,36.89,6.18,0,14.54-.27,25.82-.27,23.19,0,42-4.39,42-36.62,0-20.22-18.8-36.62-42-36.62h0Z"/></g><g><path class="d" d="M276.58,173.96c-18.16,0-32.93-14.22-32.93-31.71s14.77-31.71,32.93-31.71,32.93,14.22,32.93,31.71-14.77,31.71-32.93,31.71Z"/><path d="M276.58,111.05c17.88,0,32.43,14,32.43,31.21s-14.55,31.21-32.43,31.21-32.43-14-32.43-31.21,14.55-31.21,32.43-31.21m0-1c-18.46,0-33.43,14.42-33.43,32.21s14.97,32.21,33.43,32.21,33.43-14.42,33.43-32.21-14.97-32.21-33.43-32.21h0Z"/></g><g><path d="M276.58,167.3c-14.34,0-26.02-11.23-26.02-25.04s11.67-25.04,26.02-25.04,26.02,11.23,26.02,25.04-11.67,25.04-26.02,25.04Z"/><path d="M276.58,117.71c14.07,0,25.52,11.01,25.52,24.54s-11.45,24.54-25.52,24.54-25.52-11.01-25.52-24.54,11.45-24.54,25.52-24.54m0-1c-14.64,0-26.52,11.44-26.52,25.54s11.87,25.54,26.52,25.54,26.52-11.44,26.52-25.54-11.87-25.54-26.52-25.54h0Z"/></g><line class="j" x1="200.23" y1="90.63" x2="216.44" y2="111.64"/><line class="j" x1="234" y1="90" x2="215.96" y2="111.74"/><line class="j" x1="215.96" y1="114.27" x2="217.69" y2="153.94"/><path class="f" d="M150.27,78.2c-30,13.5-29.84,43.5-50,43.5s-20.86-23.46-23-43.5c-4-37.5,4.5-66.5,34-54.5,18.67,7.6,57.38,46.23,39,54.5Z"/><path class="f" d="M260.36,511.74c3.34-10.38,5.14-21.37,5.14-32.74,0-63.79-56.41-115.5-126-115.5S13.5,415.21,13.5,479c0,28.43,11.21,54.45,29.79,74.57-15.71,18.26-24.79,39.82-24.79,62.93,0,65.72,73.43,119,164,119s164-53.28,164-119c0-45.28-34.85-84.64-86.14-104.76Z"/></svg>