<?xml version="1.0" encoding="UTF-8"?><svg xmlns="http://www.w3.org/2000/svg" width="1280" height="1024" xmlns:xlink="http://www.w3.org/1999/xlink" viewBox="0 0 1280 1024"><defs><style>.c,.d{fill:#fff;}.e{fill:#ff7200;}.f{fill:#2fa519;}.g{fill:#ff7300;}.g,.d,.h,.i,.j{stroke:#000;stroke-miterlimit:10;}.h{fill:#c30023;}.i{fill:#08923e;}.j{fill:#282423;}</style></defs><g id="a"><image transform="translate(28.75 7.39) rotate(.32) scale(.3 .34)" xlink:href="../../../../../../../Downloads/IMG_4094.JPG"/></g><g id="b"><g><path class="d" d="M912.5,334.5c-57.3,72,319,217-230,268-190.82,17.73-358-115.3-358-278.5S479.86,64.5,671.5,64.5s410.04,57.61,241,270Z"/><path class="e" d="M970.5,637c9.92,106.83-145.9,281.39-262,161.5-69.24-71.5-248.43,9.05-261-161.5-7.37-99.97,117.08-181.5,261.5-181.5s252.23,81.69,261.5,181.5Z"/><ellipse class="d" cx="815" cy="847.5" rx="128.5" ry="123"/><ellipse class="f" cx="816" cy="847.5" rx="119.5" ry="113"/><polygon class="c" points="800.83 889.77 800.96 855.77 801.08 821.78 832.48 838.89 863.88 856 832.36 872.88 800.83 889.77"/></g><g><path class="h" d="M521.2,348.9c-19.54,14.33-36.95,14-50.02,15.09-.59-4.96-1.25-9.99-1.97-14.97,9.79,2.28,18.81,3.88,22.81,3.88,13.35,0,13.34-12.47,13.34-19.97s-12.49-17.58-25.84-17.58c-5.69,0-10.02,3.2-14.53,6.93-.18-7.99,3.89-16.43,8.43-24.05,2.93,.91,5.81,2.07,8.6,3.54,52.93,27.96,55.02-17.86,55.02-35.95s-24.95-28.76-54.18-28.76c-25.87,0-52.94,22.12-58.83,39.74-4.33,4.99-7.03,21.1-7.03,64.12,0,28.18,36.94,84.93,51.39,83.7,6.13,2.18,13.68,3.38,22.8,3.38,33.38,0,76.24-19.2,76.69-37.95,.45-19.2,12.69-84.68-46.68-41.15Z"/><path class="j" d="M629.98,320.94c-17.72,0-27.23,8.76-31.26,13.58-1.36,1.63-3.1,4.13-4.67,6.95-3.04-7.24-6.54-11.75-10.75-11.75-9.44,0-12.09,21.32-12.09,47.14s18.9,39.15,28.34,39.15,9.17-13.58,4.17-38.35c-1.11-5.51-2.26-10.9-3.48-15.95,6.25-.16,15.85-2.66,30.15-8.82,16.17-6.96,30.84,25.57,34.18-12.78,.54-6.16-16.87-19.17-34.59-19.17Z"/><g><ellipse class="g" cx="677.07" cy="304.56" rx="21.67" ry="23.57"/><path class="g" d="M678.74,328.13c-8.52,0-15.84,28.46-15.84,52.73s17.32,46.34,25.84,46.34,14.17-22.87,14.17-47.14-15.66-51.93-24.17-51.93Z"/></g><path class="i" d="M747.09,363.29c100.75-61.45,19.78-73.82,10-67.11-68.13,46.76-54.37,108.82-36.68,119.84,16.67,10.39,105.03-12.78,107.53-26.37s-90.03-20.77-80.86-26.37Z"/><g><path class="h" d="M582.88,126c-17.74,0-32.66,6.53-37.04,15.39-5.06,6.51-8.81,29.87-8.81,57.71,0,32.87,5.53,57.65,11.67,59.52,68.42,20.86,6.62-23.86,11.91-53.07,2.85-.02,6.52-.46,10.6-.46,9.44,0,10.14,4.31,13.34-.8,2.5-3.99-3.48-13.58-12.92-13.58-1.56,0-3.06,.14-4.49,.39,2.27-5.51,3.34-10.67,3.55-15.44,5.21,2.38,10.79,3.87,16.37,3.87,21.18,0,23.34-14.89,23.34-26.37s-6.33-27.16-27.51-27.16Z"/><path class="i" d="M752.93,142.78c-44.79-2.14-55.11,23.74-4.17,60.72,5.86,4.25,9.11,9.29,10.73,14.6-4.43-7.37-11.87-12.21-20.31-12.21-13.58,0-24.59,12.52-24.59,27.96s11.01,27.96,24.59,27.96c6.4,0,12.23-2.79,16.61-7.35-.89,4.52-.59,7.35,2.98,7.35,13.12,0,30.84-24.79,30.84-58.32s-23.57-60.09-36.68-60.72Z"/><g><path class="g" d="M686.24,232.26c-6.63,2.21-13.06,2.67-18.56,2.8-.89-2.51-2.42-5.76-4.78-10-1.09-1.94-.89-3.93,.05-5.85,6.27,.39,15.4-.54,23.29-.54,13.58,0,22.51-8.42,22.51-14.38s-7.68-13.58-21.26-13.58-30.38,17.1-31.96,23.85c-1.66,2.61-3.13,5.92-4.3,10.1-1.1,3.96-2.56,13.3,.29,17.82,2.18,9.39,16.89,24.12,34.72,24.12,19.34,0,32.51-14.92,32.51-23.97s-13.34-16.78-32.51-10.39Z"/><ellipse class="d" cx="692.08" cy="202.7" rx="5" ry="4.79"/></g><g><path class="j" d="M617.47,228.66c-6.63,2.21-13.06,2.67-18.56,2.8-.89-2.51-2.42-5.76-4.78-10-1.09-1.94-.89-3.93,.05-5.85,6.27,.39,15.4-.54,23.29-.54,13.58,0,22.51-8.42,22.51-14.38s-7.68-13.58-21.26-13.58-30.38,17.1-31.96,23.85c-1.66,2.61-3.13,5.92-4.3,10.1-1.1,3.96-2.56,13.3,.29,17.82,2.18,9.39,16.89,24.12,34.72,24.12,19.34,0,32.51-14.92,32.51-23.97s-13.34-16.78-32.51-10.39Z"/><ellipse class="d" cx="621.64" cy="202.3" rx="5" ry="4.79"/></g><ellipse class="d" cx="741.26" cy="234.26" rx="7.5" ry="9.19"/></g></g></g></svg>