<?xml version="1.0" encoding="UTF-8"?><svg id="a" xmlns="http://www.w3.org/2000/svg" width="1000" height="500" viewBox="0 0 1000 500"><defs><style>.b{fill:#f4000d;}.c{fill:#ed7b33;}.d{fill:#ff7bac;}.e{fill:#ff931e;}.f{fill:#ff93aa;}.g{fill:#744500;}.h{fill:#b47143;}.i{fill:#8cc63f;}.j{fill:#b22f34;}.k{fill:#bbcad2;}.l{fill:#c49a6d;}.m{fill:#42210b;}.n{fill:#3c91bb;}.o{fill:#5b9c1a;}.p{fill:#7ac4fb;}.q{fill:#f0d6a5;stroke:#bf9b71;stroke-miterlimit:10;}</style></defs><rect class="o" x="35" y="96.42" width="117.08" height="131.38"/><rect class="i" x="152.08" y="96.42" width="117.08" height="131.38"/><rect class="e" x="269.17" y="96.42" width="117.08" height="131.38"/><rect class="c" x="382.42" y="96.42" width="117.08" height="131.38"/><rect class="m" x="846.83" y="273.12" width="117.08" height="131.38"/><rect class="g" x="733.21" y="273.12" width="117.08" height="131.38"/><rect class="d" x="734.63" y="96.42" width="117.08" height="131.38"/><rect class="b" x="499.98" y="96.42" width="117.08" height="131.38"/><rect class="q" x="386.93" y="273.12" width="117.08" height="131.38"/><rect class="k" x="35" y="273.12" width="117.08" height="131.38"/><rect class="l" x="504.5" y="273.12" width="117.08" height="131.38"/><rect class="n" x="268.69" y="273.12" width="117.08" height="131.38"/><rect class="f" x="846.92" y="96.42" width="117.08" height="131.38"/><rect class="p" x="152.08" y="273.12" width="117.08" height="131.38"/><rect class="j" x="617.54" y="96.42" width="117.08" height="131.38"/><rect class="h" x="618.72" y="273.12" width="117.08" height="131.38"/></svg>